<svg width="23" height="23" viewBox="0 0 23 23" fill="none" xmlns="http://www.w3.org/2000/svg">
<path fill-rule="evenodd" clip-rule="evenodd" d="M0 10.7812H14.9817L9.15971 4.81445L10.1886 3.81055L17.2017 10.998L17.6914 11.5L17.2017 12.002L10.1886 19.1895L9.15971 18.1855L14.9817 12.2188H0C0.00225241 14.0743 0.0229458 15.0904 0.213061 15.948C0.970098 19.3627 3.637 22.0296 7.05177 22.7867C8.01406 23 9.17595 23 11.4997 23C13.8235 23 14.9854 23 15.9477 22.7867C19.3625 22.0296 22.0294 19.3627 22.7864 15.948C22.9997 14.9857 22.9997 13.8238 22.9997 11.5C22.9997 9.17623 22.9997 8.01434 22.7864 7.05204C22.0294 3.63727 19.3625 0.970373 15.9477 0.213336C14.9854 0 13.8235 0 11.4997 0C9.17595 0 8.01406 0 7.05177 0.213336C3.637 0.970373 0.970098 3.63727 0.213061 7.05204C0.0229458 7.9096 0.00225241 8.92566 0 10.7812Z" fill="#3A33D9"/>
</svg>
