<svg width="23" height="23" viewBox="0 0 23 23" fill="none" xmlns="http://www.w3.org/2000/svg">
<rect width="23" height="23" fill="white" fill-opacity="0.01"/>
<path fill-rule="evenodd" clip-rule="evenodd" d="M0.213336 7.05204C0 8.01434 0 9.17623 0 11.5C0 13.8238 0 14.9857 0.213336 15.948C0.970373 19.3627 3.63727 22.0296 7.05204 22.7867C8.01434 23 9.17623 23 11.5 23C13.8238 23 14.9857 23 15.948 22.7867C19.3627 22.0296 22.0296 19.3627 22.7867 15.948C22.9768 15.0904 22.9975 14.0743 22.9997 12.2188H7.45552L13.2775 18.1855L12.2486 19.1895L5.23556 12.002L4.74579 11.5L5.23556 10.998L12.2486 3.81055L13.2775 4.81445L7.45552 10.7812H22.9997C22.9975 8.92566 22.9768 7.9096 22.7867 7.05204C22.0296 3.63727 19.3627 0.970373 15.948 0.213336C14.9857 0 13.8238 0 11.5 0C9.17623 0 8.01434 0 7.05204 0.213336C3.63727 0.970373 0.970373 3.63727 0.213336 7.05204Z" fill="#27AE60"/>
</svg>
