<svg width="23" height="23" viewBox="0 0 23 23" fill="none" xmlns="http://www.w3.org/2000/svg">
<rect width="23" height="23" fill="white" fill-opacity="0.01"/>
<path fill-rule="evenodd" clip-rule="evenodd" d="M5.85932 15.9232L6.8158 16.796L5.9741 17.7799C5.62303 18.1903 5.24448 18.5861 4.82093 18.9947C6.61992 19.2057 8.27661 19.0161 9.65415 18.3111L10.0649 18.1009L10.5178 18.1887C11.1964 18.3203 11.9062 18.3904 12.6379 18.3904C17.871 18.3904 21.6629 14.9256 21.6629 11.1572C21.6629 7.3887 17.871 3.92396 12.6379 3.92396C7.40479 3.92396 3.61292 7.3887 3.61292 11.1572C3.61292 12.942 4.4278 14.6169 5.85932 15.9232ZM4.3553 17.5714C4.5698 17.3498 4.76923 17.1316 4.95807 16.9108C3.29131 15.3898 2.27588 13.3716 2.27588 11.1572C2.27588 6.42395 6.91512 2.58691 12.6379 2.58691C18.3607 2.58691 23 6.42395 23 11.1572C23 15.8904 18.3607 19.7274 12.6379 19.7274C11.8208 19.7274 11.0258 19.6492 10.2633 19.5013C8.50119 20.4031 6.4524 20.5712 4.37883 20.2862C3.32451 20.1413 3.03885 18.8482 3.8085 18.1132C3.8887 18.0366 3.96685 17.9609 4.0431 17.8859C4.15079 17.7799 4.2547 17.6753 4.3553 17.5714ZM8.06801 12.4225C8.78657 12.4225 9.36907 11.84 9.36907 11.1214C9.36907 10.4029 8.78657 9.82035 8.06801 9.82035C7.34945 9.82035 6.76694 10.4029 6.76694 11.1214C6.76694 11.84 7.34945 12.4225 8.06801 12.4225ZM13.6915 11.1214C13.6915 11.84 13.109 12.4225 12.3904 12.4225C11.6718 12.4225 11.0893 11.84 11.0893 11.1214C11.0893 10.4029 11.6718 9.82035 12.3904 9.82035C13.109 9.82035 13.6915 10.4029 13.6915 11.1214ZM16.7133 12.4225C17.4319 12.4225 18.0144 11.84 18.0144 11.1214C18.0144 10.4029 17.4319 9.82035 16.7133 9.82035C15.9948 9.82035 15.4123 10.4029 15.4123 11.1214C15.4123 11.84 15.9948 12.4225 16.7133 12.4225Z" fill="#3A33D9"/>
</svg>
