<svg width="25" height="23" viewBox="0 0 25 23" fill="none" xmlns="http://www.w3.org/2000/svg">
<rect width="25" height="23" fill="white" fill-opacity="0.01"/>
<path fill-rule="evenodd" clip-rule="evenodd" d="M3.36552 15.4835L4.32206 16.3563L3.48033 17.3403C3.20182 17.6659 2.90492 17.9812 2.57961 18.3021C4.13001 18.4525 5.54668 18.2659 6.72916 17.6607L7.13987 17.4505L7.59282 17.5383C8.2093 17.6579 8.8543 17.7215 9.51949 17.7215C14.2873 17.7215 17.7019 14.5688 17.7019 11.1852C17.7019 7.80157 14.2873 4.64881 9.51949 4.64881C4.75169 4.64881 1.33704 7.80157 1.33704 11.1852C1.33704 12.79 2.06942 14.3008 3.36552 15.4835ZM1.91121 17.0773C2.10801 16.874 2.29102 16.6737 2.46431 16.4711C0.932951 15.0738 0 13.2196 0 11.1852C0 6.83681 4.26202 3.31177 9.51949 3.31177C14.777 3.31177 19.039 6.83681 19.039 11.1852C19.039 15.5335 14.777 19.0586 9.51949 19.0586C8.76898 19.0586 8.03876 18.9867 7.33832 18.8509C5.77612 19.6505 3.96861 19.8223 2.13206 19.598C1.07931 19.4694 0.79336 18.1869 1.54594 17.4431L1.55376 17.4354C1.67809 17.3143 1.79698 17.1953 1.91121 17.0773ZM5.32126 12.3476C5.98139 12.3476 6.51653 11.8124 6.51653 11.1523C6.51653 10.4922 5.98139 9.95701 5.32126 9.95701C4.66112 9.95701 4.12598 10.4922 4.12598 11.1523C4.12598 11.8124 4.66112 12.3476 5.32126 12.3476ZM10.4874 11.1523C10.4874 11.8124 9.95221 12.3476 9.29208 12.3476C8.63194 12.3476 8.0968 11.8124 8.0968 11.1523C8.0968 10.4922 8.63194 9.95701 9.29208 9.95701C9.95221 9.95701 10.4874 10.4922 10.4874 11.1523ZM13.2633 12.3476C13.9235 12.3476 14.4586 11.8124 14.4586 11.1523C14.4586 10.4922 13.9235 9.95701 13.2633 9.95701C12.6032 9.95701 12.0681 10.4922 12.0681 11.1523C12.0681 11.8124 12.6032 12.3476 13.2633 12.3476Z" fill="#3A33D9"/>
</svg>
