<svg width="25" height="23" viewBox="0 0 25 23" fill="none" xmlns="http://www.w3.org/2000/svg">
<rect width="25" height="23" fill="white" fill-opacity="0.01"/>
<path fill-rule="evenodd" clip-rule="evenodd" d="M9.32646 15.4835L10.283 16.3563L9.44127 17.3403C9.16275 17.6659 8.86586 17.9812 8.54055 18.3021C10.091 18.4525 11.5076 18.2659 12.6901 17.6607L13.1008 17.4505L13.5538 17.5383C14.1702 17.6579 14.8152 17.7215 15.4804 17.7215C20.2482 17.7215 23.6629 14.5688 23.6629 11.1852C23.6629 7.80157 20.2482 4.64881 15.4804 4.64881C10.7126 4.64881 7.29798 7.80157 7.29798 11.1852C7.29798 12.79 8.03036 14.3008 9.32646 15.4835ZM7.87215 17.0773C8.06895 16.874 8.25196 16.6737 8.42525 16.4711C6.89389 15.0738 5.96094 13.2196 5.96094 11.1852C5.96094 6.83681 10.223 3.31177 15.4804 3.31177C20.7379 3.31177 24.9999 6.83681 24.9999 11.1852C24.9999 15.5335 20.7379 19.0586 15.4804 19.0586C14.7299 19.0586 13.9997 18.9867 13.2993 18.8509C11.7371 19.6505 9.92955 19.8223 8.093 19.598C7.04025 19.4694 6.7543 18.1869 7.50687 17.4431L7.5147 17.4354C7.63903 17.3143 7.75791 17.1953 7.87215 17.0773ZM11.2822 12.3476C11.9423 12.3476 12.4775 11.8124 12.4775 11.1523C12.4775 10.4922 11.9423 9.95701 11.2822 9.95701C10.6221 9.95701 10.0869 10.4922 10.0869 11.1523C10.0869 11.8124 10.6221 12.3476 11.2822 12.3476ZM16.4483 11.1523C16.4483 11.8124 15.9131 12.3476 15.253 12.3476C14.5929 12.3476 14.0577 11.8124 14.0577 11.1523C14.0577 10.4922 14.5929 9.95701 15.253 9.95701C15.9131 9.95701 16.4483 10.4922 16.4483 11.1523ZM19.2243 12.3476C19.8844 12.3476 20.4196 11.8124 20.4196 11.1523C20.4196 10.4922 19.8844 9.95701 19.2243 9.95701C18.5641 9.95701 18.029 10.4922 18.029 11.1523C18.029 11.8124 18.5641 12.3476 19.2243 12.3476Z" fill="#25A75C"/>
</svg>
