<svg width="23" height="23" viewBox="0 0 23 23" fill="none" xmlns="http://www.w3.org/2000/svg">
<rect width="23" height="23" fill="white" fill-opacity="0.01"/>
<path fill-rule="evenodd" clip-rule="evenodd" d="M3.58344 15.9232L4.53992 16.796L3.69822 17.7799C3.34715 18.1903 2.96861 18.5861 2.54505 18.9947C4.34405 19.2057 6.00073 19.0161 7.37827 18.3111L7.789 18.1009L8.24195 18.1887C8.92053 18.3203 9.63029 18.3904 10.362 18.3904C15.5952 18.3904 19.387 14.9256 19.387 11.1572C19.387 7.3887 15.5952 3.92396 10.362 3.92396C5.12891 3.92396 1.33704 7.3887 1.33704 11.1572C1.33704 12.942 2.15192 14.6169 3.58344 15.9232ZM2.07943 17.5714C2.29392 17.3498 2.49336 17.1316 2.6822 16.9108C1.01543 15.3898 0 13.3716 0 11.1572C0 6.42395 4.63924 2.58691 10.362 2.58691C16.0848 2.58691 20.7241 6.42395 20.7241 11.1572C20.7241 15.8904 16.0848 19.7274 10.362 19.7274C9.54496 19.7274 8.74996 19.6492 7.98741 19.5013C6.22532 20.4031 4.17652 20.5712 2.10295 20.2862C1.04863 20.1413 0.762974 18.8482 1.53262 18.1132C1.61282 18.0366 1.69097 17.9609 1.76722 17.8859C1.87491 17.7799 1.97882 17.6753 2.07943 17.5714ZM5.79213 12.4225C6.51069 12.4225 7.0932 11.84 7.0932 11.1214C7.0932 10.4029 6.51069 9.82035 5.79213 9.82035C5.07357 9.82035 4.49106 10.4029 4.49106 11.1214C4.49106 11.84 5.07357 12.4225 5.79213 12.4225ZM11.4156 11.1214C11.4156 11.84 10.8331 12.4225 10.1145 12.4225C9.39596 12.4225 8.81345 11.84 8.81345 11.1214C8.81345 10.4029 9.39596 9.82035 10.1145 9.82035C10.8331 9.82035 11.4156 10.4029 11.4156 11.1214ZM14.4374 12.4225C15.156 12.4225 15.7385 11.84 15.7385 11.1214C15.7385 10.4029 15.156 9.82035 14.4374 9.82035C13.7189 9.82035 13.1364 10.4029 13.1364 11.1214C13.1364 11.84 13.7189 12.4225 14.4374 12.4225Z" fill="#3A33D9"/>
</svg>
