<svg width="23" height="23" viewBox="0 0 23 23" fill="none" xmlns="http://www.w3.org/2000/svg">
<rect width="23" height="23" fill="white" fill-opacity="0.01"/>
<path fill-rule="evenodd" clip-rule="evenodd" d="M4.85932 15.9232L5.8158 16.796L4.9741 17.7799C4.62303 18.1903 4.24448 18.5861 3.82093 18.9947C5.61992 19.2057 7.27661 19.0161 8.65415 18.3111L9.06487 18.1009L9.51783 18.1887C10.1964 18.3203 10.9062 18.3904 11.6379 18.3904C16.871 18.3904 20.6629 14.9256 20.6629 11.1572C20.6629 7.3887 16.871 3.92396 11.6379 3.92396C6.40479 3.92396 2.61292 7.3887 2.61292 11.1572C2.61292 12.942 3.4278 14.6169 4.85932 15.9232ZM3.3553 17.5714C3.5698 17.3498 3.76923 17.1316 3.95807 16.9108C2.29131 15.3898 1.27588 13.3716 1.27588 11.1572C1.27588 6.42395 5.91512 2.58691 11.6379 2.58691C17.3607 2.58691 22 6.42395 22 11.1572C22 15.8904 17.3607 19.7274 11.6379 19.7274C10.8208 19.7274 10.0258 19.6492 9.26329 19.5013C7.50119 20.4031 5.4524 20.5712 3.37883 20.2862C2.32451 20.1413 2.03885 18.8482 2.8085 18.1132C2.8887 18.0366 2.96685 17.9609 3.0431 17.8859C3.15079 17.7799 3.2547 17.6753 3.3553 17.5714ZM7.06801 12.4225C7.78657 12.4225 8.36907 11.84 8.36907 11.1214C8.36907 10.4029 7.78657 9.82035 7.06801 9.82035C6.34945 9.82035 5.76694 10.4029 5.76694 11.1214C5.76694 11.84 6.34945 12.4225 7.06801 12.4225ZM12.6915 11.1214C12.6915 11.84 12.109 12.4225 11.3904 12.4225C10.6718 12.4225 10.0893 11.84 10.0893 11.1214C10.0893 10.4029 10.6718 9.82035 11.3904 9.82035C12.109 9.82035 12.6915 10.4029 12.6915 11.1214ZM15.7133 12.4225C16.4319 12.4225 17.0144 11.84 17.0144 11.1214C17.0144 10.4029 16.4319 9.82035 15.7133 9.82035C14.9948 9.82035 14.4123 10.4029 14.4123 11.1214C14.4123 11.84 14.9948 12.4225 15.7133 12.4225Z" fill="#3A33D9"/>
</svg>
