<svg width="23" height="23" viewBox="0 0 23 23" fill="none" xmlns="http://www.w3.org/2000/svg">
<rect width="23" height="23" fill="white" fill-opacity="0.01"/>
<path fill-rule="evenodd" clip-rule="evenodd" d="M0.213336 7.05204C0 8.01434 0 9.17623 0 11.5C0 13.8238 0 14.9857 0.213336 15.948C0.970373 19.3627 3.63727 22.0296 7.05204 22.7867C8.01434 23 9.17623 23 11.5 23C13.8238 23 14.9857 23 15.948 22.7867C19.3627 22.0296 22.0296 19.3627 22.7867 15.948C23 14.9857 23 13.8238 23 11.5C23 9.17623 23 8.01434 22.7867 7.05204C22.0296 3.63727 19.3627 0.970373 15.948 0.213336C14.9857 0 13.8238 0 11.5 0C9.17623 0 8.01434 0 7.05204 0.213336C3.63727 0.970373 0.970373 3.63727 0.213336 7.05204ZM5.04441 16.4577C4.67154 17.1035 4.89282 17.9294 5.53866 18.3023L7.28554 19.3108C8.75091 20.1569 10.6263 19.9754 11.8426 18.758C15.2832 15.3143 17.0319 12.4162 18.1823 7.83645C18.5927 6.20268 17.8011 4.54664 16.3746 3.72304L14.5606 2.67576C13.9148 2.30288 13.0889 2.52417 12.7161 3.17L10.908 6.30163C10.5352 6.94747 10.7564 7.7733 11.4023 8.14618L13.0918 9.12162C12.9095 10.222 12.6598 11.0204 12.2561 11.7204C11.8508 12.4232 11.2717 13.0587 10.3828 13.8052L8.697 12.8318C8.05116 12.459 7.22533 12.6802 6.85246 13.3261L5.04441 16.4577ZM6.04178 17.4308C5.87723 17.3358 5.82084 17.1254 5.91585 16.9608L7.7239 13.8292C7.8189 13.6646 8.02932 13.6083 8.19388 13.7033L10.182 14.8511L10.4815 15.024L10.7502 14.8063C11.8354 13.9272 12.5952 13.1464 13.1277 12.2231C13.661 11.2986 13.9441 10.2697 14.1398 8.93102L14.1891 8.59324L13.8935 8.42256L11.9054 7.27474C11.7408 7.17973 11.6845 6.96931 11.7795 6.80476L13.5875 3.67313C13.6825 3.50857 13.8929 3.45219 14.0575 3.5472L15.8714 4.59448C16.9414 5.21222 17.4983 6.42923 17.2064 7.5913C16.1049 11.9763 14.457 14.7176 11.1308 18.0468C10.2566 18.9218 8.88471 19.0722 7.78867 18.4394L6.04178 17.4308Z" fill="#3A33D9"/>
</svg>
