<svg width="23" height="23" viewBox="0 0 23 23" fill="none" xmlns="http://www.w3.org/2000/svg">
<rect width="23" height="23" fill="white" fill-opacity="0.01"/>
<path fill-rule="evenodd" clip-rule="evenodd" d="M9 0C4.02944 0 0 4.02944 0 9V14C0 18.9706 4.02944 23 9 23H14C18.9706 23 23 18.9706 23 14V9C23 4.02944 18.9706 0 14 0H9ZM10.1639 16.7588V12.0403C11.466 12.0138 12.845 11.8578 13.8708 10.9724C14.8632 10.1159 15.0286 8.99165 15.0286 7.76298C15.0286 5.70496 13.3445 4.53632 11.4054 4.53632C9.24489 4.53632 7.85851 5.86187 7.27163 7.85098L6.17216 7.58278C6.87678 5.10774 8.76031 3.46627 11.4054 3.46627C14.1183 3.46627 16.2226 5.22849 16.2226 8.02405C16.2226 9.48119 15.779 10.6736 14.8648 11.5656C14.0089 12.4007 12.8208 12.8942 11.3335 13.0724V16.7588H10.1639ZM9.77467 19.0251C9.77467 18.4524 10.199 18.1222 10.7487 18.1222C11.2983 18.1222 11.7227 18.4524 11.7227 19.0251C11.7227 19.6363 11.4278 20.1178 10.7487 20.1178C10.0696 20.1178 9.77467 19.6363 9.77467 19.0251Z" fill="#3A33D9"/>
</svg>
