<svg width="23" height="23" viewBox="0 0 23 23" fill="none" xmlns="http://www.w3.org/2000/svg">
<rect width="23" height="23" fill="white" fill-opacity="0.01"/>
<path fill-rule="evenodd" clip-rule="evenodd" d="M9 0C4.02944 0 0 4.02944 0 9V14C0 18.9706 4.02944 23 9 23H14C16.2265 23 18.2642 22.1915 19.8355 20.852L15.8101 16.8266C12.9659 19.1605 8.75957 18.9994 6.10343 16.3433C3.27579 13.5156 3.2758 8.93109 6.10345 6.10344C8.9311 3.27579 13.5156 3.2758 16.3433 6.10346C18.9994 8.7596 19.1605 12.966 16.8266 15.8102L20.852 19.8356C22.1915 18.2643 23 16.2266 23 14V9C23 4.02944 18.9706 0 14 0H9ZM15.3268 7.11992C13.0605 4.85365 9.38618 4.85364 7.11991 7.11991C4.85364 9.38618 4.85364 13.0605 7.1199 15.3268C9.38617 17.5931 13.0605 17.5931 15.3268 15.3268C17.5931 13.0606 17.5931 9.3862 15.3268 7.11992Z" fill="#3A33D9"/>
</svg>
