<svg width="23" height="23" viewBox="0 0 23 23" fill="none" xmlns="http://www.w3.org/2000/svg">
<rect width="23" height="23" fill="white" fill-opacity="0.01"/>
<path fill-rule="evenodd" clip-rule="evenodd" d="M0.213336 7.05204C0 8.01434 0 9.17623 0 11.5C0 13.8238 0 14.9857 0.213336 15.948C0.970373 19.3627 3.63727 22.0296 7.05204 22.7867C8.01434 23 9.17623 23 11.5 23C13.8238 23 14.9857 23 15.948 22.7867C17.4117 22.4622 18.738 21.7867 19.8354 20.8519L15.8101 16.8266C12.9659 19.1605 8.75957 18.9994 6.10343 16.3433C3.27579 13.5156 3.2758 8.93109 6.10345 6.10344C8.9311 3.27579 13.5156 3.2758 16.3433 6.10346C18.9994 8.7596 19.1605 12.966 16.8266 15.8102L20.8519 19.8355C21.7867 18.7381 22.4622 17.4117 22.7867 15.948C23 14.9857 23 13.8238 23 11.5C23 9.17623 23 8.01434 22.7867 7.05204C22.0296 3.63727 19.3627 0.970373 15.948 0.213336C14.9857 0 13.8238 0 11.5 0C9.17623 0 8.01434 0 7.05204 0.213336C3.63727 0.970373 0.970373 3.63727 0.213336 7.05204ZM15.3268 7.11992C13.0605 4.85365 9.38618 4.85364 7.11991 7.11991C4.85364 9.38618 4.85364 13.0605 7.1199 15.3268C9.38617 17.5931 13.0605 17.5931 15.3268 15.3268C17.5931 13.0606 17.5931 9.3862 15.3268 7.11992Z" fill="#27AE60"/>
</svg>
