<svg width="23" height="23" viewBox="0 0 23 23" fill="none" xmlns="http://www.w3.org/2000/svg">
<rect width="23" height="23" fill="white" fill-opacity="0.01"/>
<path fill-rule="evenodd" clip-rule="evenodd" d="M0.213336 7.05204C0 8.01434 0 9.17623 0 11.5C0 13.8238 0 14.9857 0.213336 15.948C0.970373 19.3627 3.63727 22.0296 7.05204 22.7867C8.01434 23 9.17623 23 11.5 23C13.8238 23 14.9857 23 15.948 22.7867C19.3627 22.0296 22.0296 19.3627 22.7867 15.948C23 14.9857 23 13.8238 23 11.5C23 9.17623 23 8.01434 22.7867 7.05204C22.0296 3.63727 19.3627 0.970373 15.948 0.213336C14.9857 0 13.8238 0 11.5 0C9.17623 0 8.01434 0 7.05204 0.213336C3.63727 0.970373 0.970373 3.63727 0.213336 7.05204ZM17.3116 4.77426L11.5 10.5859L5.6884 4.77426L4.67193 5.79073L10.4835 11.6023L4.67193 17.4139L5.6884 18.4304L11.5 12.6188L17.3116 18.4304L18.3281 17.4139L12.5165 11.6023L18.3281 5.79073L17.3116 4.77426Z" fill="#27AE60"/>
</svg>
