<svg width="23" height="23" viewBox="0 0 23 23" fill="none" xmlns="http://www.w3.org/2000/svg">
<rect width="23" height="23" fill="white" fill-opacity="0.01"/>
<path fill-rule="evenodd" clip-rule="evenodd" d="M9 0C4.02944 0 0 4.02944 0 9V14C0 18.9706 4.02944 23 9 23H14C18.9706 23 23 18.9706 23 14V9C23 4.02944 18.9706 0 14 0H9ZM17.3116 4.77426L11.5 10.5859L5.6884 4.77426L4.67193 5.79073L10.4835 11.6023L4.67193 17.4139L5.6884 18.4304L11.5 12.6188L17.3116 18.4304L18.3281 17.4139L12.5165 11.6023L18.3281 5.79073L17.3116 4.77426Z" fill="#3A33D9"/>
</svg>
