<svg width="255" height="91" viewBox="0 0 255 91" fill="none" xmlns="http://www.w3.org/2000/svg">
<path d="M44.1612 20.9653C44.1612 25.5837 38.6829 29.6635 38.6829 29.6635C38.6829 29.6635 33.2046 25.5837 33.2046 20.9653C33.2046 17.9397 35.6573 15.4869 38.6829 15.4869C41.7085 15.4869 44.1612 17.9397 44.1612 20.9653Z" fill="#3A33D9"/>
<path fill-rule="evenodd" clip-rule="evenodd" d="M183.688 45.9592C183.688 45.9592 201.449 32.733 201.449 17.7603C201.449 7.95154 193.497 0 183.688 0C173.88 0 165.928 7.95154 165.928 17.7603C165.928 32.733 183.688 45.9592 183.688 45.9592ZM183.689 26.6871C188.464 26.6871 192.335 22.8158 192.335 18.0402C192.335 13.2647 188.464 9.39343 183.689 9.39343C178.913 9.39343 175.042 13.2647 175.042 18.0402C175.042 22.8158 178.913 26.6871 183.689 26.6871Z" fill="#27AE60"/>
<path d="M254.235 53.4513C254.235 59.7674 246.743 65.3468 246.743 65.3468C246.743 65.3468 239.251 59.7674 239.251 53.4513C239.251 49.3135 242.605 45.9592 246.743 45.9592C250.881 45.9592 254.235 49.3135 254.235 53.4513Z" fill="#3A33D9"/>
<path d="M90.9001 13.5672C90.9001 20.0619 83.1963 25.799 83.1963 25.799C83.1963 25.799 75.4924 20.0619 75.4924 13.5672C75.4924 9.31253 78.9416 5.8634 83.1963 5.8634C87.451 5.8634 90.9001 9.31253 90.9001 13.5672Z" fill="#FF0000"/>
<path d="M166.58 75.4116C166.58 80.2765 160.809 84.5741 160.809 84.5741C160.809 84.5741 155.039 80.2765 155.039 75.4116C155.039 72.2245 157.622 69.6408 160.809 69.6408C163.996 69.6408 166.58 72.2245 166.58 75.4116Z" fill="#FF0000"/>
<path fill-rule="evenodd" clip-rule="evenodd" d="M60.2118 82.8987C60.2118 82.8987 80.7837 67.5786 80.7837 50.2355C80.7837 38.8739 71.5734 29.6636 60.2118 29.6636C48.8503 29.6636 39.6399 38.8739 39.6399 50.2355C39.6399 67.5786 60.2118 82.8987 60.2118 82.8987ZM60.2119 60.5754C65.7435 60.5754 70.2276 56.0913 70.2276 50.5597C70.2276 45.0282 65.7435 40.544 60.2119 40.544C54.6804 40.544 50.1962 45.0282 50.1962 50.5597C50.1962 56.0913 54.6804 60.5754 60.2119 60.5754Z" fill="#3A33D9"/>
<rect x="168.92" y="55.5201" width="68.0667" height="53.5516" rx="15.1258" transform="rotate(150 168.92 55.5201)" fill="#FF0000"/>
<path d="M130.976 45.4063L139.475 47.6668L147.973 49.9273L152.223 51.0575M120.185 51.6363L117.893 60.1267L115.602 68.6171L114.456 72.8623M121.331 47.3911V47.3911C121.965 45.044 124.377 43.6512 126.726 44.2761V44.2761M99.8335 47.5357L104.023 48.5626L112.403 50.6163L124.717 53.6344C127.202 54.2434 129.725 52.7865 130.44 50.3301L133.984 38.1564L136.395 29.8727L137.6 25.7309M134.891 64.6476L152.336 54.576C154.62 53.257 155.403 50.3357 154.084 48.0511L141.194 25.7257C139.875 23.4411 136.954 22.6584 134.669 23.9774L117.225 34.049L99.7804 44.1206C97.4958 45.4396 96.713 48.3609 98.032 50.6455L110.922 72.9709C112.241 75.2555 115.162 76.0382 117.447 74.7192L134.891 64.6476Z" stroke="white" stroke-width="2.38828"/>
<path d="M194.19 57.745C192.014 55.5688 188.485 55.5688 186.309 57.745L178.173 65.8811C175.997 68.0573 175.997 71.5857 178.173 73.762L183.622 79.2108C187.636 83.2246 193.822 84.2114 198.752 81.3983C217.307 70.8113 227.636 60.8783 237.536 42.7948C240.192 37.942 239.132 31.9453 235.22 28.0333L229.561 22.3743C227.384 20.198 223.856 20.198 221.68 22.3743L213.544 30.5103C211.367 32.6866 211.367 36.215 213.544 38.3912L219.082 43.9299C214.619 54.2861 210.393 58.5335 199.728 63.2837L194.19 57.745Z" fill="#FF0000"/>
<path d="M194.19 57.745C192.014 55.5688 188.485 55.5688 186.309 57.745L178.173 65.8811C175.997 68.0573 175.997 71.5857 178.173 73.762L183.622 79.2108C187.636 83.2246 193.822 84.2114 198.752 81.3983C217.307 70.8113 227.636 60.8783 237.536 42.7948C240.192 37.942 239.132 31.9453 235.22 28.0333L229.561 22.3743C227.384 20.198 223.856 20.198 221.68 22.3743L213.544 30.5103C211.367 32.6866 211.367 36.215 213.544 38.3912L219.082 43.9299C214.619 54.2861 210.393 58.5335 199.728 63.2837L194.19 57.745Z" fill="#3A33D9"/>
<path d="M23.7057 53.0203C25.6077 51.9179 28.0432 52.5662 29.1455 54.4682L31.4086 58.3731C32.4005 60.0845 31.8172 62.276 30.1057 63.2679C25.6866 65.8291 20.0362 65.3014 16.5446 61.5734C10.87 55.5147 7.54802 49.9881 5.23691 42.3165C3.76866 37.4428 6.20554 32.3412 10.6095 29.7889C12.3594 28.7747 14.6002 29.3711 15.6144 31.121L17.8371 34.9562C18.9394 36.8582 18.2912 39.2937 16.3892 40.3961L15.9866 40.6294C14.5759 41.447 13.7722 43.0513 14.1436 44.639C14.9436 48.0585 16.2634 50.3323 18.8979 52.8171C20.0969 53.948 21.9078 54.0622 23.3338 53.2358L23.7057 53.0203Z" fill="#FF0000"/>
<path d="M23.7057 53.0203C25.6077 51.9179 28.0432 52.5662 29.1455 54.4682L31.4086 58.3731C32.4005 60.0845 31.8172 62.276 30.1057 63.2679C25.6866 65.8291 20.0362 65.3014 16.5446 61.5734C10.87 55.5147 7.54802 49.9881 5.23691 42.3165C3.76866 37.4428 6.20554 32.3412 10.6095 29.7889C12.3594 28.7747 14.6002 29.3711 15.6144 31.121L17.8371 34.9562C18.9394 36.8582 18.2912 39.2937 16.3892 40.3961L15.9866 40.6294C14.5759 41.447 13.7722 43.0513 14.1436 44.639C14.9436 48.0585 16.2634 50.3323 18.8979 52.8171C20.0969 53.948 21.9078 54.0622 23.3338 53.2358L23.7057 53.0203Z" fill="#27AE60"/>
</svg>
