<svg width="232" height="128" viewBox="0 0 232 128" fill="none" xmlns="http://www.w3.org/2000/svg">
<path fill-rule="evenodd" clip-rule="evenodd" d="M76.7213 10.0302C74.8733 12.6542 74.8733 16.3623 74.8733 23.7784C74.8733 31.1946 74.8733 34.9027 76.7213 37.5267C77.3911 38.4777 78.2197 39.3063 79.1707 39.9761C81.7947 41.8241 85.5028 41.8241 92.919 41.8241H151.805C154.173 41.8241 156.163 41.8241 157.861 41.7639L157.82 41.8241C164.494 41.8241 176.286 41.1909 182.197 35.2793C173.333 35.2793 169.876 29.7927 169.876 24.095L169.85 24.1323C169.85 24.0153 169.85 23.8973 169.85 23.7784C169.85 16.3623 169.85 12.6542 168.002 10.0302C167.333 9.07919 166.504 8.25061 165.553 7.58082C162.929 5.73279 159.221 5.73279 151.805 5.73279H92.9189C85.5028 5.73279 81.7947 5.73279 79.1707 7.58082C78.2197 8.25061 77.3911 9.07919 76.7213 10.0302Z" fill="#FFA800"/>
<path fill-rule="evenodd" clip-rule="evenodd" d="M140.883 67.3804C140.606 68.2559 140.606 69.3353 140.606 71.4941C140.606 73.6529 140.606 74.7322 140.883 75.6078C141.467 77.4571 142.916 78.9058 144.765 79.4902C145.641 79.7668 146.72 79.7668 148.879 79.7668H176.019C176.464 79.7668 176.863 79.7668 177.224 79.7644L177.222 79.7669C181.144 79.7669 188.073 79.3948 191.546 75.9212C186.338 75.9212 184.306 72.6973 184.306 69.3494L184.275 69.396C184.249 68.5185 184.183 67.9119 184.015 67.3804C183.43 65.5311 181.982 64.0824 180.132 63.498C179.257 63.2213 178.177 63.2213 176.019 63.2213H148.879C146.72 63.2213 145.641 63.2213 144.765 63.498C142.916 64.0824 141.467 65.5311 140.883 67.3804Z" fill="#FFA800"/>
<path fill-rule="evenodd" clip-rule="evenodd" d="M196.214 47.085C196.084 47.6147 196.084 48.257 196.084 49.5415C196.084 50.8261 196.084 51.4684 196.214 51.998C196.615 53.6414 197.898 54.9246 199.542 55.3258C200.071 55.4551 200.713 55.4551 201.998 55.4551H219.14C220.078 55.4551 220.673 55.4551 221.133 55.4048C224.726 55.2597 229.259 54.7294 231.802 52.9459C226.957 52.9459 225.067 50.8425 225.067 48.6581L225.051 48.6746C225.045 47.9364 225.02 47.4795 224.924 47.085C224.523 45.4416 223.24 44.1584 221.596 43.7572C221.067 43.6279 220.424 43.6279 219.14 43.6279H201.998C200.713 43.6279 200.071 43.6279 199.542 43.7572C197.898 44.1584 196.615 45.4416 196.214 47.085Z" fill="#FFA800"/>
<path fill-rule="evenodd" clip-rule="evenodd" d="M192.519 98.8518C192.454 99.2307 192.454 99.6843 192.454 100.591C192.454 101.499 192.454 101.952 192.519 102.331C192.843 104.227 194.328 105.711 196.223 106.035C196.602 106.1 197.056 106.1 197.963 106.1H214.719C214.864 106.1 214.998 106.1 215.121 106.1L215.121 106.1C217.954 106.1 222.959 105.874 225.468 103.763C221.705 103.763 220.238 101.803 220.238 99.7686L220.225 99.7853C220.219 99.3741 220.205 99.0973 220.163 98.8518C219.839 96.9564 218.354 95.4717 216.459 95.1479C216.08 95.0831 215.626 95.0831 214.719 95.0831H197.963C197.056 95.0831 196.602 95.0831 196.223 95.1479C194.328 95.4717 192.843 96.9564 192.519 98.8518Z" fill="#FFA800"/>
<path fill-rule="evenodd" clip-rule="evenodd" d="M117.882 60.349C119.078 62.587 119.078 65.5435 119.078 71.4565C119.078 77.3695 119.078 80.3259 117.882 82.564C116.937 84.3311 115.49 85.7784 113.723 86.7229C111.485 87.9192 108.529 87.9192 102.616 87.9192H29.7998C28.0854 87.9192 26.6195 87.9192 25.3476 87.89L25.3675 87.9192C18.6937 87.9192 6.90161 87.2861 0.990021 81.3745C9.85455 81.3745 13.3117 75.8878 13.3117 70.1902L13.3375 70.2281C13.3432 65.1228 13.4229 62.4264 14.5333 60.349C15.4778 58.5819 16.9252 57.1346 18.6923 56.19C20.9303 54.9938 23.8868 54.9938 29.7998 54.9938H102.616C108.529 54.9938 111.485 54.9938 113.723 56.19C115.49 57.1346 116.937 58.5819 117.882 60.349Z" fill="#3A33D9"/>
<path fill-rule="evenodd" clip-rule="evenodd" d="M48.9626 24.6712C49.3938 25.6628 49.3938 26.9281 49.3938 29.4589C49.3938 31.9896 49.3938 33.255 48.9626 34.2466C48.4379 35.4535 47.4749 36.4164 46.2681 36.9412C45.2764 37.3723 44.0111 37.3723 41.4803 37.3723H15.5359C14.8732 37.3723 14.2973 37.3723 13.7904 37.3646L13.7957 37.3724C10.3711 37.3724 4.31996 37.0475 1.28643 34.0139C5.83526 34.0139 7.6093 31.1985 7.6093 28.2747L7.62438 28.2969C7.63432 26.5149 7.69409 25.4979 8.05355 24.6712C8.57831 23.4643 9.54126 22.5013 10.7481 21.9766C11.7398 21.5454 13.0051 21.5454 15.5359 21.5454H41.4803C44.0111 21.5454 45.2764 21.5454 46.2681 21.9766C47.4749 22.5013 48.4379 23.4643 48.9626 24.6712Z" fill="#3A33D9"/>
<path fill-rule="evenodd" clip-rule="evenodd" d="M75.473 108.408C75.5255 108.775 75.5255 109.212 75.5255 110.086C75.5255 110.96 75.5255 111.397 75.473 111.764C75.1458 114.05 73.3496 115.846 71.0635 116.173C70.6971 116.226 70.2599 116.226 69.3857 116.226H57.5403C56.6661 116.226 56.229 116.226 55.8625 116.173C55.8019 116.165 55.7417 116.155 55.6818 116.144L55.7372 116.226C53.3315 116.226 49.0807 115.998 46.9498 113.867C50.1452 113.867 51.3914 111.889 51.3914 109.835L51.4006 109.848C51.401 109.129 51.4055 108.74 51.453 108.408C51.7802 106.122 53.5764 104.326 55.8625 103.999C56.229 103.946 56.6661 103.946 57.5403 103.946H69.3857C70.2599 103.946 70.6971 103.946 71.0635 103.999C73.3496 104.326 75.1458 106.122 75.473 108.408Z" fill="#3A33D9"/>
<path d="M113.387 26.4927L115.815 21.9804C117.4 22.7569 118.697 23.1253 119.707 23.0855C120.747 23.0367 121.564 22.4617 122.156 21.3607L122.378 20.9478C122.78 20.2006 122.861 19.5088 122.62 18.8723C122.399 18.2464 121.934 17.7431 121.227 17.3624C120.46 16.9499 119.694 16.8422 118.929 17.0391C118.183 17.2465 117.527 17.6664 116.958 18.2987L114.169 14.8592C114.664 14.3646 115.226 13.9319 115.856 13.5611C116.497 13.1707 117.199 12.902 117.963 12.755C118.757 12.5989 119.601 12.5842 120.496 12.7108C121.411 12.848 122.37 13.1863 123.373 13.7257C124.395 14.2756 125.25 14.9254 125.937 15.6751C126.623 16.4248 127.129 17.229 127.453 18.0877C127.777 18.9464 127.895 19.834 127.808 20.7503C127.74 21.6773 127.463 22.5929 126.977 23.4974C126.532 24.3232 125.993 24.9963 125.358 25.5167C124.723 26.0371 124.032 26.426 123.286 26.6834C122.549 26.9211 121.782 27.0281 120.984 27.0042C120.185 26.9804 119.41 26.8424 118.659 26.5902L117.516 28.7136L113.387 26.4927ZM111.624 34.8605C110.68 34.3529 110.118 33.7717 109.938 33.1171C109.778 32.473 109.867 31.8364 110.205 31.2072L110.586 30.4994C110.924 29.8702 111.406 29.4451 112.032 29.2241C112.678 29.0136 113.472 29.1622 114.416 29.6699C115.36 30.1775 115.912 30.7534 116.073 31.3974C116.253 32.0521 116.174 32.694 115.835 33.3232L115.455 34.031C115.116 34.6602 114.624 35.08 113.979 35.2904C113.353 35.5115 112.568 35.3682 111.624 34.8605Z" fill="white"/>
<path d="M147.72 21.34L144.143 24.9176C142.864 23.7329 141.742 23.0158 140.776 22.7664C139.778 22.517 138.843 22.8288 137.97 23.7017L137.642 24.0291C137.05 24.6215 136.777 25.2528 136.824 25.9231C136.855 26.5778 137.151 27.1858 137.712 27.747C138.32 28.355 139.014 28.6745 139.794 28.7057C140.557 28.7213 141.298 28.5108 142.015 28.0744L143.675 32.1196C143.067 32.447 142.412 32.6964 141.711 32.8679C140.994 33.055 140.253 33.1095 139.49 33.0316C138.695 32.9536 137.892 32.7276 137.081 32.3535C136.255 31.9637 135.444 31.3714 134.649 30.5764C133.839 29.7657 133.215 28.9084 132.779 28.0042C132.342 27.1001 132.093 26.1959 132.03 25.2918C131.968 24.3876 132.108 23.5147 132.451 22.6729C132.779 21.8155 133.301 21.0283 134.018 20.3112C134.673 19.6564 135.374 19.1732 136.122 18.8614C136.871 18.5496 137.634 18.3782 138.414 18.347C139.178 18.3314 139.934 18.4483 140.682 18.6977C141.43 18.9472 142.124 19.2979 142.763 19.75L144.447 18.0664L147.72 21.34ZM151.766 13.9276C152.514 14.6758 152.88 15.3851 152.865 16.0555C152.833 16.7102 152.568 17.287 152.07 17.7858L151.508 18.347C151.01 18.8458 150.433 19.1108 149.778 19.142C149.108 19.1576 148.398 18.7913 147.65 18.043C146.902 17.2948 146.543 16.5933 146.575 15.9385C146.59 15.2682 146.847 14.6836 147.346 14.1848L147.907 13.6236C148.406 13.1248 148.991 12.8676 149.661 12.852C150.316 12.8208 151.017 13.1793 151.766 13.9276Z" fill="white"/>
<path d="M97.3818 19.5818L99.9183 22.5479C98.9305 23.4598 98.3116 24.2799 98.0618 25.0082C97.8101 25.7605 97.9937 26.4985 98.6127 27.2222L98.8448 27.4937C99.2648 27.9848 99.7339 28.2325 100.252 28.2367C100.758 28.2521 101.243 28.0608 101.708 27.6629C102.212 27.2318 102.5 26.7175 102.57 26.12C102.628 25.5335 102.511 24.9514 102.218 24.3738L105.429 23.3398C105.644 23.827 105.797 24.3455 105.886 24.8953C105.987 25.458 105.985 26.0307 105.879 26.6134C105.771 27.2202 105.549 27.824 105.213 28.4249C104.864 29.0369 104.359 29.6248 103.7 30.1884C103.028 30.7632 102.331 31.1912 101.61 31.4726C100.888 31.754 100.178 31.8916 99.479 31.8853C98.7799 31.8789 98.117 31.7186 97.4902 31.4044C96.8505 31.1011 96.2764 30.6523 95.768 30.0578C95.3038 29.5149 94.9743 28.9465 94.7794 28.3523C94.5846 27.7582 94.4985 27.1604 94.5214 26.5591C94.5552 25.9708 94.6905 25.3964 94.9272 24.8359C95.164 24.2754 95.4754 23.763 95.8614 23.2986L94.6677 21.9028L97.3818 19.5818ZM91.9242 16.0258C92.5445 15.4953 93.112 15.2562 93.6265 15.3084C94.1282 15.3717 94.5558 15.6101 94.9095 16.0237L95.3074 16.4889C95.6611 16.9025 95.8303 17.362 95.8149 17.8674C95.7867 18.3838 95.4624 18.9073 94.842 19.4378C94.2217 19.9683 93.6607 20.2019 93.159 20.1387C92.6445 20.0864 92.2103 19.8535 91.8567 19.44L91.4588 18.9747C91.1051 18.5611 90.9424 18.0961 90.9706 17.5797C90.986 17.0743 91.3038 16.5564 91.9242 16.0258Z" fill="white"/>
<circle cx="71.1162" cy="67.5008" r="4.90872" fill="white"/>
<circle cx="52.9108" cy="71.4566" r="6.33181" fill="white"/>
<circle cx="95.9859" cy="67.6763" r="3.81789" fill="white"/>
<circle cx="83.4978" cy="75.45" r="2.72707" fill="white"/>
<circle cx="34.4702" cy="71.3782" r="2.45436" fill="white"/>
<path fill-rule="evenodd" clip-rule="evenodd" d="M98.3428 107.64C97.9758 108.966 97.9758 110.586 97.9758 113.825C97.9758 117.064 97.9758 118.683 98.3428 120.009C99.2924 123.441 101.973 126.122 105.405 127.071C106.731 127.438 108.35 127.438 111.589 127.438H159.078C159.655 127.438 160.18 127.438 160.662 127.436L160.661 127.438C167.334 127.438 179.127 126.805 185.038 120.893C176.174 120.893 172.716 115.407 172.716 109.709L172.636 109.828C172.587 108.944 172.496 108.26 172.324 107.64C171.375 104.209 168.694 101.528 165.262 100.578C163.936 100.211 162.317 100.211 159.078 100.211H111.589C108.35 100.211 106.731 100.211 105.405 100.578C101.973 101.528 99.2924 104.209 98.3428 107.64Z" fill="#FFA800"/>
<path d="M114.771 111.729L119.078 119.315C108.821 118.58 107.866 110.441 114.771 111.729Z" fill="white"/>
<path d="M114.77 111.729L119.078 119.315C123.702 110.13 117.202 105.139 114.77 111.729Z" fill="white"/>
<path d="M154.252 118.293L156.12 111.122C156.221 109.368 151.907 107.542 150.733 110.609C149.617 113.524 153.076 114.603 154.252 118.293Z" fill="white"/>
<path d="M154.252 118.292L156.12 111.122C156.888 109.541 161.544 110.052 161.072 113.302C160.624 116.391 157.078 115.645 154.252 118.292Z" fill="white"/>
<path d="M136.054 109.499L133.905 120.167C120.953 111.366 131.056 102.52 136.054 109.499Z" fill="white"/>
<path d="M136.054 109.499L133.905 120.167C149.253 117.069 143.365 105 136.054 109.499Z" fill="white"/>
</svg>
