<svg viewBox="0 0 178 133" fill="none" xmlns="http://www.w3.org/2000/svg">
<mask id="mask0" mask-type="alpha" maskUnits="userSpaceOnUse" x="0" y="0" width="147" height="133">
<path fill-rule="evenodd" clip-rule="evenodd" d="M11.1809 5.19177H24.9124C25.1975 3.30905 25.5105 1.66876 25.8372 0.377197H121.395L121.846 0.66333H121.893C120.396 6.57993 119.408 18.6756 119.856 29.0104C121.458 65.9375 129.958 95.7131 146.368 120.445H146.344L145.945 121.476H140.453L140.477 121.511C141.552 123.06 142.655 124.598 143.787 126.126L143.42 127.271H138.202C139.29 128.78 140.393 130.289 141.513 131.799H141.496L141.097 132.95H42.6618C20.9179 103.442 4.99013 57.9368 0.378174 18.7779L1.02015 17.9084L1.00952 17.8184H11.5915C11.1964 13.6484 10.8723 9.52049 10.6082 5.45037L11.1828 5.21779L11.1809 5.19177Z" fill="white"/>
</mask>
<g mask="url(#mask0)">
<path d="M0.378174 18.7779L1.05041 17.8674L89.8801 18.7779C97.5954 60.9884 114.698 95.6284 141.499 131.789L141.097 132.95H42.6618C20.9179 103.442 4.99013 57.9368 0.378174 18.7779Z" fill="white"/>
<path d="M1.00952 17.8184H89.0732C96.7886 60.0289 114.711 95.6382 141.513 131.799L43.0482 131.799C21.3042 102.292 5.62148 56.9773 1.00952 17.8184Z" fill="url(#paint0_linear)"/>
<mask id="mask1" mask-type="alpha" maskUnits="userSpaceOnUse" x="1" y="5" width="143" height="127">
<path d="M11.1884 5.2157L10.6086 5.45037C10.8728 9.52053 11.1969 13.6485 11.592 17.8185H1.00952C5.62148 56.9774 21.3042 102.292 43.0482 131.799L141.513 131.799C140.393 130.289 139.29 128.78 138.201 127.271H143.421L143.788 126.126C116.986 89.9647 106.518 47.5776 98.8023 5.36706L11.1884 5.2157Z" fill="white"/>
</mask>
<g mask="url(#mask1)">
<g filter="url(#filter0_dd)">
<path d="M10.6082 5.45037L11.1879 5.2157L98.8018 5.36706C106.517 47.5776 116.986 89.9648 143.787 126.126L143.42 127.271L46.1519 127.271C21.6108 91.105 13.2058 45.4814 10.6082 5.45037Z" fill="white"/>
</g>
</g>
<path d="M11.1809 5.19177H99.2446C106.96 47.4023 116.978 89.9577 143.779 126.119L46.5022 126.119C21.9611 89.9523 13.9812 44.738 11.1809 5.19177Z" fill="url(#paint1_linear)"/>
<mask id="mask2" mask-type="alpha" maskUnits="userSpaceOnUse" x="11" y="0" width="136" height="127">
<path d="M24.9124 5.19165H11.1809C13.9812 44.7378 21.9611 89.9522 46.5022 126.119L143.779 126.119C142.641 124.582 141.533 123.035 140.453 121.476H145.945L146.348 120.436C129.938 95.7033 120.987 66.7906 119.386 29.8634C118.938 19.5286 120.386 6.60275 121.882 0.686149L121.395 0.377197H25.8372C25.5105 1.66873 25.1975 3.30897 24.9124 5.19165Z" fill="white"/>
</mask>
<g mask="url(#mask2)">
<g filter="url(#filter1_dd)">
<path d="M23.5792 29.8634C25.1805 66.7906 34.0859 96.7439 50.4958 121.476L145.945 121.476L146.348 120.436C129.938 95.7033 120.987 66.7906 119.386 29.8634C118.938 19.5286 120.386 6.60275 121.882 0.686149L121.395 0.377197H25.8372C24.3406 6.29379 23.1311 19.5286 23.5792 29.8634Z" fill="white"/>
</g>
</g>
<path d="M50.7881 120.445L146.368 120.445C129.958 95.7131 121.458 65.9375 119.856 29.0104C119.408 18.6756 120.396 6.57993 121.893 0.66333H26.2533C24.7567 6.57993 23.7684 18.6756 24.2166 29.0104C25.8179 65.9375 34.3783 95.7131 50.7881 120.445Z" fill="url(#paint2_linear)"/>
</g>
<g filter="url(#filter2_f)">
<path d="M42.8253 11.2151L51.3089 11.2151L50.4473 20.8485H59.4475L58.4782 31.0274H49.096L48.3421 40.3543H39.5857L40.3396 31.0274H30.958L31.9273 20.8487L41.9638 20.8485L42.8253 11.2151Z" fill="#C6A6A6" fill-opacity="0.74"/>
</g>
<g filter="url(#filter3_f)">
<path d="M43.1848 11.0159L51.4927 11.0159L50.6966 20.1018H59.9439L59.3067 30.2312H50.0594L49.5817 39.371H40.9512L41.4289 30.2312H32.1821L32.8193 20.2094H42.3887L43.1848 11.0159Z" fill="#C5AAAA" fill-opacity="0.85"/>
</g>
<path d="M43.859 9L42.382 10.64V18.7534H44.116V9.26186L43.859 9Z" fill="url(#paint3_linear)"/>
<path d="M44.0242 26.6812L42.3822 26.6812V38.0002L44.0242 36.6338V26.6812Z" fill="url(#paint4_linear)"/>
<path d="M44.0146 36.2112L42.3819 38.0001H51.1384L52.6221 36.3589L52.4828 36.2112H44.0146Z" fill="#BB0000"/>
<path d="M44.0146 36.2112L42.3819 38.0001H51.1384L52.6221 36.3589L52.4828 36.2112H44.0146Z" fill="url(#paint5_linear)"/>
<path d="M52.4233 28.6732L60.5204 28.6731L61.9884 27.0256L61.8208 26.8584L52.4231 26.7795L52.4233 28.6732Z" fill="url(#paint6_linear)"/>
<path d="M33 19.9675L33 28.673L34.7731 27.3831L34.7731 18.6553L34.4743 18.3271L33 19.9675Z" fill="url(#paint7_linear)"/>
<path d="M33 28.673L42.3844 28.673L43.9945 26.8918L34.5932 26.8918L33 28.673Z" fill="url(#paint8_linear)"/>
<path fill-rule="evenodd" clip-rule="evenodd" d="M43.8619 9H52.6183V18.3274H62.0005L62.0005 27.0329H52.6183V36.3601H43.8619V27.0329H34.4803V18.3274H43.8619V9Z" fill="url(#paint9_linear)"/>
<mask id="mask3" mask-type="alpha" maskUnits="userSpaceOnUse" x="67" y="9" width="107" height="106">
<path fill-rule="evenodd" clip-rule="evenodd" d="M129.892 34.5996C119.542 24.2494 103.071 24.2613 93.1016 34.2308C83.132 44.2003 83.1202 60.6715 93.4704 71.0217C103.821 81.3719 120.292 81.36 130.261 71.3905C140.231 61.421 140.243 44.9498 129.892 34.5996ZM80.541 21.6703C97.6238 4.58741 125.343 4.92952 142.453 22.0391C157.405 36.9909 159.552 60.0456 148.455 77.0233L170.871 99.4397C174.34 102.908 174.34 108.532 170.871 112V112C167.402 115.469 161.779 115.469 158.31 112L135.894 89.5839C118.916 100.681 95.8617 98.5341 80.9098 83.5823C63.8002 66.4727 63.4581 38.7531 80.541 21.6703Z" fill="#C4C4C4"/>
<path fill-rule="evenodd" clip-rule="evenodd" d="M142.453 22.0391C125.343 4.92952 97.6238 4.58741 80.541 21.6703C63.4581 38.7531 63.8002 66.4727 80.9098 83.5823C95.8617 98.5341 118.916 100.681 135.894 89.5839L158.31 112C161.779 115.469 167.402 115.469 170.871 112V112C174.34 108.532 174.34 102.908 170.871 99.4397L148.455 77.0233C159.552 60.0456 157.405 36.9909 142.453 22.0391ZM129.892 34.5996C119.542 24.2494 103.071 24.2613 93.1016 34.2308C83.132 44.2003 83.1202 60.6715 93.4704 71.0217C103.821 81.3719 120.292 81.36 130.261 71.3905C140.231 61.421 140.243 44.9498 129.892 34.5996Z" fill="#C4C4C4"/>
</mask>
<g mask="url(#mask3)">
<path fill-rule="evenodd" clip-rule="evenodd" d="M129.892 34.5997C119.542 24.2496 103.071 24.2614 93.1014 34.2309C83.1319 44.2004 83.1201 60.6716 93.4702 71.0218C103.82 81.372 120.292 81.3601 130.261 71.3906C140.231 61.4211 140.242 44.9499 129.892 34.5997ZM80.5409 21.6704C97.6237 4.58752 125.343 4.92963 142.453 22.0392C157.405 36.9911 159.552 60.0457 148.455 77.0234L170.871 99.4398C174.339 102.908 174.339 108.532 170.871 112V112C167.402 115.469 161.779 115.469 158.31 112L135.894 89.584C118.916 100.681 95.8616 98.5343 80.9097 83.5824C63.8001 66.4728 63.458 38.7532 80.5409 21.6704Z" fill="url(#paint10_linear)"/>
<path fill-rule="evenodd" clip-rule="evenodd" d="M142.453 22.0392C125.343 4.92963 97.6237 4.58752 80.5409 21.6704C63.458 38.7532 63.8001 66.4728 80.9097 83.5824C95.8616 98.5343 118.916 100.681 135.894 89.584L158.31 112C161.779 115.469 167.402 115.469 170.871 112V112C174.339 108.532 174.339 102.908 170.871 99.4398L148.455 77.0234C159.552 60.0457 157.405 36.9911 142.453 22.0392ZM129.892 34.5997C119.542 24.2496 103.071 24.2614 93.1014 34.2309C83.1319 44.2004 83.1201 60.6716 93.4702 71.0218C103.82 81.372 120.292 81.3601 130.261 71.3906C140.231 61.4211 140.242 44.9499 129.892 34.5997Z" fill="url(#paint11_linear)"/>
<g filter="url(#filter4_f)">
<path d="M171.899 104.953C171.61 103.334 173.595 102.643 173.924 106.235C174.56 113.19 164.283 118.654 157.978 113.01C148.06 104.13 147.937 102.893 139.568 94.2703C136.991 91.615 137.105 88.2052 140.339 91.5694C146.92 98.4159 152.698 105.059 158.663 110.575C165.163 116.585 172.945 110.801 171.899 104.953Z" fill="#D1F7D0"/>
</g>
<g filter="url(#filter5_f)">
<path d="M92.7077 94.1147C75.408 86.8197 64.2529 67.7809 69.4562 43.6913C69.4562 70.6099 82.0606 85.2678 95.9703 90.6553C112.346 96.998 130.797 90.6553 136.066 85.9401C133.68 94.8069 109.117 101.034 92.7077 94.1147Z" fill="white" fill-opacity="0.74"/>
</g>
<g filter="url(#filter6_f)">
<path d="M168.26 105.934C168.26 104.289 170.594 103.423 170.193 107.008C169.506 113.148 163.507 113.94 159.54 109.825C150.483 100.429 147.201 97.4431 138.833 88.8206C137.542 87.4909 135.127 83.0095 139.191 77.906C136.82 84.2935 139.719 86.7456 140.341 87.3924C146.922 94.2389 154.641 101.979 160.386 107.723C164.4 111.738 168.26 109.687 168.26 105.934Z" fill="white" fill-opacity="0.55"/>
</g>
<g filter="url(#filter7_f)">
<path d="M138.595 55.8475C145.205 28.2768 100.141 9.31927 86.9148 42.7243C105.039 14.2539 138.497 30.1017 138.595 55.8475Z" fill="#239E57"/>
</g>
<g filter="url(#filter8_f)">
<path d="M85.1741 50.1918C78.564 77.7626 123.628 96.72 136.854 63.315C118.731 91.7854 85.2723 75.9376 85.1741 50.1918Z" fill="white"/>
</g>
<g filter="url(#filter9_f)">
<path d="M155.071 57.9167C165.756 13.3496 92.9362 -17.2882 71.5577 36.7106C100.849 -9.31229 154.915 16.3004 155.071 57.9167Z" fill="white" fill-opacity="0.86"/>
</g>
<g filter="url(#filter10_f)">
<path fill-rule="evenodd" clip-rule="evenodd" d="M152.851 79.3384L172.962 99.4749C176.742 103.255 173.672 105.278 169.892 101.498L149.781 81.3613C146.001 77.5815 149.071 75.5586 152.851 79.3384Z" fill="white" fill-opacity="0.52"/>
</g>
<g filter="url(#filter11_f)">
<path fill-rule="evenodd" clip-rule="evenodd" d="M133.472 28.4196C122.893 17.5516 99.6734 17.8356 89.9763 28.4196C78.7847 39.1051 80.3347 63.8844 91.8236 73.5747C100.891 84.9072 123.71 84.5748 135.026 73.5747C146.474 62.8663 145.379 37.9269 133.472 28.4196ZM84.7591 23.565C100.614 7.70903 123.159 8.20318 140.269 25.3127C155.22 40.2646 155.13 59.2504 144.032 76.2281L168.172 98.9959C169.909 100.634 169.912 103.394 168.18 105.037V105.037C166.576 106.557 164.063 106.557 162.459 105.036L138.396 82.2176C121.686 92.9092 101.283 93.6863 86.0927 79.1002C68.9831 61.9907 72.4179 35.9066 84.7591 23.565Z" fill="url(#paint12_linear)"/>
<path fill-rule="evenodd" clip-rule="evenodd" d="M140.269 25.3127C123.159 8.20318 100.614 7.70903 84.7591 23.565C72.4179 35.9066 68.9831 61.9907 86.0927 79.1002C101.283 93.6863 121.686 92.9092 138.396 82.2176L162.459 105.036C164.063 106.557 166.576 106.557 168.18 105.037V105.037C169.912 103.394 169.909 100.634 168.172 98.9959L144.032 76.2281C155.13 59.2504 155.22 40.2646 140.269 25.3127ZM133.472 28.4196C122.893 17.5516 99.6734 17.8356 89.9763 28.4196C78.7847 39.1051 80.3347 63.8844 91.8236 73.5747C100.891 84.9072 123.71 84.5748 135.026 73.5747C146.474 62.8663 145.379 37.9269 133.472 28.4196Z" fill="url(#paint13_linear)"/>
</g>
</g>
<defs>
<filter id="filter0_dd" x="-29.3918" y="-7.78431" width="213.179" height="202.056" filterUnits="userSpaceOnUse" color-interpolation-filters="sRGB">
<feFlood flood-opacity="0" result="BackgroundImageFix"/>
<feColorMatrix in="SourceAlpha" type="matrix" values="0 0 0 0 0 0 0 0 0 0 0 0 0 0 0 0 0 0 127 0"/>
<feOffset dy="8.5763"/>
<feGaussianBlur stdDeviation="8.43282"/>
<feColorMatrix type="matrix" values="0 0 0 0 0.22549 0 0 0 0 0.22549 0 0 0 0 0.22549 0 0 0 0.175955 0"/>
<feBlend mode="normal" in2="BackgroundImageFix" result="effect1_dropShadow"/>
<feColorMatrix in="SourceAlpha" type="matrix" values="0 0 0 0 0 0 0 0 0 0 0 0 0 0 0 0 0 0 127 0"/>
<feOffset dy="27"/>
<feGaussianBlur stdDeviation="20"/>
<feColorMatrix type="matrix" values="0 0 0 0 0.22549 0 0 0 0 0.22549 0 0 0 0 0.22549 0 0 0 0.0621516 0"/>
<feBlend mode="normal" in2="effect1_dropShadow" result="effect2_dropShadow"/>
<feBlend mode="normal" in="SourceGraphic" in2="effect2_dropShadow" result="shape"/>
</filter>
<filter id="filter1_dd" x="-16.5154" y="-12.6228" width="202.864" height="201.099" filterUnits="userSpaceOnUse" color-interpolation-filters="sRGB">
<feFlood flood-opacity="0" result="BackgroundImageFix"/>
<feColorMatrix in="SourceAlpha" type="matrix" values="0 0 0 0 0 0 0 0 0 0 0 0 0 0 0 0 0 0 127 0"/>
<feOffset dy="8.5763"/>
<feGaussianBlur stdDeviation="8.43282"/>
<feColorMatrix type="matrix" values="0 0 0 0 0.22549 0 0 0 0 0.22549 0 0 0 0 0.22549 0 0 0 0.175955 0"/>
<feBlend mode="normal" in2="BackgroundImageFix" result="effect1_dropShadow"/>
<feColorMatrix in="SourceAlpha" type="matrix" values="0 0 0 0 0 0 0 0 0 0 0 0 0 0 0 0 0 0 127 0"/>
<feOffset dy="27"/>
<feGaussianBlur stdDeviation="20"/>
<feColorMatrix type="matrix" values="0 0 0 0 0.22549 0 0 0 0 0.22549 0 0 0 0 0.22549 0 0 0 0.0621516 0"/>
<feBlend mode="normal" in2="effect1_dropShadow" result="effect2_dropShadow"/>
<feBlend mode="normal" in="SourceGraphic" in2="effect2_dropShadow" result="shape"/>
</filter>
<filter id="filter2_f" x="23.958" y="4.21509" width="42.4896" height="43.1392" filterUnits="userSpaceOnUse" color-interpolation-filters="sRGB">
<feFlood flood-opacity="0" result="BackgroundImageFix"/>
<feBlend mode="normal" in="SourceGraphic" in2="BackgroundImageFix" result="shape"/>
<feGaussianBlur stdDeviation="3.5" result="effect1_foregroundBlur"/>
</filter>
<filter id="filter3_f" x="30.1821" y="9.01587" width="31.7618" height="32.3552" filterUnits="userSpaceOnUse" color-interpolation-filters="sRGB">
<feFlood flood-opacity="0" result="BackgroundImageFix"/>
<feBlend mode="normal" in="SourceGraphic" in2="BackgroundImageFix" result="shape"/>
<feGaussianBlur stdDeviation="1" result="effect1_foregroundBlur"/>
</filter>
<filter id="filter4_f" x="133.025" y="85.4303" width="45.6642" height="34.6587" filterUnits="userSpaceOnUse" color-interpolation-filters="sRGB">
<feFlood flood-opacity="0" result="BackgroundImageFix"/>
<feBlend mode="normal" in="SourceGraphic" in2="BackgroundImageFix" result="shape"/>
<feGaussianBlur stdDeviation="2.36844" result="effect1_foregroundBlur"/>
</filter>
<filter id="filter5_f" x="62.2493" y="37.7702" width="79.7376" height="65.2273" filterUnits="userSpaceOnUse" color-interpolation-filters="sRGB">
<feFlood flood-opacity="0" result="BackgroundImageFix"/>
<feBlend mode="normal" in="SourceGraphic" in2="BackgroundImageFix" result="shape"/>
<feGaussianBlur stdDeviation="2.96055" result="effect1_foregroundBlur"/>
</filter>
<filter id="filter6_f" x="133.383" y="74.3533" width="40.4094" height="41.5807" filterUnits="userSpaceOnUse" color-interpolation-filters="sRGB">
<feFlood flood-opacity="0" result="BackgroundImageFix"/>
<feBlend mode="normal" in="SourceGraphic" in2="BackgroundImageFix" result="shape"/>
<feGaussianBlur stdDeviation="1.77633" result="effect1_foregroundBlur"/>
</filter>
<filter id="filter7_f" x="79.9148" y="12.1426" width="71.8179" height="51.3808" filterUnits="userSpaceOnUse" color-interpolation-filters="sRGB">
<feFlood flood-opacity="0" result="BackgroundImageFix"/>
<feBlend mode="normal" in="SourceGraphic" in2="BackgroundImageFix" result="shape"/>
<feGaussianBlur stdDeviation="3.5" result="effect1_foregroundBlur"/>
</filter>
<filter id="filter8_f" x="74.0366" y="44.5159" width="67.8179" height="47.3808" filterUnits="userSpaceOnUse" color-interpolation-filters="sRGB">
<feFlood flood-opacity="0" result="BackgroundImageFix"/>
<feBlend mode="normal" in="SourceGraphic" in2="BackgroundImageFix" result="shape"/>
<feGaussianBlur stdDeviation="2.5" result="effect1_foregroundBlur"/>
</filter>
<filter id="filter9_f" x="63.2683" y="-9.698" width="110.013" height="76.997" filterUnits="userSpaceOnUse" color-interpolation-filters="sRGB">
<feFlood flood-opacity="0" result="BackgroundImageFix"/>
<feBlend mode="normal" in="SourceGraphic" in2="BackgroundImageFix" result="shape"/>
<feGaussianBlur stdDeviation="4.14478" result="effect1_foregroundBlur"/>
</filter>
<filter id="filter10_f" x="143.319" y="72.5839" width="36.1056" height="35.6684" filterUnits="userSpaceOnUse" color-interpolation-filters="sRGB">
<feFlood flood-opacity="0" result="BackgroundImageFix"/>
<feBlend mode="normal" in="SourceGraphic" in2="BackgroundImageFix" result="shape"/>
<feGaussianBlur stdDeviation="2.36844" result="effect1_foregroundBlur"/>
</filter>
<filter id="filter11_f" x="67.2626" y="4.95717" width="109.32" height="108.325" filterUnits="userSpaceOnUse" color-interpolation-filters="sRGB">
<feFlood flood-opacity="0" result="BackgroundImageFix"/>
<feBlend mode="normal" in="SourceGraphic" in2="BackgroundImageFix" result="shape"/>
<feGaussianBlur stdDeviation="3.55267" result="effect1_foregroundBlur"/>
</filter>
<linearGradient id="paint0_linear" x1="73.8914" y1="17.8184" x2="73.8914" y2="131.799" gradientUnits="userSpaceOnUse">
<stop stop-color="#F7F7F7"/>
<stop offset="0.255208" stop-color="#FCFCFC"/>
<stop offset="0.697917" stop-color="#FCFCFC"/>
<stop offset="0.96875" stop-color="#F7F7F7"/>
</linearGradient>
<linearGradient id="paint1_linear" x1="80.6323" y1="5.19177" x2="80.6323" y2="126.119" gradientUnits="userSpaceOnUse">
<stop stop-color="#FAFAFA"/>
<stop offset="0.255208" stop-color="#FCFCFC"/>
<stop offset="0.697917" stop-color="#F5F5F5"/>
<stop offset="1" stop-color="#FAFAFA"/>
</linearGradient>
<linearGradient id="paint2_linear" x1="139.5" y1="-10.5" x2="-2.50001" y2="147" gradientUnits="userSpaceOnUse">
<stop offset="0.182292" stop-color="#E0E0E0"/>
<stop offset="1" stop-color="white" stop-opacity="0"/>
</linearGradient>
<linearGradient id="paint3_linear" x1="43.2488" y1="19.2005" x2="43.2488" y2="7.97069" gradientUnits="userSpaceOnUse">
<stop stop-color="#C96161"/>
<stop offset="1" stop-color="#C73030"/>
</linearGradient>
<linearGradient id="paint4_linear" x1="42.0913" y1="38.3568" x2="42.0913" y2="26.6812" gradientUnits="userSpaceOnUse">
<stop stop-color="#BE5656"/>
<stop offset="1" stop-color="#BB0000"/>
</linearGradient>
<linearGradient id="paint5_linear" x1="48.1116" y1="38.0001" x2="48.1116" y2="36.3589" gradientUnits="userSpaceOnUse">
<stop stop-color="#C08A8A"/>
<stop offset="0.388889" stop-color="#BE5656"/>
<stop offset="1" stop-color="#BB0000"/>
</linearGradient>
<linearGradient id="paint6_linear" x1="49.4269" y1="28.9886" x2="49.4269" y2="26.6139" gradientUnits="userSpaceOnUse">
<stop stop-color="#C08A8A"/>
<stop offset="0.388889" stop-color="#BE5656"/>
<stop offset="1" stop-color="#BB0000"/>
</linearGradient>
<linearGradient id="paint7_linear" x1="33" y1="29.677" x2="33" y2="17.4952" gradientUnits="userSpaceOnUse">
<stop stop-color="#BE5656"/>
<stop offset="1" stop-color="#C12D2D"/>
</linearGradient>
<linearGradient id="paint8_linear" x1="49.4269" y1="28.9886" x2="49.4269" y2="26.6139" gradientUnits="userSpaceOnUse">
<stop stop-color="#C08A8A"/>
<stop offset="0.388889" stop-color="#BE5656"/>
<stop offset="1" stop-color="#BB0000"/>
</linearGradient>
<linearGradient id="paint9_linear" x1="60.442" y1="8.06516" x2="36.1753" y2="36.0114" gradientUnits="userSpaceOnUse">
<stop stop-color="#FFCCCC"/>
<stop offset="1" stop-color="#FF0000"/>
</linearGradient>
<linearGradient id="paint10_linear" x1="119.778" y1="5.6188" x2="104.889" y2="116.814" gradientUnits="userSpaceOnUse">
<stop stop-color="#C5F5D9"/>
<stop offset="0.617401" stop-color="#1A924D"/>
<stop offset="0.829108" stop-color="#10B656"/>
</linearGradient>
<linearGradient id="paint11_linear" x1="119.778" y1="5.6188" x2="104.889" y2="116.814" gradientUnits="userSpaceOnUse">
<stop stop-color="#C5F5D9"/>
<stop offset="0.617401" stop-color="#1A924D"/>
<stop offset="0.829108" stop-color="#10B656"/>
</linearGradient>
<linearGradient id="paint12_linear" x1="119.778" y1="5.61878" x2="104.889" y2="116.814" gradientUnits="userSpaceOnUse">
<stop stop-color="#C1FFDB"/>
<stop offset="1" stop-color="#15C660"/>
</linearGradient>
<linearGradient id="paint13_linear" x1="119.778" y1="5.61878" x2="104.889" y2="116.814" gradientUnits="userSpaceOnUse">
<stop stop-color="#C1FFDB"/>
<stop offset="1" stop-color="#15C660"/>
</linearGradient>
</defs>
</svg>
