<svg width="178" height="133" viewBox="0 0 178 133" fill="none" xmlns="http://www.w3.org/2000/svg">
<mask id="mask0" mask-type="alpha" maskUnits="userSpaceOnUse" x="0" y="0" width="147" height="133">
<path d="M11.1807 5.19165H24.9122C25.1973 3.30897 25.5103 1.66873 25.837 0.377197H121.395L121.846 0.66333H121.893C120.396 6.57993 119.408 18.6756 119.856 29.0104C121.458 65.9375 129.958 95.7131 146.368 120.445H146.344L145.945 121.476H140.454C141.536 123.037 142.647 124.587 143.787 126.126L143.42 127.271H138.201C139.289 128.78 140.393 130.289 141.512 131.799H141.496L141.097 132.95H42.6621C20.9181 103.442 4.99038 57.9368 0.378418 18.7779L1.01997 17.909L1.00928 17.8184H11.5917C11.1967 13.6484 10.8725 9.52041 10.6084 5.45025L11.1825 5.21786L11.1807 5.19165Z" fill="url(#paint0_linear)"/>
</mask>
<g mask="url(#mask0)">
<path d="M0.378418 18.7779L1.05065 17.8674L89.8803 18.7779C97.5956 60.9884 114.698 95.6284 141.5 131.789L141.097 132.95H42.6621C20.9181 103.442 4.99038 57.9368 0.378418 18.7779Z" fill="white"/>
<path d="M1.00928 17.8184H89.073C96.7883 60.0289 114.711 95.6382 141.512 131.799L43.0479 131.799C21.304 102.292 5.62124 56.9773 1.00928 17.8184Z" fill="url(#paint1_linear)"/>
<g filter="url(#filter0_dd)">
<path d="M10.6084 5.45025L11.1882 5.21558L98.802 5.36694C106.517 47.5775 116.986 89.9646 143.787 126.126L143.42 127.271L46.1521 127.271C21.611 91.1049 13.2061 45.4812 10.6084 5.45025Z" fill="white"/>
</g>
<path d="M11.1807 5.19165H99.2444C106.96 47.4022 116.978 89.9576 143.779 126.119L46.5019 126.119C21.9608 89.9522 13.9809 44.7378 11.1807 5.19165Z" fill="url(#paint2_linear)"/>
<g filter="url(#filter1_dd)">
<path d="M23.579 29.8634C25.1803 66.7906 34.0857 96.7439 50.4955 121.476L145.945 121.476L146.348 120.436C129.938 95.7033 120.987 66.7906 119.386 29.8634C118.938 19.5286 120.385 6.60275 121.882 0.686149L121.395 0.377197H25.837C24.3404 6.29379 23.1308 19.5286 23.579 29.8634Z" fill="white"/>
</g>
<path d="M50.7881 120.445L146.368 120.445C129.958 95.7131 121.458 65.9375 119.856 29.0104C119.408 18.6756 120.396 6.57993 121.893 0.66333H26.2533C24.7567 6.57993 23.7684 18.6756 24.2166 29.0104C25.8179 65.9375 34.3783 95.7131 50.7881 120.445Z" fill="url(#paint3_linear)"/>
</g>
<g filter="url(#filter2_f)">
<path d="M42.8253 11.2149L51.3089 11.2148L50.4473 20.8483H59.4475L58.4782 31.0271H49.096L48.3421 40.3541H39.5857L40.3396 31.0271H30.958L31.9273 20.8484L41.9638 20.8483L42.8253 11.2149Z" fill="#C6A6A6" fill-opacity="0.74"/>
</g>
<g filter="url(#filter3_f)">
<path d="M43.1844 11.0159L51.4922 11.0159L50.6961 20.1018H59.9434L59.3062 30.2312H50.0589L49.5813 39.371H40.9507L41.4284 30.2312H32.1816L32.8188 20.2094H42.3882L43.1844 11.0159Z" fill="#C5AAAA" fill-opacity="0.85"/>
</g>
<path d="M43.8592 9L42.3823 10.64V18.7534H44.1162V9.26186L43.8592 9Z" fill="url(#paint4_linear)"/>
<path d="M44.0239 26.681L42.382 26.6809V38L44.0239 36.6336V26.681Z" fill="url(#paint5_linear)"/>
<path d="M44.0146 36.2114L42.3819 38.0003H51.1384L52.6221 36.3591L52.4828 36.2114H44.0146Z" fill="#BB0000"/>
<path d="M44.0146 36.2114L42.3819 38.0003H51.1384L52.6221 36.3591L52.4828 36.2114H44.0146Z" fill="url(#paint6_linear)"/>
<path d="M52.4231 28.6729L60.5202 28.6728L61.9882 27.0253L61.8206 26.8581L52.4229 26.7793L52.4231 28.6729Z" fill="url(#paint7_linear)"/>
<path d="M32.9995 19.9675L32.9995 28.673L34.7726 27.3831L34.7726 18.6553L34.4738 18.3271L32.9995 19.9675Z" fill="url(#paint8_linear)"/>
<path d="M32.9995 28.6728L42.3839 28.6728L43.994 26.8916L34.5928 26.8916L32.9995 28.6728Z" fill="url(#paint9_linear)"/>
<path fill-rule="evenodd" clip-rule="evenodd" d="M43.8614 9H52.6178V18.3276H62L62 27.0331H52.6178V36.3601H43.8614V27.0331H34.4798V18.3276H43.8614V9Z" fill="url(#paint10_linear)"/>
<mask id="mask1" mask-type="alpha" maskUnits="userSpaceOnUse" x="67" y="9" width="107" height="106">
<path fill-rule="evenodd" clip-rule="evenodd" d="M129.892 34.5995C119.542 24.2493 103.071 24.2612 93.1016 34.2307C83.132 44.2002 83.1202 60.6714 93.4704 71.0216C103.821 81.3717 120.292 81.3599 130.261 71.3904C140.231 61.4209 140.243 44.9497 129.892 34.5995ZM80.541 21.6701C97.6238 4.58729 125.343 4.9294 142.453 22.0389C157.405 36.9908 159.552 60.0455 148.455 77.0232L170.871 99.4396C174.34 102.908 174.34 108.532 170.871 112C167.402 115.469 161.779 115.469 158.31 112L135.894 89.5838C118.916 100.681 95.8617 98.534 80.9098 83.5821C63.8002 66.4726 63.4581 38.753 80.541 21.6701Z" fill="#C4C4C4"/>
<path fill-rule="evenodd" clip-rule="evenodd" d="M142.453 22.0389C125.343 4.9294 97.6238 4.58729 80.541 21.6701C63.4581 38.753 63.8002 66.4726 80.9098 83.5821C95.8617 98.534 118.916 100.681 135.894 89.5838L158.31 112C161.779 115.469 167.402 115.469 170.871 112C174.34 108.532 174.34 102.908 170.871 99.4396L148.455 77.0232C159.552 60.0455 157.405 36.9908 142.453 22.0389ZM129.892 34.5995C119.542 24.2493 103.071 24.2612 93.1016 34.2307C83.132 44.2002 83.1202 60.6714 93.4704 71.0216C103.821 81.3717 120.292 81.3599 130.261 71.3904C140.231 61.4209 140.243 44.9497 129.892 34.5995Z" fill="#C4C4C4"/>
</mask>
<g mask="url(#mask1)">
<path fill-rule="evenodd" clip-rule="evenodd" d="M129.892 34.5996C119.542 24.2494 103.071 24.2613 93.1014 34.2308C83.1319 44.2003 83.1201 60.6715 93.4702 71.0217C103.82 81.3719 120.292 81.36 130.261 71.3905C140.231 61.421 140.242 44.9498 129.892 34.5996ZM80.5409 21.6702C97.6237 4.5874 125.343 4.9295 142.453 22.039C157.405 36.9909 159.552 60.0456 148.455 77.0233L170.871 99.4397C174.339 102.908 174.339 108.532 170.871 112C167.402 115.469 161.779 115.469 158.31 112L135.894 89.5839C118.916 100.681 95.8616 98.5341 80.9097 83.5822C63.8001 66.4727 63.458 38.7531 80.5409 21.6702Z" fill="url(#paint11_linear)"/>
<path fill-rule="evenodd" clip-rule="evenodd" d="M142.453 22.039C125.343 4.9295 97.6237 4.5874 80.5409 21.6702C63.458 38.7531 63.8001 66.4727 80.9097 83.5822C95.8616 98.5341 118.916 100.681 135.894 89.5839L158.31 112C161.779 115.469 167.402 115.469 170.871 112C174.339 108.532 174.339 102.908 170.871 99.4397L148.455 77.0233C159.552 60.0456 157.405 36.9909 142.453 22.039ZM129.892 34.5996C119.542 24.2494 103.071 24.2613 93.1014 34.2308C83.1319 44.2003 83.1201 60.6715 93.4702 71.0217C103.82 81.3719 120.292 81.36 130.261 71.3905C140.231 61.421 140.242 44.9498 129.892 34.5996Z" fill="url(#paint12_linear)"/>
<g filter="url(#filter4_f)">
<path d="M171.899 104.953C171.61 103.334 173.595 102.643 173.924 106.235C174.56 113.19 164.283 118.654 157.978 113.01C148.06 104.13 147.937 102.893 139.568 94.2703C136.991 91.615 137.105 88.2052 140.339 91.5694C146.92 98.4159 152.698 105.059 158.663 110.575C165.163 116.585 172.945 110.801 171.899 104.953Z" fill="#A4A8FA"/>
</g>
<g filter="url(#filter5_f)">
<path d="M92.7077 94.1148C75.408 86.8199 64.2529 67.781 69.4562 43.6914C69.4562 70.61 82.0606 85.2679 95.9703 90.6554C112.346 96.9981 130.797 90.6554 136.066 85.9402C133.68 94.807 109.117 101.034 92.7077 94.1148Z" fill="white" fill-opacity="0.74"/>
</g>
<g filter="url(#filter6_f)">
<path d="M168.26 105.934C168.26 104.289 170.594 103.423 170.193 107.008C169.506 113.149 163.507 113.94 159.54 109.825C150.483 100.429 147.201 97.4433 138.833 88.8208C137.542 87.4912 135.127 83.0097 139.191 77.9062C136.82 84.2938 139.719 86.7459 140.341 87.3926C146.922 94.2391 154.641 101.979 160.386 107.724C164.4 111.738 168.26 109.688 168.26 105.934Z" fill="white" fill-opacity="0.55"/>
</g>
<g filter="url(#filter7_f)">
<path d="M138.595 55.8477C145.205 28.277 100.141 9.31951 86.9148 42.7245C105.039 14.2541 138.497 30.102 138.595 55.8477Z" fill="#03022F"/>
</g>
<g filter="url(#filter8_f)">
<path d="M85.1739 50.1918C78.5637 77.7626 123.628 96.72 136.854 63.315C118.73 91.7854 85.2721 75.9376 85.1739 50.1918Z" fill="white"/>
</g>
<g filter="url(#filter9_f)">
<path d="M155.071 57.9169C165.756 13.3497 92.9359 -17.2881 71.5575 36.7107C100.849 -9.31216 154.915 16.3005 155.071 57.9169Z" fill="white" fill-opacity="0.86"/>
</g>
<g filter="url(#filter10_f)">
<path fill-rule="evenodd" clip-rule="evenodd" d="M152.851 79.3384L172.961 99.4749C176.741 103.255 173.671 105.278 169.891 101.498L149.781 81.3613C146.001 77.5815 149.071 75.5586 152.851 79.3384Z" fill="white" fill-opacity="0.52"/>
</g>
<g filter="url(#filter11_f)">
<path fill-rule="evenodd" clip-rule="evenodd" d="M133.472 28.4196C122.892 17.5516 99.6732 17.8356 89.976 28.4196C78.7845 39.1051 80.3345 63.8844 91.8234 73.5747C100.891 84.9072 123.71 84.5748 135.026 73.5747C146.473 62.8663 145.378 37.9269 133.472 28.4196ZM84.7588 23.565C100.614 7.70903 123.159 8.20318 140.268 25.3127C155.22 40.2646 155.129 59.2504 144.032 76.2281L168.172 98.9959C169.908 100.634 169.912 103.394 168.18 105.037C166.576 106.557 164.063 106.557 162.459 105.036L138.396 82.2176C121.685 92.9092 101.283 93.6863 86.0924 79.1002C68.9829 61.9907 72.4176 35.9066 84.7588 23.565Z" fill="url(#paint13_linear)"/>
<path fill-rule="evenodd" clip-rule="evenodd" d="M140.268 25.3127C123.159 8.20318 100.614 7.70903 84.7588 23.565C72.4176 35.9066 68.9829 61.9907 86.0924 79.1002C101.283 93.6863 121.685 92.9092 138.396 82.2176L162.459 105.036C164.063 106.557 166.576 106.557 168.18 105.037C169.912 103.394 169.908 100.634 168.172 98.9959L144.032 76.2281C155.129 59.2504 155.22 40.2646 140.268 25.3127ZM133.472 28.4196C122.892 17.5516 99.6732 17.8356 89.976 28.4196C78.7845 39.1051 80.3345 63.8844 91.8234 73.5747C100.891 84.9072 123.71 84.5748 135.026 73.5747C146.473 62.8663 145.378 37.9269 133.472 28.4196Z" fill="url(#paint14_linear)"/>
</g>
</g>
<defs>
<filter id="filter0_dd" x="-29.3916" y="-7.78442" width="213.179" height="202.056" filterUnits="userSpaceOnUse" color-interpolation-filters="sRGB">
<feFlood flood-opacity="0" result="BackgroundImageFix"/>
<feColorMatrix in="SourceAlpha" type="matrix" values="0 0 0 0 0 0 0 0 0 0 0 0 0 0 0 0 0 0 127 0"/>
<feOffset dy="8.5763"/>
<feGaussianBlur stdDeviation="8.43282"/>
<feColorMatrix type="matrix" values="0 0 0 0 0.117647 0 0 0 0 0.0901961 0 0 0 0 0.360784 0 0 0 0.175955 0"/>
<feBlend mode="normal" in2="BackgroundImageFix" result="effect1_dropShadow"/>
<feColorMatrix in="SourceAlpha" type="matrix" values="0 0 0 0 0 0 0 0 0 0 0 0 0 0 0 0 0 0 127 0"/>
<feOffset dy="27"/>
<feGaussianBlur stdDeviation="20"/>
<feColorMatrix type="matrix" values="0 0 0 0 0.117647 0 0 0 0 0.0901961 0 0 0 0 0.360784 0 0 0 0.0621516 0"/>
<feBlend mode="normal" in2="effect1_dropShadow" result="effect2_dropShadow"/>
<feBlend mode="normal" in="SourceGraphic" in2="effect2_dropShadow" result="shape"/>
</filter>
<filter id="filter1_dd" x="-16.5156" y="-12.6228" width="202.864" height="201.099" filterUnits="userSpaceOnUse" color-interpolation-filters="sRGB">
<feFlood flood-opacity="0" result="BackgroundImageFix"/>
<feColorMatrix in="SourceAlpha" type="matrix" values="0 0 0 0 0 0 0 0 0 0 0 0 0 0 0 0 0 0 127 0"/>
<feOffset dy="8.5763"/>
<feGaussianBlur stdDeviation="8.43282"/>
<feColorMatrix type="matrix" values="0 0 0 0 0.117647 0 0 0 0 0.0901961 0 0 0 0 0.360784 0 0 0 0.175955 0"/>
<feBlend mode="normal" in2="BackgroundImageFix" result="effect1_dropShadow"/>
<feColorMatrix in="SourceAlpha" type="matrix" values="0 0 0 0 0 0 0 0 0 0 0 0 0 0 0 0 0 0 127 0"/>
<feOffset dy="27"/>
<feGaussianBlur stdDeviation="20"/>
<feColorMatrix type="matrix" values="0 0 0 0 0.117647 0 0 0 0 0.0901961 0 0 0 0 0.360784 0 0 0 0.0621516 0"/>
<feBlend mode="normal" in2="effect1_dropShadow" result="effect2_dropShadow"/>
<feBlend mode="normal" in="SourceGraphic" in2="effect2_dropShadow" result="shape"/>
</filter>
<filter id="filter2_f" x="23.958" y="4.21484" width="42.4896" height="43.1392" filterUnits="userSpaceOnUse" color-interpolation-filters="sRGB">
<feFlood flood-opacity="0" result="BackgroundImageFix"/>
<feBlend mode="normal" in="SourceGraphic" in2="BackgroundImageFix" result="shape"/>
<feGaussianBlur stdDeviation="3.5" result="effect1_foregroundBlur"/>
</filter>
<filter id="filter3_f" x="30.1816" y="9.01587" width="31.7618" height="32.3552" filterUnits="userSpaceOnUse" color-interpolation-filters="sRGB">
<feFlood flood-opacity="0" result="BackgroundImageFix"/>
<feBlend mode="normal" in="SourceGraphic" in2="BackgroundImageFix" result="shape"/>
<feGaussianBlur stdDeviation="1" result="effect1_foregroundBlur"/>
</filter>
<filter id="filter4_f" x="133.025" y="85.4303" width="45.6642" height="34.6587" filterUnits="userSpaceOnUse" color-interpolation-filters="sRGB">
<feFlood flood-opacity="0" result="BackgroundImageFix"/>
<feBlend mode="normal" in="SourceGraphic" in2="BackgroundImageFix" result="shape"/>
<feGaussianBlur stdDeviation="2.36844" result="effect1_foregroundBlur"/>
</filter>
<filter id="filter5_f" x="62.2493" y="37.7703" width="79.7376" height="65.2273" filterUnits="userSpaceOnUse" color-interpolation-filters="sRGB">
<feFlood flood-opacity="0" result="BackgroundImageFix"/>
<feBlend mode="normal" in="SourceGraphic" in2="BackgroundImageFix" result="shape"/>
<feGaussianBlur stdDeviation="2.96055" result="effect1_foregroundBlur"/>
</filter>
<filter id="filter6_f" x="133.383" y="74.3536" width="40.4094" height="41.5807" filterUnits="userSpaceOnUse" color-interpolation-filters="sRGB">
<feFlood flood-opacity="0" result="BackgroundImageFix"/>
<feBlend mode="normal" in="SourceGraphic" in2="BackgroundImageFix" result="shape"/>
<feGaussianBlur stdDeviation="1.77633" result="effect1_foregroundBlur"/>
</filter>
<filter id="filter7_f" x="78.6255" y="10.8533" width="74.397" height="53.9599" filterUnits="userSpaceOnUse" color-interpolation-filters="sRGB">
<feFlood flood-opacity="0" result="BackgroundImageFix"/>
<feBlend mode="normal" in="SourceGraphic" in2="BackgroundImageFix" result="shape"/>
<feGaussianBlur stdDeviation="4.14478" result="effect1_foregroundBlur"/>
</filter>
<filter id="filter8_f" x="68.3781" y="38.8579" width="79.1339" height="58.6968" filterUnits="userSpaceOnUse" color-interpolation-filters="sRGB">
<feFlood flood-opacity="0" result="BackgroundImageFix"/>
<feBlend mode="normal" in="SourceGraphic" in2="BackgroundImageFix" result="shape"/>
<feGaussianBlur stdDeviation="5.329" result="effect1_foregroundBlur"/>
</filter>
<filter id="filter9_f" x="63.2681" y="-9.698" width="110.013" height="76.997" filterUnits="userSpaceOnUse" color-interpolation-filters="sRGB">
<feFlood flood-opacity="0" result="BackgroundImageFix"/>
<feBlend mode="normal" in="SourceGraphic" in2="BackgroundImageFix" result="shape"/>
<feGaussianBlur stdDeviation="4.14478" result="effect1_foregroundBlur"/>
</filter>
<filter id="filter10_f" x="143.318" y="72.5839" width="36.1056" height="35.6684" filterUnits="userSpaceOnUse" color-interpolation-filters="sRGB">
<feFlood flood-opacity="0" result="BackgroundImageFix"/>
<feBlend mode="normal" in="SourceGraphic" in2="BackgroundImageFix" result="shape"/>
<feGaussianBlur stdDeviation="2.36844" result="effect1_foregroundBlur"/>
</filter>
<filter id="filter11_f" x="67.2623" y="4.95717" width="109.32" height="108.325" filterUnits="userSpaceOnUse" color-interpolation-filters="sRGB">
<feFlood flood-opacity="0" result="BackgroundImageFix"/>
<feBlend mode="normal" in="SourceGraphic" in2="BackgroundImageFix" result="shape"/>
<feGaussianBlur stdDeviation="3.55267" result="effect1_foregroundBlur"/>
</filter>
<linearGradient id="paint0_linear" x1="86.544" y1="0.66333" x2="86.544" y2="120.445" gradientUnits="userSpaceOnUse">
<stop stop-color="#E3E3F9"/>
<stop offset="0.255208" stop-color="white"/>
<stop offset="0.697917" stop-color="white"/>
<stop offset="1" stop-color="#E4E4F4"/>
</linearGradient>
<linearGradient id="paint1_linear" x1="73.8911" y1="17.8184" x2="73.8911" y2="131.799" gradientUnits="userSpaceOnUse">
<stop stop-color="#E3E3F9"/>
<stop offset="0.255208" stop-color="#F3F3FC"/>
<stop offset="0.697917" stop-color="#F3F3FC"/>
<stop offset="1" stop-color="#E4E4F4"/>
</linearGradient>
<linearGradient id="paint2_linear" x1="80.6321" y1="5.19165" x2="80.6321" y2="126.119" gradientUnits="userSpaceOnUse">
<stop stop-color="#E3E3F9"/>
<stop offset="0.255208" stop-color="#F3F3FC"/>
<stop offset="0.697917" stop-color="#F3F3FC"/>
<stop offset="1" stop-color="#E4E4F4"/>
</linearGradient>
<linearGradient id="paint3_linear" x1="86.544" y1="0.66333" x2="86.544" y2="120.445" gradientUnits="userSpaceOnUse">
<stop stop-color="#E3E3F9"/>
<stop offset="0.255208" stop-color="white"/>
<stop offset="0.697917" stop-color="white"/>
<stop offset="1" stop-color="#E4E4F4"/>
</linearGradient>
<linearGradient id="paint4_linear" x1="43.249" y1="19.2005" x2="43.249" y2="7.97069" gradientUnits="userSpaceOnUse">
<stop stop-color="#C96161"/>
<stop offset="1" stop-color="#C73030"/>
</linearGradient>
<linearGradient id="paint5_linear" x1="42.0911" y1="38.3566" x2="42.0911" y2="26.6809" gradientUnits="userSpaceOnUse">
<stop stop-color="#BE5656"/>
<stop offset="1" stop-color="#BB0000"/>
</linearGradient>
<linearGradient id="paint6_linear" x1="48.1116" y1="38.0003" x2="48.1116" y2="36.3591" gradientUnits="userSpaceOnUse">
<stop stop-color="#C08A8A"/>
<stop offset="0.388889" stop-color="#BE5656"/>
<stop offset="1" stop-color="#BB0000"/>
</linearGradient>
<linearGradient id="paint7_linear" x1="49.4266" y1="28.9884" x2="49.4266" y2="26.6136" gradientUnits="userSpaceOnUse">
<stop stop-color="#C08A8A"/>
<stop offset="0.388889" stop-color="#BE5656"/>
<stop offset="1" stop-color="#BB0000"/>
</linearGradient>
<linearGradient id="paint8_linear" x1="32.9995" y1="29.677" x2="32.9995" y2="17.4952" gradientUnits="userSpaceOnUse">
<stop stop-color="#BE5656"/>
<stop offset="1" stop-color="#C12D2D"/>
</linearGradient>
<linearGradient id="paint9_linear" x1="49.4264" y1="28.9884" x2="49.4264" y2="26.6136" gradientUnits="userSpaceOnUse">
<stop stop-color="#C08A8A"/>
<stop offset="0.388889" stop-color="#BE5656"/>
<stop offset="1" stop-color="#BB0000"/>
</linearGradient>
<linearGradient id="paint10_linear" x1="60.4415" y1="8.06516" x2="36.1748" y2="36.0114" gradientUnits="userSpaceOnUse">
<stop stop-color="#FFCCCC"/>
<stop offset="1" stop-color="#FF0000"/>
</linearGradient>
<linearGradient id="paint11_linear" x1="119.778" y1="5.61867" x2="104.889" y2="116.814" gradientUnits="userSpaceOnUse">
<stop stop-color="#716AFF"/>
<stop offset="0.617401" stop-color="#3F36FF"/>
<stop offset="0.829108" stop-color="#2019CD"/>
</linearGradient>
<linearGradient id="paint12_linear" x1="119.778" y1="5.61867" x2="104.889" y2="116.814" gradientUnits="userSpaceOnUse">
<stop stop-color="#716AFF"/>
<stop offset="0.617401" stop-color="#3F36FF"/>
<stop offset="0.829108" stop-color="#2019CD"/>
</linearGradient>
<linearGradient id="paint13_linear" x1="119.778" y1="5.61878" x2="104.889" y2="116.814" gradientUnits="userSpaceOnUse">
<stop stop-color="#CED9FF"/>
<stop offset="1" stop-color="#6660EE"/>
</linearGradient>
<linearGradient id="paint14_linear" x1="119.778" y1="5.61878" x2="104.889" y2="116.814" gradientUnits="userSpaceOnUse">
<stop stop-color="#CED9FF"/>
<stop offset="1" stop-color="#6660EE"/>
</linearGradient>
</defs>
</svg>
