<svg width="213" height="141" viewBox="0 0 213 141" fill="none" xmlns="http://www.w3.org/2000/svg">
<path fill-rule="evenodd" clip-rule="evenodd" d="M54.8734 23.3183L40.6127 18.2126L35.1424 33.4917L19.863 28.0213L14.7573 42.282L30.0367 47.7524L24.5662 63.0319L38.8269 68.1376L44.2974 52.8581L59.5766 58.3285L64.6823 44.0678L49.4031 38.5975L54.8734 23.3183Z" fill="#FF0000"/>
<path fill-rule="evenodd" clip-rule="evenodd" d="M98.594 6.91508L93.8733 5.12864L91.9592 10.1867L86.9012 8.27263L85.1148 12.9934L90.1728 14.9074L88.2588 19.9653L92.9795 21.7518L94.8935 16.6939L99.9515 18.6079L101.738 13.8871L96.68 11.9731L98.594 6.91508Z" fill="#FF0000"/>
<path fill-rule="evenodd" clip-rule="evenodd" d="M176.674 6.24267L160.75 12.0692L166.993 29.1309L149.931 35.3737L155.758 51.2976L172.819 45.0548L179.062 62.1157L194.986 56.2891L188.743 39.2282L205.805 32.9855L199.978 17.0617L182.917 23.3044L176.674 6.24267Z" fill="#FF0000"/>
<path fill-rule="evenodd" clip-rule="evenodd" d="M133.81 115.734L129.409 115.446L129.101 120.161L124.385 119.853L124.097 124.254L128.813 124.563L128.504 129.278L132.905 129.566L133.214 124.851L137.929 125.159L138.217 120.758L133.502 120.449L133.81 115.734Z" fill="#FF0000"/>
<path fill-rule="evenodd" clip-rule="evenodd" d="M180.691 79.1726L175.574 87.6904L184.7 93.1732L179.217 102.299L187.735 107.417L193.218 98.2904L202.344 103.773L207.461 95.2553L198.335 89.7727L203.818 80.6466L195.3 75.5293L189.817 84.6554L180.691 79.1726Z" fill="#FF0000"/>
<path fill-rule="evenodd" clip-rule="evenodd" d="M81.8013 108.5L77.748 99.3711L67.9667 103.714L63.6238 93.9324L54.4944 97.9857L58.8373 107.767L49.0556 112.11L53.1089 121.24L62.8906 116.897L67.2335 126.678L76.3629 122.625L72.02 112.843L81.8013 108.5Z" fill="#FF0000"/>
<path fill-rule="evenodd" clip-rule="evenodd" d="M21.724 88.9019L15.631 86.2974L12.8404 92.8257L6.3122 90.0352L3.70768 96.1282L10.2359 98.9187L7.44536 105.447L13.5384 108.051L16.3289 101.523L22.8572 104.314L25.4618 98.2208L18.9334 95.4302L21.724 88.9019Z" fill="#FF0000"/>
<path d="M130.494 85.3461C119.072 96.7681 100.414 96.6287 88.8201 85.0347C77.2261 73.4407 77.0867 54.7826 88.5087 43.3606C99.9307 31.9386 118.589 32.078 130.183 43.672C141.777 55.266 141.916 73.9241 130.494 85.3461ZM130.494 85.3461L159.483 114.335" stroke="#3A33D9" stroke-width="15"/>
</svg>
