<svg width="169" height="198" viewBox="0 0 169 198" fill="none" xmlns="http://www.w3.org/2000/svg">
<g filter="url(#filter0_ii)">
<path d="M80.354 0.321371C87.0464 8.64768 91.2024 20.2809 91.2024 33.1533C91.2024 34.3362 91.1673 35.5086 91.0984 36.6689C91.0121 36.6759 90.9258 36.6828 90.8394 36.6894C98.9115 36.0672 106.369 33.805 112.661 30.3338C112.717 29.6055 112.746 28.8693 112.746 28.1265C112.746 12.5927 100.153 0 84.6196 0C83.1695 0 81.745 0.109741 80.354 0.321371Z" fill="#F39B00"/>
<path d="M80.354 0.321442C66.8444 2.37681 56.4932 14.0428 56.4932 28.1266C56.4932 28.1647 56.4932 28.2028 56.4934 28.2409C64.5071 33.6166 74.9171 36.8637 86.2952 36.8637C87.9174 36.8637 89.5198 36.7977 91.0984 36.669C91.1673 35.5086 91.2024 34.3363 91.2024 33.1534C91.2024 20.281 87.0464 8.64775 80.354 0.321442Z" fill="#D40029"/>
<path d="M91.0987 36.6652C90.6783 43.7485 88.9971 50.3821 86.3408 56.2012C85.7715 56.2356 85.1976 56.253 84.6197 56.253C69.124 56.253 56.555 43.7221 56.4934 28.2409C64.5072 33.6166 74.9171 36.8637 86.2953 36.8637C87.9174 36.8637 89.5198 36.7977 91.0984 36.6689C91.0985 36.6677 91.0986 36.6664 91.0987 36.6652Z" fill="#E37FAC"/>
<path d="M86.3406 56.2012C100.341 55.3561 111.579 44.2693 112.661 30.3339C106.436 33.7679 99.0708 36.0187 91.0983 36.669C90.6776 43.7509 88.9964 50.3832 86.3406 56.2012Z" fill="#F0E45F"/>
</g>
<g filter="url(#filter1_ii)">
<path d="M145.78 136.563C145.78 103.334 119.383 76.2702 86.415 75.1966V110.189C100.073 111.228 110.831 122.639 110.831 136.563C110.831 140.66 109.9 144.539 108.237 148L142.117 157.5C144.487 150.966 145.78 143.915 145.78 136.563Z" fill="#F39B00"/>
<path fill-rule="evenodd" clip-rule="evenodd" d="M86.415 75.1966C85.7395 75.1746 85.0611 75.1635 84.3802 75.1635C50.4702 75.1635 22.9807 102.653 22.9807 136.563C22.9807 144.863 24.6276 152.778 27.6124 160L61 148.944C59.0398 145.25 57.9294 141.036 57.9294 136.563C57.9294 121.955 69.7718 110.112 84.3802 110.112C85.0649 110.112 85.7435 110.138 86.415 110.189V75.1966Z" fill="#E37FAC"/>
<path d="M109.814 143.854C106.648 154.917 96.4598 163.014 84.3803 163.014C82.3593 163.014 80.3912 162.787 78.5001 162.358L72.3025 196.775C76.2075 197.554 80.2462 197.963 84.3803 197.963C112.564 197.963 136.313 178.973 143.53 153.091C140.105 148.832 134.145 145.216 126.907 143.511C120.62 142.03 114.553 142.27 109.814 143.854Z" fill="#F0E45F"/>
<path fill-rule="evenodd" clip-rule="evenodd" d="M58.8417 143.475C61.8704 154.693 72.0924 162.957 84.2537 163.014C85.6038 167.794 86.415 173.924 86.415 180.608C86.415 187.181 85.6306 193.218 84.3207 197.963C56.5676 197.936 33.1254 179.497 25.552 154.202C28.7873 149.467 35.1399 145.363 42.9996 143.511C48.7457 142.158 54.3083 142.241 58.8417 143.475Z" fill="#D40029"/>
</g>
<mask id="mask0" mask-type="alpha" maskUnits="userSpaceOnUse" x="22" y="75" width="124" height="123">
<path fill-rule="evenodd" clip-rule="evenodd" d="M84.3802 110.112C69.7718 110.112 57.9294 121.955 57.9294 136.563C57.9294 151.171 69.7718 163.014 84.3802 163.014C98.9886 163.014 110.831 151.171 110.831 136.563C110.831 121.955 98.9886 110.112 84.3802 110.112ZM22.9807 136.563C22.9807 102.653 50.4702 75.1636 84.3802 75.1636C118.29 75.1636 145.78 102.653 145.78 136.563C145.78 170.473 118.29 197.963 84.3802 197.963C50.4702 197.963 22.9807 170.473 22.9807 136.563Z" fill="black"/>
</mask>
<g mask="url(#mask0)">
<g filter="url(#filter2_d)">
<ellipse rx="22.9661" ry="24.0102" transform="matrix(0.867613 0.49724 0.49724 -0.867613 72.3196 84.6743)" fill="#C4C4C4"/>
</g>
<g filter="url(#filter3_d)">
<ellipse rx="22.9661" ry="24.0102" transform="matrix(0.867613 0.49724 0.49724 -0.867613 30.429 76.775)" fill="#C4C4C4"/>
</g>
<g filter="url(#filter4_d)">
<ellipse cx="96.9751" cy="84.6743" rx="22.9661" ry="24.0102" transform="rotate(150.182 96.9751 84.6743)" fill="#C4C4C4"/>
</g>
<g filter="url(#filter5_d)">
<ellipse cx="138.866" cy="76.775" rx="22.9661" ry="24.0102" transform="rotate(150.182 138.866 76.775)" fill="#C4C4C4"/>
</g>
</g>
<g filter="url(#filter6_ii)">
<path fill-rule="evenodd" clip-rule="evenodd" d="M109.635 107.641V71.7173C120.712 68.5962 131.334 63.3696 140.882 56.0376C148.537 50.16 159.507 51.6005 165.385 59.255C171.262 66.9095 169.822 77.8795 162.167 83.7571C146.308 95.9343 128.302 103.896 109.635 107.641Z" fill="#E37FAC"/>
<path fill-rule="evenodd" clip-rule="evenodd" d="M127.66 102.623C108.16 109.633 87.3265 111.738 67.0259 108.936V73.5274C84.7101 76.9193 103.174 75.1128 120.028 68.1079C124.47 71.0554 128.218 76.3417 129.979 82.9144C131.988 90.4113 130.922 97.7512 127.66 102.623Z" fill="#D40029"/>
<path fill-rule="evenodd" clip-rule="evenodd" d="M67.0258 73.5274V108.936C45.643 105.986 24.8516 97.5928 6.83289 83.7571C-0.82165 77.8795 -2.26215 66.9095 3.61544 59.255C9.49303 51.6005 20.463 50.16 28.1175 56.0376C39.8487 65.0454 53.1989 70.8754 67.0258 73.5274Z" fill="#F39B00"/>
<path fill-rule="evenodd" clip-rule="evenodd" d="M84.3604 110.136C68.6416 110.119 52.9253 107.204 38.0589 101.392C35.8156 96.6519 35.2779 90.3408 36.9998 83.9144C39.0008 76.4468 43.5663 70.6396 48.8013 68.0367C60.2639 72.8279 72.476 75.2114 84.6843 75.1871C85.9195 79.8593 86.6545 85.7196 86.6545 92.0819C86.6545 98.9821 85.79 105.292 84.3604 110.136Z" fill="#F0E45F"/>
</g>
<defs>
<filter id="filter0_ii" x="56.4932" y="-6.22373" width="56.253" height="65.5886" filterUnits="userSpaceOnUse" color-interpolation-filters="sRGB">
<feFlood flood-opacity="0" result="BackgroundImageFix"/>
<feBlend mode="normal" in="SourceGraphic" in2="BackgroundImageFix" result="shape"/>
<feColorMatrix in="SourceAlpha" type="matrix" values="0 0 0 0 0 0 0 0 0 0 0 0 0 0 0 0 0 0 127 0" result="hardAlpha"/>
<feOffset dy="-6.22373"/>
<feGaussianBlur stdDeviation="10.1734"/>
<feComposite in2="hardAlpha" operator="arithmetic" k2="-1" k3="1"/>
<feColorMatrix type="matrix" values="0 0 0 0 0.566667 0 0 0 0 0 0 0 0 0 0 0 0 0 0.51 0"/>
<feBlend mode="multiply" in2="shape" result="effect1_innerShadow"/>
<feColorMatrix in="SourceAlpha" type="matrix" values="0 0 0 0 0 0 0 0 0 0 0 0 0 0 0 0 0 0 127 0" result="hardAlpha"/>
<feOffset dy="3.11187"/>
<feGaussianBlur stdDeviation="4.6678"/>
<feComposite in2="hardAlpha" operator="arithmetic" k2="-1" k3="1"/>
<feColorMatrix type="matrix" values="0 0 0 0 0.566667 0 0 0 0 0 0 0 0 0 0 0 0 0 0.12 0"/>
<feBlend mode="multiply" in2="effect1_innerShadow" result="effect2_innerShadow"/>
</filter>
<filter id="filter1_ii" x="22.9807" y="68.9398" width="122.799" height="132.135" filterUnits="userSpaceOnUse" color-interpolation-filters="sRGB">
<feFlood flood-opacity="0" result="BackgroundImageFix"/>
<feBlend mode="normal" in="SourceGraphic" in2="BackgroundImageFix" result="shape"/>
<feColorMatrix in="SourceAlpha" type="matrix" values="0 0 0 0 0 0 0 0 0 0 0 0 0 0 0 0 0 0 127 0" result="hardAlpha"/>
<feOffset dy="-6.22373"/>
<feGaussianBlur stdDeviation="10.1734"/>
<feComposite in2="hardAlpha" operator="arithmetic" k2="-1" k3="1"/>
<feColorMatrix type="matrix" values="0 0 0 0 0.566667 0 0 0 0 0 0 0 0 0 0 0 0 0 0.51 0"/>
<feBlend mode="multiply" in2="shape" result="effect1_innerShadow"/>
<feColorMatrix in="SourceAlpha" type="matrix" values="0 0 0 0 0 0 0 0 0 0 0 0 0 0 0 0 0 0 127 0" result="hardAlpha"/>
<feOffset dy="3.11187"/>
<feGaussianBlur stdDeviation="4.6678"/>
<feComposite in2="hardAlpha" operator="arithmetic" k2="-1" k3="1"/>
<feColorMatrix type="matrix" values="0 0 0 0 0.566667 0 0 0 0 0 0 0 0 0 0 0 0 0 0.12 0"/>
<feBlend mode="multiply" in2="effect1_innerShadow" result="effect2_innerShadow"/>
</filter>
<filter id="filter2_d" x="20.8264" y="42.13" width="97.2415" height="98.0149" filterUnits="userSpaceOnUse" color-interpolation-filters="sRGB">
<feFlood flood-opacity="0" result="BackgroundImageFix"/>
<feColorMatrix in="SourceAlpha" type="matrix" values="0 0 0 0 0 0 0 0 0 0 0 0 0 0 0 0 0 0 127 0"/>
<feOffset dx="-2.87249" dy="6.46311"/>
<feGaussianBlur stdDeviation="8.3781"/>
<feColorMatrix type="matrix" values="0 0 0 0 0.508333 0 0 0 0 0.307864 0 0 0 0 0 0 0 0 1 0"/>
<feBlend mode="multiply" in2="BackgroundImageFix" result="effect1_dropShadow"/>
<feBlend mode="normal" in="SourceGraphic" in2="effect1_dropShadow" result="shape"/>
</filter>
<filter id="filter3_d" x="-12.6861" y="30.64" width="103.465" height="104.239" filterUnits="userSpaceOnUse" color-interpolation-filters="sRGB">
<feFlood flood-opacity="0" result="BackgroundImageFix"/>
<feColorMatrix in="SourceAlpha" type="matrix" values="0 0 0 0 0 0 0 0 0 0 0 0 0 0 0 0 0 0 127 0"/>
<feOffset dx="8.61747" dy="5.98436"/>
<feGaussianBlur stdDeviation="9.93403"/>
<feColorMatrix type="matrix" values="0 0 0 0 0.508333 0 0 0 0 0.307864 0 0 0 0 0 0 0 0 1 0"/>
<feBlend mode="multiply" in2="BackgroundImageFix" result="effect1_dropShadow"/>
<feBlend mode="normal" in="SourceGraphic" in2="effect1_dropShadow" result="shape"/>
</filter>
<filter id="filter4_d" x="51.2269" y="42.13" width="97.2415" height="98.0149" filterUnits="userSpaceOnUse" color-interpolation-filters="sRGB">
<feFlood flood-opacity="0" result="BackgroundImageFix"/>
<feColorMatrix in="SourceAlpha" type="matrix" values="0 0 0 0 0 0 0 0 0 0 0 0 0 0 0 0 0 0 127 0"/>
<feOffset dx="2.87249" dy="6.46311"/>
<feGaussianBlur stdDeviation="8.3781"/>
<feColorMatrix type="matrix" values="0 0 0 0 0.576471 0 0 0 0 0 0 0 0 0 0.105882 0 0 0 1 0"/>
<feBlend mode="multiply" in2="BackgroundImageFix" result="effect1_dropShadow"/>
<feBlend mode="normal" in="SourceGraphic" in2="effect1_dropShadow" result="shape"/>
</filter>
<filter id="filter5_d" x="78.5157" y="30.64" width="103.465" height="104.239" filterUnits="userSpaceOnUse" color-interpolation-filters="sRGB">
<feFlood flood-opacity="0" result="BackgroundImageFix"/>
<feColorMatrix in="SourceAlpha" type="matrix" values="0 0 0 0 0 0 0 0 0 0 0 0 0 0 0 0 0 0 127 0"/>
<feOffset dx="-8.61747" dy="5.98436"/>
<feGaussianBlur stdDeviation="9.93403"/>
<feColorMatrix type="matrix" values="0 0 0 0 0.575 0 0 0 0 0 0 0 0 0 0.107812 0 0 0 1 0"/>
<feBlend mode="multiply" in2="BackgroundImageFix" result="effect1_dropShadow"/>
<feBlend mode="normal" in="SourceGraphic" in2="effect1_dropShadow" result="shape"/>
</filter>
<filter id="filter6_ii" x="0" y="46.1984" width="169" height="67.0494" filterUnits="userSpaceOnUse" color-interpolation-filters="sRGB">
<feFlood flood-opacity="0" result="BackgroundImageFix"/>
<feBlend mode="normal" in="SourceGraphic" in2="BackgroundImageFix" result="shape"/>
<feColorMatrix in="SourceAlpha" type="matrix" values="0 0 0 0 0 0 0 0 0 0 0 0 0 0 0 0 0 0 127 0" result="hardAlpha"/>
<feOffset dy="-6.22373"/>
<feGaussianBlur stdDeviation="10.1734"/>
<feComposite in2="hardAlpha" operator="arithmetic" k2="-1" k3="1"/>
<feColorMatrix type="matrix" values="0 0 0 0 0.566667 0 0 0 0 0 0 0 0 0 0 0 0 0 0.51 0"/>
<feBlend mode="multiply" in2="shape" result="effect1_innerShadow"/>
<feColorMatrix in="SourceAlpha" type="matrix" values="0 0 0 0 0 0 0 0 0 0 0 0 0 0 0 0 0 0 127 0" result="hardAlpha"/>
<feOffset dy="3.11187"/>
<feGaussianBlur stdDeviation="4.6678"/>
<feComposite in2="hardAlpha" operator="arithmetic" k2="-1" k3="1"/>
<feColorMatrix type="matrix" values="0 0 0 0 0.566667 0 0 0 0 0 0 0 0 0 0 0 0 0 0.12 0"/>
<feBlend mode="multiply" in2="effect1_innerShadow" result="effect2_innerShadow"/>
</filter>
</defs>
</svg>
