<svg width="423" height="194" viewBox="0 0 423 194" fill="none" xmlns="http://www.w3.org/2000/svg">
<path fill-rule="evenodd" clip-rule="evenodd" d="M23.2959 133.804C23.2959 114.447 32.4375 97.2261 46.6389 86.2219H85.4485V107.963C84.7905 107.913 84.1256 107.887 83.4548 107.887C69.1415 107.887 57.5384 119.49 57.5384 133.804C57.5384 136.156 57.8517 138.434 58.4388 140.6L25.822 151.109C24.1788 145.628 23.2959 139.819 23.2959 133.804Z" fill="#E37FAC"/>
<path fill-rule="evenodd" clip-rule="evenodd" d="M85.4485 107.963V86.2219H120.271C134.472 97.2261 143.614 114.447 143.614 133.804C143.614 139.419 142.844 144.854 141.406 150.01L108.367 140.972C109.021 138.696 109.371 136.291 109.371 133.804C109.371 120.161 98.8301 108.981 85.4485 107.963Z" fill="#F39B00"/>
<path fill-rule="evenodd" clip-rule="evenodd" d="M83.4549 159.72C95.2903 159.72 105.273 151.787 108.374 140.947C113.018 139.395 118.963 139.161 125.122 140.612C132.214 142.282 138.054 145.825 141.409 149.998C134.338 175.357 111.069 193.963 83.4549 193.963L83.3961 193.963L83.3196 159.72C83.3647 159.72 83.4098 159.72 83.4549 159.72Z" fill="#F0E45F"/>
<path fill-rule="evenodd" clip-rule="evenodd" d="M58.4323 140.576C61.3997 151.567 71.4152 159.664 83.3307 159.72C84.6536 164.404 85.4484 170.41 85.4484 176.959C85.4484 183.399 84.6799 189.314 83.3964 193.963C56.2041 193.937 33.2355 175.87 25.8152 151.086C28.9851 146.447 35.2094 142.425 42.9102 140.612C48.5402 139.285 53.9905 139.367 58.4323 140.576Z" fill="#D40029"/>
<mask id="mask0" mask-type="alpha" maskUnits="userSpaceOnUse" x="23" y="86" width="121" height="108">
<path fill-rule="evenodd" clip-rule="evenodd" d="M57.5384 133.804C57.5384 119.491 69.1415 107.887 83.4548 107.887C97.768 107.887 109.371 119.491 109.371 133.804C109.371 148.117 97.768 159.72 83.4548 159.72C69.1415 159.72 57.5384 148.117 57.5384 133.804ZM46.34 86.4551C32.3094 97.4685 23.2959 114.584 23.2959 133.804C23.2959 167.029 50.2299 193.963 83.4548 193.963C116.68 193.963 143.614 167.029 143.614 133.804C143.614 114.584 134.6 97.4685 120.57 86.4551H46.34Z" fill="black"/>
</mask>
<g mask="url(#mask0)">
<g opacity="0.6">
<g filter="url(#filter0_d)">
<ellipse rx="22.5021" ry="23.5251" transform="matrix(0.867613 0.49724 0.49724 -0.867613 71.6379 82.9635)" fill="#C4C4C4"/>
</g>
<g filter="url(#filter1_d)">
<ellipse rx="22.5021" ry="23.5251" transform="matrix(0.867613 0.49724 0.49724 -0.867613 30.5937 75.2238)" fill="#C4C4C4"/>
</g>
<g filter="url(#filter2_d)">
<ellipse cx="95.7952" cy="82.9635" rx="22.5021" ry="23.5251" transform="rotate(150.182 95.7952 82.9635)" fill="#C4C4C4"/>
</g>
<g filter="url(#filter3_d)">
<ellipse cx="136.839" cy="75.2238" rx="22.5021" ry="23.5251" transform="rotate(150.182 136.839 75.2238)" fill="#C4C4C4"/>
</g>
</g>
<g filter="url(#filter4_f)">
<path d="M96.3096 129.723C96.3096 134.309 94.88 136.984 93.3309 138.507C91.7658 140.045 88.8806 141.58 83.7937 141.58C78.4533 141.58 74.6032 140.011 72.3189 138.104C70.24 136.368 68.8754 133.923 68.8754 130.251C68.8754 122.119 74.6391 116.106 82.8697 116.106C91.0746 116.106 96.3096 121.565 96.3096 129.723Z" stroke="#900000" stroke-opacity="0.8" stroke-width="24.4949"/>
</g>
<g filter="url(#filter5_f)">
<path d="M145.789 131.782C145.789 150.963 139.885 166.299 129.703 176.81C119.542 187.301 104.616 193.509 85.5317 193.509C66.3245 193.509 49.6506 187.583 37.858 177.243C26.1368 166.965 18.9057 152.05 18.9057 133.252C18.9057 95.2481 45.855 65.1564 83.0822 65.1564C120.298 65.1564 145.789 93.7665 145.789 131.782Z" stroke="#900000" stroke-opacity="0.63" stroke-width="10.7777"/>
</g>
</g>
<path fill-rule="evenodd" clip-rule="evenodd" d="M138.815 54.9052C132.422 59.8146 125.537 63.7605 118.355 66.7431L125.832 100.559C137.77 96.2704 149.198 90.1057 159.67 82.0647C167.17 76.3058 168.581 65.5575 162.822 58.0577C157.063 50.5578 146.315 49.1464 138.815 54.9052Z" fill="#E37FAC"/>
<path fill-rule="evenodd" clip-rule="evenodd" d="M83.4229 107.91C97.7909 107.928 112.161 105.474 125.86 100.549C129.056 95.776 130.101 88.5844 128.132 81.239C126.407 74.7991 122.735 69.6196 118.382 66.7318C107.311 71.3331 95.5315 73.6451 83.7482 73.6679L83.4229 107.91Z" fill="#D40029"/>
<path fill-rule="evenodd" clip-rule="evenodd" d="M7.47436 82.0647C16.998 89.3775 27.3121 95.1384 38.0814 99.3476L48.5693 66.6513C41.4662 63.6798 34.6572 59.7644 28.3289 54.9053C20.8291 49.1464 10.0808 50.5578 4.32193 58.0577C-1.4369 65.5576 -0.0255069 76.3059 7.47436 82.0647Z" fill="#F39B00"/>
<path fill-rule="evenodd" clip-rule="evenodd" d="M83.4354 107.911C68.0342 107.894 52.6354 105.038 38.0695 99.343C35.8715 94.699 35.3446 88.5154 37.0318 82.2189C38.9923 74.9021 43.4656 69.2123 48.5948 66.662C59.8257 71.3564 71.7911 73.6917 83.7527 73.6679C84.963 78.2457 85.6831 83.9876 85.6831 90.2213C85.6831 96.9821 84.8361 103.164 83.4354 107.911Z" fill="#F0E45F"/>
<mask id="mask1" mask-type="alpha" maskUnits="userSpaceOnUse" x="0" y="51" width="167" height="57">
<path fill-rule="evenodd" clip-rule="evenodd" d="M82.1278 107.902C76.8883 107.842 71.6519 107.453 66.4511 106.735C56.7979 105.403 47.2676 102.939 38.0694 99.343C27.3045 95.1342 16.9945 89.3748 7.47436 82.0647C-0.0255068 76.3059 -1.4369 65.5576 4.32193 58.0577C10.0808 50.5578 20.8291 49.1464 28.3289 54.9053C34.6647 59.7702 41.4824 63.6891 48.5947 66.662C48.7403 66.7228 48.886 66.7833 49.0319 66.8433C54.6864 69.1721 60.5241 70.9049 66.4511 72.0418C72.1632 73.1374 77.9584 73.6794 83.7527 73.6679C91.9833 73.6516 100.212 72.5183 108.199 70.2682C111.591 69.3125 114.939 68.1554 118.225 66.7969L118.382 66.7318C125.555 63.7506 132.43 59.8084 138.815 54.9053C146.315 49.1464 157.064 50.5578 162.822 58.0577C168.581 65.5576 167.17 76.3059 159.67 82.0647C149.206 90.0996 137.788 96.261 125.86 100.549C120.076 102.629 114.172 104.267 108.199 105.466C100.03 107.105 91.7324 107.92 83.4354 107.91C82.9995 107.91 82.5636 107.907 82.1278 107.902Z" fill="#F0E45F"/>
</mask>
<g mask="url(#mask1)">
<g filter="url(#filter6_f)">
<path d="M134.637 48.5595C144.527 40.9654 159.493 42.5353 166.795 52.0449L170.774 48.9897L166.795 52.0449C173.722 61.0668 170.32 75.6963 159.88 83.7127C136.686 101.523 111.934 107.69 83.7383 107.66C55.2145 107.628 29.2445 99.497 6.77408 82.2429C1.78153 78.4094 -1.96854 72.4772 -3.45087 66.2541C-4.92814 60.0522 -4.06302 54.0656 -0.630515 49.5954C6.41459 40.4204 19.3088 39.7023 29.5677 47.5797C36.7256 53.0759 45.358 59.0494 54.5613 63.6595C63.7181 68.2464 73.7892 71.6622 83.7428 71.6425C103.298 71.6037 120.821 59.1687 134.637 48.5595Z" stroke="#900000" stroke-opacity="0.41" stroke-width="10.0331"/>
</g>
</g>
<path d="M80.0066 0.314877C86.5638 8.47294 90.6358 19.8711 90.6358 32.4834C90.6358 33.6424 90.6014 34.7911 90.5339 35.928C90.4494 35.9349 90.3648 35.9416 90.2802 35.9481C98.1891 35.3385 105.496 33.1219 111.661 29.7209C111.716 29.0073 111.744 28.286 111.744 27.5582C111.744 12.3382 99.406 0 84.186 0C82.7652 0 81.3695 0.107523 80.0066 0.314877Z" fill="#F39B00"/>
<path d="M80.0067 0.314911C66.7701 2.32875 56.6279 13.7591 56.6279 27.5582C56.6279 27.5956 56.628 27.6329 56.6282 27.6702C64.48 32.9373 74.6796 36.1188 85.8278 36.1188C87.4172 36.1188 88.9872 36.0541 90.5339 35.928C90.6015 34.7911 90.6359 33.6424 90.6359 32.4835C90.6359 19.8711 86.5638 8.47298 80.0067 0.314911Z" fill="#D40029"/>
<path d="M90.5342 35.9243C90.1224 42.8645 88.4751 49.3641 85.8724 55.0656C85.3146 55.0993 84.7524 55.1163 84.1861 55.1163C69.0035 55.1163 56.6885 42.8386 56.6282 27.6702C64.48 32.9373 74.6796 36.1188 85.8278 36.1188C87.4172 36.1188 88.9872 36.0541 90.534 35.928C90.534 35.9268 90.5341 35.9255 90.5342 35.9243Z" fill="#E37FAC"/>
<path d="M85.8723 55.0656C99.59 54.2376 110.601 43.3748 111.661 29.7209C105.562 33.0856 98.3453 35.2909 90.5339 35.928C90.1217 42.8668 88.4745 49.3651 85.8723 55.0656Z" fill="#F0E45F"/>
<mask id="mask2" mask-type="alpha" maskUnits="userSpaceOnUse" x="56" y="0" width="56" height="56">
<circle cx="84.1846" cy="27.5567" r="27.5567" fill="#900000"/>
</mask>
<g mask="url(#mask2)">
<g filter="url(#filter7_f)">
<path d="M113.456 27.4342C113.456 42.7751 100.918 55.3583 84.0622 55.3583C75.4454 55.3583 67.9831 53.004 62.2718 48.544C56.5757 44.0958 52.446 37.4178 50.7045 28.4376C49.0527 19.9204 52.7477 9.97446 59.7178 2.62436C66.6544 -4.6904 76.433 -9.01384 86.5006 -6.91037C97.0897 -4.69792 103.723 -0.0111208 107.761 5.89524C111.839 11.8597 113.456 19.3432 113.456 27.4342Z" stroke="#900000" stroke-opacity="0.76" stroke-width="4.89897"/>
</g>
</g>
<path d="M204.514 93.4936L196.297 83.6496H196.227V93.4936H192.705V71.2046H196.227V80.9436H196.297L204.105 71.2693H208.303L199.304 82.096L208.976 93.4936H204.514Z" fill="#696566"/>
<path d="M221.895 74.0803C217.396 74.0803 214.386 77.2602 214.386 82.4649C214.386 87.6427 217.396 90.8199 221.895 90.8199C226.357 90.8199 229.37 87.6427 229.37 82.4649C229.37 77.4594 226.561 74.0803 221.895 74.0803ZM213.809 74.2472C215.807 72.217 218.616 71 221.895 71C225.409 71 228.36 72.287 230.352 74.4842C232.178 76.5143 233.155 79.2554 233.155 82.3976C233.155 85.7471 232.008 88.6901 229.948 90.7176C227.913 92.7128 225.177 93.8302 221.895 93.8302C218.747 93.8302 216.111 92.8501 214.149 91.0892C211.914 89.0267 210.627 86.0164 210.627 82.5349C210.627 79.2177 211.785 76.3124 213.809 74.2472Z" fill="#696566"/>
<path d="M242.522 74.2822H240.498V81.6868H242.59C244.889 81.6868 246.58 79.9285 246.58 77.7987C246.58 75.8708 245.398 74.2822 242.522 74.2822ZM248.648 93.4936C245.161 87.745 243.44 84.6997 242.557 84.4628H240.498V93.4936H236.946V71.2046H242.495C248.069 71.2046 250.199 74.013 250.199 77.4298C250.199 80.4697 248.206 82.4326 246.004 83.3131V83.3454C246.922 83.8193 249.283 87.7773 252.77 93.4936H248.648Z" fill="#696566"/>
<path d="M256.246 93.4936V71.2046H268.147L267.07 74.2472H259.798V80.572H267.038V83.6146H259.798V90.451H268.185V93.4936H256.246Z" fill="#696566"/>
<path d="M282.106 78.8811C281.737 77.7664 281.432 76.8509 281.295 76.1428H281.263C281.053 76.9182 280.786 77.7987 280.38 78.8461L278.177 84.8344H284.171L282.106 78.8811ZM287.553 93.4936L285.323 87.8096H277.068L274.968 93.4936H271.457L280.081 71.1373H282.547L291.371 93.4936H287.553Z" fill="#696566"/>
<path d="M206.946 115.115H200.823V134.359H197.242V115.115H190.78V112.07H207.928L206.946 115.115Z" fill="#696566"/>
<path d="M219.197 114.945C214.703 114.945 211.693 118.125 211.693 123.333C211.693 128.508 214.703 131.685 219.197 131.685C223.669 131.685 226.677 128.508 226.677 123.333C226.677 118.327 223.868 114.945 219.197 114.945ZM211.116 115.115C213.109 113.082 215.917 111.868 219.197 111.868C222.721 111.868 225.662 113.152 227.654 115.352C229.48 117.382 230.462 120.12 230.462 123.262C230.462 126.612 229.31 129.555 227.25 131.585C225.22 133.58 222.479 134.698 219.197 134.698C216.055 134.698 213.413 133.712 211.456 131.957C209.221 129.894 207.939 126.881 207.939 123.4C207.939 120.083 209.086 117.175 211.116 115.115Z" fill="#696566"/>
<path d="M249.911 132.296C248.422 133.815 246.187 134.698 243.01 134.698C239.965 134.698 237.794 133.917 236.41 132.568C234.755 130.977 234.248 128.578 234.248 126.24V112.07H237.767V126.074C237.767 127.63 238.209 129.148 239.181 130.196C240.035 131.111 241.311 131.652 243.08 131.652C245.045 131.652 246.386 131.111 247.24 130.196C248.147 129.251 248.489 127.867 248.489 126.275V112.07H252.041V126.308C252.041 128.675 251.362 130.804 249.911 132.296Z" fill="#696566"/>
<path d="M262.69 115.147H260.665V122.552H262.763C265.057 122.552 266.75 120.796 266.75 118.666C266.75 116.738 265.565 115.147 262.69 115.147ZM268.815 134.359C265.329 128.61 263.611 125.567 262.722 125.328H260.665V134.359H257.116V112.07H262.663C268.236 112.07 270.366 114.878 270.366 118.292C270.366 121.335 268.379 123.298 266.171 124.175V124.213C267.092 124.687 269.459 128.642 272.938 134.359H268.815Z" fill="#696566"/>
<path d="M275.746 112.07H279.295V134.356H275.746V112.07Z" fill="#696566"/>
<path d="M289.61 134.698C286.532 134.698 284.435 133.685 283.016 132.77L284.507 130.099C285.622 130.874 287.38 131.755 289.483 131.755C291.309 131.755 293.433 130.944 293.433 128.911C293.433 125.497 288.059 124.819 285.35 121.811C284.435 120.796 283.829 119.541 283.829 117.818C283.829 114.576 286.333 111.868 290.829 111.868C293.196 111.868 294.952 112.473 296.11 113.082L296.066 116.399C294.553 115.489 292.822 114.843 291.002 114.843C289.074 114.843 287.485 115.656 287.485 117.412C287.485 121.811 297.219 121.677 297.219 128.508C297.219 132.264 293.912 134.698 289.61 134.698Z" fill="#696566"/>
<path d="M319.339 134.359V120.153C319.339 119.342 319.339 118.734 319.406 117.783H319.339C319.04 118.599 318.434 119.479 318.087 120.053L313.016 127.999H311.161L305.682 119.953C305.308 119.374 304.834 118.734 304.392 117.783H304.325C304.424 118.766 304.424 119.342 304.424 120.083V134.359H300.905V112.07H304.287L310.749 121.539C311.36 122.452 311.764 123.096 312.106 123.771H312.139C312.443 123.131 312.812 122.452 313.423 121.475L319.444 112.07H322.852V134.359H319.339Z" fill="#696566"/>
<path d="M202.818 155.247C198.321 155.247 195.311 158.43 195.311 163.64C195.311 168.81 198.321 171.99 202.818 171.99C207.288 171.99 210.295 168.81 210.295 163.64C210.295 158.632 207.487 155.247 202.818 155.247ZM194.735 155.42C196.733 153.387 199.541 152.173 202.818 152.173C206.34 152.173 209.28 153.457 211.273 155.657C213.098 157.684 214.081 160.425 214.081 163.567C214.081 166.92 212.934 169.863 210.869 171.89C208.838 173.883 206.103 175 202.818 175C199.676 175 197.032 174.02 195.077 172.262C192.845 170.202 191.558 167.192 191.558 163.702C191.558 160.39 192.705 157.482 194.735 155.42Z" fill="#696566"/>
<path d="M223.448 155.455H221.424V162.859H223.516C225.818 162.859 227.506 161.098 227.506 158.969C227.506 157.043 226.324 155.455 223.448 155.455ZM229.569 174.663C226.087 168.912 224.361 165.87 223.483 165.633H221.424V174.663H217.872V152.377H223.416C228.995 152.377 231.13 155.183 231.13 158.6C231.13 161.642 229.132 163.602 226.93 164.483V164.518C227.843 164.989 230.215 168.947 233.696 174.663H229.569Z" fill="#696566"/>
<path d="M246.518 175C239.714 175 235.352 170.229 235.352 163.804C235.352 157.073 240.191 152.173 247.466 152.173C250.304 152.173 252.466 152.816 253.923 153.425L253.885 156.839C252.267 155.996 250.131 155.183 247.7 155.183C241.917 155.183 239.175 158.834 239.175 163.47C239.175 168.476 242.32 171.99 247.428 171.99C249.084 171.99 250.368 171.685 251.182 171.252V163.567H254.733V173.037C252.94 173.988 250 175 246.518 175Z" fill="#696566"/>
<path d="M267.889 160.051C267.512 158.934 267.213 158.021 267.081 157.313H267.038C266.844 158.093 266.564 158.969 266.166 160.021L263.966 166.004H269.951L267.889 160.051ZM273.339 174.663L271.104 168.982H262.846L260.748 174.663H257.229L265.867 152.307H268.328L277.151 174.663H273.339Z" fill="#696566"/>
<path d="M296.199 174.663L285.714 160.966C284.629 159.545 284.025 158.664 283.479 157.754H283.409C283.479 158.497 283.479 159.577 283.479 160.662V174.663H279.96V152.377H283.546L293.622 165.563C294.847 167.154 295.453 168.002 295.962 168.912H296.032C295.994 168.002 295.962 166.885 295.962 165.802V152.377H299.513V174.663H296.199Z" fill="#696566"/>
<path d="M304.451 152.377H308V174.666H304.451V152.377Z" fill="#696566"/>
<path d="M311.619 174.663L322.814 155.317L312.9 155.42L311.923 152.377H328.393L317.365 171.685L328.663 171.583V174.663H311.619Z" fill="#696566"/>
<path d="M341.266 160.051C340.9 158.934 340.593 158.021 340.458 157.313H340.426C340.222 158.093 339.952 158.969 339.548 160.021L337.349 166.004H343.334L341.266 160.051ZM346.716 174.663L344.487 168.982H336.228L334.131 174.663H330.612L339.241 152.307H341.708L350.539 174.663H346.716Z" fill="#696566"/>
<path d="M366.167 155.42H360.052V174.663H356.466V155.42H350.009V152.377H367.158L366.167 155.42Z" fill="#696566"/>
<path d="M369.719 152.377H373.273V174.666H369.719V152.377Z" fill="#696566"/>
<path d="M388.324 155.247C383.828 155.247 380.815 158.43 380.815 163.64C380.815 168.81 383.828 171.99 388.324 171.99C392.789 171.99 395.801 168.81 395.801 163.64C395.801 158.632 392.988 155.247 388.324 155.247ZM380.236 155.42C382.239 153.387 385.047 152.173 388.324 152.173C391.843 152.173 394.781 153.457 396.776 155.657C398.604 157.684 399.585 160.425 399.585 163.567C399.585 166.92 398.437 169.863 396.375 171.89C394.345 173.883 391.606 175 388.324 175C385.179 175 382.541 174.02 380.578 172.262C378.348 170.202 377.064 167.192 377.064 163.702C377.064 160.39 378.211 157.482 380.236 155.42Z" fill="#696566"/>
<path d="M419.609 174.663L409.125 160.966C408.039 159.545 407.431 158.664 406.89 157.754H406.82C406.89 158.497 406.89 159.577 406.89 160.662V174.663H403.376V152.377H406.962L417.038 165.563C418.252 167.154 418.864 168.002 419.372 168.912H419.437C419.41 168.002 419.372 166.885 419.372 165.802V152.377H422.929V174.663H419.609Z" fill="#696566"/>
<defs>
<filter id="filter0_d" x="29.6432" y="49.5977" width="78.3607" height="79.3966" filterUnits="userSpaceOnUse" color-interpolation-filters="sRGB">
<feFlood flood-opacity="0" result="BackgroundImageFix"/>
<feColorMatrix in="SourceAlpha" type="matrix" values="0 0 0 0 0 0 0 0 0 0 0 0 0 0 0 0 0 0 127 0"/>
<feOffset dx="-2.81445" dy="6.33251"/>
<feGaussianBlur stdDeviation="8.20881"/>
<feColorMatrix type="matrix" values="0 0 0 0 0.508333 0 0 0 0 0.307864 0 0 0 0 0 0 0 0 1 0"/>
<feBlend mode="multiply" in2="BackgroundImageFix" result="effect1_dropShadow"/>
<feBlend mode="normal" in="SourceGraphic" in2="effect1_dropShadow" result="shape"/>
</filter>
<filter id="filter1_d" x="-3.19221" y="38.3399" width="84.4587" height="85.4946" filterUnits="userSpaceOnUse" color-interpolation-filters="sRGB">
<feFlood flood-opacity="0" result="BackgroundImageFix"/>
<feColorMatrix in="SourceAlpha" type="matrix" values="0 0 0 0 0 0 0 0 0 0 0 0 0 0 0 0 0 0 127 0"/>
<feOffset dx="8.44335" dy="5.86344"/>
<feGaussianBlur stdDeviation="9.73331"/>
<feColorMatrix type="matrix" values="0 0 0 0 0.508333 0 0 0 0 0.307864 0 0 0 0 0 0 0 0 1 0"/>
<feBlend mode="multiply" in2="BackgroundImageFix" result="effect1_dropShadow"/>
<feBlend mode="normal" in="SourceGraphic" in2="effect1_dropShadow" result="shape"/>
</filter>
<filter id="filter2_d" x="59.4293" y="49.5977" width="78.3607" height="79.3966" filterUnits="userSpaceOnUse" color-interpolation-filters="sRGB">
<feFlood flood-opacity="0" result="BackgroundImageFix"/>
<feColorMatrix in="SourceAlpha" type="matrix" values="0 0 0 0 0 0 0 0 0 0 0 0 0 0 0 0 0 0 127 0"/>
<feOffset dx="2.81445" dy="6.33251"/>
<feGaussianBlur stdDeviation="8.20881"/>
<feColorMatrix type="matrix" values="0 0 0 0 0.576471 0 0 0 0 0 0 0 0 0 0.105882 0 0 0 1 0"/>
<feBlend mode="multiply" in2="BackgroundImageFix" result="effect1_dropShadow"/>
<feBlend mode="normal" in="SourceGraphic" in2="effect1_dropShadow" result="shape"/>
</filter>
<filter id="filter3_d" x="86.1667" y="38.3399" width="84.4587" height="85.4946" filterUnits="userSpaceOnUse" color-interpolation-filters="sRGB">
<feFlood flood-opacity="0" result="BackgroundImageFix"/>
<feColorMatrix in="SourceAlpha" type="matrix" values="0 0 0 0 0 0 0 0 0 0 0 0 0 0 0 0 0 0 127 0"/>
<feOffset dx="-8.44335" dy="5.86344"/>
<feGaussianBlur stdDeviation="9.73331"/>
<feColorMatrix type="matrix" values="0 0 0 0 0.575 0 0 0 0 0 0 0 0 0 0.107812 0 0 0 1 0"/>
<feBlend mode="multiply" in2="BackgroundImageFix" result="effect1_dropShadow"/>
<feBlend mode="normal" in="SourceGraphic" in2="effect1_dropShadow" result="shape"/>
</filter>
<filter id="filter4_f" x="39.9714" y="87.2017" width="85.2421" height="83.2825" filterUnits="userSpaceOnUse" color-interpolation-filters="sRGB">
<feFlood flood-opacity="0" result="BackgroundImageFix"/>
<feBlend mode="normal" in="SourceGraphic" in2="BackgroundImageFix" result="shape"/>
<feGaussianBlur stdDeviation="8.32825" result="effect1_foregroundBlur"/>
</filter>
<filter id="filter5_f" x="-3.13965" y="43.111" width="170.974" height="172.444" filterUnits="userSpaceOnUse" color-interpolation-filters="sRGB">
<feFlood flood-opacity="0" result="BackgroundImageFix"/>
<feBlend mode="normal" in="SourceGraphic" in2="BackgroundImageFix" result="shape"/>
<feGaussianBlur stdDeviation="8.32825" result="effect1_foregroundBlur"/>
</filter>
<filter id="filter6_f" x="-23.8541" y="22.4445" width="214.01" height="104.929" filterUnits="userSpaceOnUse" color-interpolation-filters="sRGB">
<feFlood flood-opacity="0" result="BackgroundImageFix"/>
<feBlend mode="normal" in="SourceGraphic" in2="BackgroundImageFix" result="shape"/>
<feGaussianBlur stdDeviation="7.34846" result="effect1_foregroundBlur"/>
</filter>
<filter id="filter7_f" x="34.1459" y="-23.6112" width="95.4767" height="95.1362" filterUnits="userSpaceOnUse" color-interpolation-filters="sRGB">
<feFlood flood-opacity="0" result="BackgroundImageFix"/>
<feBlend mode="normal" in="SourceGraphic" in2="BackgroundImageFix" result="shape"/>
<feGaussianBlur stdDeviation="6.85856" result="effect1_foregroundBlur"/>
</filter>
</defs>
</svg>
