<svg width="358" height="194" viewBox="0 0 358 194" fill="none" xmlns="http://www.w3.org/2000/svg">
<path fill-rule="evenodd" clip-rule="evenodd" d="M22.5164 133.804C22.5164 114.447 31.658 97.2261 45.8594 86.2219H84.6689V107.963C84.0109 107.913 83.3461 107.887 82.6752 107.887C68.362 107.887 56.7588 119.49 56.7588 133.804C56.7588 136.156 57.0721 138.434 57.6593 140.6L25.0424 151.109C23.3992 145.628 22.5164 139.819 22.5164 133.804Z" fill="#E37FAC"/>
<path fill-rule="evenodd" clip-rule="evenodd" d="M84.6689 107.963V86.2219H119.491C133.692 97.2261 142.834 114.447 142.834 133.804C142.834 139.419 142.065 144.854 140.626 150.01L107.587 140.972C108.241 138.696 108.592 136.291 108.592 133.804C108.592 120.161 98.0506 108.981 84.6689 107.963Z" fill="#F39B00"/>
<path fill-rule="evenodd" clip-rule="evenodd" d="M82.6753 159.72C94.5108 159.72 104.493 151.786 107.595 140.947C112.239 139.395 118.183 139.161 124.343 140.611C131.435 142.282 137.274 145.825 140.629 149.998C133.558 175.357 110.29 193.963 82.6753 193.963L82.6166 193.963L82.54 159.72C82.5851 159.72 82.6302 159.72 82.6753 159.72Z" fill="#F0E45F"/>
<path fill-rule="evenodd" clip-rule="evenodd" d="M57.6527 140.576C60.6202 151.567 70.6356 159.664 82.5512 159.72C83.8741 164.403 84.6689 170.41 84.6689 176.959C84.6689 183.399 83.9003 189.314 82.6168 193.963C55.4245 193.937 32.456 175.87 25.0356 151.086C28.2056 146.447 34.4298 142.425 42.1307 140.611C47.7607 139.285 53.2109 139.367 57.6527 140.576Z" fill="#D40029"/>
<mask id="mask0" mask-type="alpha" maskUnits="userSpaceOnUse" x="22" y="86" width="121" height="108">
<path fill-rule="evenodd" clip-rule="evenodd" d="M56.7588 133.804C56.7588 119.49 68.362 107.887 82.6752 107.887C96.9885 107.887 108.592 119.49 108.592 133.804C108.592 148.117 96.9885 159.72 82.6752 159.72C68.362 159.72 56.7588 148.117 56.7588 133.804ZM45.5604 86.4551C31.5298 97.4685 22.5164 114.584 22.5164 133.804C22.5164 167.029 49.4504 193.963 82.6752 193.963C115.9 193.963 142.834 167.029 142.834 133.804C142.834 114.584 133.821 97.4685 119.79 86.4551H45.5604Z" fill="black"/>
</mask>
<g mask="url(#mask0)">
<g opacity="0.6">
<g filter="url(#filter0_d)">
<ellipse rx="22.5021" ry="23.5251" transform="matrix(0.867613 0.49724 0.49724 -0.867613 70.8584 82.9634)" fill="#C4C4C4"/>
</g>
<g filter="url(#filter1_d)">
<ellipse rx="22.5021" ry="23.5251" transform="matrix(0.867613 0.49724 0.49724 -0.867613 29.8142 75.2237)" fill="#C4C4C4"/>
</g>
<g filter="url(#filter2_d)">
<ellipse cx="95.0156" cy="82.9634" rx="22.5021" ry="23.5251" transform="rotate(150.182 95.0156 82.9634)" fill="#C4C4C4"/>
</g>
<g filter="url(#filter3_d)">
<ellipse cx="136.06" cy="75.2237" rx="22.5021" ry="23.5251" transform="rotate(150.182 136.06 75.2237)" fill="#C4C4C4"/>
</g>
</g>
<g filter="url(#filter4_f)">
<path d="M95.5298 129.723C95.5298 134.309 94.1003 136.984 92.5511 138.507C90.986 140.045 88.1009 141.58 83.0139 141.58C77.6735 141.58 73.8234 140.011 71.5391 138.103C69.4602 136.368 68.0956 133.923 68.0956 130.251C68.0956 122.119 73.8593 116.106 82.0899 116.106C90.2948 116.106 95.5298 121.565 95.5298 129.723Z" stroke="#900000" stroke-opacity="0.8" stroke-width="24.4949"/>
</g>
<g filter="url(#filter5_f)">
<path d="M145.01 131.782C145.01 150.963 139.105 166.299 128.924 176.81C118.763 187.3 103.836 193.509 84.7522 193.509C65.5449 193.509 48.871 187.583 37.0785 177.242C25.3572 166.965 18.1262 152.05 18.1262 133.252C18.1262 95.248 45.0754 65.1563 82.3027 65.1563C119.519 65.1563 145.01 93.7664 145.01 131.782Z" stroke="#900000" stroke-opacity="0.63" stroke-width="10.7777"/>
</g>
</g>
<path fill-rule="evenodd" clip-rule="evenodd" d="M138.036 54.9053C131.642 59.8146 124.758 63.7606 117.575 66.7431L125.053 100.559C136.99 96.2705 148.418 90.1057 158.89 82.0647C166.39 76.3059 167.802 65.5576 162.043 58.0577C156.284 50.5578 145.536 49.1464 138.036 54.9053Z" fill="#E37FAC"/>
<path fill-rule="evenodd" clip-rule="evenodd" d="M82.6433 107.91C97.0113 107.928 111.382 105.474 125.08 100.549C128.276 95.776 129.321 88.5844 127.353 81.239C125.627 74.7991 121.955 69.6196 117.603 66.7318C106.532 71.3331 94.752 73.6451 82.9686 73.6679L82.6433 107.91Z" fill="#D40029"/>
<path fill-rule="evenodd" clip-rule="evenodd" d="M6.69482 82.0647C16.2184 89.3775 26.5326 95.1384 37.3018 99.3476L47.7898 66.6513C40.6867 63.6798 33.8776 59.7644 27.5494 54.9053C20.0495 49.1464 9.30122 50.5578 3.54239 58.0577C-2.21644 65.5576 -0.805048 76.3059 6.69482 82.0647Z" fill="#F39B00"/>
<path fill-rule="evenodd" clip-rule="evenodd" d="M82.6558 107.911C67.2547 107.894 51.8559 105.038 37.2899 99.343C35.0919 94.699 34.5651 88.5154 36.2522 82.2189C38.2127 74.9021 42.686 69.2123 47.8152 66.662C59.0462 71.3564 71.0115 73.6917 82.9732 73.6679C84.1834 78.2457 84.9035 83.9876 84.9035 90.2213C84.9035 96.9821 84.0565 103.164 82.6558 107.911Z" fill="#F0E45F"/>
<mask id="mask1" mask-type="alpha" maskUnits="userSpaceOnUse" x="0" y="51" width="166" height="57">
<path fill-rule="evenodd" clip-rule="evenodd" d="M81.3483 107.902C76.1088 107.842 70.8723 107.453 65.6716 106.735C56.0183 105.403 46.4881 102.939 37.2899 99.343C26.525 95.1342 16.2149 89.3748 6.69482 82.0647C-0.805048 76.3059 -2.21644 65.5576 3.54239 58.0577C9.30121 50.5578 20.0495 49.1464 27.5494 54.9053C33.8852 59.7702 40.7029 63.6891 47.8152 66.662C47.9608 66.7228 48.1065 66.7833 48.2523 66.8433C53.9069 69.1721 59.7445 70.9049 65.6716 72.0418C71.3837 73.1374 77.1789 73.6794 82.9732 73.6679C91.2038 73.6516 99.4326 72.5183 107.419 70.2682C110.811 69.3125 114.159 68.1554 117.445 66.7969L117.603 66.7318C124.775 63.7506 131.65 59.8084 138.036 54.9053C145.536 49.1464 156.284 50.5578 162.043 58.0577C167.802 65.5576 166.39 76.3059 158.89 82.0647C148.426 90.0996 137.008 96.261 125.08 100.549C119.296 102.629 113.392 104.267 107.419 105.466C99.2506 107.105 90.9529 107.92 82.6558 107.911C82.22 107.91 81.7841 107.907 81.3483 107.902Z" fill="#F0E45F"/>
</mask>
<g mask="url(#mask1)">
<g filter="url(#filter6_f)">
<path d="M133.858 48.5595C143.748 40.9654 158.713 42.5353 166.015 52.0449L169.994 48.9897L166.015 52.0449C172.943 61.0668 169.541 75.6963 159.101 83.7127C135.906 101.523 111.155 107.691 82.9588 107.66C54.435 107.629 28.465 99.497 5.99454 82.243C1.00199 78.4094 -2.74808 72.4772 -4.23041 66.2541C-5.70768 60.0522 -4.84256 54.0657 -1.41006 49.5954C5.63505 40.4204 18.5293 39.7024 28.7881 47.5797C35.946 53.076 44.5785 59.0494 53.7817 63.6595C62.9385 68.2464 73.0097 71.6623 82.9632 71.6425C102.518 71.6037 120.041 59.1687 133.858 48.5595Z" stroke="#900000" stroke-opacity="0.41" stroke-width="10.0331"/>
</g>
</g>
<path d="M79.2271 0.314877C85.7842 8.47294 89.8562 19.8711 89.8562 32.4834C89.8562 33.6424 89.8219 34.7911 89.7543 35.928C89.6698 35.9349 89.5853 35.9416 89.5006 35.9481C97.4096 35.3385 104.716 33.1219 110.881 29.7209C110.936 29.0073 110.965 28.286 110.965 27.5582C110.965 12.3382 98.6264 0 83.4065 0C81.9857 0 80.5899 0.107523 79.2271 0.314877Z" fill="#F39B00"/>
<path d="M79.2271 0.314941C65.9905 2.32878 55.8484 13.7591 55.8484 27.5582C55.8484 27.5956 55.8485 27.6329 55.8486 27.6703C63.7004 32.9373 73.9 36.1188 85.0483 36.1188C86.6376 36.1188 88.2077 36.0542 89.7544 35.928C89.8219 34.7912 89.8563 33.6425 89.8563 32.4835C89.8563 19.8712 85.7843 8.47301 79.2271 0.314941Z" fill="#D40029"/>
<path d="M89.7547 35.9243C89.3428 42.8645 87.6955 49.3641 85.0929 55.0656C84.5351 55.0993 83.9728 55.1164 83.4066 55.1164C68.224 55.1164 55.909 42.8387 55.8486 27.6703C63.7005 32.9373 73.9001 36.1188 85.0483 36.1188C86.6376 36.1188 88.2077 36.0542 89.7544 35.928C89.7545 35.9268 89.7546 35.9256 89.7547 35.9243Z" fill="#E37FAC"/>
<path d="M85.0928 55.0656C98.8104 54.2376 109.821 43.3749 110.881 29.721C104.782 33.0856 97.5658 35.291 89.7543 35.928C89.3421 42.8668 87.695 49.3652 85.0928 55.0656Z" fill="#F0E45F"/>
<mask id="mask2" mask-type="alpha" maskUnits="userSpaceOnUse" x="55" y="0" width="56" height="56">
<circle cx="83.4049" cy="27.5567" r="27.5567" fill="#900000"/>
</mask>
<g mask="url(#mask2)">
<g filter="url(#filter7_f)">
<path d="M112.676 27.4343C112.676 42.7751 100.138 55.3584 83.2824 55.3584C74.6656 55.3584 67.2034 53.004 61.492 48.544C55.7959 44.0958 51.6662 37.4179 49.9247 28.4376C48.2729 19.9204 51.9679 9.97449 58.938 2.62439C65.8746 -4.69037 75.6532 -9.01381 85.7208 -6.91034C96.31 -4.69789 102.944 -0.0110903 106.981 5.89527C111.059 11.8598 112.676 19.3432 112.676 27.4343Z" stroke="#900000" stroke-opacity="0.76" stroke-width="4.89897"/>
</g>
</g>
<path d="M211.22 162.927H213.797C214.682 162.927 215.13 163.313 215.13 164.087C215.13 164.859 214.682 165.245 213.797 165.245H211.22V172.658C211.22 173.665 211.031 174.305 210.651 174.566C210.273 174.839 209.798 174.977 209.239 174.977H207.874C207.801 174.977 207.736 174.944 207.674 174.89C207.62 174.831 207.59 174.766 207.59 174.688V158.552C207.59 157.589 207.215 157.03 206.47 156.874C205.723 156.72 205.353 156.393 205.353 155.889C205.353 155.681 205.439 155.549 205.623 155.503C205.801 155.451 206.014 155.424 206.26 155.424L210.937 156.307C211.031 156.307 211.099 156.334 211.142 156.385C211.193 156.436 211.22 156.504 211.22 156.601V162.927ZM196.056 166.341C196.056 167.229 196.25 168.076 196.647 168.883C197.046 169.682 197.686 170.081 198.576 170.081C199.445 170.081 200.099 169.69 200.53 168.91C200.968 168.127 201.183 167.293 201.183 166.405C201.183 165.496 200.978 164.646 200.557 163.85C200.147 163.064 199.497 162.665 198.606 162.665C197.753 162.665 197.122 163.056 196.693 163.842C196.261 164.619 196.056 165.461 196.056 166.341ZM200.984 178.477C200.984 178.636 201.022 178.741 201.078 178.801C201.148 178.857 201.27 178.882 201.443 178.882H210.937C211.768 178.882 212.181 179.273 212.181 180.045C212.181 180.817 211.768 181.203 210.937 181.203H200.363C199.61 181.203 198.919 180.995 198.29 180.576C197.67 180.164 197.359 179.57 197.359 178.801V175.991C197.359 175.198 196.995 174.715 196.261 174.526C195.54 174.342 195.176 174.021 195.176 173.554C195.176 173.344 195.233 173.217 195.36 173.163C195.481 173.117 195.646 173.093 195.856 173.093H200.706C200.795 173.093 200.868 173.117 200.916 173.163C200.962 173.217 200.984 173.282 200.984 173.384V178.477ZM200.479 159.197H205.01C205.817 159.197 206.225 159.578 206.225 160.35C206.225 161.121 205.817 161.51 205.01 161.51H201.664C202.598 161.953 203.351 162.584 203.931 163.407C204.522 164.225 204.811 165.167 204.811 166.23C204.811 167.814 204.19 169.158 202.946 170.267C201.696 171.379 200.252 171.935 198.606 171.935C196.963 171.935 195.513 171.401 194.269 170.343C193.014 169.274 192.399 167.955 192.399 166.379C192.399 165.294 192.699 164.325 193.306 163.477C193.905 162.63 194.669 161.972 195.597 161.51H193.274C192.936 161.51 192.394 161.31 191.644 160.916C190.896 160.517 190.526 160.088 190.526 159.626C190.526 159.416 190.613 159.292 190.802 159.251C190.974 159.208 191.133 159.197 191.26 159.197H196.868V158.525C196.868 157.926 196.552 157.524 195.907 157.308C195.271 157.098 194.949 156.812 194.949 156.445C194.949 156.269 195.006 156.153 195.117 156.094C195.227 156.037 195.381 156.007 195.57 156.007L200.198 156.445C200.287 156.445 200.352 156.472 200.398 156.517C200.452 156.569 200.479 156.642 200.479 156.739V159.197Z" fill="#696566"/>
<path d="M233.8 165.245L234.253 159.165C234.253 159.105 234.248 159.062 234.24 159.038C234.229 159.006 234.181 158.989 234.081 158.989H223.54C223.232 158.989 222.668 158.768 221.842 158.323C221.008 157.88 220.587 157.478 220.587 157.108C220.587 156.895 220.676 156.76 220.83 156.706C220.992 156.647 221.14 156.617 221.273 156.617H237.111C237.592 156.617 237.98 156.763 238.291 157.065C238.609 157.365 238.741 157.716 238.709 158.12C238.633 158.876 238.339 159.983 237.84 161.44C237.344 162.9 236.836 164.166 236.321 165.245H240.458C241.313 165.245 241.734 165.634 241.734 166.405C241.734 167.183 241.313 167.569 240.458 167.569H231.814V171.849H237.743C237.818 171.849 237.886 171.876 237.945 171.922C237.997 171.97 238.029 172.046 238.029 172.146V179.931C238.029 180.701 237.897 181.256 237.643 181.597C237.387 181.928 236.917 182.098 236.242 182.098H234.618C234.55 182.098 234.475 182.074 234.424 182.015C234.364 181.958 234.34 181.888 234.34 181.815V174.226H223.685C223.243 174.226 222.654 173.997 221.893 173.562C221.14 173.112 220.755 172.723 220.755 172.37C220.755 172.124 220.836 171.97 220.997 171.922C221.157 171.876 221.324 171.849 221.499 171.849H227.793V167.569H220.649C220.155 167.569 219.581 167.347 218.917 166.913C218.258 166.473 217.921 166.117 217.921 165.825C217.921 165.596 217.961 165.437 218.042 165.364C218.115 165.283 218.258 165.245 218.463 165.245H233.8Z" fill="#696566"/>
<path d="M255.228 178.477C255.228 178.636 255.26 178.741 255.328 178.801C255.395 178.857 255.511 178.882 255.687 178.882H265.747C266.576 178.882 266.986 179.273 266.986 180.045C266.986 180.817 266.576 181.203 265.747 181.203H254.605C253.846 181.203 253.155 180.995 252.54 180.576C251.911 180.164 251.595 179.57 251.595 178.801V176.018C251.595 175.228 251.237 174.734 250.511 174.556C249.782 174.375 249.42 174.051 249.42 173.581C249.42 173.371 249.482 173.244 249.604 173.198C249.725 173.147 249.893 173.123 250.095 173.123H254.942C255.044 173.123 255.117 173.147 255.163 173.198C255.206 173.244 255.228 173.314 255.228 173.414V178.477ZM258.426 165.998C257.943 166.826 257.446 167.202 256.947 167.113C256.445 167.023 256.229 166.597 256.307 165.825C256.345 165.089 256.396 164.217 256.467 163.205C256.529 162.19 256.572 161.291 256.588 160.517H248.735C248.416 160.517 247.912 160.279 247.242 159.788C246.557 159.292 246.22 158.873 246.22 158.525C246.22 158.309 246.268 158.18 246.357 158.12C246.452 158.061 246.573 158.037 246.724 158.037H259.287C260.04 158.037 260.515 158.509 260.698 159.454C260.515 160.574 260.188 161.758 259.756 163.019C259.308 164.268 258.868 165.261 258.426 165.998ZM262.401 170.111L247.944 171.584C247.663 171.584 247.121 171.368 246.33 170.92C245.534 170.478 245.14 170.07 245.14 169.709C245.14 169.471 245.191 169.323 245.307 169.239C245.424 169.166 245.594 169.126 245.82 169.126L250.643 168.894V166.405C250.643 165.51 250.305 164.978 249.647 164.784C248.986 164.589 248.654 164.287 248.654 163.882C248.654 163.726 248.692 163.631 248.77 163.596C248.84 163.558 248.945 163.534 249.078 163.534H253.868C253.962 163.534 254.035 163.558 254.084 163.612C254.132 163.656 254.151 163.726 254.151 163.826V168.718L262.401 168.286V158.552C262.401 157.589 262.031 157.03 261.273 156.874C260.536 156.72 260.161 156.393 260.161 155.889C260.161 155.681 260.239 155.549 260.426 155.503C260.609 155.451 260.82 155.424 261.068 155.424L265.747 156.307C265.842 156.307 265.907 156.334 265.958 156.385C266.012 156.436 266.028 156.504 266.028 156.601V162.576H268.611C269.496 162.576 269.939 162.967 269.939 163.739C269.939 164.514 269.496 164.894 268.611 164.894H266.028V172.89C266.028 173.892 265.842 174.531 265.459 174.798C265.078 175.071 264.614 175.209 264.045 175.209H262.682C262.612 175.209 262.544 175.176 262.479 175.117C262.428 175.063 262.401 174.998 262.401 174.915V170.111Z" fill="#696566"/>
<path d="M283.853 176.423C283.853 177.468 284.117 178.331 284.649 179.027C285.181 179.721 285.866 180.072 286.727 180.072C287.607 180.072 288.308 179.721 288.819 179.027C289.326 178.331 289.588 177.468 289.588 176.423C289.588 175.381 289.326 174.507 288.819 173.8C288.308 173.096 287.607 172.742 286.727 172.742C285.853 172.742 285.156 173.096 284.633 173.8C284.117 174.507 283.853 175.381 283.853 176.423ZM286.754 170.548C288.376 170.548 289.874 171.101 291.258 172.208C292.629 173.317 293.325 174.726 293.325 176.423C293.325 178.123 292.629 179.524 291.258 180.639C289.874 181.75 288.376 182.304 286.754 182.304C285.146 182.304 283.642 181.75 282.247 180.639C280.838 179.524 280.137 178.123 280.137 176.423C280.137 174.726 280.838 173.317 282.247 172.208C283.642 171.101 285.146 170.548 286.754 170.548ZM286.638 165.072C286.147 165.904 285.639 166.273 285.119 166.187C284.592 166.101 284.382 165.666 284.46 164.894C284.487 164.166 284.528 163.348 284.565 162.452C284.609 161.556 284.633 160.719 284.649 159.947H276.739C276.38 159.947 275.867 159.732 275.209 159.311C274.55 158.882 274.219 158.525 274.219 158.237C274.219 158.023 274.267 157.888 274.362 157.834C274.456 157.775 274.577 157.745 274.734 157.745H287.402C288.16 157.745 288.624 158.218 288.819 159.159C288.624 160.282 288.33 161.364 287.912 162.406C287.491 163.448 287.07 164.338 286.638 165.072ZM290.548 168.977L275.973 170.459C275.562 170.497 274.982 170.278 274.235 169.806C273.487 169.336 273.117 168.921 273.117 168.573C273.117 168.343 273.169 168.187 273.285 168.114C273.401 168.038 273.565 167.995 273.792 167.995L278.782 167.731V165.885C278.782 164.994 278.45 164.452 277.792 164.26C277.133 164.068 276.79 163.769 276.79 163.361C276.79 163.205 276.834 163.11 276.912 163.073C276.985 163.032 277.09 163.019 277.222 163.019H282.01C282.115 163.019 282.177 163.032 282.231 163.089C282.277 163.137 282.298 163.205 282.298 163.305V167.561L290.548 167.158V158.552C290.548 157.589 290.179 157.03 289.431 156.874C288.675 156.72 288.308 156.393 288.308 155.889C288.308 155.681 288.392 155.549 288.581 155.503C288.756 155.451 288.967 155.424 289.215 155.424L293.895 156.307C293.989 156.307 294.054 156.334 294.105 156.385C294.159 156.436 294.175 156.504 294.175 156.601V161.769H296.758C297.649 161.769 298.091 162.152 298.091 162.927C298.091 163.699 297.649 164.087 296.758 164.087H294.175V169.064C294.175 170.07 293.989 170.661 293.606 170.837C293.231 171.007 292.756 171.096 292.187 171.096H290.837C290.759 171.096 290.691 171.069 290.632 171.007C290.575 170.95 290.548 170.88 290.548 170.804V168.977Z" fill="#696566"/>
<path d="M309.375 176.48C309.375 177.435 309.612 178.307 310.082 179.114C310.557 179.931 311.304 180.336 312.327 180.336C313.345 180.336 314.092 179.931 314.567 179.114C315.042 178.307 315.269 177.435 315.269 176.48C315.269 175.616 315.042 174.739 314.567 173.862C314.092 172.985 313.345 172.548 312.327 172.548C311.342 172.548 310.603 172.985 310.12 173.862C309.628 174.739 309.375 175.616 309.375 176.48ZM312.354 170.548C314.168 170.548 315.754 171.099 317.104 172.197C318.453 173.298 319.133 174.696 319.133 176.366C319.133 178.104 318.453 179.537 317.104 180.652C315.754 181.777 314.162 182.333 312.327 182.333C310.497 182.333 308.902 181.777 307.548 180.652C306.193 179.537 305.518 178.104 305.518 176.366C305.518 174.696 306.217 173.298 307.599 172.197C308.997 171.099 310.578 170.548 312.354 170.548ZM306.32 158.989C305.955 158.989 305.37 158.768 304.568 158.323C303.772 157.88 303.367 157.478 303.367 157.108C303.367 156.895 303.446 156.76 303.61 156.706C303.772 156.647 303.921 156.617 304.042 156.617H320.064C320.539 156.617 320.909 156.747 321.187 157.006C321.462 157.27 321.578 157.602 321.541 158.007C321.462 158.757 321.273 159.783 320.96 161.076C320.645 162.371 320.191 163.545 319.589 164.611C319.133 165.42 318.604 165.814 318.011 165.798C317.414 165.777 317.177 165.294 317.293 164.349V159.165C317.293 159.105 317.287 159.062 317.271 159.038C317.271 159.006 317.22 158.989 317.115 158.989H306.32ZM309.323 167.242V164.465C309.323 163.866 308.997 163.483 308.328 163.307C307.664 163.132 307.335 162.83 307.335 162.406C307.335 162.195 307.405 162.082 307.537 162.058C307.664 162.042 307.799 162.036 307.931 162.036H312.951C313.045 162.036 313.112 162.058 313.161 162.109C313.212 162.152 313.239 162.225 313.239 162.322V167.242H322.955C323.807 167.242 324.228 167.633 324.228 168.408C324.228 169.174 323.807 169.563 322.955 169.563H303.146C302.65 169.563 302.075 169.344 301.405 168.91C300.747 168.478 300.42 168.114 300.42 167.822C300.42 167.593 300.458 167.439 300.536 167.361C300.604 167.28 300.747 167.242 300.957 167.242H309.323Z" fill="#696566"/>
<path d="M348.018 164.403H350.606C351.442 164.403 351.874 164.797 351.874 165.569C351.874 166.335 351.442 166.727 350.606 166.727H348.018V179.176C348.018 180.352 347.831 181.124 347.454 181.507C347.078 181.883 346.604 182.066 346.034 182.066H344.679C344.601 182.066 344.534 182.042 344.474 181.982C344.418 181.926 344.391 181.861 344.391 181.783V158.903C344.391 157.918 343.994 157.303 343.203 157.049C342.415 156.798 342.018 156.436 342.018 155.945C342.018 155.732 342.097 155.594 342.283 155.53C342.461 155.46 342.677 155.424 342.914 155.424L347.737 156.307C347.831 156.307 347.912 156.334 347.947 156.385C348.001 156.436 348.018 156.504 348.018 156.601V164.403ZM335.35 166.575C335.255 166.77 335.15 166.956 335.034 167.142C334.923 167.326 334.797 167.515 334.664 167.709C333.817 169.039 332.778 170.378 331.555 171.719C330.317 173.06 329.094 174.143 327.866 174.977C327.34 175.325 326.976 175.411 326.787 175.244C326.601 175.063 326.679 174.755 327.049 174.31C327.667 173.517 328.387 172.54 329.194 171.371C330.012 170.2 330.776 168.91 331.493 167.504C332.041 166.424 332.541 165.245 332.994 163.971C333.447 162.697 333.739 161.604 333.849 160.698C333.982 159.867 333.69 159.343 332.964 159.119C332.252 158.9 331.887 158.582 331.887 158.177C331.887 157.983 331.96 157.853 332.12 157.791C332.268 157.721 332.451 157.683 332.662 157.683L337.682 158.566C338.054 158.566 338.286 158.671 338.391 158.873C338.497 159.073 338.524 159.302 338.472 159.551C338.302 160.312 338.038 160.323 337.687 161.364C337.339 162.406 336.907 163.499 336.367 164.638C336.915 165.372 337.539 166.079 338.24 166.77C338.934 167.45 339.468 167.955 339.827 168.286C340.264 168.651 340.607 168.851 340.847 168.894C341.095 168.934 341.282 169.118 341.411 169.442C341.776 170.332 342.029 171.452 342.188 172.801C342.334 174.156 342.134 174.977 341.587 175.265C341.106 175.516 340.526 175.085 339.827 173.975C339.131 172.866 338.478 171.808 337.87 170.804C337.46 170.087 337.026 169.369 336.578 168.632C336.141 167.901 335.725 167.215 335.35 166.575Z" fill="#696566"/>
<path d="M199.937 82.2786L193.989 75.154H193.937V82.2786H191.398V66.1484H193.937V73.1974H193.989L199.645 66.1943H202.676L196.167 74.0286L203.167 82.2786H199.937Z" fill="#696566"/>
<path d="M212.513 68.2318C209.255 68.2318 207.083 70.5311 207.083 74.2985C207.083 78.0416 209.255 80.3463 212.513 80.3463C215.748 80.3463 217.926 78.0416 217.926 74.2985C217.926 70.6741 215.891 68.2318 212.513 68.2318ZM206.662 68.3479C208.106 66.8798 210.146 66 212.513 66C215.063 66 217.187 66.9337 218.63 68.5206C219.956 69.9887 220.665 71.9722 220.665 74.2472C220.665 76.6707 219.84 78.8054 218.342 80.2681C216.871 81.7119 214.89 82.5215 212.513 82.5215C210.24 82.5215 208.327 81.809 206.91 80.5379C205.296 79.0482 204.368 76.8677 204.368 74.3444C204.368 71.9452 205.196 69.8456 206.662 68.3479Z" fill="#696566"/>
<path d="M227.45 68.3748H225.979V73.7318H227.493C229.164 73.7318 230.386 72.4607 230.386 70.9197C230.386 69.5272 229.531 68.3748 227.45 68.3748ZM231.879 82.2786C229.353 78.1199 228.109 75.9123 227.466 75.7423H225.979V82.2786H223.407V66.1484H227.423C231.46 66.1484 233.001 68.1778 233.001 70.6553C233.001 72.8547 231.56 74.2715 229.965 74.9111V74.93C230.629 75.2727 232.34 78.1388 234.861 82.2786H231.879Z" fill="#696566"/>
<path d="M237.387 82.2786V66.1484H245.993L245.213 68.3479H239.953V72.9276H245.191V75.1297H239.953V80.0737H246.014V82.2786H237.387Z" fill="#696566"/>
<path d="M256.086 71.7024C255.824 70.8981 255.603 70.2343 255.5 69.7188H255.482C255.333 70.2828 255.139 70.9197 254.842 71.6808L253.255 76.0122H257.584L256.086 71.7024ZM260.029 82.2786L258.42 78.1658H252.445L250.932 82.2786H248.381L254.621 66.0944H256.413L262.798 82.2786H260.029Z" fill="#696566"/>
<path d="M201.702 97.9284H197.262V111.854H194.674V97.9284H190V95.7236H202.414L201.702 97.9284Z" fill="#696566"/>
<path d="M210.567 97.8043C207.315 97.8043 205.132 100.106 205.132 103.876C205.132 107.619 207.315 109.924 210.567 109.924C213.797 109.924 215.975 107.619 215.975 103.876C215.975 100.252 213.94 97.8043 210.567 97.8043ZM204.716 97.9284C206.154 96.4576 208.189 95.5751 210.567 95.5751C213.112 95.5751 215.238 96.5062 216.682 98.1011C218.004 99.5665 218.717 101.55 218.717 103.825C218.717 106.246 217.883 108.381 216.391 109.846C214.92 111.292 212.939 112.099 210.567 112.099C208.289 112.099 206.381 111.39 204.959 110.116C203.345 108.626 202.419 106.446 202.419 103.925C202.419 101.523 203.245 99.4208 204.716 97.9284Z" fill="#696566"/>
<path d="M232.788 110.361C231.719 111.462 230.095 112.099 227.798 112.099C225.593 112.099 224.028 111.538 223.021 110.556C221.821 109.409 221.456 107.671 221.456 105.981V95.7236H224.004V105.857C224.004 106.985 224.325 108.086 225.029 108.842C225.642 109.5 226.57 109.897 227.844 109.897C229.269 109.897 230.249 109.5 230.861 108.842C231.52 108.157 231.763 107.155 231.763 106.003V95.7236H234.334V106.025C234.334 107.744 233.838 109.285 232.788 110.361Z" fill="#696566"/>
<path d="M242.039 97.9527H240.574V103.312H242.093C243.753 103.312 244.981 102.041 244.981 100.5C244.981 99.105 244.123 97.9527 242.039 97.9527ZM246.468 111.854C243.952 107.695 242.708 105.493 242.061 105.317H240.574V111.854H238.002V95.7236H242.023C246.055 95.7236 247.596 97.7584 247.596 100.228C247.596 102.427 246.152 103.849 244.56 104.489V104.511C245.224 104.853 246.937 107.719 249.455 111.854H246.468Z" fill="#696566"/>
<path d="M251.49 95.7236H254.057V111.854H251.49V95.7236Z" fill="#696566"/>
<path d="M261.521 112.099C259.297 112.099 257.773 111.365 256.755 110.707L257.827 108.769C258.634 109.33 259.907 109.97 261.427 109.97C262.744 109.97 264.293 109.384 264.293 107.911C264.293 105.442 260.399 104.948 258.442 102.775C257.773 102.041 257.341 101.132 257.341 99.885C257.341 97.5371 259.154 95.5751 262.401 95.5751C264.115 95.5751 265.391 96.015 266.222 96.4576L266.195 98.8568C265.1 98.1956 263.85 97.7287 262.528 97.7287C261.135 97.7287 259.978 98.317 259.978 99.5935C259.978 102.775 267.029 102.678 267.029 107.619C267.029 110.34 264.63 112.099 261.521 112.099Z" fill="#696566"/>
<path d="M283.038 111.854V101.572C283.038 100.986 283.038 100.543 283.089 99.8634H283.038C282.817 100.446 282.377 101.083 282.137 101.504L278.461 107.255H277.117L273.153 101.426C272.88 101.013 272.537 100.543 272.222 99.8634H272.168C272.243 100.57 272.243 100.986 272.243 101.523V111.854H269.701V95.7236H272.146L276.817 102.578C277.26 103.239 277.554 103.701 277.802 104.195H277.819C278.045 103.728 278.315 103.239 278.752 102.527L283.111 95.7236H285.588V111.854H283.038Z" fill="#696566"/>
<path d="M198.712 126.975C195.454 126.975 193.274 129.274 193.274 133.044C193.274 136.787 195.454 139.086 198.712 139.086C201.945 139.086 204.114 136.787 204.114 133.044C204.114 129.422 202.085 126.975 198.712 126.975ZM192.863 127.093C194.302 125.625 196.337 124.748 198.712 124.748C201.259 124.748 203.388 125.677 204.827 127.266C206.155 128.737 206.867 130.718 206.867 132.998C206.867 135.422 206.028 137.548 204.533 139.016C203.073 140.457 201.084 141.267 198.712 141.267C196.437 141.267 194.523 140.557 193.109 139.286C191.492 137.791 190.559 135.613 190.559 133.093C190.559 130.693 191.398 128.588 192.863 127.093Z" fill="#696566"/>
<path d="M213.641 127.123H212.175V132.483H213.692C215.352 132.483 216.577 131.206 216.577 129.665C216.577 128.273 215.721 127.123 213.641 127.123ZM218.067 141.024C215.549 136.865 214.305 134.661 213.665 134.488H212.175V141.024H209.609V124.894H213.619C217.656 124.894 219.2 126.929 219.2 129.401C219.2 131.6 217.756 133.02 216.159 133.657V133.681C216.817 134.021 218.541 136.887 221.062 141.024H218.067Z" fill="#696566"/>
<path d="M230.332 141.267C225.421 141.267 222.258 137.815 222.258 133.166C222.258 128.294 225.763 124.748 231.018 124.748C233.074 124.748 234.645 125.212 235.7 125.65L235.673 128.124C234.496 127.512 232.947 126.929 231.193 126.929C227.007 126.929 225.024 129.568 225.024 132.92C225.024 136.544 227.296 139.086 230.991 139.086C232.194 139.086 233.12 138.871 233.711 138.555V132.998H236.283V139.848C234.988 140.533 232.858 141.267 230.332 141.267Z" fill="#696566"/>
<path d="M245.804 130.451C245.534 129.638 245.318 128.98 245.218 128.47H245.191C245.043 129.031 244.849 129.665 244.56 130.426L242.957 134.755H247.299L245.804 130.451ZM249.747 141.024L248.128 136.914H242.161L240.639 141.024H238.086L244.333 124.84H246.12L252.513 141.024H249.747Z" fill="#696566"/>
<path d="M266.29 141.024L258.706 131.109C257.921 130.081 257.478 129.447 257.087 128.785H257.036C257.087 129.323 257.087 130.108 257.087 130.89V141.024H254.542V124.894H257.136L264.425 134.437C265.315 135.589 265.747 136.202 266.117 136.865H266.171C266.144 136.202 266.117 135.395 266.117 134.612V124.894H268.689V141.024H266.29Z" fill="#696566"/>
<path d="M272.257 124.894H274.829V141.027H272.257V124.894Z" fill="#696566"/>
<path d="M277.449 141.024L285.551 127.021L278.377 127.093L277.67 124.894H289.582L281.608 138.871L289.785 138.792V141.024H277.449Z" fill="#696566"/>
<path d="M298.901 130.451C298.639 129.638 298.423 128.98 298.324 128.47H298.297C298.148 129.031 297.954 129.665 297.662 130.426L296.078 134.755H300.404L298.901 130.451ZM302.855 141.024L301.233 136.914H295.261L293.741 141.024H291.202L297.438 124.84H299.23L305.618 141.024H302.855Z" fill="#696566"/>
<path d="M316.928 127.093H312.503V141.024H309.904V127.093H305.227V124.894H317.641L316.928 127.093Z" fill="#696566"/>
<path d="M319.495 124.894H322.067V141.027H319.495V124.894Z" fill="#696566"/>
<path d="M332.959 126.975C329.71 126.975 327.524 129.274 327.524 133.044C327.524 136.787 329.71 139.086 332.959 139.086C336.195 139.086 338.37 136.787 338.37 133.044C338.37 129.422 336.338 126.975 332.959 126.975ZM327.113 127.093C328.557 125.625 330.587 124.748 332.959 124.748C335.509 124.748 337.638 125.677 339.077 127.266C340.405 128.737 341.112 130.718 341.112 132.998C341.112 135.422 340.28 137.548 338.788 139.016C337.323 140.457 335.334 141.267 332.959 141.267C330.687 141.267 328.779 140.557 327.354 139.286C325.742 137.791 324.809 135.613 324.809 133.093C324.809 130.693 325.648 128.588 327.113 127.093Z" fill="#696566"/>
<path d="M355.601 141.024L348.012 131.109C347.227 130.081 346.79 129.447 346.398 128.785H346.352C346.398 129.323 346.398 130.108 346.398 130.89V141.024H343.848V124.894H346.447L353.747 134.437C354.621 135.589 355.064 136.202 355.434 136.865H355.479C355.461 136.202 355.434 135.395 355.434 134.612V124.894H358V141.024H355.601Z" fill="#696566"/>
<defs>
<filter id="filter0_d" x="28.8636" y="49.5976" width="78.3607" height="79.3966" filterUnits="userSpaceOnUse" color-interpolation-filters="sRGB">
<feFlood flood-opacity="0" result="BackgroundImageFix"/>
<feColorMatrix in="SourceAlpha" type="matrix" values="0 0 0 0 0 0 0 0 0 0 0 0 0 0 0 0 0 0 127 0"/>
<feOffset dx="-2.81445" dy="6.33251"/>
<feGaussianBlur stdDeviation="8.20881"/>
<feColorMatrix type="matrix" values="0 0 0 0 0.508333 0 0 0 0 0.307864 0 0 0 0 0 0 0 0 1 0"/>
<feBlend mode="multiply" in2="BackgroundImageFix" result="effect1_dropShadow"/>
<feBlend mode="normal" in="SourceGraphic" in2="effect1_dropShadow" result="shape"/>
</filter>
<filter id="filter1_d" x="-3.97175" y="38.3398" width="84.4587" height="85.4946" filterUnits="userSpaceOnUse" color-interpolation-filters="sRGB">
<feFlood flood-opacity="0" result="BackgroundImageFix"/>
<feColorMatrix in="SourceAlpha" type="matrix" values="0 0 0 0 0 0 0 0 0 0 0 0 0 0 0 0 0 0 127 0"/>
<feOffset dx="8.44335" dy="5.86344"/>
<feGaussianBlur stdDeviation="9.73331"/>
<feColorMatrix type="matrix" values="0 0 0 0 0.508333 0 0 0 0 0.307864 0 0 0 0 0 0 0 0 1 0"/>
<feBlend mode="multiply" in2="BackgroundImageFix" result="effect1_dropShadow"/>
<feBlend mode="normal" in="SourceGraphic" in2="effect1_dropShadow" result="shape"/>
</filter>
<filter id="filter2_d" x="58.6498" y="49.5976" width="78.3607" height="79.3966" filterUnits="userSpaceOnUse" color-interpolation-filters="sRGB">
<feFlood flood-opacity="0" result="BackgroundImageFix"/>
<feColorMatrix in="SourceAlpha" type="matrix" values="0 0 0 0 0 0 0 0 0 0 0 0 0 0 0 0 0 0 127 0"/>
<feOffset dx="2.81445" dy="6.33251"/>
<feGaussianBlur stdDeviation="8.20881"/>
<feColorMatrix type="matrix" values="0 0 0 0 0.576471 0 0 0 0 0 0 0 0 0 0.105882 0 0 0 1 0"/>
<feBlend mode="multiply" in2="BackgroundImageFix" result="effect1_dropShadow"/>
<feBlend mode="normal" in="SourceGraphic" in2="effect1_dropShadow" result="shape"/>
</filter>
<filter id="filter3_d" x="85.3872" y="38.3398" width="84.4587" height="85.4946" filterUnits="userSpaceOnUse" color-interpolation-filters="sRGB">
<feFlood flood-opacity="0" result="BackgroundImageFix"/>
<feColorMatrix in="SourceAlpha" type="matrix" values="0 0 0 0 0 0 0 0 0 0 0 0 0 0 0 0 0 0 127 0"/>
<feOffset dx="-8.44335" dy="5.86344"/>
<feGaussianBlur stdDeviation="9.73331"/>
<feColorMatrix type="matrix" values="0 0 0 0 0.575 0 0 0 0 0 0 0 0 0 0.107812 0 0 0 1 0"/>
<feBlend mode="multiply" in2="BackgroundImageFix" result="effect1_dropShadow"/>
<feBlend mode="normal" in="SourceGraphic" in2="effect1_dropShadow" result="shape"/>
</filter>
<filter id="filter4_f" x="39.1916" y="87.2017" width="85.2421" height="83.2825" filterUnits="userSpaceOnUse" color-interpolation-filters="sRGB">
<feFlood flood-opacity="0" result="BackgroundImageFix"/>
<feBlend mode="normal" in="SourceGraphic" in2="BackgroundImageFix" result="shape"/>
<feGaussianBlur stdDeviation="8.32825" result="effect1_foregroundBlur"/>
</filter>
<filter id="filter5_f" x="-3.9192" y="43.111" width="170.974" height="172.444" filterUnits="userSpaceOnUse" color-interpolation-filters="sRGB">
<feFlood flood-opacity="0" result="BackgroundImageFix"/>
<feBlend mode="normal" in="SourceGraphic" in2="BackgroundImageFix" result="shape"/>
<feGaussianBlur stdDeviation="8.32825" result="effect1_foregroundBlur"/>
</filter>
<filter id="filter6_f" x="-24.6337" y="22.4445" width="214.01" height="104.929" filterUnits="userSpaceOnUse" color-interpolation-filters="sRGB">
<feFlood flood-opacity="0" result="BackgroundImageFix"/>
<feBlend mode="normal" in="SourceGraphic" in2="BackgroundImageFix" result="shape"/>
<feGaussianBlur stdDeviation="7.34846" result="effect1_foregroundBlur"/>
</filter>
<filter id="filter7_f" x="33.3661" y="-23.6112" width="95.4767" height="95.1362" filterUnits="userSpaceOnUse" color-interpolation-filters="sRGB">
<feFlood flood-opacity="0" result="BackgroundImageFix"/>
<feBlend mode="normal" in="SourceGraphic" in2="BackgroundImageFix" result="shape"/>
<feGaussianBlur stdDeviation="6.85856" result="effect1_foregroundBlur"/>
</filter>
</defs>
</svg>
