<svg width="423" height="194" viewBox="0 0 423 194" fill="none" xmlns="http://www.w3.org/2000/svg">
<path fill-rule="evenodd" clip-rule="evenodd" d="M22.5164 133.804C22.5164 114.447 31.658 97.2261 45.8594 86.2219H84.6689V107.963C84.0109 107.913 83.3461 107.887 82.6752 107.887C68.362 107.887 56.7588 119.49 56.7588 133.804C56.7588 136.156 57.0721 138.434 57.6593 140.6L25.0424 151.109C23.3992 145.628 22.5164 139.819 22.5164 133.804Z" fill="#E37FAC"/>
<path fill-rule="evenodd" clip-rule="evenodd" d="M84.6689 107.963V86.2219H119.491C133.692 97.2261 142.834 114.447 142.834 133.804C142.834 139.419 142.065 144.854 140.626 150.01L107.587 140.972C108.241 138.696 108.592 136.29 108.592 133.804C108.592 120.161 98.0506 108.981 84.6689 107.963Z" fill="#F39B00"/>
<path fill-rule="evenodd" clip-rule="evenodd" d="M82.6753 159.72C94.5108 159.72 104.493 151.786 107.595 140.947C112.239 139.395 118.183 139.161 124.343 140.611C131.435 142.282 137.274 145.825 140.629 149.998C133.558 175.357 110.29 193.963 82.6753 193.963L82.6166 193.963L82.54 159.72C82.5851 159.72 82.6302 159.72 82.6753 159.72Z" fill="#F0E45F"/>
<path fill-rule="evenodd" clip-rule="evenodd" d="M57.6527 140.576C60.6202 151.567 70.6356 159.664 82.5512 159.72C83.8741 164.403 84.6689 170.41 84.6689 176.959C84.6689 183.399 83.9003 189.314 82.6168 193.963C55.4245 193.937 32.456 175.87 25.0356 151.086C28.2056 146.447 34.4298 142.425 42.1307 140.611C47.7607 139.285 53.2109 139.367 57.6527 140.576Z" fill="#D40029"/>
<mask id="mask0" mask-type="alpha" maskUnits="userSpaceOnUse" x="22" y="86" width="121" height="108">
<path fill-rule="evenodd" clip-rule="evenodd" d="M56.7588 133.804C56.7588 119.49 68.362 107.887 82.6752 107.887C96.9885 107.887 108.592 119.49 108.592 133.804C108.592 148.117 96.9885 159.72 82.6752 159.72C68.362 159.72 56.7588 148.117 56.7588 133.804ZM45.5604 86.4551C31.5298 97.4685 22.5164 114.584 22.5164 133.804C22.5164 167.029 49.4504 193.963 82.6752 193.963C115.9 193.963 142.834 167.029 142.834 133.804C142.834 114.584 133.821 97.4685 119.79 86.4551H45.5604Z" fill="black"/>
</mask>
<g mask="url(#mask0)">
<g opacity="0.6">
<g filter="url(#filter0_d)">
<ellipse rx="22.5021" ry="23.5251" transform="matrix(0.867613 0.49724 0.49724 -0.867613 70.8584 82.9635)" fill="#C4C4C4"/>
</g>
<g filter="url(#filter1_d)">
<ellipse rx="22.5021" ry="23.5251" transform="matrix(0.867613 0.49724 0.49724 -0.867613 29.8142 75.2238)" fill="#C4C4C4"/>
</g>
<g filter="url(#filter2_d)">
<ellipse cx="95.0156" cy="82.9635" rx="22.5021" ry="23.5251" transform="rotate(150.182 95.0156 82.9635)" fill="#C4C4C4"/>
</g>
<g filter="url(#filter3_d)">
<ellipse cx="136.06" cy="75.2238" rx="22.5021" ry="23.5251" transform="rotate(150.182 136.06 75.2238)" fill="#C4C4C4"/>
</g>
</g>
<g filter="url(#filter4_f)">
<path d="M95.5298 129.723C95.5298 134.309 94.1003 136.984 92.5511 138.507C90.986 140.045 88.1009 141.58 83.0139 141.58C77.6735 141.58 73.8234 140.011 71.5391 138.104C69.4602 136.368 68.0956 133.923 68.0956 130.251C68.0956 122.119 73.8593 116.106 82.0899 116.106C90.2948 116.106 95.5298 121.565 95.5298 129.723Z" stroke="#900000" stroke-opacity="0.8" stroke-width="24.4949"/>
</g>
<g filter="url(#filter5_f)">
<path d="M145.01 131.782C145.01 150.963 139.105 166.299 128.924 176.81C118.763 187.301 103.836 193.509 84.7522 193.509C65.5449 193.509 48.871 187.583 37.0785 177.243C25.3572 166.965 18.1262 152.05 18.1262 133.252C18.1262 95.2481 45.0754 65.1564 82.3027 65.1564C119.519 65.1564 145.01 93.7665 145.01 131.782Z" stroke="#900000" stroke-opacity="0.63" stroke-width="10.7777"/>
</g>
</g>
<path fill-rule="evenodd" clip-rule="evenodd" d="M138.036 54.9053C131.642 59.8147 124.758 63.7606 117.575 66.7431L125.053 100.559C136.99 96.2705 148.418 90.1057 158.89 82.0647C166.39 76.3059 167.802 65.5576 162.043 58.0577C156.284 50.5579 145.536 49.1465 138.036 54.9053Z" fill="#E37FAC"/>
<path fill-rule="evenodd" clip-rule="evenodd" d="M82.6433 107.911C97.0113 107.928 111.382 105.474 125.08 100.549C128.276 95.7761 129.321 88.5845 127.353 81.2391C125.627 74.7992 121.955 69.6197 117.603 66.7318C106.532 71.3331 94.752 73.6452 82.9686 73.668L82.6433 107.911Z" fill="#D40029"/>
<path fill-rule="evenodd" clip-rule="evenodd" d="M6.69482 82.0647C16.2184 89.3775 26.5326 95.1385 37.3018 99.3477L47.7898 66.6514C40.6867 63.6798 33.8776 59.7645 27.5494 54.9053C20.0495 49.1465 9.30122 50.5579 3.54239 58.0577C-2.21644 65.5576 -0.805048 76.3059 6.69482 82.0647Z" fill="#F39B00"/>
<path fill-rule="evenodd" clip-rule="evenodd" d="M82.6558 107.911C67.2547 107.894 51.8559 105.038 37.2899 99.343C35.0919 94.699 34.5651 88.5154 36.2522 82.2189C38.2127 74.9021 42.686 69.2123 47.8152 66.662C59.0462 71.3564 71.0115 73.6917 82.9732 73.6679C84.1834 78.2457 84.9035 83.9876 84.9035 90.2213C84.9035 96.9821 84.0565 103.164 82.6558 107.911Z" fill="#F0E45F"/>
<mask id="mask1" mask-type="alpha" maskUnits="userSpaceOnUse" x="0" y="51" width="166" height="57">
<path fill-rule="evenodd" clip-rule="evenodd" d="M81.3483 107.902C76.1088 107.842 70.8723 107.453 65.6716 106.735C56.0183 105.403 46.4881 102.939 37.2899 99.343C26.525 95.1342 16.2149 89.3748 6.69482 82.0647C-0.805048 76.3059 -2.21644 65.5576 3.54239 58.0577C9.30121 50.5579 20.0495 49.1465 27.5494 54.9053C33.8852 59.7703 40.7029 63.6892 47.8152 66.662C47.9608 66.7229 48.1065 66.7833 48.2523 66.8434C53.9069 69.1722 59.7445 70.905 65.6716 72.0418C71.3837 73.1374 77.1789 73.6794 82.9732 73.6679C91.2038 73.6516 99.4326 72.5184 107.419 70.2682C110.811 69.3126 114.159 68.1555 117.445 66.7969L117.603 66.7318C124.775 63.7506 131.65 59.8084 138.036 54.9053C145.536 49.1465 156.284 50.5579 162.043 58.0577C167.802 65.5576 166.39 76.3059 158.89 82.0647C148.426 90.0996 137.008 96.261 125.08 100.549C119.296 102.629 113.392 104.267 107.419 105.466C99.2506 107.105 90.9529 107.92 82.6558 107.911C82.22 107.91 81.7841 107.907 81.3483 107.902Z" fill="#F0E45F"/>
</mask>
<g mask="url(#mask1)">
<g filter="url(#filter6_f)">
<path d="M133.858 48.5595C143.748 40.9655 158.713 42.5354 166.015 52.0449L169.994 48.9897L166.015 52.0449C172.943 61.0668 169.541 75.6963 159.101 83.7127C135.906 101.523 111.155 107.691 82.9588 107.66C54.435 107.629 28.465 99.4971 5.99454 82.243C1.00199 78.4094 -2.74808 72.4772 -4.23041 66.2541C-5.70768 60.0523 -4.84256 54.0657 -1.41006 49.5955C5.63505 40.4204 18.5293 39.7024 28.7881 47.5797C35.946 53.076 44.5785 59.0494 53.7817 63.6596C62.9385 68.2464 73.0097 71.6623 82.9632 71.6425C102.518 71.6037 120.041 59.1687 133.858 48.5595Z" stroke="#900000" stroke-opacity="0.41" stroke-width="10.0331"/>
</g>
</g>
<path d="M79.2271 0.314877C85.7842 8.47294 89.8562 19.8711 89.8562 32.4834C89.8562 33.6424 89.8219 34.7911 89.7543 35.928C89.6698 35.9349 89.5853 35.9416 89.5006 35.9481C97.4096 35.3385 104.716 33.1219 110.881 29.7209C110.936 29.0073 110.965 28.286 110.965 27.5582C110.965 12.3382 98.6264 0 83.4065 0C81.9857 0 80.5899 0.107523 79.2271 0.314877Z" fill="#F39B00"/>
<path d="M79.2271 0.314941C65.9905 2.32878 55.8484 13.7591 55.8484 27.5582C55.8484 27.5956 55.8485 27.6329 55.8486 27.6703C63.7004 32.9373 73.9 36.1188 85.0483 36.1188C86.6376 36.1188 88.2077 36.0542 89.7544 35.928C89.8219 34.7912 89.8563 33.6425 89.8563 32.4835C89.8563 19.8712 85.7843 8.47301 79.2271 0.314941Z" fill="#D40029"/>
<path d="M89.7547 35.9243C89.3428 42.8645 87.6955 49.3641 85.0929 55.0656C84.5351 55.0993 83.9728 55.1163 83.4066 55.1163C68.224 55.1163 55.909 42.8386 55.8486 27.6702C63.7005 32.9373 73.9001 36.1188 85.0483 36.1188C86.6376 36.1188 88.2077 36.0541 89.7544 35.928C89.7545 35.9268 89.7546 35.9255 89.7547 35.9243Z" fill="#E37FAC"/>
<path d="M85.0928 55.0656C98.8104 54.2376 109.821 43.3748 110.881 29.7209C104.782 33.0856 97.5658 35.2909 89.7543 35.928C89.3421 42.8668 87.695 49.3651 85.0928 55.0656Z" fill="#F0E45F"/>
<mask id="mask2" mask-type="alpha" maskUnits="userSpaceOnUse" x="55" y="0" width="56" height="56">
<circle cx="83.4049" cy="27.5567" r="27.5567" fill="#900000"/>
</mask>
<g mask="url(#mask2)">
<g filter="url(#filter7_f)">
<path d="M112.676 27.4342C112.676 42.7751 100.138 55.3583 83.2824 55.3583C74.6656 55.3583 67.2034 53.004 61.492 48.544C55.7959 44.0958 51.6662 37.4178 49.9247 28.4376C48.2729 19.9204 51.9679 9.97446 58.938 2.62436C65.8746 -4.6904 75.6532 -9.01384 85.7208 -6.91037C96.31 -4.69792 102.944 -0.0111208 106.981 5.89524C111.059 11.8597 112.676 19.3432 112.676 27.4342Z" stroke="#900000" stroke-opacity="0.76" stroke-width="4.89897"/>
</g>
</g>
<path d="M203.735 93.4937L195.517 83.6497H195.447V93.4937H191.925V71.2047H195.447V80.9437H195.517L203.326 71.2693H207.523L198.525 82.0961L208.196 93.4937H203.735Z" fill="#696566"/>
<path d="M221.115 74.0803C216.616 74.0803 213.606 77.2602 213.606 82.4649C213.606 87.6427 216.616 90.8199 221.115 90.8199C225.577 90.8199 228.59 87.6427 228.59 82.4649C228.59 77.4595 225.782 74.0803 221.115 74.0803ZM213.03 74.2472C215.028 72.2171 217.836 71 221.115 71C224.629 71 227.58 72.2871 229.573 74.4842C231.398 76.5144 232.376 79.2554 232.376 82.3976C232.376 85.7471 231.229 88.6901 229.169 90.7176C227.133 92.7128 224.398 93.8302 221.115 93.8302C217.968 93.8302 215.332 92.8501 213.369 91.0892C211.134 89.0267 209.847 86.0164 209.847 82.5349C209.847 79.2177 211.005 76.3124 213.03 74.2472Z" fill="#696566"/>
<path d="M241.743 74.2823H239.718V81.6868H241.81C244.11 81.6868 245.8 79.9286 245.8 77.7987C245.8 75.8709 244.618 74.2823 241.743 74.2823ZM247.868 93.4937C244.381 87.745 242.661 84.6998 241.778 84.4628H239.718V93.4937H236.167V71.2047H241.716C247.289 71.2047 249.419 74.013 249.419 77.4299C249.419 80.4698 247.427 82.4326 245.224 83.3131V83.3454C246.142 83.8193 248.504 87.7774 251.991 93.4937H247.868Z" fill="#696566"/>
<path d="M255.467 93.4937V71.2047H267.368L266.291 74.2473H259.018V80.5721H266.259V83.6147H259.018V90.4511H267.406V93.4937H255.467Z" fill="#696566"/>
<path d="M281.326 78.8811C280.957 77.7664 280.653 76.851 280.516 76.1428H280.483C280.273 76.9183 280.007 77.7987 279.6 78.8461L277.398 84.8344H283.391L281.326 78.8811ZM286.773 93.4937L284.544 87.8097H276.288L274.188 93.4937H270.677L279.301 71.1374H281.768L290.591 93.4937H286.773Z" fill="#696566"/>
<path d="M206.166 115.115H200.043V134.359H196.462V115.115H190V112.07H207.149L206.166 115.115Z" fill="#696566"/>
<path d="M218.417 114.945C213.923 114.945 210.913 118.125 210.913 123.333C210.913 128.508 213.923 131.685 218.417 131.685C222.89 131.685 225.897 128.508 225.897 123.333C225.897 118.327 223.089 114.945 218.417 114.945ZM210.337 115.115C212.329 113.082 215.138 111.868 218.417 111.868C221.942 111.868 224.882 113.152 226.875 115.352C228.7 117.382 229.683 120.12 229.683 123.262C229.683 126.612 228.53 129.555 226.471 131.585C224.44 133.58 221.699 134.698 218.417 134.698C215.275 134.698 212.634 133.712 210.676 131.957C208.441 129.894 207.16 126.881 207.16 123.4C207.16 120.083 208.307 117.175 210.337 115.115Z" fill="#696566"/>
<path d="M249.131 132.296C247.642 133.815 245.408 134.698 242.23 134.698C239.185 134.698 237.015 133.917 235.631 132.568C233.975 130.977 233.469 128.578 233.469 126.24V112.07H236.988V126.074C236.988 127.63 237.43 129.148 238.402 130.196C239.255 131.111 240.531 131.652 242.3 131.652C244.266 131.652 245.607 131.111 246.46 130.196C247.368 129.251 247.71 127.867 247.71 126.275V112.07H251.261V126.308C251.261 128.675 250.583 130.804 249.131 132.296Z" fill="#696566"/>
<path d="M261.91 115.147H259.885V122.552H261.983C264.277 122.552 265.971 120.796 265.971 118.666C265.971 116.738 264.786 115.147 261.91 115.147ZM268.036 134.359C264.549 128.61 262.831 125.567 261.942 125.328H259.885V134.359H256.337V112.07H261.883C267.457 112.07 269.587 114.878 269.587 118.292C269.587 121.335 267.599 123.297 265.392 124.175V124.213C266.312 124.687 268.679 128.642 272.158 134.359H268.036Z" fill="#696566"/>
<path d="M274.966 112.07H278.515V134.356H274.966V112.07Z" fill="#696566"/>
<path d="M288.83 134.698C285.752 134.698 283.655 133.685 282.236 132.77L283.728 130.099C284.842 130.874 286.601 131.755 288.703 131.755C290.529 131.755 292.653 130.944 292.653 128.911C292.653 125.497 287.279 124.819 284.57 121.811C283.655 120.796 283.049 119.541 283.049 117.818C283.049 114.576 285.553 111.868 290.05 111.868C292.417 111.868 294.172 112.473 295.33 113.082L295.287 116.399C293.774 115.489 292.042 114.843 290.222 114.843C288.294 114.843 286.706 115.656 286.706 117.412C286.706 121.811 296.439 121.677 296.439 128.508C296.439 132.264 293.133 134.698 288.83 134.698Z" fill="#696566"/>
<path d="M318.559 134.359V120.153C318.559 119.342 318.559 118.734 318.626 117.783H318.559C318.26 118.599 317.654 119.479 317.307 120.053L312.237 127.999H310.382L304.902 119.953C304.528 119.374 304.054 118.734 303.613 117.783H303.545C303.645 118.766 303.645 119.342 303.645 120.083V134.359H300.126V112.07H303.508L309.97 121.539C310.581 122.452 310.985 123.096 311.327 123.771H311.359C311.663 123.131 312.032 122.452 312.643 121.475L318.664 112.07H322.073V134.359H318.559Z" fill="#696566"/>
<path d="M202.038 155.247C197.542 155.247 194.531 158.43 194.531 163.64C194.531 168.81 197.542 171.99 202.038 171.99C206.508 171.99 209.515 168.81 209.515 163.64C209.515 158.632 206.707 155.247 202.038 155.247ZM193.955 155.42C195.953 153.387 198.761 152.173 202.038 152.173C205.56 152.173 208.5 153.457 210.493 155.657C212.318 157.684 213.301 160.425 213.301 163.567C213.301 166.92 212.154 169.863 210.089 171.89C208.059 173.883 205.323 175 202.038 175C198.896 175 196.252 174.02 194.297 172.262C192.065 170.202 190.778 167.192 190.778 163.702C190.778 160.39 191.925 157.482 193.955 155.42Z" fill="#696566"/>
<path d="M222.669 155.455H220.644V162.859H222.736C225.038 162.859 226.726 161.098 226.726 158.969C226.726 157.043 225.544 155.455 222.669 155.455ZM228.789 174.663C225.308 168.912 223.582 165.87 222.704 165.633H220.644V174.663H217.093V152.377H222.636C228.215 152.377 230.351 155.183 230.351 158.6C230.351 161.642 228.353 163.602 226.15 164.483V164.518C227.063 164.989 229.435 168.947 232.917 174.663H228.789Z" fill="#696566"/>
<path d="M245.739 175C238.935 175 234.573 170.229 234.573 163.804C234.573 157.073 239.411 152.173 246.686 152.173C249.524 152.173 251.687 152.816 253.143 153.425L253.106 156.839C251.487 155.996 249.352 155.183 246.921 155.183C241.137 155.183 238.396 158.834 238.396 163.47C238.396 168.476 241.541 171.99 246.649 171.99C248.305 171.99 249.589 171.685 250.402 171.252V163.567H253.954V173.037C252.16 173.988 249.22 175 245.739 175Z" fill="#696566"/>
<path d="M267.109 160.051C266.732 158.934 266.433 158.021 266.302 157.313H266.258C266.065 158.093 265.785 158.969 265.386 160.021L263.186 166.004H269.172L267.109 160.051ZM272.559 174.663L270.324 168.982H262.066L259.969 174.663H256.449L265.087 152.307H267.548L276.372 174.663H272.559Z" fill="#696566"/>
<path d="M295.419 174.663L284.934 160.966C283.849 159.545 283.246 158.664 282.699 157.754H282.629C282.699 158.497 282.699 159.577 282.699 160.662V174.663H279.18V152.377H282.767L292.842 165.563C294.067 167.154 294.673 168.002 295.182 168.912H295.252C295.214 168.002 295.182 166.885 295.182 165.802V152.377H298.734V174.663H295.419Z" fill="#696566"/>
<path d="M303.672 152.377H307.22V174.666H303.672V152.377Z" fill="#696566"/>
<path d="M310.839 174.663L322.035 155.317L312.121 155.42L311.143 152.377H327.614L316.585 171.685L327.883 171.583V174.663H310.839Z" fill="#696566"/>
<path d="M340.487 160.051C340.121 158.934 339.814 158.021 339.679 157.313H339.647C339.442 158.093 339.173 158.969 338.769 160.021L336.569 166.004H342.555L340.487 160.051ZM345.936 174.663L343.707 168.982H335.449L333.351 174.663H329.832L338.462 152.307H340.928L349.76 174.663H345.936Z" fill="#696566"/>
<path d="M365.388 155.42H359.273V174.663H355.686V155.42H349.23V152.377H366.379L365.388 155.42Z" fill="#696566"/>
<path d="M368.939 152.377H372.493V174.666H368.939V152.377Z" fill="#696566"/>
<path d="M387.545 155.247C383.048 155.247 380.035 158.43 380.035 163.64C380.035 168.81 383.048 171.99 387.545 171.99C392.009 171.99 395.022 168.81 395.022 163.64C395.022 158.632 392.208 155.247 387.545 155.247ZM379.456 155.42C381.459 153.387 384.268 152.173 387.545 152.173C391.064 152.173 394.001 153.457 395.997 155.657C397.825 157.684 398.805 160.425 398.805 163.567C398.805 166.92 397.658 169.863 395.595 171.89C393.565 173.883 390.827 175 387.545 175C384.4 175 381.761 174.02 379.798 172.262C377.569 170.202 376.284 167.192 376.284 163.702C376.284 160.39 377.431 157.482 379.456 155.42Z" fill="#696566"/>
<path d="M418.83 174.663L408.345 160.966C407.26 159.545 406.651 158.664 406.11 157.754H406.04C406.11 158.497 406.11 159.577 406.11 160.662V174.663H402.596V152.377H406.183L416.258 165.563C417.473 167.154 418.084 168.002 418.593 168.912H418.658C418.631 168.002 418.593 166.885 418.593 165.802V152.377H422.15V174.663H418.83Z" fill="#696566"/>
<defs>
<filter id="filter0_d" x="28.8636" y="49.5977" width="78.3607" height="79.3966" filterUnits="userSpaceOnUse" color-interpolation-filters="sRGB">
<feFlood flood-opacity="0" result="BackgroundImageFix"/>
<feColorMatrix in="SourceAlpha" type="matrix" values="0 0 0 0 0 0 0 0 0 0 0 0 0 0 0 0 0 0 127 0"/>
<feOffset dx="-2.81445" dy="6.33251"/>
<feGaussianBlur stdDeviation="8.20881"/>
<feColorMatrix type="matrix" values="0 0 0 0 0.508333 0 0 0 0 0.307864 0 0 0 0 0 0 0 0 1 0"/>
<feBlend mode="multiply" in2="BackgroundImageFix" result="effect1_dropShadow"/>
<feBlend mode="normal" in="SourceGraphic" in2="effect1_dropShadow" result="shape"/>
</filter>
<filter id="filter1_d" x="-3.97175" y="38.3399" width="84.4587" height="85.4946" filterUnits="userSpaceOnUse" color-interpolation-filters="sRGB">
<feFlood flood-opacity="0" result="BackgroundImageFix"/>
<feColorMatrix in="SourceAlpha" type="matrix" values="0 0 0 0 0 0 0 0 0 0 0 0 0 0 0 0 0 0 127 0"/>
<feOffset dx="8.44335" dy="5.86344"/>
<feGaussianBlur stdDeviation="9.73331"/>
<feColorMatrix type="matrix" values="0 0 0 0 0.508333 0 0 0 0 0.307864 0 0 0 0 0 0 0 0 1 0"/>
<feBlend mode="multiply" in2="BackgroundImageFix" result="effect1_dropShadow"/>
<feBlend mode="normal" in="SourceGraphic" in2="effect1_dropShadow" result="shape"/>
</filter>
<filter id="filter2_d" x="58.6498" y="49.5977" width="78.3607" height="79.3966" filterUnits="userSpaceOnUse" color-interpolation-filters="sRGB">
<feFlood flood-opacity="0" result="BackgroundImageFix"/>
<feColorMatrix in="SourceAlpha" type="matrix" values="0 0 0 0 0 0 0 0 0 0 0 0 0 0 0 0 0 0 127 0"/>
<feOffset dx="2.81445" dy="6.33251"/>
<feGaussianBlur stdDeviation="8.20881"/>
<feColorMatrix type="matrix" values="0 0 0 0 0.576471 0 0 0 0 0 0 0 0 0 0.105882 0 0 0 1 0"/>
<feBlend mode="multiply" in2="BackgroundImageFix" result="effect1_dropShadow"/>
<feBlend mode="normal" in="SourceGraphic" in2="effect1_dropShadow" result="shape"/>
</filter>
<filter id="filter3_d" x="85.3872" y="38.3399" width="84.4587" height="85.4946" filterUnits="userSpaceOnUse" color-interpolation-filters="sRGB">
<feFlood flood-opacity="0" result="BackgroundImageFix"/>
<feColorMatrix in="SourceAlpha" type="matrix" values="0 0 0 0 0 0 0 0 0 0 0 0 0 0 0 0 0 0 127 0"/>
<feOffset dx="-8.44335" dy="5.86344"/>
<feGaussianBlur stdDeviation="9.73331"/>
<feColorMatrix type="matrix" values="0 0 0 0 0.575 0 0 0 0 0 0 0 0 0 0.107812 0 0 0 1 0"/>
<feBlend mode="multiply" in2="BackgroundImageFix" result="effect1_dropShadow"/>
<feBlend mode="normal" in="SourceGraphic" in2="effect1_dropShadow" result="shape"/>
</filter>
<filter id="filter4_f" x="39.1916" y="87.2017" width="85.2421" height="83.2825" filterUnits="userSpaceOnUse" color-interpolation-filters="sRGB">
<feFlood flood-opacity="0" result="BackgroundImageFix"/>
<feBlend mode="normal" in="SourceGraphic" in2="BackgroundImageFix" result="shape"/>
<feGaussianBlur stdDeviation="8.32825" result="effect1_foregroundBlur"/>
</filter>
<filter id="filter5_f" x="-3.9192" y="43.111" width="170.974" height="172.444" filterUnits="userSpaceOnUse" color-interpolation-filters="sRGB">
<feFlood flood-opacity="0" result="BackgroundImageFix"/>
<feBlend mode="normal" in="SourceGraphic" in2="BackgroundImageFix" result="shape"/>
<feGaussianBlur stdDeviation="8.32825" result="effect1_foregroundBlur"/>
</filter>
<filter id="filter6_f" x="-24.6337" y="22.4446" width="214.01" height="104.929" filterUnits="userSpaceOnUse" color-interpolation-filters="sRGB">
<feFlood flood-opacity="0" result="BackgroundImageFix"/>
<feBlend mode="normal" in="SourceGraphic" in2="BackgroundImageFix" result="shape"/>
<feGaussianBlur stdDeviation="7.34846" result="effect1_foregroundBlur"/>
</filter>
<filter id="filter7_f" x="33.3661" y="-23.6112" width="95.4767" height="95.1362" filterUnits="userSpaceOnUse" color-interpolation-filters="sRGB">
<feFlood flood-opacity="0" result="BackgroundImageFix"/>
<feBlend mode="normal" in="SourceGraphic" in2="BackgroundImageFix" result="shape"/>
<feGaussianBlur stdDeviation="6.85856" result="effect1_foregroundBlur"/>
</filter>
</defs>
</svg>
