<svg width="169" height="198" viewBox="0 0 169 198" fill="none" xmlns="http://www.w3.org/2000/svg">
<g filter="url(#filter0_ii)">
<path d="M80.354 0.321371C87.0464 8.64768 91.2024 20.2809 91.2024 33.1533C91.2024 34.3362 91.1673 35.5086 91.0984 36.6689C91.0121 36.6759 90.9258 36.6828 90.8394 36.6894C98.9115 36.0672 106.369 33.805 112.661 30.3338C112.717 29.6055 112.746 28.8693 112.746 28.1265C112.746 12.5927 100.153 0 84.6196 0C83.1695 0 81.745 0.109741 80.354 0.321371Z" fill="#F39B00"/>
<path d="M80.354 0.321442C66.8444 2.37681 56.4932 14.0428 56.4932 28.1266C56.4932 28.1647 56.4932 28.2028 56.4934 28.2409C64.5071 33.6166 74.9171 36.8637 86.2952 36.8637C87.9174 36.8637 89.5198 36.7977 91.0984 36.669C91.1673 35.5086 91.2024 34.3363 91.2024 33.1534C91.2024 20.281 87.0464 8.64775 80.354 0.321442Z" fill="#D40029"/>
<path d="M91.0987 36.6652C90.6783 43.7485 88.9971 50.3821 86.3408 56.2012C85.7715 56.2356 85.1976 56.253 84.6197 56.253C69.124 56.253 56.555 43.7221 56.4934 28.2409C64.5072 33.6166 74.9171 36.8637 86.2953 36.8637C87.9174 36.8637 89.5198 36.7977 91.0984 36.6689C91.0985 36.6677 91.0986 36.6664 91.0987 36.6652Z" fill="#E37FAC"/>
<path d="M86.3406 56.2012C100.341 55.3561 111.579 44.2693 112.661 30.3339C106.436 33.7679 99.0708 36.0187 91.0983 36.669C90.6776 43.7509 88.9964 50.3832 86.3406 56.2012Z" fill="#F0E45F"/>
</g>
<g filter="url(#filter1_ii)">
<mask id="mask0" mask-type="alpha" maskUnits="userSpaceOnUse" x="22" y="75" width="124" height="123">
<circle cx="84.3803" cy="136.563" r="43.9252" stroke="black" stroke-width="34.9486"/>
</mask>
<g mask="url(#mask0)">
<rect width="91.6804" height="121.123" transform="matrix(-1 0 0 1 178.095 62.9556)" fill="#F39B00"/>
<rect width="91.6804" height="121.123" transform="matrix(-1 0 0 1 86.415 62.9556)" fill="#E37FAC"/>
<path fill-rule="evenodd" clip-rule="evenodd" d="M100.851 151.684L66.1877 157.03L74.0871 208.375L151.884 204.306L140.39 170.384C143.532 168.681 145.719 166.221 146.435 163.181C148.293 155.296 139.549 146.489 126.907 143.511C114.651 140.624 103.23 144.274 100.851 151.684Z" fill="#F0E45F"/>
<path fill-rule="evenodd" clip-rule="evenodd" d="M23.4516 163.095L4.30957 170.076L76.1219 222.02L76.4778 208.22C76.6374 208.244 76.7981 208.256 76.9597 208.256C82.1817 208.256 86.415 195.877 86.415 180.608C86.415 166.266 82.6805 154.475 77.8999 153.095L78.1565 143.146L66.3475 147.452C61.7248 143.007 52.6193 141.245 42.9995 143.511C30.4029 146.478 21.6775 155.232 23.4516 163.095Z" fill="#D40029"/>
</g>
</g>
<mask id="mask1" mask-type="alpha" maskUnits="userSpaceOnUse" x="0" y="52" width="169" height="146">
<path fill-rule="evenodd" clip-rule="evenodd" d="M28.1175 56.0376C20.463 50.16 9.49303 51.6005 3.61544 59.2551C-2.26215 66.9096 -0.82165 77.8796 6.83289 83.7571C15.6301 90.5121 25.0882 95.9697 34.9533 100.13C27.4287 110.321 22.9807 122.923 22.9807 136.563C22.9807 170.473 50.4702 197.963 84.3802 197.963C118.29 197.963 145.78 170.473 145.78 136.563C145.78 122.957 141.354 110.385 133.864 100.207C143.795 96.0371 153.316 90.5538 162.167 83.7571C169.822 77.8796 171.262 66.9096 165.385 59.2551C159.507 51.6005 148.537 50.16 140.882 56.0376C124.608 68.5343 105.217 74.9147 85.7604 75.1788C85.3016 75.1687 84.8415 75.1636 84.3802 75.1636C83.9513 75.1636 83.5234 75.168 83.0965 75.1768C63.688 74.8834 44.3524 68.5037 28.1175 56.0376ZM83.3737 110.131C84.0586 110.137 84.7435 110.138 85.4284 110.133C99.5509 110.683 110.831 122.306 110.831 136.563C110.831 151.172 98.9887 163.014 84.3802 163.014C69.7718 163.014 57.9294 151.172 57.9294 136.563C57.9294 122.292 69.2317 110.66 83.3737 110.131Z" fill="black"/>
</mask>
<g mask="url(#mask1)">
<g filter="url(#filter2_d)">
<ellipse rx="22.9661" ry="24.0102" transform="matrix(0.867613 0.49724 0.49724 -0.867613 72.3196 84.6743)" fill="#C4C4C4"/>
</g>
<g filter="url(#filter3_d)">
<ellipse rx="22.9661" ry="24.0102" transform="matrix(0.867613 0.49724 0.49724 -0.867613 30.4292 76.775)" fill="#C4C4C4"/>
</g>
<g filter="url(#filter4_d)">
<ellipse cx="96.9753" cy="84.6743" rx="22.9661" ry="24.0102" transform="rotate(150.182 96.9753 84.6743)" fill="#C4C4C4"/>
</g>
<g filter="url(#filter5_d)">
<ellipse cx="138.866" cy="76.775" rx="22.9661" ry="24.0102" transform="rotate(150.182 138.866 76.775)" fill="#C4C4C4"/>
</g>
</g>
<g filter="url(#filter6_ii)">
<mask id="mask2" mask-type="alpha" maskUnits="userSpaceOnUse" x="0" y="52" width="170" height="59">
<path d="M28.1177 56.0375C20.4631 50.16 9.49317 51.6005 3.61558 59.255C-2.26201 66.9095 -0.821512 77.8795 6.83302 83.7571L28.1177 56.0375ZM162.167 83.7571C169.822 77.8795 171.262 66.9095 165.385 59.255C159.507 51.6005 148.537 50.16 140.883 56.0375L162.167 83.7571ZM6.83302 83.7571C52.6382 118.929 116.362 118.929 162.167 83.7571L140.883 56.0375C107.63 81.5706 61.37 81.5706 28.1177 56.0375L6.83302 83.7571Z" fill="black"/>
</mask>
<g mask="url(#mask2)">
<rect x="109.635" y="37.3423" width="80.1904" height="85.696" fill="#E37FAC"/>
<path fill-rule="evenodd" clip-rule="evenodd" d="M114.661 62.4766H67.0259V121.123H114.661V108.122C116.573 108.554 118.519 108.549 120.417 108.04C128.814 105.79 133.095 94.541 129.979 82.9144C127.54 73.811 121.29 67.1753 114.661 65.8037V62.4766Z" fill="#D40029"/>
<rect x="-13.1646" y="37.3423" width="80.1904" height="85.696" fill="#F39B00"/>
<path fill-rule="evenodd" clip-rule="evenodd" d="M77.3189 60.0829H52.9027V65.6965C46.0599 66.7875 39.5107 73.5436 36.9998 82.9144C33.8845 94.541 38.1655 105.79 46.5617 108.04C48.6542 108.601 50.8047 108.549 52.9027 107.977V121.602H77.3189V118.727C82.4857 118.54 86.6545 106.234 86.6545 91.0819C86.6545 75.9293 82.4857 63.6238 77.3189 63.4363V60.0829Z" fill="#F0E45F"/>
</g>
</g>
<defs>
<filter id="filter0_ii" x="56.4932" y="-6.22373" width="56.2529" height="65.5886" filterUnits="userSpaceOnUse" color-interpolation-filters="sRGB">
<feFlood flood-opacity="0" result="BackgroundImageFix"/>
<feBlend mode="normal" in="SourceGraphic" in2="BackgroundImageFix" result="shape"/>
<feColorMatrix in="SourceAlpha" type="matrix" values="0 0 0 0 0 0 0 0 0 0 0 0 0 0 0 0 0 0 127 0" result="hardAlpha"/>
<feOffset dy="-6.22373"/>
<feGaussianBlur stdDeviation="10.1734"/>
<feComposite in2="hardAlpha" operator="arithmetic" k2="-1" k3="1"/>
<feColorMatrix type="matrix" values="0 0 0 0 0.566667 0 0 0 0 0 0 0 0 0 0 0 0 0 0.51 0"/>
<feBlend mode="multiply" in2="shape" result="effect1_innerShadow"/>
<feColorMatrix in="SourceAlpha" type="matrix" values="0 0 0 0 0 0 0 0 0 0 0 0 0 0 0 0 0 0 127 0" result="hardAlpha"/>
<feOffset dy="3.11187"/>
<feGaussianBlur stdDeviation="4.6678"/>
<feComposite in2="hardAlpha" operator="arithmetic" k2="-1" k3="1"/>
<feColorMatrix type="matrix" values="0 0 0 0 0.566667 0 0 0 0 0 0 0 0 0 0 0 0 0 0.12 0"/>
<feBlend mode="multiply" in2="effect1_innerShadow" result="effect2_innerShadow"/>
</filter>
<filter id="filter1_ii" x="22.9807" y="68.9398" width="122.799" height="132.135" filterUnits="userSpaceOnUse" color-interpolation-filters="sRGB">
<feFlood flood-opacity="0" result="BackgroundImageFix"/>
<feBlend mode="normal" in="SourceGraphic" in2="BackgroundImageFix" result="shape"/>
<feColorMatrix in="SourceAlpha" type="matrix" values="0 0 0 0 0 0 0 0 0 0 0 0 0 0 0 0 0 0 127 0" result="hardAlpha"/>
<feOffset dy="-6.22373"/>
<feGaussianBlur stdDeviation="10.1734"/>
<feComposite in2="hardAlpha" operator="arithmetic" k2="-1" k3="1"/>
<feColorMatrix type="matrix" values="0 0 0 0 0.566667 0 0 0 0 0 0 0 0 0 0 0 0 0 0.51 0"/>
<feBlend mode="multiply" in2="shape" result="effect1_innerShadow"/>
<feColorMatrix in="SourceAlpha" type="matrix" values="0 0 0 0 0 0 0 0 0 0 0 0 0 0 0 0 0 0 127 0" result="hardAlpha"/>
<feOffset dy="3.11187"/>
<feGaussianBlur stdDeviation="4.6678"/>
<feComposite in2="hardAlpha" operator="arithmetic" k2="-1" k3="1"/>
<feColorMatrix type="matrix" values="0 0 0 0 0.566667 0 0 0 0 0 0 0 0 0 0 0 0 0 0.12 0"/>
<feBlend mode="multiply" in2="effect1_innerShadow" result="effect2_innerShadow"/>
</filter>
<filter id="filter2_d" x="29.4587" y="50.6204" width="79.9767" height="81.034" filterUnits="userSpaceOnUse" color-interpolation-filters="sRGB">
<feFlood flood-opacity="0" result="BackgroundImageFix"/>
<feColorMatrix in="SourceAlpha" type="matrix" values="0 0 0 0 0 0 0 0 0 0 0 0 0 0 0 0 0 0 127 0"/>
<feOffset dx="-2.87249" dy="6.46311"/>
<feGaussianBlur stdDeviation="8.3781"/>
<feColorMatrix type="matrix" values="0 0 0 0 0.508333 0 0 0 0 0.307864 0 0 0 0 0 0 0 0 1 0"/>
<feBlend mode="multiply" in2="BackgroundImageFix" result="effect1_dropShadow"/>
<feBlend mode="normal" in="SourceGraphic" in2="effect1_dropShadow" result="shape"/>
</filter>
<filter id="filter3_d" x="-4.05357" y="39.1305" width="86.2004" height="87.2577" filterUnits="userSpaceOnUse" color-interpolation-filters="sRGB">
<feFlood flood-opacity="0" result="BackgroundImageFix"/>
<feColorMatrix in="SourceAlpha" type="matrix" values="0 0 0 0 0 0 0 0 0 0 0 0 0 0 0 0 0 0 127 0"/>
<feOffset dx="8.61747" dy="5.98436"/>
<feGaussianBlur stdDeviation="9.93403"/>
<feColorMatrix type="matrix" values="0 0 0 0 0.508333 0 0 0 0 0.307864 0 0 0 0 0 0 0 0 1 0"/>
<feBlend mode="multiply" in2="BackgroundImageFix" result="effect1_dropShadow"/>
<feBlend mode="normal" in="SourceGraphic" in2="effect1_dropShadow" result="shape"/>
</filter>
<filter id="filter4_d" x="59.8595" y="50.6204" width="79.9767" height="81.034" filterUnits="userSpaceOnUse" color-interpolation-filters="sRGB">
<feFlood flood-opacity="0" result="BackgroundImageFix"/>
<feColorMatrix in="SourceAlpha" type="matrix" values="0 0 0 0 0 0 0 0 0 0 0 0 0 0 0 0 0 0 127 0"/>
<feOffset dx="2.87249" dy="6.46311"/>
<feGaussianBlur stdDeviation="8.3781"/>
<feColorMatrix type="matrix" values="0 0 0 0 0.576471 0 0 0 0 0 0 0 0 0 0.105882 0 0 0 1 0"/>
<feBlend mode="multiply" in2="BackgroundImageFix" result="effect1_dropShadow"/>
<feBlend mode="normal" in="SourceGraphic" in2="effect1_dropShadow" result="shape"/>
</filter>
<filter id="filter5_d" x="87.148" y="39.1305" width="86.2004" height="87.2577" filterUnits="userSpaceOnUse" color-interpolation-filters="sRGB">
<feFlood flood-opacity="0" result="BackgroundImageFix"/>
<feColorMatrix in="SourceAlpha" type="matrix" values="0 0 0 0 0 0 0 0 0 0 0 0 0 0 0 0 0 0 127 0"/>
<feOffset dx="-8.61747" dy="5.98436"/>
<feGaussianBlur stdDeviation="9.93403"/>
<feColorMatrix type="matrix" values="0 0 0 0 0.575 0 0 0 0 0 0 0 0 0 0.107812 0 0 0 1 0"/>
<feBlend mode="multiply" in2="BackgroundImageFix" result="effect1_dropShadow"/>
<feBlend mode="normal" in="SourceGraphic" in2="effect1_dropShadow" result="shape"/>
</filter>
<filter id="filter6_ii" x="0.000244141" y="46.1984" width="169" height="67.0494" filterUnits="userSpaceOnUse" color-interpolation-filters="sRGB">
<feFlood flood-opacity="0" result="BackgroundImageFix"/>
<feBlend mode="normal" in="SourceGraphic" in2="BackgroundImageFix" result="shape"/>
<feColorMatrix in="SourceAlpha" type="matrix" values="0 0 0 0 0 0 0 0 0 0 0 0 0 0 0 0 0 0 127 0" result="hardAlpha"/>
<feOffset dy="-6.22373"/>
<feGaussianBlur stdDeviation="10.1734"/>
<feComposite in2="hardAlpha" operator="arithmetic" k2="-1" k3="1"/>
<feColorMatrix type="matrix" values="0 0 0 0 0.566667 0 0 0 0 0 0 0 0 0 0 0 0 0 0.51 0"/>
<feBlend mode="multiply" in2="shape" result="effect1_innerShadow"/>
<feColorMatrix in="SourceAlpha" type="matrix" values="0 0 0 0 0 0 0 0 0 0 0 0 0 0 0 0 0 0 127 0" result="hardAlpha"/>
<feOffset dy="3.11187"/>
<feGaussianBlur stdDeviation="4.6678"/>
<feComposite in2="hardAlpha" operator="arithmetic" k2="-1" k3="1"/>
<feColorMatrix type="matrix" values="0 0 0 0 0.566667 0 0 0 0 0 0 0 0 0 0 0 0 0 0.12 0"/>
<feBlend mode="multiply" in2="effect1_innerShadow" result="effect2_innerShadow"/>
</filter>
</defs>
</svg>
