<svg viewBox="0 0 211 90" fill="none" xmlns="http://www.w3.org/2000/svg">
<ellipse rx="2.97655" ry="3.1868" transform="matrix(0.972884 -0.231295 0.342571 0.939492 184.041 32.4886)" fill="#696969"/>
<ellipse rx="2.55322" ry="2.84263" transform="matrix(0.972884 -0.231295 0.342571 0.939492 184.074 32.6624)" fill="#484646"/>
<rect x="178.051" y="23.3174" width="1.40746" height="10.8241" transform="rotate(-26.0575 178.051 23.3174)" fill="url(#paint0_linear)"/>
<ellipse rx="2.97655" ry="3.28912" transform="matrix(0.972884 -0.231295 0.342571 0.939492 183.752 33.4956)" fill="#6A6A6A"/>
<ellipse rx="2.16448" ry="2.40983" transform="matrix(0.972884 -0.231295 0.342571 0.939492 183.587 33.6179)" fill="#4B4B4B"/>
<path d="M111.596 9.62456L151.746 24.9379L108.607 39.6259L100.537 13.7894L111.596 9.62456Z" fill="url(#paint1_linear)"/>
<path d="M110.557 61.6384C109.467 57.8386 111.559 53.8538 115.306 52.5931L132.775 46.7148L137.345 63.502L119 66.8722C115.258 67.5596 111.605 65.2954 110.557 61.6384Z" fill="url(#paint2_linear)"/>
<path d="M137.193 63.5349C134.531 63.7583 132.076 60.9049 130.867 56.3159C129.657 51.727 130.597 47.6556 132.764 46.7198L133.988 46.3062L138.556 63.3438L137.193 63.5349Z" fill="url(#paint3_linear)"/>
<ellipse cx="136.363" cy="54.8068" rx="4.21569" ry="8.82341" transform="rotate(-14.7607 136.363 54.8068)" fill="url(#paint4_linear)"/>
<ellipse cx="136.878" cy="54.6707" rx="3.51997" ry="8.33356" transform="rotate(-14.7607 136.878 54.6707)" fill="url(#paint5_linear)"/>
<ellipse cx="135.853" cy="54.9404" rx="2.46067" ry="7.32219" transform="rotate(-14.7607 135.853 54.9404)" fill="url(#paint6_linear)"/>
<path d="M18.4705 27.386C19.1739 27.1843 19.9267 27.2466 20.5874 27.5613L52.5492 42.7842L172.058 2.07921C178.305 -0.048658 185.076 -0.0837094 191.345 1.97935L202.599 5.68311C210.115 8.15629 209.908 18.8583 202.302 21.039L119.284 46.8312C102.644 51.5933 92.9863 54.5353 78.0176 57.9148C70.3723 59.6409 63.4951 61.186 57.0933 62.2233C45.9339 64.0315 35.0295 59.6193 26.316 52.4168L1.81274 32.1625L18.4705 27.386Z" fill="url(#paint7_linear)"/>
<mask id="mask0" mask-type="alpha" maskUnits="userSpaceOnUse" x="1" y="0" width="208" height="63">
<path d="M18.4705 27.3857C19.1739 27.184 19.9267 27.2464 20.5874 27.561L52.5492 42.7839L172.058 2.07896C178.305 -0.0489022 185.076 -0.0839535 191.345 1.97911L202.599 5.68286C210.115 8.15605 209.908 18.858 202.302 21.0388L119.284 46.8309C102.644 51.5931 92.9863 54.535 78.0176 57.9145C70.3723 59.6406 63.4951 61.1858 57.0933 62.2231C45.9339 64.0312 35.0295 59.6191 26.316 52.4166L1.81274 32.1623L18.4705 27.3857Z" fill="white"/>
</mask>
<g mask="url(#mask0)">
<g filter="url(#filter0_f)">
<path d="M56.8545 41.4657C56.8545 41.4657 161.854 5.76834 172.854 2.26838C183.854 -1.23158 192.854 2.76855 198.354 4.7684C192.854 3.76855 183.854 0.684587 172.854 4.26836C157 9.43366 129.026 18.9962 115.354 23.4657C83.8545 33.7638 65.3545 39.4657 56.8545 41.4657Z" fill="white"/>
</g>
<g filter="url(#filter1_f)">
<path d="M2.85425 32.118L19.3705 27.3005C19.3705 27.3005 49.7355 41.5777 54.2355 44.0777C53.6745 44.3769 23.8838 29.8465 19.5915 28.3095C19.2656 28.1927 18.9198 28.2164 18.5808 28.2868C13.6779 29.305 7.78273 31.0427 2.85425 32.118Z" fill="white"/>
</g>
<g style="mix-blend-mode:multiply" filter="url(#filter2_f)">
<path d="M57.1477 42.8845L27.1446 53.9138L19.2004 47.6286L57.1477 42.8845Z" fill="#B8B8B8" fill-opacity="0.61"/>
</g>
<g style="mix-blend-mode:multiply" filter="url(#filter3_f)">
<path d="M57.1477 42.8845L27.1446 53.9138L23.9031 51.5226L57.1477 42.8845Z" fill="#B8B8B8" fill-opacity="0.12"/>
</g>
<g filter="url(#filter4_f)">
<path d="M138.354 46.2686C106.854 56.5666 83.3545 61.7686 51.3545 62.7686C90.8545 55.7686 163.354 32.7686 199.854 20.7685C202.868 19.7778 207.938 17.7686 208.354 12.7685C208.771 7.76845 217.093 22.0961 210.354 24.7686C194.854 30.9159 152.026 41.799 138.354 46.2686Z" fill="white"/>
</g>
<path d="M4.85425 30.2686L-1.14575 32.2686L23.4954 54.3127L33.4954 50.8127L4.85425 30.2686Z" fill="#EBEBEB"/>
</g>
<path d="M91.2806 75.0636L147.762 35.1749C148.231 34.8436 147.863 34.1119 147.317 34.2916L96.0244 51.1827L62.2534 84.7118L91.2806 75.0636Z" fill="#E4E4E4"/>
<mask id="mask1" mask-type="alpha" maskUnits="userSpaceOnUse" x="55" y="34" width="100" height="51">
<path d="M91.2806 75.0636L147.762 35.1749C148.231 34.8436 147.863 34.1119 147.317 34.2916L96.0244 51.1827L62.2534 84.7118L91.2806 75.0636Z" fill="white"/>
</mask>
<g mask="url(#mask1)">
<g filter="url(#filter5_f)">
<path d="M90.3545 75.2686L148.854 33.7686L147.854 33.2686L84.8545 76.7686L90.3545 75.2686Z" fill="white"/>
</g>
<g filter="url(#filter6_f)">
<path d="M95.3545 50.2686L64.3545 80.2686L78.8545 77.2686L119.854 42.7686L95.3545 50.2686Z" fill="white" fill-opacity="0.65"/>
</g>
</g>
<path d="M37.4487 66.2844L53.5955 52.4703C54.0089 52.1165 53.6398 51.4503 53.1207 51.6133L37.3527 56.564L24.3706 69.3907L37.4487 66.2844Z" fill="#E4E4E4"/>
<mask id="mask2" mask-type="alpha" maskUnits="userSpaceOnUse" x="21" y="51" width="36" height="20">
<path d="M37.4487 66.2844L53.5955 52.4703C54.0089 52.1165 53.6398 51.4503 53.1207 51.6133L37.3527 56.564L24.3706 69.3907L37.4487 66.2844Z" fill="#E4E4E4"/>
</mask>
<g mask="url(#mask2)">
<g filter="url(#filter7_f)">
<path d="M36.2595 66.5153L52.8922 51.5953L54.3917 51.5578L37.2592 66.4903L36.2595 66.5153Z" fill="white"/>
</g>
</g>
<path d="M60.2256 85.725C52.575 87.9188 49.3594 82.1375 46.1803 77.1674C51.6437 74.276 76.5744 79.2911 91.2636 75.079L60.2256 85.725Z" fill="url(#paint8_linear)"/>
<path d="M98.4779 10.0748C100.457 8.8847 109.715 8.83953 111.596 9.62501L100.537 13.7899C100.186 12.5656 99.8347 11.3415 98.4779 10.0748Z" fill="#27AE60"/>
<defs>
<filter id="filter0_f" x="54.8545" y="-1.11646" width="145.5" height="44.5821" filterUnits="userSpaceOnUse" color-interpolation-filters="sRGB">
<feFlood flood-opacity="0" result="BackgroundImageFix"/>
<feBlend mode="normal" in="SourceGraphic" in2="BackgroundImageFix" result="shape"/>
<feGaussianBlur stdDeviation="1" result="effect1_foregroundBlur"/>
</filter>
<filter id="filter1_f" x="1.85425" y="26.3005" width="53.3812" height="18.7817" filterUnits="userSpaceOnUse" color-interpolation-filters="sRGB">
<feFlood flood-opacity="0" result="BackgroundImageFix"/>
<feBlend mode="normal" in="SourceGraphic" in2="BackgroundImageFix" result="shape"/>
<feGaussianBlur stdDeviation="0.5" result="effect1_foregroundBlur"/>
</filter>
<filter id="filter2_f" x="12.2004" y="35.8845" width="51.9472" height="25.0293" filterUnits="userSpaceOnUse" color-interpolation-filters="sRGB">
<feFlood flood-opacity="0" result="BackgroundImageFix"/>
<feBlend mode="normal" in="SourceGraphic" in2="BackgroundImageFix" result="shape"/>
<feGaussianBlur stdDeviation="3.5" result="effect1_foregroundBlur"/>
</filter>
<filter id="filter3_f" x="22.9031" y="41.8845" width="35.2446" height="13.0293" filterUnits="userSpaceOnUse" color-interpolation-filters="sRGB">
<feFlood flood-opacity="0" result="BackgroundImageFix"/>
<feBlend mode="normal" in="SourceGraphic" in2="BackgroundImageFix" result="shape"/>
<feGaussianBlur stdDeviation="0.5" result="effect1_foregroundBlur"/>
</filter>
<filter id="filter4_f" x="49.3545" y="9.71802" width="165.623" height="55.0505" filterUnits="userSpaceOnUse" color-interpolation-filters="sRGB">
<feFlood flood-opacity="0" result="BackgroundImageFix"/>
<feBlend mode="normal" in="SourceGraphic" in2="BackgroundImageFix" result="shape"/>
<feGaussianBlur stdDeviation="1" result="effect1_foregroundBlur"/>
</filter>
<filter id="filter5_f" x="83.8545" y="32.2686" width="66" height="45.5" filterUnits="userSpaceOnUse" color-interpolation-filters="sRGB">
<feFlood flood-opacity="0" result="BackgroundImageFix"/>
<feBlend mode="normal" in="SourceGraphic" in2="BackgroundImageFix" result="shape"/>
<feGaussianBlur stdDeviation="0.5" result="effect1_foregroundBlur"/>
</filter>
<filter id="filter6_f" x="57.3545" y="35.7686" width="69.5" height="51.5" filterUnits="userSpaceOnUse" color-interpolation-filters="sRGB">
<feFlood flood-opacity="0" result="BackgroundImageFix"/>
<feBlend mode="normal" in="SourceGraphic" in2="BackgroundImageFix" result="shape"/>
<feGaussianBlur stdDeviation="3.5" result="effect1_foregroundBlur"/>
</filter>
<filter id="filter7_f" x="35.2595" y="50.5579" width="20.1321" height="16.9574" filterUnits="userSpaceOnUse" color-interpolation-filters="sRGB">
<feFlood flood-opacity="0" result="BackgroundImageFix"/>
<feBlend mode="normal" in="SourceGraphic" in2="BackgroundImageFix" result="shape"/>
<feGaussianBlur stdDeviation="0.5" result="effect1_foregroundBlur"/>
</filter>
<linearGradient id="paint0_linear" x1="178.755" y1="23.3174" x2="178.755" y2="34.1415" gradientUnits="userSpaceOnUse">
<stop stop-color="#9B9B9B"/>
<stop offset="0.749158" stop-color="#C4C4C4"/>
</linearGradient>
<linearGradient id="paint1_linear" x1="103.29" y1="23.3912" x2="120.649" y2="16.2514" gradientUnits="userSpaceOnUse">
<stop stop-color="#DEDEDE"/>
<stop offset="0.3125" stop-color="#ECECEC"/>
<stop offset="1" stop-color="#E7E7E7"/>
</linearGradient>
<linearGradient id="paint2_linear" x1="120.658" y1="50.0579" x2="125.038" y2="66.6818" gradientUnits="userSpaceOnUse">
<stop stop-color="#158644"/>
<stop offset="0.520833" stop-color="#27AE60"/>
<stop offset="0.765625" stop-color="#44C57A"/>
<stop offset="1" stop-color="#92EFB9"/>
</linearGradient>
<linearGradient id="paint3_linear" x1="131.332" y1="47.006" x2="135.827" y2="64.0629" gradientUnits="userSpaceOnUse">
<stop stop-color="#BFBFBF"/>
<stop offset="1" stop-color="#D1D1D1"/>
</linearGradient>
<linearGradient id="paint4_linear" x1="137.742" y1="45.8623" x2="134.848" y2="64.4014" gradientUnits="userSpaceOnUse">
<stop stop-color="#D5D5D5"/>
<stop offset="1" stop-color="white"/>
</linearGradient>
<linearGradient id="paint5_linear" x1="136.878" y1="46.6727" x2="136.878" y2="63.3671" gradientUnits="userSpaceOnUse">
<stop stop-color="#6E6E6E"/>
<stop offset="1" stop-color="#A9A9A9"/>
</linearGradient>
<linearGradient id="paint6_linear" x1="135.853" y1="47.6182" x2="135.853" y2="62.2626" gradientUnits="userSpaceOnUse">
<stop stop-color="#353535"/>
<stop offset="1" stop-color="#575757"/>
</linearGradient>
<linearGradient id="paint7_linear" x1="103.855" y1="-5.23121" x2="120.623" y2="44.4238" gradientUnits="userSpaceOnUse">
<stop offset="0.548752" stop-color="#3BC575"/>
<stop offset="0.61258" stop-color="#41D680"/>
<stop offset="0.856942" stop-color="#27AE60"/>
<stop offset="1" stop-color="#229B55"/>
</linearGradient>
<linearGradient id="paint8_linear" x1="66.8031" y1="70.7794" x2="71.0895" y2="82.6099" gradientUnits="userSpaceOnUse">
<stop stop-color="#9AF3C0"/>
<stop offset="0.732669" stop-color="#27AE60"/>
<stop offset="1" stop-color="#1C8E4C"/>
</linearGradient>
</defs>
</svg>
