<svg width="211" height="90" viewBox="0 0 211 90" fill="none" xmlns="http://www.w3.org/2000/svg">
<ellipse rx="2.97655" ry="3.1868" transform="matrix(0.972884 -0.231295 0.342571 0.939492 183.315 32.4886)" fill="#696969"/>
<ellipse rx="2.55322" ry="2.84263" transform="matrix(0.972884 -0.231295 0.342571 0.939492 183.348 32.6624)" fill="#484646"/>
<rect x="177.325" y="23.3174" width="1.40746" height="10.8241" transform="rotate(-26.0575 177.325 23.3174)" fill="url(#paint0_linear)"/>
<ellipse rx="2.97655" ry="3.28912" transform="matrix(0.972884 -0.231295 0.342571 0.939492 183.026 33.4956)" fill="#6A6A6A"/>
<ellipse rx="2.16448" ry="2.40983" transform="matrix(0.972884 -0.231295 0.342571 0.939492 182.862 33.6179)" fill="#4B4B4B"/>
<path d="M110.871 9.62456L151.02 24.9379L107.882 39.6259L99.8111 13.7894L110.871 9.62456Z" fill="url(#paint1_linear)"/>
<path d="M109.831 61.6384C108.741 57.8386 110.834 53.8538 114.58 52.5931L132.049 46.7148L136.62 63.502L118.274 66.8722C114.532 67.5596 110.88 65.2954 109.831 61.6384Z" fill="url(#paint2_linear)"/>
<path d="M136.468 63.5349C133.805 63.7583 131.35 60.9049 130.141 56.3159C128.932 51.727 129.871 47.6556 132.038 46.7198L133.263 46.3062L137.83 63.3438L136.468 63.5349Z" fill="url(#paint3_linear)"/>
<ellipse cx="135.638" cy="54.8068" rx="4.21569" ry="8.82341" transform="rotate(-14.7607 135.638 54.8068)" fill="url(#paint4_linear)"/>
<ellipse cx="136.152" cy="54.6707" rx="3.51997" ry="8.33356" transform="rotate(-14.7607 136.152 54.6707)" fill="url(#paint5_linear)"/>
<ellipse cx="135.128" cy="54.9404" rx="2.46067" ry="7.32219" transform="rotate(-14.7607 135.128 54.9404)" fill="url(#paint6_linear)"/>
<path d="M17.7451 27.386C18.4485 27.1843 19.2014 27.2466 19.862 27.5613L51.8239 42.7842L171.332 2.07921C177.58 -0.048658 184.35 -0.0837094 190.619 1.97935L201.874 5.68311C209.389 8.15629 209.182 18.8583 201.577 21.039L118.559 46.8312C101.919 51.5933 92.2609 54.5353 77.2922 57.9148C69.6469 59.6409 62.7698 61.186 56.3679 62.2233C45.2086 64.0315 34.3041 59.6193 25.5907 52.4168L1.0874 32.1625L17.7451 27.386Z" fill="url(#paint7_linear)"/>
<mask id="mask0" mask-type="alpha" maskUnits="userSpaceOnUse" x="1" y="0" width="207" height="63">
<path d="M17.7451 27.3857C18.4485 27.184 19.2014 27.2464 19.862 27.561L51.8239 42.7839L171.332 2.07896C177.58 -0.0489022 184.35 -0.0839535 190.619 1.97911L201.874 5.68286C209.389 8.15605 209.182 18.858 201.577 21.0388L118.559 46.8309C101.919 51.5931 92.2609 54.535 77.2922 57.9145C69.6469 59.6406 62.7698 61.1858 56.3679 62.2231C45.2086 64.0312 34.3041 59.6191 25.5907 52.4166L1.0874 32.1623L17.7451 27.3857Z" fill="white"/>
</mask>
<g mask="url(#mask0)">
<g filter="url(#filter0_f)">
<path d="M56.1289 41.4657C56.1289 41.4657 161.129 5.76834 172.129 2.26838C183.129 -1.23158 192.129 2.76855 197.629 4.7684C192.129 3.76855 183.129 0.684587 172.129 4.26836C156.275 9.43366 128.3 18.9962 114.629 23.4657C83.1289 33.7638 64.6289 39.4657 56.1289 41.4657Z" fill="white"/>
</g>
<g filter="url(#filter1_f)">
<path d="M2.12891 32.118L18.6452 27.3005C18.6452 27.3005 49.0101 41.5777 53.5101 44.0777C52.9491 44.3769 23.1585 29.8465 18.8662 28.3095C18.5403 28.1927 18.1944 28.2164 17.8555 28.2868C12.9525 29.305 7.05739 31.0427 2.12891 32.118Z" fill="white"/>
</g>
<g style="mix-blend-mode:multiply" filter="url(#filter2_f)">
<path d="M56.4223 42.8845L26.4193 53.9138L18.4751 47.6286L56.4223 42.8845Z" fill="#B8B8B8" fill-opacity="0.61"/>
</g>
<g style="mix-blend-mode:multiply" filter="url(#filter3_f)">
<path d="M56.4223 42.8845L26.4192 53.9138L23.1777 51.5226L56.4223 42.8845Z" fill="#B8B8B8" fill-opacity="0.12"/>
</g>
<g filter="url(#filter4_f)">
<path d="M137.629 46.2686C106.129 56.5666 82.6289 61.7686 50.6289 62.7686C90.1289 55.7686 162.629 32.7686 199.129 20.7685C202.142 19.7778 207.212 17.7686 207.629 12.7685C208.046 7.76845 216.367 22.0961 209.629 24.7686C194.129 30.9159 151.3 41.799 137.629 46.2686Z" fill="white"/>
</g>
<path d="M4.12891 30.2686L-1.87109 32.2686L22.77 54.3127L32.77 50.8127L4.12891 30.2686Z" fill="#EBEBEB"/>
</g>
<path d="M90.5548 75.0636L147.036 35.1749C147.506 34.8436 147.137 34.1119 146.592 34.2916L95.2986 51.1827L61.5275 84.7118L90.5548 75.0636Z" fill="#E4E4E4"/>
<mask id="mask1" mask-type="alpha" maskUnits="userSpaceOnUse" x="54" y="34" width="100" height="51">
<path d="M90.5548 75.0636L147.036 35.1749C147.506 34.8436 147.137 34.1119 146.592 34.2916L95.2986 51.1827L61.5275 84.7118L90.5548 75.0636Z" fill="white"/>
</mask>
<g mask="url(#mask1)">
<g filter="url(#filter5_f)">
<path d="M89.6289 75.2686L148.129 33.7686L147.129 33.2686L84.1289 76.7686L89.6289 75.2686Z" fill="white"/>
</g>
<g filter="url(#filter6_f)">
<path d="M94.6284 50.2686L63.6284 80.2686L78.1284 77.2686L119.128 42.7686L94.6284 50.2686Z" fill="white" fill-opacity="0.65"/>
</g>
</g>
<path d="M36.7231 66.2844L52.8699 52.4703C53.2833 52.1165 52.9142 51.4503 52.3951 51.6133L36.6271 56.564L23.645 69.3907L36.7231 66.2844Z" fill="#E4E4E4"/>
<mask id="mask2" mask-type="alpha" maskUnits="userSpaceOnUse" x="21" y="51" width="35" height="20">
<path d="M36.7231 66.2844L52.8699 52.4703C53.2833 52.1165 52.9142 51.4503 52.3951 51.6133L36.6271 56.564L23.645 69.3907L36.7231 66.2844Z" fill="#E4E4E4"/>
</mask>
<g mask="url(#mask2)">
<g filter="url(#filter7_f)">
<path d="M35.534 66.5153L52.1666 51.5953L53.6661 51.5578L36.5336 66.4903L35.534 66.5153Z" fill="white"/>
</g>
</g>
<path d="M59.5003 85.725C51.8497 87.9188 48.634 82.1375 45.4549 77.1674C50.9184 74.276 75.8491 79.2911 90.5382 75.079L59.5003 85.725Z" fill="url(#paint8_linear)"/>
<path d="M97.7526 10.0748C99.732 8.8847 108.99 8.83953 110.871 9.62501L99.8114 13.7899C99.4603 12.5656 99.1093 11.3415 97.7526 10.0748Z" fill="#27AE60"/>
<defs>
<filter id="filter0_f" x="54.1289" y="-1.11646" width="145.5" height="44.5821" filterUnits="userSpaceOnUse" color-interpolation-filters="sRGB">
<feFlood flood-opacity="0" result="BackgroundImageFix"/>
<feBlend mode="normal" in="SourceGraphic" in2="BackgroundImageFix" result="shape"/>
<feGaussianBlur stdDeviation="1" result="effect1_foregroundBlur"/>
</filter>
<filter id="filter1_f" x="1.12891" y="26.3005" width="53.3812" height="18.7817" filterUnits="userSpaceOnUse" color-interpolation-filters="sRGB">
<feFlood flood-opacity="0" result="BackgroundImageFix"/>
<feBlend mode="normal" in="SourceGraphic" in2="BackgroundImageFix" result="shape"/>
<feGaussianBlur stdDeviation="0.5" result="effect1_foregroundBlur"/>
</filter>
<filter id="filter2_f" x="11.4751" y="35.8845" width="51.9472" height="25.0293" filterUnits="userSpaceOnUse" color-interpolation-filters="sRGB">
<feFlood flood-opacity="0" result="BackgroundImageFix"/>
<feBlend mode="normal" in="SourceGraphic" in2="BackgroundImageFix" result="shape"/>
<feGaussianBlur stdDeviation="3.5" result="effect1_foregroundBlur"/>
</filter>
<filter id="filter3_f" x="22.1777" y="41.8845" width="35.2446" height="13.0293" filterUnits="userSpaceOnUse" color-interpolation-filters="sRGB">
<feFlood flood-opacity="0" result="BackgroundImageFix"/>
<feBlend mode="normal" in="SourceGraphic" in2="BackgroundImageFix" result="shape"/>
<feGaussianBlur stdDeviation="0.5" result="effect1_foregroundBlur"/>
</filter>
<filter id="filter4_f" x="48.6289" y="9.71802" width="165.623" height="55.0505" filterUnits="userSpaceOnUse" color-interpolation-filters="sRGB">
<feFlood flood-opacity="0" result="BackgroundImageFix"/>
<feBlend mode="normal" in="SourceGraphic" in2="BackgroundImageFix" result="shape"/>
<feGaussianBlur stdDeviation="1" result="effect1_foregroundBlur"/>
</filter>
<filter id="filter5_f" x="83.1289" y="32.2686" width="66" height="45.5" filterUnits="userSpaceOnUse" color-interpolation-filters="sRGB">
<feFlood flood-opacity="0" result="BackgroundImageFix"/>
<feBlend mode="normal" in="SourceGraphic" in2="BackgroundImageFix" result="shape"/>
<feGaussianBlur stdDeviation="0.5" result="effect1_foregroundBlur"/>
</filter>
<filter id="filter6_f" x="56.6284" y="35.7686" width="69.5" height="51.5" filterUnits="userSpaceOnUse" color-interpolation-filters="sRGB">
<feFlood flood-opacity="0" result="BackgroundImageFix"/>
<feBlend mode="normal" in="SourceGraphic" in2="BackgroundImageFix" result="shape"/>
<feGaussianBlur stdDeviation="3.5" result="effect1_foregroundBlur"/>
</filter>
<filter id="filter7_f" x="34.5342" y="50.5579" width="20.1321" height="16.9574" filterUnits="userSpaceOnUse" color-interpolation-filters="sRGB">
<feFlood flood-opacity="0" result="BackgroundImageFix"/>
<feBlend mode="normal" in="SourceGraphic" in2="BackgroundImageFix" result="shape"/>
<feGaussianBlur stdDeviation="0.5" result="effect1_foregroundBlur"/>
</filter>
<linearGradient id="paint0_linear" x1="178.029" y1="23.3174" x2="178.029" y2="34.1415" gradientUnits="userSpaceOnUse">
<stop stop-color="#9B9B9B"/>
<stop offset="0.749158" stop-color="#C4C4C4"/>
</linearGradient>
<linearGradient id="paint1_linear" x1="102.564" y1="23.3912" x2="119.923" y2="16.2514" gradientUnits="userSpaceOnUse">
<stop stop-color="#DEDEDE"/>
<stop offset="0.3125" stop-color="#ECECEC"/>
<stop offset="1" stop-color="#E7E7E7"/>
</linearGradient>
<linearGradient id="paint2_linear" x1="119.932" y1="50.0579" x2="124.312" y2="66.6818" gradientUnits="userSpaceOnUse">
<stop stop-color="#158644"/>
<stop offset="0.520833" stop-color="#27AE60"/>
<stop offset="0.765625" stop-color="#44C57A"/>
<stop offset="1" stop-color="#92EFB9"/>
</linearGradient>
<linearGradient id="paint3_linear" x1="130.607" y1="47.006" x2="135.101" y2="64.0629" gradientUnits="userSpaceOnUse">
<stop stop-color="#BFBFBF"/>
<stop offset="1" stop-color="#D1D1D1"/>
</linearGradient>
<linearGradient id="paint4_linear" x1="137.016" y1="45.8623" x2="134.122" y2="64.4014" gradientUnits="userSpaceOnUse">
<stop stop-color="#D5D5D5"/>
<stop offset="1" stop-color="white"/>
</linearGradient>
<linearGradient id="paint5_linear" x1="136.152" y1="46.6727" x2="136.152" y2="63.3671" gradientUnits="userSpaceOnUse">
<stop stop-color="#6E6E6E"/>
<stop offset="1" stop-color="#A9A9A9"/>
</linearGradient>
<linearGradient id="paint6_linear" x1="135.128" y1="47.6182" x2="135.128" y2="62.2626" gradientUnits="userSpaceOnUse">
<stop stop-color="#353535"/>
<stop offset="1" stop-color="#575757"/>
</linearGradient>
<linearGradient id="paint7_linear" x1="103.129" y1="-5.23121" x2="119.898" y2="44.4238" gradientUnits="userSpaceOnUse">
<stop offset="0.548752" stop-color="#3BC575"/>
<stop offset="0.61258" stop-color="#41D680"/>
<stop offset="0.856942" stop-color="#27AE60"/>
<stop offset="1" stop-color="#229B55"/>
</linearGradient>
<linearGradient id="paint8_linear" x1="66.0778" y1="70.7794" x2="70.3641" y2="82.6099" gradientUnits="userSpaceOnUse">
<stop stop-color="#9AF3C0"/>
<stop offset="0.732669" stop-color="#27AE60"/>
<stop offset="1" stop-color="#1C8E4C"/>
</linearGradient>
</defs>
</svg>
