<svg viewBox="0 0 111 112" fill="none" xmlns="http://www.w3.org/2000/svg">
<path d="M35.74 20.0212C35.74 10.791 35.74 6.17593 38.6074 3.30849C41.4749 0.44104 46.09 0.44104 55.3201 0.44104H64.4178C64.5682 0.44104 64.6433 0.44104 64.7155 0.442103C67.3956 0.481597 69.9424 1.61831 71.7616 3.587C71.8105 3.63998 71.8607 3.69593 71.9611 3.80783V3.80783C72.0476 3.90428 72.0909 3.95251 72.1322 3.9998C73.6635 5.75145 74.5209 7.99117 74.5507 10.3176C74.5515 10.3804 74.5515 10.4452 74.5515 10.5747V36.0142H99.9899C100.14 36.0142 100.215 36.0142 100.288 36.0153C102.968 36.0547 105.515 37.1915 107.334 39.1601C107.383 39.2131 107.433 39.2691 107.533 39.381V39.381C107.62 39.4774 107.663 39.5257 107.704 39.5729C109.236 41.3246 110.093 43.5643 110.123 45.8907C110.124 45.9535 110.124 46.0183 110.124 46.1479V55.8893C110.124 65.1195 110.124 69.7345 107.256 72.602C104.389 75.4694 99.7737 75.4694 90.5435 75.4694H74.5515V91.4608C74.5515 100.691 74.5515 105.306 71.6841 108.173C68.8166 111.041 64.2016 111.041 54.9714 111.041H45.8737C45.7234 111.041 45.6482 111.041 45.5761 111.04C42.8959 111 40.3491 109.864 38.53 107.895C38.481 107.842 38.4308 107.786 38.3304 107.674V107.674C38.2439 107.578 38.2007 107.529 38.1593 107.482C36.628 105.731 35.7707 103.491 35.7408 101.164C35.74 101.102 35.74 101.037 35.74 100.907V75.4694H10.3012C10.1508 75.4694 10.0757 75.4694 10.0036 75.4684C7.32337 75.4289 4.77659 74.2922 2.95745 72.3235C2.9085 72.2705 2.85831 72.2146 2.75792 72.1027V72.1027C2.6714 72.0062 2.62813 71.958 2.58679 71.9107C1.05553 70.159 0.198141 67.9193 0.168287 65.5929C0.16748 65.5301 0.16748 65.4653 0.16748 65.3357V55.5943C0.16748 46.3642 0.16748 41.7491 3.03493 38.8816C5.90237 36.0142 10.5175 36.0142 19.7476 36.0142H35.74V20.0212Z" fill="url(#paint0_linear)"/>
<mask id="mask0" mask-type="alpha" maskUnits="userSpaceOnUse" x="0" y="0" width="111" height="112">
<path d="M35.74 20.0212C35.74 10.791 35.74 6.17593 38.6074 3.30849C41.4749 0.44104 46.09 0.44104 55.3201 0.44104H64.4178C64.5682 0.44104 64.6433 0.44104 64.7155 0.442103C67.3956 0.481597 69.9424 1.61831 71.7616 3.587C71.8105 3.63998 71.8607 3.69593 71.9611 3.80783V3.80783C72.0476 3.90428 72.0909 3.95251 72.1322 3.9998C73.6635 5.75145 74.5209 7.99117 74.5507 10.3176C74.5515 10.3804 74.5515 10.4452 74.5515 10.5747V36.0142H99.9899C100.14 36.0142 100.215 36.0142 100.288 36.0153C102.968 36.0547 105.515 37.1915 107.334 39.1601C107.383 39.2131 107.433 39.2691 107.533 39.381V39.381C107.62 39.4774 107.663 39.5257 107.704 39.5729C109.236 41.3246 110.093 43.5643 110.123 45.8907C110.124 45.9535 110.124 46.0183 110.124 46.1479V55.8893C110.124 65.1195 110.124 69.7345 107.256 72.602C104.389 75.4694 99.7737 75.4694 90.5435 75.4694H74.5515V91.4608C74.5515 100.691 74.5515 105.306 71.6841 108.173C68.8166 111.041 64.2016 111.041 54.9714 111.041H45.8737C45.7234 111.041 45.6482 111.041 45.5761 111.04C42.8959 111 40.3491 109.864 38.53 107.895C38.481 107.842 38.4308 107.786 38.3304 107.674V107.674C38.2439 107.578 38.2007 107.529 38.1593 107.482C36.628 105.731 35.7707 103.491 35.7408 101.164C35.74 101.102 35.74 101.037 35.74 100.907V75.4694H10.3012C10.1508 75.4694 10.0757 75.4694 10.0036 75.4684C7.32337 75.4289 4.77659 74.2922 2.95745 72.3235C2.9085 72.2705 2.85831 72.2146 2.75792 72.1027V72.1027C2.6714 72.0062 2.62813 71.958 2.58679 71.9107C1.05553 70.159 0.198141 67.9193 0.168287 65.5929C0.16748 65.5301 0.16748 65.4653 0.16748 65.3357V55.5943C0.16748 46.3642 0.16748 41.7491 3.03493 38.8816C5.90237 36.0142 10.5175 36.0142 19.7476 36.0142H35.74V20.0212Z" fill="url(#paint1_linear)"/>
</mask>
<g mask="url(#mask0)">
<g filter="url(#filter0_f)">
<path d="M37.4793 14.1927C37.4793 10.5057 37.4793 8.66216 37.9696 7.17178C38.941 4.21884 41.2571 1.90275 44.21 0.931327C45.7004 0.44104 47.5439 0.44104 51.231 0.44104V0.44104C54.918 0.44104 56.7615 0.44104 58.2519 0.931327C61.2049 1.90275 63.521 4.21884 64.4924 7.17178C64.9827 8.66216 64.9827 10.5057 64.9827 14.1927V35.9957L85.8711 35.9956C89.8533 35.9956 91.8444 35.9956 93.4418 36.5663C96.2054 37.5536 98.3803 39.7285 99.3676 42.4921C99.9383 44.0894 99.9383 46.0805 99.9383 50.0628V50.0628C99.9383 54.0449 99.9383 56.036 99.3676 57.6334C98.3803 60.3969 96.2054 62.5719 93.4419 63.5591C91.8445 64.1298 89.8534 64.1298 85.8712 64.1298L64.9827 64.1299V85.2319C64.9827 88.7867 64.9827 90.5641 64.5265 92.0057C63.565 95.0442 61.1847 97.4245 58.1462 98.386C56.7046 98.8421 54.9272 98.8421 51.3724 98.8421V98.8421C47.8176 98.8421 46.0402 98.8421 44.5986 98.386C41.5601 97.4245 39.1798 95.0442 38.2183 92.0057C37.7621 90.5641 37.7621 88.7867 37.7621 85.2319V64.1299L16.0601 64.13C12.2801 64.13 10.3901 64.13 8.86574 63.6151C5.97265 62.6377 3.7013 60.3664 2.72395 57.4733C2.20898 55.949 2.20898 54.059 2.20898 50.279V50.279C2.20898 46.499 2.20898 44.6091 2.72395 43.0847C3.70129 40.1916 5.97262 37.9203 8.8657 36.943C10.39 36.428 12.28 36.428 16.06 36.428L37.4793 36.4279V14.1927Z" fill="url(#paint2_linear)"/>
</g>
<g filter="url(#filter1_f)">
<path d="M75.3218 79.3927L67.1331 71.7623V94.8242C67.1331 99.1497 63.6266 102.656 59.3011 102.656H38.4724V113.078H75.3218V79.3927Z" fill="#C63B3B"/>
</g>
<g filter="url(#filter2_f)">
<path d="M0.20752 78.7579H37.401V76.1679C37.401 71.8423 33.8944 68.3358 29.5689 68.3358H0.20752V78.7579Z" fill="#C63B3B"/>
</g>
<g filter="url(#filter3_f)">
<path d="M110.124 46.2652L101.935 38.6349V61.6967C101.935 66.0222 98.4288 69.5288 94.1033 69.5288H73.2747V79.9509H110.124V46.2652Z" fill="#C63B3B"/>
</g>
<g filter="url(#filter4_f)">
<path d="M108.867 45.961L107.161 41.4644V63.5674C107.161 68.4336 103.216 72.3785 98.3502 72.3785L75.9048 72.3786L78.0584 74.3538H101.035C105.36 74.3538 108.867 70.8472 108.867 66.5217V45.961Z" fill="white" fill-opacity="0.85"/>
</g>
<g filter="url(#filter5_f)">
<path d="M7.2178 74.2165H33.6074C34.4347 74.2165 34.8954 73.2602 34.3797 72.6133C34.1923 72.3782 33.9081 72.2412 33.6074 72.2412L5.22974 72.2413L7.2178 74.2165Z" fill="white" fill-opacity="0.85"/>
</g>
<g filter="url(#filter6_f)">
<path d="M73.5724 81.5642L71.867 77.0676V99.1706C71.867 104.037 67.9222 107.982 63.056 107.982L40.6106 107.982L42.7642 109.957H65.7404C70.0659 109.957 73.5724 106.45 73.5724 102.125V81.5642Z" fill="white" fill-opacity="0.85"/>
</g>
</g>
<defs>
<filter id="filter0_f" x="-3.66506" y="-5.433" width="109.477" height="110.149" filterUnits="userSpaceOnUse" color-interpolation-filters="sRGB">
<feFlood flood-opacity="0" result="BackgroundImageFix"/>
<feBlend mode="normal" in="SourceGraphic" in2="BackgroundImageFix" result="shape"/>
<feGaussianBlur stdDeviation="2.93702" result="effect1_foregroundBlur"/>
</filter>
<filter id="filter1_f" x="30.6404" y="63.9303" width="52.5135" height="56.9801" filterUnits="userSpaceOnUse" color-interpolation-filters="sRGB">
<feFlood flood-opacity="0" result="BackgroundImageFix"/>
<feBlend mode="normal" in="SourceGraphic" in2="BackgroundImageFix" result="shape"/>
<feGaussianBlur stdDeviation="3.91603" result="effect1_foregroundBlur"/>
</filter>
<filter id="filter2_f" x="-7.62454" y="60.5038" width="52.8575" height="26.0862" filterUnits="userSpaceOnUse" color-interpolation-filters="sRGB">
<feFlood flood-opacity="0" result="BackgroundImageFix"/>
<feBlend mode="normal" in="SourceGraphic" in2="BackgroundImageFix" result="shape"/>
<feGaussianBlur stdDeviation="3.91603" result="effect1_foregroundBlur"/>
</filter>
<filter id="filter3_f" x="65.4426" y="30.8028" width="52.5135" height="56.9801" filterUnits="userSpaceOnUse" color-interpolation-filters="sRGB">
<feFlood flood-opacity="0" result="BackgroundImageFix"/>
<feBlend mode="normal" in="SourceGraphic" in2="BackgroundImageFix" result="shape"/>
<feGaussianBlur stdDeviation="3.91603" result="effect1_foregroundBlur"/>
</filter>
<filter id="filter4_f" x="71.9888" y="37.5484" width="40.7939" height="40.7214" filterUnits="userSpaceOnUse" color-interpolation-filters="sRGB">
<feFlood flood-opacity="0" result="BackgroundImageFix"/>
<feBlend mode="normal" in="SourceGraphic" in2="BackgroundImageFix" result="shape"/>
<feGaussianBlur stdDeviation="1.95801" result="effect1_foregroundBlur"/>
</filter>
<filter id="filter5_f" x="1.31371" y="68.3252" width="37.1992" height="9.80735" filterUnits="userSpaceOnUse" color-interpolation-filters="sRGB">
<feFlood flood-opacity="0" result="BackgroundImageFix"/>
<feBlend mode="normal" in="SourceGraphic" in2="BackgroundImageFix" result="shape"/>
<feGaussianBlur stdDeviation="1.95801" result="effect1_foregroundBlur"/>
</filter>
<filter id="filter6_f" x="36.6946" y="73.1516" width="40.7939" height="40.7214" filterUnits="userSpaceOnUse" color-interpolation-filters="sRGB">
<feFlood flood-opacity="0" result="BackgroundImageFix"/>
<feBlend mode="normal" in="SourceGraphic" in2="BackgroundImageFix" result="shape"/>
<feGaussianBlur stdDeviation="1.95801" result="effect1_foregroundBlur"/>
</filter>
<linearGradient id="paint0_linear" x1="6.07669" y1="-3.12422" x2="98.6987" y2="102.921" gradientUnits="userSpaceOnUse">
<stop stop-color="#FF9D9D"/>
<stop offset="1" stop-color="#EA4E4E"/>
</linearGradient>
<linearGradient id="paint1_linear" x1="6.07669" y1="-3.12422" x2="98.6987" y2="102.921" gradientUnits="userSpaceOnUse">
<stop stop-color="#FF8B8B"/>
<stop offset="1" stop-color="#CB2323"/>
</linearGradient>
<linearGradient id="paint2_linear" x1="17.0911" y1="9.01434" x2="87.6592" y2="89.8095" gradientUnits="userSpaceOnUse">
<stop offset="0.223958" stop-color="#FFCECE"/>
<stop offset="0.875" stop-color="#FF6161"/>
</linearGradient>
</defs>
</svg>
