<svg width="180" height="117" viewBox="0 0 180 117" fill="none" xmlns="http://www.w3.org/2000/svg">
<path d="M53.0653 27.0682C36.3099 29.2368 20.8222 21.8399 11.4193 15.8549L31.2756 49.2337L13.7674 65.4737C21.6777 69.5568 38.8585 77.1797 51.5893 76.2198C67.911 74.9892 71.7715 61.9187 86.6633 61.8031L99.7768 115.961L104.114 114.879L78.9283 8.62445C68.7308 7.37882 65.8815 25.4094 53.0653 27.0682Z" fill="#FF0000"/>
<path d="M138.223 31.0151C151.039 32.6739 154.422 18.7945 168.632 14.5315C163.451 37.4621 157.261 50.9993 168.632 67.3926C154.991 64.2664 146.975 77.1627 134.244 76.2028C117.922 74.9722 118.897 57.7299 102.157 61.8032L89.0433 115.961L84.7066 114.879L109.892 8.62456C125.718 6.28972 125.407 29.3563 138.223 31.0151Z" fill="#FFE500"/>
</svg>
