<svg width="69" height="56" viewBox="0 0 69 56" fill="none" xmlns="http://www.w3.org/2000/svg">
<path d="M13.8455 43.696C12.4715 42.064 11.7844 40 11.7844 37.504C11.7844 25.1542 18.8813 10 32.8162 10C33.6168 10 34.0471 10.9207 33.5902 11.5419C33.5472 11.6004 33.4902 11.6478 33.4309 11.6896C27.5019 15.8776 24.0039 20.6415 24.0039 27.856C25.9668 28.336 27.39 29.248 28.2733 30.592C30.7835 34.0293 30.3601 40.5667 27.5372 43.696C24.5192 47.0697 16.917 46.9005 13.8455 43.696Z" fill="#27AE60"/>
<path d="M35.838 43.696C34.4639 42.064 33.7769 40 33.7769 37.504C33.7769 25.1542 40.8737 10 54.8086 10C55.6092 10 56.0395 10.9207 55.5826 11.5419C55.5396 11.6004 55.4826 11.6478 55.4234 11.6896C49.4943 15.8776 45.9963 20.6415 45.9963 27.856C47.9593 28.336 49.3824 29.248 50.2657 30.592C52.7759 34.0293 52.3526 40.5667 49.5296 43.696C46.5116 47.0697 38.9094 46.9005 35.838 43.696Z" fill="#27AE60"/>
</svg>
