<svg width="69" height="56" viewBox="0 0 69 56" fill="none" xmlns="http://www.w3.org/2000/svg">
<path d="M14.1202 43.696C12.7461 42.064 12.0591 40 12.0591 37.504C12.0591 25.1542 19.1559 10 33.0908 10C33.8914 10 34.3217 10.9207 33.8648 11.5419C33.8218 11.6004 33.7649 11.6478 33.7056 11.6896C27.7765 15.8776 24.2785 20.6415 24.2785 27.856C26.2415 28.336 27.6646 29.248 28.548 30.592C31.0581 34.0293 30.6348 40.5667 27.8119 43.696C24.7939 47.0697 17.1917 46.9005 14.1202 43.696Z" fill="#27AE60"/>
<path d="M36.1124 43.696C34.7383 42.064 34.0513 40 34.0513 37.504C34.0513 25.1542 41.1481 10 55.083 10C55.8836 10 56.3139 10.9207 55.857 11.5419C55.814 11.6004 55.7571 11.6478 55.6978 11.6896C49.7687 15.8776 46.2707 20.6415 46.2707 27.856C48.2337 28.336 49.6568 29.248 50.5402 30.592C53.0503 34.0293 52.627 40.5667 49.8041 43.696C46.786 47.0697 39.1838 46.9005 36.1124 43.696Z" fill="#27AE60"/>
</svg>
