<svg width="154" height="106" viewBox="0 0 154 106" fill="none" xmlns="http://www.w3.org/2000/svg">
<path d="M97 45.6733C97 90.7085 31.4646 92.3848 0 84.1445C15.5679 76.9311 17.9632 55.8344 17.9632 45.6733C17.9632 23.7624 35.6562 6 57.4816 6C79.307 6 97 23.7624 97 45.6733Z" fill="#FFA800"/>
<path d="M54.6064 51.6296L51.6677 42.5475C54.7556 41.4172 56.924 40.1472 58.1728 38.7376C59.4485 37.2757 59.7277 35.4366 59.0107 33.2205L58.7418 32.3894C58.2552 30.8856 57.4287 29.8853 56.2625 29.3883C55.1357 28.8785 53.86 28.8541 52.4354 29.3151C50.892 29.8145 49.7595 30.7055 49.0379 31.9882C48.3559 33.2581 48.0737 34.6828 48.1913 36.2623L39.9698 35.5782C39.9418 34.2757 40.0849 32.9616 40.3991 31.6359C40.7005 30.2706 41.2446 28.9797 42.0314 27.7634C42.845 26.4946 43.914 25.34 45.2385 24.2994C46.6026 23.2459 48.2938 22.3927 50.3121 21.7396C52.3699 21.0738 54.3457 20.7624 56.2394 20.8054C58.1332 20.8484 59.8663 21.2056 61.4388 21.8772C63.0113 22.5487 64.3575 23.5339 65.4772 24.8329C66.6366 26.119 67.5108 27.6722 68.0998 29.4926C68.6376 31.1547 68.8472 32.7482 68.7285 34.2729C68.6098 35.7977 68.2421 37.2282 67.6252 38.5644C66.9956 39.8611 66.15 41.0309 65.0885 42.0738C64.027 43.1168 62.8422 43.981 61.5339 44.6666L62.9169 48.9406L54.6064 51.6296ZM63.5861 64.79C61.6866 65.4047 60.1804 65.4111 59.0677 64.8094C57.9945 64.1949 57.253 63.2544 56.8433 61.9881L56.3823 60.5634C55.9726 59.2971 56.0226 58.1005 56.5323 56.9738C57.0817 55.8343 58.3061 54.9572 60.2056 54.3426C62.1052 53.7279 63.5915 53.7279 64.6647 54.3424C65.7775 54.9441 66.5387 55.8782 66.9485 57.1445L67.4095 58.5692C67.8192 59.8355 67.7494 61.0385 67.2001 62.178C66.6903 63.3047 65.4857 64.1754 63.5861 64.79Z" fill="white"/>
<path d="M72.9997 69C72.9997 106.46 127.725 107.854 154 101C141 95 139 77.4519 139 69C139 50.7746 124.225 36 106 36C87.7744 36 72.9997 50.7746 72.9997 69Z" fill="#3A33D9"/>
<path d="M102.567 76.3515L104.873 61.2892L108.063 51.5281L115.913 54.0936L112.722 63.8547L105.737 77.3876L102.567 76.3515ZM100.261 88.5179C98.6514 87.9917 97.6148 87.2445 97.1516 86.2763C96.7219 85.319 96.6825 84.3037 97.0333 83.2304L97.428 82.0228C97.7788 80.9494 98.4103 80.1534 99.3223 79.6347C100.268 79.127 101.546 79.1363 103.156 79.6625C104.766 80.1888 105.786 80.9305 106.215 81.8877C106.679 82.8559 106.735 83.8767 106.384 84.9501L105.989 86.1576C105.639 87.231 104.99 88.0216 104.045 88.5293C103.133 89.048 101.872 89.0442 100.261 88.5179Z" fill="white"/>
</svg>
