<svg width="293" height="156" viewBox="0 0 293 156" fill="none" xmlns="http://www.w3.org/2000/svg">
<path d="M182.99 6.34006L17.2567 56.4657C8.27031 59.2561 5.31471 67.7986 10.6552 75.5459L32.8778 106.721C35.692 110.803 40.2482 113.85 45.244 115.411C45.3902 120.715 46.9778 126.271 50.1244 131.74C53.0592 122.6 60.8164 115.076 72.6198 111.411L224.552 65.5705C233.539 62.7801 236.494 54.2376 231.154 46.4903L208.931 15.3154C203.591 7.5681 191.976 3.54969 182.99 6.34006Z" fill="#FF5E03"/>
<mask id="mask0" mask-type="alpha" maskUnits="userSpaceOnUse" x="7" y="5" width="227" height="127">
<path d="M182.99 6.34006L17.2567 56.4657C8.27031 59.2561 5.31471 67.7986 10.6552 75.5459L32.8778 106.721C35.692 110.803 40.2482 113.85 45.244 115.411C45.3902 120.715 46.9778 126.271 50.1244 131.74C53.0592 122.6 60.8164 115.076 72.6198 111.411L224.552 65.5705C233.539 62.7801 236.494 54.2376 231.154 46.4903L208.931 15.3154C203.591 7.5681 191.976 3.54969 182.99 6.34006Z" fill="#3A33D9"/>
</mask>
<g mask="url(#mask0)">
<g filter="url(#filter0_f)">
<path d="M14.8186 55.3964C20.3349 53.5106 173.158 7.54841 189.247 2.83397C195.223 1.08289 204.463 3.92799 207.69 7.5629C209.93 10.086 223.768 27.4244 229.916 36.4094C236.063 45.3943 241.514 53.8746 233.699 56.7033C227.1 59.0916 100.038 98.0876 66.6336 108.467C60.4756 110.38 55.3313 112.757 52.3801 118.501C49.4288 124.246 46.1546 120.345 47.1951 112.075C47.6323 108.599 48.4409 105.159 50.4894 103.133C52.5379 101.107 51.9271 99.3843 49.5716 101.259C47.216 103.133 45.811 104.979 45.1554 106.679C44.0003 109.673 40.1071 107.576 38.7535 105.632C36.455 102.332 21.2545 81.9917 14.8188 72.5628C8.383 63.134 9.30237 57.2821 14.8186 55.3964Z" fill="url(#paint0_linear)"/>
<path d="M14.8186 55.3964C20.3349 53.5106 173.158 7.54841 189.247 2.83397C195.223 1.08289 204.463 3.92799 207.69 7.5629C209.93 10.086 223.768 27.4244 229.916 36.4094C236.063 45.3943 241.514 53.8746 233.699 56.7033C227.1 59.0916 100.038 98.0876 66.6336 108.467C60.4756 110.38 55.3313 112.757 52.3801 118.501C49.4288 124.246 46.1546 120.345 47.1951 112.075C47.6323 108.599 48.4409 105.159 50.4894 103.133C52.5379 101.107 51.9271 99.3843 49.5716 101.259C47.216 103.133 45.811 104.979 45.1554 106.679C44.0003 109.673 40.1071 107.576 38.7535 105.632C36.455 102.332 21.2545 81.9917 14.8188 72.5628C8.383 63.134 9.30237 57.2821 14.8186 55.3964Z" fill="url(#paint1_linear)"/>
</g>
<g filter="url(#filter1_f)">
<path d="M50.1666 131.524C48.5354 126.516 45.038 111.318 51.5854 103.15C42.7187 107.273 44.2809 122.841 50.1666 131.524Z" fill="white" fill-opacity="0.67"/>
</g>
<g filter="url(#filter2_f)">
<path d="M22.1819 54.9133C12.0278 58.0761 7.57878 62.0636 16.5071 59.1694C74.085 40.5045 148.662 19.4671 182.711 8.42776C191.696 5.51461 201.151 8.94095 206.355 15.9941C212.984 24.979 216.51 29.3289 227.795 45.6783C229.827 48.6222 235.765 52.3364 229.324 44.279C219.227 29.1413 216.731 25.7095 209.728 16.0805L209.665 15.9941C202.099 5.59044 192.168 3.11179 182.711 6.06331C137.047 20.3136 72.529 39.2314 22.1819 54.9133Z" fill="white" fill-opacity="0.82"/>
</g>
<g filter="url(#filter3_f)">
<path d="M229.467 66.0202C233.811 64.6096 236.56 58.6826 231.358 60.3455C176.976 77.7295 118.873 95.401 66.8545 111.479C61.4951 113.529 50.7763 118.951 52.6678 133.705C53.5692 125.806 64.4902 117.861 71.1107 115.735C122.656 99.1841 181.412 81.6257 229.467 66.0202Z" fill="white" fill-opacity="0.45"/>
</g>
<g filter="url(#filter4_f)">
<path d="M10.5813 75.6994C18.0837 86.8074 29.9573 102.957 33.689 108.088C37.4721 113.289 37.7086 109.979 34.1619 105.25C29.9059 99.5756 18.0524 83.2484 9.57149 71.202C7.93147 68.8725 6.67342 69.9133 10.5813 75.6994Z" fill="white"/>
</g>
</g>
<g filter="url(#filter5_f)">
<path d="M37.0278 68.8769L36.9653 68.8972C36.7967 69.0485 36.561 69.1997 36.2581 69.3507C35.9553 69.5017 35.6077 69.641 35.2155 69.7684C34.1307 70.1209 33.1791 70.1669 32.3606 69.9064C31.5453 69.636 30.8102 69.0501 30.1552 68.1486L28.6235 66.0404L29.6749 65.6987L31.2066 67.807C31.6811 68.46 32.1993 68.8752 32.7612 69.0523C33.3315 69.2268 33.9713 69.1988 34.6806 68.9683C35.0979 68.8327 35.4579 68.6894 35.7608 68.5384C36.0636 68.3873 36.2951 68.2375 36.4554 68.0889L33.7555 64.3729L34.8069 64.0312L40.2067 71.4634L39.1553 71.805L37.0278 68.8769ZM44.95 70.0801C44.5078 70.2238 44.0582 70.2865 43.6014 70.2682C43.1529 70.2472 42.7091 70.1545 42.2699 69.9901C41.8339 69.8159 41.4186 69.578 41.024 69.2762C40.6327 68.9647 40.2771 68.5889 39.9573 68.1488C39.6427 67.7157 39.4233 67.3001 39.2989 66.9018C39.1829 66.5008 39.1598 66.1354 39.2297 65.8056C39.3027 65.466 39.4654 65.1718 39.7179 64.923C39.9788 64.6716 40.3303 64.474 40.7726 64.3303C41.2065 64.1893 41.6435 64.1307 42.0837 64.1544C42.5238 64.1781 42.9525 64.2713 43.3699 64.434C43.7821 64.5896 44.1694 64.8104 44.5318 65.0962C44.9025 65.3794 45.2297 65.7162 45.5134 66.1066L45.8074 66.5112L41.1635 68.0201L41.3492 68.2756C41.5194 68.5099 41.721 68.7164 41.954 68.8951C42.1902 69.064 42.4417 69.1973 42.7085 69.2948C42.9837 69.3897 43.2691 69.4417 43.5647 69.451C43.8685 69.4575 44.1707 69.412 44.4711 69.3144C44.88 69.1815 45.1753 68.9847 45.3571 68.7238C45.5473 68.4602 45.6149 68.1487 45.56 67.7892L46.5907 67.994C46.6554 68.438 46.5517 68.849 46.2797 69.2269C46.0024 69.5978 45.5592 69.8822 44.95 70.0801ZM41.2909 65.0437C41.0155 65.1332 40.7961 65.2571 40.6327 65.4155C40.4641 65.5668 40.3505 65.7441 40.2919 65.9474C40.2417 66.148 40.2455 66.3661 40.3032 66.6018C40.3558 66.8304 40.4698 67.0653 40.6452 67.3067L40.6993 67.3812L44.2667 66.2221L44.1816 66.105C43.8258 65.6152 43.3836 65.2763 42.855 65.0883C42.3296 64.8905 41.8083 64.8756 41.2909 65.0437ZM45.3069 63.015L46.6212 62.5879L50.6596 64.803L50.7097 64.7867L50.5891 61.2987L51.8909 60.8757L55.8827 66.3699L54.9064 66.6871L51.6572 62.2151L51.5946 62.2354L51.6649 62.9496L51.7552 66.2896L47.8847 64.1779L47.0884 63.6996L47.0259 63.7199L50.275 68.192L49.2987 68.5092L45.3069 63.015ZM62.8927 64.2502C62.2335 64.4644 61.6381 64.5393 61.1067 64.4751C60.5752 64.4109 60.0554 64.242 59.5472 63.9684L59.9269 63.2133C60.2898 63.4288 60.674 63.5672 61.0795 63.6285C61.4882 63.6799 61.9095 63.6352 62.3435 63.4942C62.8692 63.3233 63.1979 63.1156 63.3296 62.871C63.4697 62.6237 63.4469 62.3723 63.2612 62.1167L63.1684 61.989C62.9673 61.7121 62.7025 61.5393 62.374 61.4706C62.0488 61.392 61.6858 61.4178 61.2853 61.5479L59.9084 61.9953L59.3901 61.2819L60.6418 60.8752C61.0424 60.745 61.3021 60.5773 61.4211 60.3719C61.5401 60.1665 61.5093 59.9396 61.3288 59.6912L61.236 59.5634C61.0658 59.3292 60.819 59.1812 60.4957 59.1195C60.1756 59.0481 59.7569 59.0964 59.2395 59.2645C58.8139 59.4028 58.5176 59.5912 58.3505 59.8297C58.1783 60.0612 58.099 60.3282 58.1126 60.6309L57.101 60.3673C57.0692 59.9828 57.1731 59.6288 57.4125 59.3053C57.6552 58.972 58.0978 58.701 58.7403 58.4922C59.5831 58.2184 60.3002 58.1477 60.8916 58.2802C61.483 58.4127 61.9463 58.7097 62.2815 59.1711C62.5291 59.5118 62.6165 59.8168 62.544 60.086C62.4798 60.3526 62.2758 60.59 61.9319 60.7982L61.9629 60.8408C62.4631 60.7484 62.9084 60.7792 63.2987 60.9332C63.6923 61.0773 64.0154 61.3233 64.2681 61.6711C64.6549 62.2035 64.7239 62.7032 64.4752 63.17C64.2297 63.6271 63.7022 63.9871 62.8927 64.2502ZM71.876 61.1734C71.5005 61.2954 71.1674 61.2983 70.8767 61.1822C70.5944 61.0633 70.3396 60.8829 70.1122 60.6409L70.0496 60.6613C70.1553 61.0481 70.1073 61.3795 69.9056 61.6557C69.7039 61.9318 69.3778 62.143 68.9272 62.2894C68.2429 62.5118 67.6005 62.5362 67.0001 62.3628C66.4079 62.1867 65.9262 61.8431 65.5549 61.332C65.1784 60.8138 65.1107 60.3444 65.3519 59.9239C65.6013 59.5006 66.1976 59.1358 67.1405 58.8294L68.4173 58.4146L68.0227 57.8716C67.7391 57.4811 67.3973 57.2237 66.9974 57.0992C66.5975 56.9746 66.1389 56.9964 65.6215 57.1645C65.2293 57.292 64.9538 57.4736 64.7951 57.7094C64.6447 57.9426 64.5721 58.2118 64.5774 58.5172L63.6285 58.2333C63.5871 57.8782 63.6835 57.5354 63.9178 57.2048C64.147 56.8671 64.5536 56.6034 65.1378 56.4136C65.9222 56.1587 66.65 56.124 67.3211 56.3096C67.9923 56.4951 68.5393 56.8789 68.9622 57.461L71.1593 60.485L71.8978 60.245L72.4393 60.9903L71.876 61.1734ZM68.5639 61.5125C68.8142 61.4312 69.0256 61.3318 69.1981 61.2143C69.3707 61.0968 69.4985 60.9675 69.5817 60.8265C69.6648 60.6854 69.7043 60.5409 69.7001 60.3931C69.6958 60.2454 69.6422 60.1005 69.539 59.9585L68.8814 59.0535L67.5546 59.4846C66.9788 59.6716 66.609 59.8796 66.4451 60.1083C66.2896 60.3343 66.3098 60.5822 66.5058 60.8519L66.6682 61.0755C66.8642 61.3453 67.129 61.5181 67.4626 61.5939C67.8046 61.6671 68.1717 61.64 68.5639 61.5125ZM69.8767 55.0317L70.8781 54.7064L71.5279 55.6008L71.578 55.5845C71.4922 55.1825 71.5485 54.8483 71.747 54.582C71.9486 54.3059 72.2748 54.0946 72.7254 53.9482C73.126 53.8181 73.538 53.7675 73.9614 53.7967C74.3848 53.8258 74.7995 53.928 75.2053 54.1032C75.6194 54.2758 76.0139 54.5205 76.3886 54.8375C76.7716 55.1517 77.123 55.5289 77.4427 55.969C77.7625 56.4091 77.9887 56.827 78.1214 57.2226C78.2625 57.6154 78.3064 57.9741 78.2533 58.2984C78.2085 58.6201 78.0723 58.9012 77.8449 59.1418C77.6174 59.3825 77.3034 59.5678 76.9029 59.698C76.0267 59.9827 75.1491 59.8467 74.2701 59.2899L74.22 59.3062L76.4171 62.3302L75.4157 62.6555L69.8767 55.0317ZM76.0705 59.0208C76.6379 58.8364 76.9761 58.5423 77.0849 58.1384C77.1886 57.7275 77.0625 57.2771 76.7067 56.7873L76.0259 55.8503C75.67 55.3605 75.2211 55.0194 74.679 54.827C74.1318 54.6275 73.5745 54.6199 73.007 54.8043C72.7817 54.8775 72.5854 54.9764 72.418 55.101C72.2538 55.2157 72.1302 55.3437 72.047 55.4848C71.9639 55.6258 71.9254 55.7787 71.9316 55.9434C71.941 56.0983 71.9998 56.2503 72.1081 56.3994L73.5934 58.4437C73.7224 58.6212 73.8801 58.7674 74.0667 58.8822C74.2565 58.9873 74.4626 59.0651 74.685 59.1156C74.9023 59.1591 75.1291 59.1732 75.3655 59.1578C75.6102 59.1397 75.8452 59.094 76.0705 59.0208ZM81.057 51.399L82.0458 51.0777L84.0745 58.7892C84.118 58.9769 84.1409 59.1361 84.1432 59.267C84.1506 59.405 84.1232 59.5236 84.0612 59.6227C83.9991 59.7218 83.8949 59.8127 83.7487 59.8953C83.6108 59.9752 83.425 60.0532 83.1913 60.1291L82.6781 60.2958L82.1366 59.5505L83.1505 59.221L82.7877 57.8912L76.2254 52.9689L77.2267 52.6436L81.4942 55.8766L82.4445 56.6734L82.507 56.6531L82.2077 55.6448L81.057 51.399ZM89.8984 55.4755C89.4478 55.6219 88.9967 55.6895 88.545 55.6783C88.0934 55.6671 87.6444 55.5673 87.198 55.3789C86.7517 55.1905 86.3029 54.9064 85.8516 54.5266C85.4035 54.137 84.9577 53.6369 84.5141 53.0265C83.9417 52.2385 83.5101 51.5452 83.2195 50.9465C82.9373 50.345 82.7981 49.8199 82.8022 49.3711C82.8062 48.9223 82.9481 48.5428 83.2281 48.2324C83.5113 47.9123 83.9336 47.6347 84.4951 47.3996L86.4223 46.6023L87.049 47.4648L85.0043 48.3134C84.6578 48.4611 84.3929 48.6217 84.2096 48.7954C84.0263 48.969 83.9234 49.1823 83.9009 49.4353C83.8816 49.6784 83.9421 49.9747 84.0824 50.3239C84.231 50.6705 84.4572 51.0883 84.761 51.5775L84.8111 51.5612C84.7297 51.1226 84.7721 50.7622 84.9385 50.4801C85.1131 50.1952 85.4508 49.9714 85.9515 49.8087C86.3604 49.6759 86.7823 49.6177 87.2173 49.6343C87.6523 49.6509 88.0784 49.7406 88.4958 49.9033C88.908 50.059 89.3097 50.2925 89.7011 50.6041C90.0957 50.9058 90.4554 51.2803 90.7804 51.7275C91.0846 52.1463 91.2896 52.5491 91.3953 52.9359C91.501 53.3228 91.5148 53.6824 91.4366 54.0149C91.3584 54.3474 91.1889 54.6394 90.9281 54.8909C90.6756 55.1396 90.3324 55.3345 89.8984 55.4755ZM89.3992 54.7032C89.6579 54.6192 89.87 54.5064 90.0354 54.3649C90.2008 54.2234 90.3112 54.0559 90.3666 53.8625C90.422 53.669 90.4208 53.4544 90.363 53.2187C90.3052 52.983 90.1758 52.7268 89.9746 52.4499L89.4873 51.7791C89.0541 51.1828 88.5607 50.7948 88.0071 50.6149C87.4535 50.435 86.8888 50.4386 86.313 50.6257C85.7122 50.8209 85.3544 51.0951 85.2396 51.4483C85.1281 51.7916 85.2193 52.1656 85.5133 52.5702L86.225 53.5498C86.6582 54.1461 87.1516 54.5342 87.7052 54.714C88.2588 54.8939 88.8235 54.8903 89.3992 54.7032ZM96.9012 53.2001C96.4589 53.3438 96.0094 53.4065 95.5526 53.3883C95.1041 53.3673 94.6603 53.2746 94.2211 53.1102C93.7851 52.936 93.3698 52.698 92.9752 52.3963C92.5838 52.0847 92.2282 51.7089 91.9085 51.2688C91.5939 50.8358 91.3744 50.4201 91.2501 50.0218C91.1341 49.6208 91.111 49.2554 91.1808 48.9256C91.2538 48.586 91.4166 48.2918 91.6691 48.0431C91.9299 47.7916 92.2815 47.5941 92.7237 47.4503C93.1577 47.3094 93.5947 47.2507 94.0348 47.2744C94.475 47.2981 94.9037 47.3913 95.321 47.5541C95.7332 47.7097 96.1205 47.9304 96.4829 48.2163C96.8537 48.4994 97.1809 48.8362 97.4646 49.2266L97.7585 49.6312L93.1147 51.1401L93.3003 51.3957C93.4705 51.6299 93.6721 51.8364 93.9051 52.0152C94.1413 52.1841 94.3929 52.3173 94.6597 52.4149C94.9349 52.5097 95.2203 52.5618 95.5158 52.571C95.8197 52.5776 96.1219 52.5321 96.4223 52.4345C96.8312 52.3016 97.1265 52.1047 97.3083 51.8439C97.4984 51.5803 97.5661 51.2687 97.5112 50.9093L98.5419 51.114C98.6066 51.558 98.5029 51.969 98.2308 52.3469C97.9536 52.7178 97.5104 53.0022 96.9012 53.2001ZM93.2421 48.1637C92.9667 48.2532 92.7473 48.3772 92.5839 48.5355C92.4153 48.6868 92.3017 48.8641 92.2431 49.0674C92.1929 49.268 92.1966 49.4861 92.2544 49.7218C92.307 49.9504 92.421 50.1854 92.5963 50.4267L92.6505 50.5013L96.2179 49.3421L96.1328 49.225C95.7769 48.7352 95.3347 48.3963 94.8062 48.2083C94.2808 48.0105 93.7594 47.9956 93.2421 48.1637ZM99.9617 51.1265L100.713 50.8825L100.363 49.1665C100.321 48.9522 100.333 48.7771 100.4 48.6415C100.466 48.5058 100.575 48.4002 100.726 48.3247L100.696 48.2821C100.498 48.2937 100.3 48.2702 100.103 48.2115C99.9053 48.1528 99.6963 48.0496 99.4756 47.902L97.8916 46.8504L97.1405 47.0945L96.599 46.3491L97.1873 46.158C97.4377 46.0766 97.6933 46.0594 97.9543 46.1062C98.2235 46.1503 98.5059 46.2692 98.8012 46.4628L100.849 47.8112L102 47.4371L100.329 45.1371L101.331 44.8118L103.001 47.1117L104.153 46.7375L103.833 44.8278C103.788 44.5529 103.819 44.3323 103.925 44.1662C104.04 43.9974 104.222 43.8723 104.472 43.7909L105.061 43.5998L105.602 44.3451L104.851 44.5892L105.108 46.0718C105.145 46.2791 105.138 46.4527 105.085 46.5928C105.032 46.7328 104.937 46.8513 104.801 46.9481L104.832 46.9907C105.014 46.9578 105.206 46.9657 105.407 47.0146C105.607 47.0635 105.82 47.1654 106.046 47.3201L107.847 48.5642L108.599 48.3202L109.14 49.0656L108.427 49.2974C108.201 49.3706 107.961 49.3873 107.705 49.3476C107.444 49.3008 107.137 49.1549 106.784 48.9099L104.679 47.4616L103.528 47.8357L105.322 50.306L104.321 50.6314L102.526 48.1611L101.375 48.5353L101.777 50.5368C101.846 50.8739 101.828 51.1255 101.722 51.2917C101.61 51.4507 101.442 51.5668 101.217 51.64L100.503 51.8718L99.9617 51.1265ZM106.707 43.0648L107.708 42.7395L109.372 45.0287L112.601 43.9794L110.938 41.6902L111.939 41.3648L115.931 46.859L114.93 47.1844L113.143 44.7248L109.913 45.7741L111.7 48.2337L110.699 48.5591L106.707 43.0648ZM114.066 40.6738L115.067 40.3485L116.514 42.3396L118.229 41.7824C118.88 41.5709 119.51 41.559 120.121 41.7466C120.732 41.9342 121.236 42.3013 121.633 42.8479C122.035 43.4016 122.16 43.892 122.006 44.3193C121.852 44.7465 121.446 45.0673 120.786 45.2815L118.058 46.1681L114.066 40.6738ZM120.095 44.5849C120.47 44.4629 120.718 44.3077 120.839 44.1192C120.96 43.9308 120.918 43.6946 120.711 43.4106L120.386 42.9634C120.18 42.6795 119.931 42.5146 119.64 42.4688C119.344 42.4159 119.008 42.4505 118.632 42.5725L117.055 43.0849L118.517 45.0974L120.095 44.5849ZM119.999 38.746L121 38.4207L124.992 43.9149L123.991 44.2403L119.999 38.746ZM129.637 42.5638C129.194 42.7075 128.745 42.7702 128.288 42.7519C127.839 42.7309 127.396 42.6382 126.956 42.4738C126.52 42.2996 126.105 42.0616 125.711 41.7599C125.319 41.4484 124.964 41.0725 124.644 40.6324C124.329 40.1994 124.11 39.7838 123.985 39.3855C123.869 38.9844 123.846 38.619 123.916 38.2893C123.989 37.9497 124.152 37.6555 124.404 37.4067C124.665 37.1553 125.017 36.9577 125.459 36.814C125.893 36.673 126.33 36.6144 126.77 36.6381C127.21 36.6618 127.639 36.755 128.056 36.9177C128.469 37.0733 128.856 37.2941 129.218 37.5799C129.589 37.8631 129.916 38.1998 130.2 38.5903L130.494 38.9949L125.85 40.5038L126.036 40.7593C126.206 40.9936 126.407 41.2001 126.64 41.3788C126.877 41.5477 127.128 41.681 127.395 41.7785C127.67 41.8734 127.956 41.9254 128.251 41.9347C128.555 41.9412 128.857 41.8957 129.158 41.7981C129.567 41.6652 129.862 41.4684 130.044 41.2075C130.234 40.9439 130.301 40.6324 130.247 40.2729L131.277 40.4777C131.342 40.9217 131.238 41.3326 130.966 41.7106C130.689 42.0814 130.246 42.3658 129.637 42.5638ZM125.977 37.5274C125.702 37.6169 125.483 37.7408 125.319 37.8992C125.151 38.0505 125.037 38.2278 124.978 38.4311C124.928 38.6316 124.932 38.8498 124.99 39.0855C125.042 39.314 125.156 39.549 125.332 39.7904L125.386 39.8649L128.953 38.7058L128.868 38.5887C128.512 38.0989 128.07 37.76 127.542 37.572C127.016 37.3741 126.495 37.3593 125.977 37.5274ZM132.952 34.5375L136.206 33.48C136.732 33.3092 137.238 33.3028 137.724 33.4607C138.205 33.6116 138.6 33.8999 138.909 34.3258C139.409 35.0144 139.269 35.5382 138.488 35.8972L138.519 35.9398C139.046 35.8126 139.515 35.8268 139.927 35.9825C140.343 36.1283 140.674 36.3715 140.922 36.7123C141.081 36.9323 141.192 37.1553 141.253 37.3812C141.322 37.6043 141.336 37.8148 141.294 38.0127C141.252 38.2106 141.156 38.3909 141.006 38.5537C140.851 38.7094 140.636 38.8319 140.361 38.9214L136.943 40.0317L132.952 34.5375ZM139.55 38.3163C139.85 38.2187 140.039 38.0739 140.116 37.8821C140.193 37.6903 140.142 37.4702 139.961 37.2217L139.783 36.9769C139.603 36.7284 139.376 36.5652 139.103 36.4873C138.829 36.4093 138.543 36.4192 138.242 36.5168L136.127 37.2041L137.434 39.0036L139.55 38.3163ZM137.614 35.8654C137.889 35.7759 138.061 35.65 138.129 35.4876C138.2 35.3154 138.155 35.1193 137.995 34.8992L137.825 34.665C137.665 34.4449 137.465 34.3039 137.224 34.2418C136.986 34.1699 136.729 34.1787 136.454 34.2682L134.463 34.9149L135.624 36.512L137.614 35.8654ZM139.931 32.2696L140.933 31.9442L141.583 32.8387L141.633 32.8224C141.547 32.4203 141.603 32.0862 141.802 31.8199C142.003 31.5438 142.329 31.3325 142.78 31.1861C143.181 31.0559 143.593 31.0054 144.016 31.0345C144.439 31.0637 144.854 31.1659 145.26 31.3411C145.674 31.5136 146.068 31.7584 146.443 32.0753C146.826 32.3896 147.178 32.7668 147.497 33.2069C147.817 33.647 148.043 34.0648 148.176 34.4604C148.317 34.8533 148.361 35.2119 148.308 35.5363C148.263 35.858 148.127 36.1391 147.899 36.3797C147.672 36.6203 147.358 36.8057 146.957 36.9359C146.081 37.2206 145.204 37.0845 144.325 36.5278L144.275 36.5441L146.472 39.568L145.47 39.8934L139.931 32.2696ZM146.125 36.2587C146.693 36.0743 147.031 35.7802 147.14 35.3763C147.243 34.9653 147.117 34.5149 146.761 34.0251L146.08 33.0881C145.725 32.5984 145.276 32.2573 144.734 32.0649C144.186 31.8654 143.629 31.8578 143.062 32.0422C142.836 32.1154 142.64 32.2143 142.473 32.3389C142.308 32.4536 142.185 32.5815 142.102 32.7226C142.018 32.8637 141.98 33.0166 141.986 33.1813C141.996 33.3362 142.054 33.4882 142.163 33.6372L143.648 35.6816C143.777 35.8591 143.935 36.0052 144.121 36.1201C144.311 36.2251 144.517 36.3029 144.74 36.3535C144.957 36.397 145.184 36.411 145.42 36.3956C145.665 36.3776 145.9 36.3319 146.125 36.2587ZM155.878 33.8795C155.502 34.0015 155.169 34.0044 154.879 33.8883C154.596 33.7694 154.342 33.589 154.114 33.347L154.052 33.3674C154.157 33.7542 154.109 34.0857 153.908 34.3618C153.706 34.6379 153.38 34.8491 152.929 34.9955C152.245 35.2179 151.603 35.2423 151.002 35.0689C150.41 34.8928 149.928 34.5492 149.557 34.0381C149.18 33.5199 149.113 33.0505 149.354 32.63C149.603 32.2067 150.2 31.8419 151.142 31.5355L152.419 31.1207L152.025 30.5777C151.741 30.1872 151.399 29.9298 150.999 29.8053C150.599 29.6807 150.141 29.7025 149.623 29.8706C149.231 29.9981 148.956 30.1797 148.797 30.4155C148.647 30.6487 148.574 30.9179 148.579 31.2233L147.63 30.9394C147.589 30.5843 147.686 30.2415 147.92 29.9109C148.149 29.5732 148.556 29.3095 149.14 29.1197C149.924 28.8648 150.652 28.8301 151.323 29.0157C151.994 29.2012 152.541 29.585 152.964 30.1671L155.161 33.1911L155.9 32.9511L156.441 33.6965L155.878 33.8795ZM152.566 34.2186C152.816 34.1373 153.028 34.0379 153.2 33.9204C153.373 33.8029 153.5 33.6736 153.584 33.5326C153.667 33.3915 153.706 33.247 153.702 33.0993C153.698 32.9515 153.644 32.8066 153.541 32.6646L152.883 31.7596L151.557 32.1907C150.981 32.3778 150.611 32.5857 150.447 32.8144C150.292 33.0404 150.312 33.2883 150.508 33.558L150.67 33.7816C150.866 34.0514 151.131 34.2242 151.465 34.3001C151.807 34.3732 152.174 34.3461 152.566 34.2186ZM159.508 29.5809L159.445 29.6013C159.384 29.858 159.254 30.0977 159.055 30.3204C158.85 30.5359 158.51 30.721 158.034 30.8756C157.375 31.0898 156.761 31.1181 156.193 30.9605C155.62 30.7959 155.127 30.4296 154.714 29.8618L153.306 27.9239L154.307 27.5985L155.661 29.4619C156.146 30.1291 156.852 30.3123 157.778 30.0113C158.254 29.8568 158.607 29.6761 158.838 29.4693C159.073 29.2527 159.108 29.0308 158.943 28.8036L157.349 26.6102L158.351 26.2848L162.342 31.7791L161.341 32.1044L159.508 29.5809ZM160.48 25.5931L161.456 25.2759L163.668 28.3211L164.528 29.674L164.578 29.6577L164.528 28.2262L164.785 24.194L165.712 23.8931L169.703 29.3873L168.727 29.7045L166.515 26.6593L165.656 25.3064L165.605 25.3227L165.655 26.7542L165.398 30.7864L164.471 31.0873L160.48 25.5931ZM42.2604 85.8748L43.1116 85.5982C43.1272 85.4352 43.1123 85.2514 43.0668 85.0468C43.0213 84.8422 42.9375 84.6062 42.8154 84.3388C42.6933 84.0714 42.5252 83.7619 42.311 83.4103C42.0969 83.0587 41.8222 82.6523 41.4869 82.1909L40.3497 80.6256L44.7182 79.2062L48.71 84.7005L47.7086 85.0258L44.2584 80.2769L41.8426 81.0619L42.4537 81.903C42.8405 82.4354 43.1533 82.9085 43.392 83.3223C43.6391 83.7334 43.8241 84.0944 43.9469 84.4055C44.0781 84.7138 44.1565 84.9779 44.1821 85.1977C44.2026 85.4104 44.1889 85.5904 44.1411 85.7375C44.0805 85.9239 43.9749 86.0767 43.8242 86.1958C43.6684 86.3079 43.457 86.4073 43.1899 86.494L42.8019 86.6201L42.2604 85.8748ZM50.832 77.2197L51.8208 76.8984L53.8495 84.6099C53.893 84.7976 53.9159 84.9568 53.9182 85.0877C53.9256 85.2257 53.8982 85.3443 53.8362 85.4434C53.7741 85.5425 53.6699 85.6334 53.5237 85.716C53.3858 85.7959 53.2 85.8739 52.9663 85.9498L52.4531 86.1165L51.9116 85.3712L52.9255 85.0417L52.5627 83.7119L46.0004 78.7896L47.0017 78.4643L51.2692 81.6973L52.2194 82.4941L52.282 82.4738L51.9827 81.4655L50.832 77.2197ZM58.8612 78.2829L58.7986 78.3032C58.7376 78.56 58.6074 78.7997 58.4082 79.0223C58.2038 79.2379 57.8638 79.423 57.3881 79.5775C56.7289 79.7917 56.1151 79.8201 55.5468 79.6625C54.9734 79.4979 54.4803 79.1316 54.0677 78.5637L52.6598 76.6259L53.6612 76.3005L55.015 78.1638C55.4998 78.8311 56.2053 79.0142 57.1316 78.7133C57.6072 78.5587 57.9607 78.3781 58.1921 78.1713C58.4267 77.9547 58.4615 77.7328 58.2965 77.5056L56.7028 75.3122L57.7042 74.9868L61.696 80.4811L60.6946 80.8064L58.8612 78.2829ZM59.8332 74.2951L60.8346 73.9697L64.2848 78.7186L66.7132 77.9296L63.2629 73.1807L64.2643 72.8553L67.7146 77.6042L70.1429 76.8152L66.6926 72.0663L67.694 71.7409L71.6858 77.2352L63.825 79.7893L59.8332 74.2951ZM76.333 75.8831C75.8907 76.0268 75.4412 76.0896 74.9844 76.0713C74.5359 76.0503 74.0921 75.9576 73.6529 75.7932C73.2169 75.619 72.8016 75.381 72.407 75.0793C72.0156 74.7677 71.66 74.3919 71.3403 73.9518C71.0257 73.5188 70.8062 73.1031 70.6819 72.7048C70.5659 72.3038 70.5428 71.9384 70.6126 71.6086C70.6856 71.269 70.8484 70.9749 71.1009 70.7261C71.3617 70.4746 71.7133 70.2771 72.1555 70.1334C72.5895 69.9924 73.0265 69.9337 73.4666 69.9574C73.9068 69.9811 74.3355 70.0743 74.7528 70.2371C75.165 70.3927 75.5523 70.6134 75.9147 70.8993C76.2855 71.1824 76.6127 71.5192 76.8964 71.9096L77.1903 72.3142L72.5465 73.8231L72.7321 74.0787C72.9023 74.3129 73.1039 74.5194 73.3369 74.6982C73.5731 74.8671 73.8247 75.0003 74.0915 75.0979C74.3667 75.1927 74.6521 75.2448 74.9476 75.2541C75.2515 75.2606 75.5537 75.2151 75.8541 75.1175C76.263 74.9846 76.5583 74.7877 76.7401 74.5269C76.9302 74.2633 76.9979 73.9518 76.943 73.5923L77.9737 73.797C78.0384 74.241 77.9347 74.652 77.6626 75.03C77.3854 75.4008 76.9422 75.6852 76.333 75.8831ZM72.6739 70.8468C72.3985 70.9362 72.1791 71.0602 72.0157 71.2186C71.8471 71.3698 71.7335 71.5471 71.6749 71.7504C71.6247 71.951 71.6284 72.1692 71.6862 72.4048C71.7388 72.6334 71.8528 72.8684 72.0281 73.1097L72.0823 73.1843L75.6497 72.0252L75.5646 71.908C75.2087 71.4182 74.7665 71.0793 74.238 70.8913C73.7126 70.6935 73.1912 70.6787 72.6739 70.8468ZM79.648 67.8569L80.6494 67.5315L82.3126 69.8208L85.542 68.7714L83.8788 66.4822L84.8802 66.1568L88.872 71.6511L87.8706 71.9764L86.0836 69.5168L82.8541 70.5661L84.6412 73.0257L83.6398 73.3511L79.648 67.8569ZM95.6924 69.4349C95.3169 69.557 94.9838 69.5599 94.6932 69.4438C94.4108 69.3249 94.156 69.1445 93.9286 68.9025L93.866 68.9228C93.9717 69.3097 93.9237 69.6411 93.722 69.9172C93.5204 70.1933 93.1942 70.4046 92.7436 70.551C92.0593 70.7733 91.417 70.7978 90.8165 70.6244C90.2244 70.4483 89.7426 70.1047 89.3713 69.5936C88.9948 69.0754 88.9272 68.606 89.1683 68.1855C89.4178 67.7622 90.014 67.3974 90.957 67.091L92.2337 66.6762L91.8392 66.1331C91.5555 65.7427 91.2137 65.4852 90.8138 65.3607C90.4139 65.2362 89.9553 65.258 89.4379 65.4261C89.0457 65.5536 88.7702 65.7352 88.6115 65.971C88.4611 66.2041 88.3886 66.4734 88.3938 66.7788L87.4449 66.4949C87.4035 66.1398 87.5 65.7969 87.7343 65.4664C87.9634 65.1287 88.37 64.865 88.9542 64.6752C89.7386 64.4203 90.4664 64.3856 91.1375 64.5712C91.8087 64.7567 92.3557 65.1405 92.7787 65.7226L94.9757 68.7465L95.7142 68.5066L96.2557 69.2519L95.6924 69.4349ZM92.3803 69.7741C92.6306 69.6928 92.8421 69.5933 93.0146 69.4759C93.1871 69.3584 93.3149 69.2291 93.3981 69.088C93.4813 68.9469 93.5207 68.8025 93.5165 68.6547C93.5123 68.5069 93.4586 68.3621 93.3554 68.2201L92.6979 67.315L91.371 67.7461C90.7953 67.9332 90.4254 68.1411 90.2615 68.3699C90.106 68.5959 90.1262 68.8438 90.3222 69.1135L90.4846 69.3371C90.6806 69.6069 90.9454 69.7797 91.279 69.8555C91.621 69.9287 91.9881 69.9015 92.3803 69.7741ZM93.6931 63.2933L94.6945 62.9679L98.1448 67.7168L100.573 66.9278L97.1228 62.1789L98.1242 61.8536L101.574 66.6025L104.003 65.8134L100.553 61.0646L101.554 60.7392L105.546 66.2334L97.6849 68.7875L93.6931 63.2933ZM103.68 60.0484L104.656 59.7312L106.869 62.7764L107.728 64.1293L107.778 64.113L107.728 62.6815L107.986 58.6493L108.912 58.3483L112.904 63.8426L111.928 64.1598L109.715 61.1146L108.856 59.7617L108.806 59.778L108.856 61.2095L108.598 65.2417L107.672 65.5426L103.68 60.0484ZM114.229 63.4119L114.609 59.8667L110.338 57.8851L111.514 57.5028L114.639 59.0144L114.677 59.0022L114.894 56.4047L116.008 56.0428L115.664 59.4449L120.05 61.5207L118.873 61.903L115.633 60.2972L115.596 60.3094L115.343 63.0499L114.229 63.4119ZM120.942 58.4932L119.673 56.747C120.337 56.4963 120.768 56.1808 120.966 55.8005C121.173 55.4175 121.114 55.0024 120.789 54.5552L120.68 54.4062C120.417 54.0442 120.075 53.8 119.653 53.6739C119.226 53.5406 118.788 53.5471 118.337 53.6935C117.853 53.8508 117.55 54.094 117.428 54.4232C117.315 54.7496 117.339 55.1101 117.502 55.5047L116.359 55.5075C116.269 55.2559 116.22 55.0042 116.213 54.7522C116.208 54.4905 116.258 54.2463 116.361 54.0196C116.468 53.7831 116.638 53.5699 116.871 53.38C117.105 53.1902 117.418 53.0315 117.81 52.9041C118.586 52.6519 119.331 52.6336 120.044 52.8492C120.758 53.0648 121.339 53.4814 121.788 54.099C122.035 54.4397 122.181 54.7609 122.225 55.0625C122.272 55.3544 122.251 55.6243 122.163 55.8722C122.075 56.1202 121.932 56.3421 121.734 56.5381C121.536 56.7341 121.315 56.8981 121.071 57.0301L121.906 58.1801L120.942 58.4932ZM123.132 60.6771C122.865 60.7639 122.628 60.7708 122.42 60.6979C122.221 60.6223 122.054 60.4922 121.92 60.3077L121.819 60.1692C121.685 59.9847 121.635 59.8166 121.67 59.6651C121.712 59.5108 121.867 59.3903 122.134 59.3036C122.401 59.2168 122.635 59.2112 122.834 59.2869C123.042 59.3598 123.212 59.4885 123.347 59.6731L123.447 59.8115C123.581 59.996 123.627 60.1654 123.584 60.3197C123.55 60.4712 123.399 60.5904 123.132 60.6771Z" fill="#FF4A11" fill-opacity="0.76"/>
</g>
<path d="M37.0278 65.8769L36.9653 65.8972C36.7967 66.0485 36.561 66.1997 36.2581 66.3507C35.9553 66.5017 35.6077 66.641 35.2155 66.7684C34.1307 67.1209 33.1791 67.1669 32.3606 66.9064C31.5453 66.636 30.8102 66.0501 30.1552 65.1486L28.6235 63.0404L29.6749 62.6987L31.2066 64.807C31.6811 65.46 32.1993 65.8752 32.7612 66.0523C33.3315 66.2268 33.9713 66.1988 34.6806 65.9683C35.0979 65.8327 35.4579 65.6894 35.7608 65.5384C36.0636 65.3873 36.2951 65.2375 36.4554 65.0889L33.7555 61.3729L34.8069 61.0312L40.2067 68.4634L39.1553 68.805L37.0278 65.8769ZM44.95 67.0801C44.5078 67.2238 44.0582 67.2865 43.6014 67.2682C43.1529 67.2472 42.7091 67.1545 42.2699 66.9901C41.8339 66.8159 41.4186 66.578 41.024 66.2762C40.6327 65.9647 40.2771 65.5889 39.9573 65.1488C39.6427 64.7157 39.4233 64.3001 39.2989 63.9018C39.1829 63.5008 39.1598 63.1354 39.2297 62.8056C39.3027 62.466 39.4654 62.1718 39.7179 61.923C39.9788 61.6716 40.3303 61.474 40.7726 61.3303C41.2065 61.1893 41.6435 61.1307 42.0837 61.1544C42.5238 61.1781 42.9525 61.2713 43.3699 61.434C43.7821 61.5896 44.1694 61.8104 44.5318 62.0962C44.9025 62.3794 45.2297 62.7162 45.5134 63.1066L45.8074 63.5112L41.1635 65.0201L41.3492 65.2756C41.5194 65.5099 41.721 65.7164 41.954 65.8951C42.1902 66.064 42.4417 66.1973 42.7085 66.2948C42.9837 66.3897 43.2691 66.4417 43.5647 66.451C43.8685 66.4575 44.1707 66.412 44.4711 66.3144C44.88 66.1815 45.1753 65.9847 45.3571 65.7238C45.5473 65.4602 45.6149 65.1487 45.56 64.7892L46.5907 64.994C46.6554 65.438 46.5517 65.849 46.2797 66.2269C46.0024 66.5978 45.5592 66.8822 44.95 67.0801ZM41.2909 62.0437C41.0155 62.1332 40.7961 62.2571 40.6327 62.4155C40.4641 62.5668 40.3505 62.7441 40.2919 62.9474C40.2417 63.148 40.2455 63.3661 40.3032 63.6018C40.3558 63.8304 40.4698 64.0653 40.6452 64.3067L40.6993 64.3812L44.2667 63.2221L44.1816 63.105C43.8258 62.6152 43.3836 62.2763 42.855 62.0883C42.3296 61.8905 41.8083 61.8756 41.2909 62.0437ZM45.3069 60.015L46.6212 59.5879L50.6596 61.803L50.7097 61.7867L50.5891 58.2987L51.8909 57.8757L55.8827 63.3699L54.9064 63.6871L51.6572 59.2151L51.5946 59.2354L51.6649 59.9496L51.7552 63.2896L47.8847 61.1779L47.0884 60.6996L47.0259 60.7199L50.275 65.192L49.2987 65.5092L45.3069 60.015ZM62.8927 61.2502C62.2335 61.4644 61.6381 61.5393 61.1067 61.4751C60.5752 61.4109 60.0554 61.242 59.5472 60.9684L59.9269 60.2133C60.2898 60.4288 60.674 60.5672 61.0795 60.6285C61.4882 60.6799 61.9095 60.6352 62.3435 60.4942C62.8692 60.3233 63.1979 60.1156 63.3296 59.871C63.4697 59.6237 63.4469 59.3723 63.2612 59.1167L63.1684 58.989C62.9673 58.7121 62.7025 58.5393 62.374 58.4706C62.0488 58.392 61.6858 58.4178 61.2853 58.5479L59.9084 58.9953L59.3901 58.2819L60.6418 57.8752C61.0424 57.745 61.3021 57.5773 61.4211 57.3719C61.5401 57.1665 61.5093 56.9396 61.3288 56.6912L61.236 56.5634C61.0658 56.3292 60.819 56.1812 60.4957 56.1195C60.1756 56.0481 59.7569 56.0964 59.2395 56.2645C58.8139 56.4028 58.5176 56.5912 58.3505 56.8297C58.1783 57.0612 58.099 57.3282 58.1126 57.6309L57.101 57.3673C57.0692 56.9828 57.1731 56.6288 57.4125 56.3053C57.6552 55.972 58.0978 55.701 58.7403 55.4922C59.5831 55.2184 60.3002 55.1477 60.8916 55.2802C61.483 55.4127 61.9463 55.7097 62.2815 56.1711C62.5291 56.5118 62.6165 56.8168 62.544 57.086C62.4798 57.3526 62.2758 57.59 61.9319 57.7982L61.9629 57.8408C62.4631 57.7484 62.9084 57.7792 63.2987 57.9332C63.6923 58.0773 64.0154 58.3233 64.2681 58.6711C64.6549 59.2035 64.7239 59.7032 64.4752 60.17C64.2297 60.6271 63.7022 60.9871 62.8927 61.2502ZM71.876 58.1734C71.5005 58.2954 71.1674 58.2983 70.8767 58.1822C70.5944 58.0633 70.3396 57.8829 70.1122 57.6409L70.0496 57.6613C70.1553 58.0481 70.1073 58.3795 69.9056 58.6557C69.7039 58.9318 69.3778 59.143 68.9272 59.2894C68.2429 59.5118 67.6005 59.5362 67.0001 59.3628C66.4079 59.1867 65.9262 58.8431 65.5549 58.332C65.1784 57.8138 65.1107 57.3444 65.3519 56.9239C65.6013 56.5006 66.1976 56.1358 67.1405 55.8294L68.4173 55.4146L68.0227 54.8716C67.7391 54.4811 67.3973 54.2237 66.9974 54.0992C66.5975 53.9746 66.1389 53.9964 65.6215 54.1645C65.2293 54.292 64.9538 54.4736 64.7951 54.7094C64.6447 54.9426 64.5721 55.2118 64.5774 55.5172L63.6285 55.2333C63.5871 54.8782 63.6835 54.5354 63.9178 54.2048C64.147 53.8671 64.5536 53.6034 65.1378 53.4136C65.9222 53.1587 66.65 53.124 67.3211 53.3096C67.9923 53.4951 68.5393 53.8789 68.9622 54.461L71.1593 57.485L71.8978 57.245L72.4393 57.9903L71.876 58.1734ZM68.5639 58.5125C68.8142 58.4312 69.0256 58.3318 69.1981 58.2143C69.3707 58.0968 69.4985 57.9675 69.5817 57.8265C69.6648 57.6854 69.7043 57.5409 69.7001 57.3931C69.6958 57.2454 69.6422 57.1005 69.539 56.9585L68.8814 56.0535L67.5546 56.4846C66.9788 56.6716 66.609 56.8796 66.4451 57.1083C66.2896 57.3343 66.3098 57.5822 66.5058 57.8519L66.6682 58.0755C66.8642 58.3453 67.129 58.5181 67.4626 58.5939C67.8046 58.6671 68.1717 58.64 68.5639 58.5125ZM69.8767 52.0317L70.8781 51.7064L71.5279 52.6008L71.578 52.5845C71.4922 52.1825 71.5485 51.8483 71.747 51.582C71.9486 51.3059 72.2748 51.0946 72.7254 50.9482C73.126 50.8181 73.538 50.7675 73.9614 50.7967C74.3848 50.8258 74.7995 50.928 75.2053 51.1032C75.6194 51.2758 76.0139 51.5205 76.3886 51.8375C76.7716 52.1517 77.123 52.5289 77.4427 52.969C77.7625 53.4091 77.9887 53.827 78.1214 54.2226C78.2625 54.6154 78.3064 54.9741 78.2533 55.2984C78.2085 55.6201 78.0723 55.9012 77.8449 56.1418C77.6174 56.3825 77.3034 56.5678 76.9029 56.698C76.0267 56.9827 75.1491 56.8467 74.2701 56.2899L74.22 56.3062L76.4171 59.3302L75.4157 59.6555L69.8767 52.0317ZM76.0705 56.0208C76.6379 55.8364 76.9761 55.5423 77.0849 55.1384C77.1886 54.7275 77.0625 54.2771 76.7067 53.7873L76.0259 52.8503C75.67 52.3605 75.2211 52.0194 74.679 51.827C74.1318 51.6275 73.5745 51.6199 73.007 51.8043C72.7817 51.8775 72.5854 51.9764 72.418 52.101C72.2538 52.2157 72.1302 52.3437 72.047 52.4848C71.9639 52.6258 71.9254 52.7787 71.9316 52.9434C71.941 53.0983 71.9998 53.2503 72.1081 53.3994L73.5934 55.4437C73.7224 55.6212 73.8801 55.7674 74.0667 55.8822C74.2565 55.9873 74.4626 56.0651 74.685 56.1156C74.9023 56.1591 75.1291 56.1732 75.3655 56.1578C75.6102 56.1397 75.8452 56.094 76.0705 56.0208ZM81.057 48.399L82.0458 48.0777L84.0745 55.7892C84.118 55.9769 84.1409 56.1361 84.1432 56.267C84.1506 56.405 84.1232 56.5236 84.0612 56.6227C83.9991 56.7218 83.8949 56.8127 83.7487 56.8953C83.6108 56.9752 83.425 57.0532 83.1913 57.1291L82.6781 57.2958L82.1366 56.5505L83.1505 56.221L82.7877 54.8912L76.2254 49.9689L77.2267 49.6436L81.4942 52.8766L82.4445 53.6734L82.507 53.6531L82.2077 52.6448L81.057 48.399ZM89.8984 52.4755C89.4478 52.6219 88.9967 52.6895 88.545 52.6783C88.0934 52.6671 87.6444 52.5673 87.198 52.3789C86.7517 52.1905 86.3029 51.9064 85.8516 51.5266C85.4035 51.137 84.9577 50.6369 84.5141 50.0265C83.9417 49.2385 83.5101 48.5452 83.2195 47.9465C82.9373 47.345 82.7981 46.8199 82.8022 46.3711C82.8062 45.9223 82.9481 45.5428 83.2281 45.2324C83.5113 44.9123 83.9336 44.6347 84.4951 44.3996L86.4223 43.6023L87.049 44.4648L85.0043 45.3134C84.6578 45.4611 84.3929 45.6217 84.2096 45.7954C84.0263 45.969 83.9234 46.1823 83.9009 46.4353C83.8816 46.6784 83.9421 46.9747 84.0824 47.3239C84.231 47.6705 84.4572 48.0883 84.761 48.5775L84.8111 48.5612C84.7297 48.1226 84.7721 47.7622 84.9385 47.4801C85.1131 47.1952 85.4508 46.9714 85.9515 46.8087C86.3604 46.6759 86.7823 46.6177 87.2173 46.6343C87.6523 46.6509 88.0784 46.7406 88.4958 46.9033C88.908 47.059 89.3097 47.2925 89.7011 47.6041C90.0957 47.9058 90.4554 48.2803 90.7804 48.7275C91.0846 49.1463 91.2896 49.5491 91.3953 49.9359C91.501 50.3228 91.5148 50.6824 91.4366 51.0149C91.3584 51.3474 91.1889 51.6394 90.9281 51.8909C90.6756 52.1396 90.3324 52.3345 89.8984 52.4755ZM89.3992 51.7032C89.6579 51.6192 89.87 51.5064 90.0354 51.3649C90.2008 51.2234 90.3112 51.0559 90.3666 50.8625C90.422 50.669 90.4208 50.4544 90.363 50.2187C90.3052 49.983 90.1758 49.7268 89.9746 49.4499L89.4873 48.7791C89.0541 48.1828 88.5607 47.7948 88.0071 47.6149C87.4535 47.435 86.8888 47.4386 86.313 47.6257C85.7122 47.8209 85.3544 48.0951 85.2396 48.4483C85.1281 48.7916 85.2193 49.1656 85.5133 49.5702L86.225 50.5498C86.6582 51.1461 87.1516 51.5342 87.7052 51.714C88.2588 51.8939 88.8235 51.8903 89.3992 51.7032ZM96.9012 50.2001C96.4589 50.3438 96.0094 50.4065 95.5526 50.3883C95.1041 50.3673 94.6603 50.2746 94.2211 50.1102C93.7851 49.936 93.3698 49.698 92.9752 49.3963C92.5838 49.0847 92.2282 48.7089 91.9085 48.2688C91.5939 47.8358 91.3744 47.4201 91.2501 47.0218C91.1341 46.6208 91.111 46.2554 91.1808 45.9256C91.2538 45.586 91.4166 45.2918 91.6691 45.0431C91.9299 44.7916 92.2815 44.5941 92.7237 44.4503C93.1577 44.3094 93.5947 44.2507 94.0348 44.2744C94.475 44.2981 94.9037 44.3913 95.321 44.5541C95.7332 44.7097 96.1205 44.9304 96.4829 45.2163C96.8537 45.4994 97.1809 45.8362 97.4646 46.2266L97.7585 46.6312L93.1147 48.1401L93.3003 48.3957C93.4705 48.6299 93.6721 48.8364 93.9051 49.0152C94.1413 49.1841 94.3929 49.3173 94.6597 49.4149C94.9349 49.5097 95.2203 49.5618 95.5158 49.571C95.8197 49.5776 96.1219 49.5321 96.4223 49.4345C96.8312 49.3016 97.1265 49.1047 97.3083 48.8439C97.4984 48.5803 97.5661 48.2687 97.5112 47.9093L98.5419 48.114C98.6066 48.558 98.5029 48.969 98.2308 49.3469C97.9536 49.7178 97.5104 50.0022 96.9012 50.2001ZM93.2421 45.1637C92.9667 45.2532 92.7473 45.3772 92.5839 45.5355C92.4153 45.6868 92.3017 45.8641 92.2431 46.0674C92.1929 46.268 92.1966 46.4861 92.2544 46.7218C92.307 46.9504 92.421 47.1854 92.5963 47.4267L92.6505 47.5013L96.2179 46.3421L96.1328 46.225C95.7769 45.7352 95.3347 45.3963 94.8062 45.2083C94.2808 45.0105 93.7594 44.9956 93.2421 45.1637ZM99.9617 48.1265L100.713 47.8825L100.363 46.1665C100.321 45.9522 100.333 45.7771 100.4 45.6415C100.466 45.5058 100.575 45.4002 100.726 45.3247L100.696 45.2821C100.498 45.2937 100.3 45.2702 100.103 45.2115C99.9053 45.1528 99.6963 45.0496 99.4756 44.902L97.8916 43.8504L97.1405 44.0945L96.599 43.3491L97.1873 43.158C97.4377 43.0766 97.6933 43.0594 97.9543 43.1062C98.2235 43.1503 98.5059 43.2692 98.8012 43.4628L100.849 44.8112L102 44.4371L100.329 42.1371L101.331 41.8118L103.001 44.1117L104.153 43.7375L103.833 41.8278C103.788 41.5529 103.819 41.3323 103.925 41.1662C104.04 40.9974 104.222 40.8723 104.472 40.7909L105.061 40.5998L105.602 41.3451L104.851 41.5892L105.108 43.0718C105.145 43.2791 105.138 43.4527 105.085 43.5928C105.032 43.7328 104.937 43.8513 104.801 43.9481L104.832 43.9907C105.014 43.9578 105.206 43.9657 105.407 44.0146C105.607 44.0635 105.82 44.1654 106.046 44.3201L107.847 45.5642L108.599 45.3202L109.14 46.0656L108.427 46.2974C108.201 46.3706 107.961 46.3873 107.705 46.3476C107.444 46.3008 107.137 46.1549 106.784 45.9099L104.679 44.4616L103.528 44.8357L105.322 47.306L104.321 47.6314L102.526 45.1611L101.375 45.5353L101.777 47.5368C101.846 47.8739 101.828 48.1255 101.722 48.2917C101.61 48.4507 101.442 48.5668 101.217 48.64L100.503 48.8718L99.9617 48.1265ZM106.707 40.0648L107.708 39.7395L109.372 42.0287L112.601 40.9794L110.938 38.6902L111.939 38.3648L115.931 43.859L114.93 44.1844L113.143 41.7248L109.913 42.7741L111.7 45.2337L110.699 45.5591L106.707 40.0648ZM114.066 37.6738L115.067 37.3485L116.514 39.3396L118.229 38.7824C118.88 38.5709 119.51 38.559 120.121 38.7466C120.732 38.9342 121.236 39.3013 121.633 39.8479C122.035 40.4016 122.16 40.892 122.006 41.3193C121.852 41.7465 121.446 42.0673 120.786 42.2815L118.058 43.1681L114.066 37.6738ZM120.095 41.5849C120.47 41.4629 120.718 41.3077 120.839 41.1192C120.96 40.9308 120.918 40.6946 120.711 40.4106L120.386 39.9634C120.18 39.6795 119.931 39.5146 119.64 39.4688C119.344 39.4159 119.008 39.4505 118.632 39.5725L117.055 40.0849L118.517 42.0974L120.095 41.5849ZM119.999 35.746L121 35.4207L124.992 40.9149L123.991 41.2403L119.999 35.746ZM129.637 39.5638C129.194 39.7075 128.745 39.7702 128.288 39.7519C127.839 39.7309 127.396 39.6382 126.956 39.4738C126.52 39.2996 126.105 39.0616 125.711 38.7599C125.319 38.4484 124.964 38.0725 124.644 37.6324C124.329 37.1994 124.11 36.7838 123.985 36.3855C123.869 35.9844 123.846 35.619 123.916 35.2893C123.989 34.9497 124.152 34.6555 124.404 34.4067C124.665 34.1553 125.017 33.9577 125.459 33.814C125.893 33.673 126.33 33.6144 126.77 33.6381C127.21 33.6618 127.639 33.755 128.056 33.9177C128.469 34.0733 128.856 34.2941 129.218 34.5799C129.589 34.8631 129.916 35.1998 130.2 35.5903L130.494 35.9949L125.85 37.5038L126.036 37.7593C126.206 37.9936 126.407 38.2001 126.64 38.3788C126.877 38.5477 127.128 38.681 127.395 38.7785C127.67 38.8734 127.956 38.9254 128.251 38.9347C128.555 38.9412 128.857 38.8957 129.158 38.7981C129.567 38.6652 129.862 38.4684 130.044 38.2075C130.234 37.9439 130.301 37.6324 130.247 37.2729L131.277 37.4777C131.342 37.9217 131.238 38.3326 130.966 38.7106C130.689 39.0814 130.246 39.3658 129.637 39.5638ZM125.977 34.5274C125.702 34.6169 125.483 34.7408 125.319 34.8992C125.151 35.0505 125.037 35.2278 124.978 35.4311C124.928 35.6316 124.932 35.8498 124.99 36.0855C125.042 36.314 125.156 36.549 125.332 36.7904L125.386 36.8649L128.953 35.7058L128.868 35.5887C128.512 35.0989 128.07 34.76 127.542 34.572C127.016 34.3741 126.495 34.3593 125.977 34.5274ZM132.952 31.5375L136.206 30.48C136.732 30.3092 137.238 30.3028 137.724 30.4607C138.205 30.6116 138.6 30.8999 138.909 31.3258C139.409 32.0144 139.269 32.5382 138.488 32.8972L138.519 32.9398C139.046 32.8126 139.515 32.8268 139.927 32.9825C140.343 33.1283 140.674 33.3715 140.922 33.7123C141.081 33.9323 141.192 34.1553 141.253 34.3812C141.322 34.6043 141.336 34.8148 141.294 35.0127C141.252 35.2106 141.156 35.3909 141.006 35.5537C140.851 35.7094 140.636 35.8319 140.361 35.9214L136.943 37.0317L132.952 31.5375ZM139.55 35.3163C139.85 35.2187 140.039 35.0739 140.116 34.8821C140.193 34.6903 140.142 34.4702 139.961 34.2217L139.783 33.9769C139.603 33.7284 139.376 33.5652 139.103 33.4873C138.829 33.4093 138.543 33.4192 138.242 33.5168L136.127 34.2041L137.434 36.0036L139.55 35.3163ZM137.614 32.8654C137.889 32.7759 138.061 32.65 138.129 32.4876C138.2 32.3154 138.155 32.1193 137.995 31.8992L137.825 31.665C137.665 31.4449 137.465 31.3039 137.224 31.2418C136.986 31.1699 136.729 31.1787 136.454 31.2682L134.463 31.9149L135.624 33.512L137.614 32.8654ZM139.931 29.2696L140.933 28.9442L141.583 29.8387L141.633 29.8224C141.547 29.4203 141.603 29.0862 141.802 28.8199C142.003 28.5438 142.329 28.3325 142.78 28.1861C143.181 28.0559 143.593 28.0054 144.016 28.0345C144.439 28.0637 144.854 28.1659 145.26 28.3411C145.674 28.5136 146.068 28.7584 146.443 29.0753C146.826 29.3896 147.178 29.7668 147.497 30.2069C147.817 30.647 148.043 31.0648 148.176 31.4604C148.317 31.8533 148.361 32.2119 148.308 32.5363C148.263 32.858 148.127 33.1391 147.899 33.3797C147.672 33.6203 147.358 33.8057 146.957 33.9359C146.081 34.2206 145.204 34.0845 144.325 33.5278L144.275 33.5441L146.472 36.568L145.47 36.8934L139.931 29.2696ZM146.125 33.2587C146.693 33.0743 147.031 32.7802 147.14 32.3763C147.243 31.9653 147.117 31.5149 146.761 31.0251L146.08 30.0881C145.725 29.5984 145.276 29.2573 144.734 29.0649C144.186 28.8654 143.629 28.8578 143.062 29.0422C142.836 29.1154 142.64 29.2143 142.473 29.3389C142.308 29.4536 142.185 29.5815 142.102 29.7226C142.018 29.8637 141.98 30.0166 141.986 30.1813C141.996 30.3362 142.054 30.4882 142.163 30.6372L143.648 32.6816C143.777 32.8591 143.935 33.0052 144.121 33.1201C144.311 33.2251 144.517 33.3029 144.74 33.3535C144.957 33.397 145.184 33.411 145.42 33.3956C145.665 33.3776 145.9 33.3319 146.125 33.2587ZM155.878 30.8795C155.502 31.0015 155.169 31.0044 154.879 30.8883C154.596 30.7694 154.342 30.589 154.114 30.347L154.052 30.3674C154.157 30.7542 154.109 31.0857 153.908 31.3618C153.706 31.6379 153.38 31.8491 152.929 31.9955C152.245 32.2179 151.603 32.2423 151.002 32.0689C150.41 31.8928 149.928 31.5492 149.557 31.0381C149.18 30.5199 149.113 30.0505 149.354 29.63C149.603 29.2067 150.2 28.8419 151.142 28.5355L152.419 28.1207L152.025 27.5777C151.741 27.1872 151.399 26.9298 150.999 26.8053C150.599 26.6807 150.141 26.7025 149.623 26.8706C149.231 26.9981 148.956 27.1797 148.797 27.4155C148.647 27.6487 148.574 27.9179 148.579 28.2233L147.63 27.9394C147.589 27.5843 147.686 27.2415 147.92 26.9109C148.149 26.5732 148.556 26.3095 149.14 26.1197C149.924 25.8648 150.652 25.8301 151.323 26.0157C151.994 26.2012 152.541 26.585 152.964 27.1671L155.161 30.1911L155.9 29.9511L156.441 30.6965L155.878 30.8795ZM152.566 31.2186C152.816 31.1373 153.028 31.0379 153.2 30.9204C153.373 30.8029 153.5 30.6736 153.584 30.5326C153.667 30.3915 153.706 30.247 153.702 30.0993C153.698 29.9515 153.644 29.8066 153.541 29.6646L152.883 28.7596L151.557 29.1907C150.981 29.3778 150.611 29.5857 150.447 29.8144C150.292 30.0404 150.312 30.2883 150.508 30.558L150.67 30.7816C150.866 31.0514 151.131 31.2242 151.465 31.3001C151.807 31.3732 152.174 31.3461 152.566 31.2186ZM159.508 26.5809L159.445 26.6013C159.384 26.858 159.254 27.0977 159.055 27.3204C158.85 27.5359 158.51 27.721 158.034 27.8756C157.375 28.0898 156.761 28.1181 156.193 27.9605C155.62 27.7959 155.127 27.4296 154.714 26.8618L153.306 24.9239L154.307 24.5985L155.661 26.4619C156.146 27.1291 156.852 27.3123 157.778 27.0113C158.254 26.8568 158.607 26.6761 158.838 26.4693C159.073 26.2527 159.108 26.0308 158.943 25.8036L157.349 23.6102L158.351 23.2848L162.342 28.7791L161.341 29.1044L159.508 26.5809ZM160.48 22.5931L161.456 22.2759L163.668 25.3211L164.528 26.674L164.578 26.6577L164.528 25.2262L164.785 21.194L165.712 20.8931L169.703 26.3873L168.727 26.7045L166.515 23.6593L165.656 22.3064L165.605 22.3227L165.655 23.7542L165.398 27.7864L164.471 28.0873L160.48 22.5931ZM42.2604 82.8748L43.1116 82.5982C43.1272 82.4352 43.1123 82.2514 43.0668 82.0468C43.0213 81.8422 42.9375 81.6062 42.8154 81.3388C42.6933 81.0714 42.5252 80.7619 42.311 80.4103C42.0969 80.0587 41.8222 79.6523 41.4869 79.1909L40.3497 77.6256L44.7182 76.2062L48.71 81.7005L47.7086 82.0258L44.2584 77.2769L41.8426 78.0619L42.4537 78.903C42.8405 79.4354 43.1533 79.9085 43.392 80.3223C43.6391 80.7334 43.8241 81.0944 43.9469 81.4055C44.0781 81.7138 44.1565 81.9779 44.1821 82.1977C44.2026 82.4104 44.1889 82.5904 44.1411 82.7375C44.0805 82.9239 43.9749 83.0767 43.8242 83.1958C43.6684 83.3079 43.457 83.4073 43.1899 83.494L42.8019 83.6201L42.2604 82.8748ZM50.832 74.2197L51.8208 73.8984L53.8495 81.6099C53.893 81.7976 53.9159 81.9568 53.9182 82.0877C53.9256 82.2257 53.8982 82.3443 53.8362 82.4434C53.7741 82.5425 53.6699 82.6334 53.5237 82.716C53.3858 82.7959 53.2 82.8739 52.9663 82.9498L52.4531 83.1165L51.9116 82.3712L52.9255 82.0417L52.5627 80.7119L46.0004 75.7896L47.0017 75.4643L51.2692 78.6973L52.2194 79.4941L52.282 79.4738L51.9827 78.4655L50.832 74.2197ZM58.8612 75.2829L58.7986 75.3032C58.7376 75.56 58.6074 75.7997 58.4082 76.0223C58.2038 76.2379 57.8638 76.423 57.3881 76.5775C56.7289 76.7917 56.1151 76.8201 55.5468 76.6625C54.9734 76.4979 54.4803 76.1316 54.0677 75.5637L52.6598 73.6259L53.6612 73.3005L55.015 75.1638C55.4998 75.8311 56.2053 76.0142 57.1316 75.7133C57.6072 75.5587 57.9607 75.3781 58.1921 75.1713C58.4267 74.9547 58.4615 74.7328 58.2965 74.5056L56.7028 72.3122L57.7042 71.9868L61.696 77.4811L60.6946 77.8064L58.8612 75.2829ZM59.8332 71.2951L60.8346 70.9697L64.2848 75.7186L66.7132 74.9296L63.2629 70.1807L64.2643 69.8553L67.7146 74.6042L70.1429 73.8152L66.6926 69.0663L67.694 68.7409L71.6858 74.2352L63.825 76.7893L59.8332 71.2951ZM76.333 72.8831C75.8907 73.0268 75.4412 73.0896 74.9844 73.0713C74.5359 73.0503 74.0921 72.9576 73.6529 72.7932C73.2169 72.619 72.8016 72.381 72.407 72.0793C72.0156 71.7677 71.66 71.3919 71.3403 70.9518C71.0257 70.5188 70.8062 70.1031 70.6819 69.7048C70.5659 69.3038 70.5428 68.9384 70.6126 68.6086C70.6856 68.269 70.8484 67.9749 71.1009 67.7261C71.3617 67.4746 71.7133 67.2771 72.1555 67.1334C72.5895 66.9924 73.0265 66.9337 73.4666 66.9574C73.9068 66.9811 74.3355 67.0743 74.7528 67.2371C75.165 67.3927 75.5523 67.6134 75.9147 67.8993C76.2855 68.1824 76.6127 68.5192 76.8964 68.9096L77.1903 69.3142L72.5465 70.8231L72.7321 71.0787C72.9023 71.3129 73.1039 71.5194 73.3369 71.6982C73.5731 71.8671 73.8247 72.0003 74.0915 72.0979C74.3667 72.1927 74.6521 72.2448 74.9476 72.2541C75.2515 72.2606 75.5537 72.2151 75.8541 72.1175C76.263 71.9846 76.5583 71.7877 76.7401 71.5269C76.9302 71.2633 76.9979 70.9518 76.943 70.5923L77.9737 70.797C78.0384 71.241 77.9347 71.652 77.6626 72.03C77.3854 72.4008 76.9422 72.6852 76.333 72.8831ZM72.6739 67.8468C72.3985 67.9362 72.1791 68.0602 72.0157 68.2186C71.8471 68.3698 71.7335 68.5471 71.6749 68.7504C71.6247 68.951 71.6284 69.1692 71.6862 69.4048C71.7388 69.6334 71.8528 69.8684 72.0281 70.1097L72.0823 70.1843L75.6497 69.0252L75.5646 68.908C75.2087 68.4182 74.7665 68.0793 74.238 67.8913C73.7126 67.6935 73.1912 67.6787 72.6739 67.8468ZM79.648 64.8569L80.6494 64.5315L82.3126 66.8208L85.542 65.7714L83.8788 63.4822L84.8802 63.1568L88.872 68.6511L87.8706 68.9764L86.0836 66.5168L82.8541 67.5661L84.6412 70.0257L83.6398 70.3511L79.648 64.8569ZM95.6924 66.4349C95.3169 66.557 94.9838 66.5599 94.6932 66.4438C94.4108 66.3249 94.156 66.1445 93.9286 65.9025L93.866 65.9228C93.9717 66.3097 93.9237 66.6411 93.722 66.9172C93.5204 67.1933 93.1942 67.4046 92.7436 67.551C92.0593 67.7733 91.417 67.7978 90.8165 67.6244C90.2244 67.4483 89.7426 67.1047 89.3713 66.5936C88.9948 66.0754 88.9272 65.606 89.1683 65.1855C89.4178 64.7622 90.014 64.3974 90.957 64.091L92.2337 63.6762L91.8392 63.1331C91.5555 62.7427 91.2137 62.4852 90.8138 62.3607C90.4139 62.2362 89.9553 62.258 89.4379 62.4261C89.0457 62.5536 88.7702 62.7352 88.6115 62.971C88.4611 63.2041 88.3886 63.4734 88.3938 63.7788L87.4449 63.4949C87.4035 63.1398 87.5 62.7969 87.7343 62.4664C87.9634 62.1287 88.37 61.865 88.9542 61.6752C89.7386 61.4203 90.4664 61.3856 91.1375 61.5712C91.8087 61.7567 92.3557 62.1405 92.7787 62.7226L94.9757 65.7465L95.7142 65.5066L96.2557 66.2519L95.6924 66.4349ZM92.3803 66.7741C92.6306 66.6928 92.8421 66.5933 93.0146 66.4759C93.1871 66.3584 93.3149 66.2291 93.3981 66.088C93.4813 65.9469 93.5207 65.8025 93.5165 65.6547C93.5123 65.5069 93.4586 65.3621 93.3554 65.2201L92.6979 64.315L91.371 64.7461C90.7953 64.9332 90.4254 65.1411 90.2615 65.3699C90.106 65.5959 90.1262 65.8438 90.3222 66.1135L90.4846 66.3371C90.6806 66.6069 90.9454 66.7797 91.279 66.8555C91.621 66.9287 91.9881 66.9015 92.3803 66.7741ZM93.6931 60.2933L94.6945 59.9679L98.1448 64.7168L100.573 63.9278L97.1228 59.1789L98.1242 58.8536L101.574 63.6025L104.003 62.8134L100.553 58.0646L101.554 57.7392L105.546 63.2334L97.6849 65.7875L93.6931 60.2933ZM103.68 57.0484L104.656 56.7312L106.869 59.7764L107.728 61.1293L107.778 61.113L107.728 59.6815L107.986 55.6493L108.912 55.3483L112.904 60.8426L111.928 61.1598L109.715 58.1146L108.856 56.7617L108.806 56.778L108.856 58.2095L108.598 62.2417L107.672 62.5426L103.68 57.0484ZM114.229 60.4119L114.609 56.8667L110.338 54.8851L111.514 54.5028L114.639 56.0144L114.677 56.0022L114.894 53.4047L116.008 53.0428L115.664 56.4449L120.05 58.5207L118.873 58.903L115.633 57.2972L115.596 57.3094L115.343 60.0499L114.229 60.4119ZM120.942 55.4932L119.673 53.747C120.337 53.4963 120.768 53.1808 120.966 52.8005C121.173 52.4175 121.114 52.0024 120.789 51.5552L120.68 51.4062C120.417 51.0442 120.075 50.8 119.653 50.6739C119.226 50.5406 118.788 50.5471 118.337 50.6935C117.853 50.8508 117.55 51.094 117.428 51.4232C117.315 51.7496 117.339 52.1101 117.502 52.5047L116.359 52.5075C116.269 52.2559 116.22 52.0042 116.213 51.7522C116.208 51.4905 116.258 51.2463 116.361 51.0196C116.468 50.7831 116.638 50.5699 116.871 50.38C117.105 50.1902 117.418 50.0315 117.81 49.9041C118.586 49.6519 119.331 49.6336 120.044 49.8492C120.758 50.0648 121.339 50.4814 121.788 51.099C122.035 51.4397 122.181 51.7609 122.225 52.0625C122.272 52.3544 122.251 52.6243 122.163 52.8722C122.075 53.1202 121.932 53.3421 121.734 53.5381C121.536 53.7341 121.315 53.8981 121.071 54.0301L121.906 55.1801L120.942 55.4932ZM123.132 57.6771C122.865 57.7639 122.628 57.7708 122.42 57.6979C122.221 57.6223 122.054 57.4922 121.92 57.3077L121.819 57.1692C121.685 56.9847 121.635 56.8166 121.67 56.6651C121.712 56.5108 121.867 56.3903 122.134 56.3036C122.401 56.2168 122.635 56.2112 122.834 56.2869C123.042 56.3598 123.212 56.4885 123.347 56.6731L123.447 56.8115C123.581 56.996 123.627 57.1654 123.584 57.3197C123.55 57.4712 123.399 57.5904 123.132 57.6771Z" fill="white"/>
<path d="M222.861 33.1135L84.0583 76.2129C74.5568 79.1632 71.4317 88.1954 77.0784 96.3868L100.575 129.349C103.55 133.665 108.368 136.887 113.65 138.537C113.804 144.145 115.483 150.02 118.81 155.802C121.913 146.138 130.115 138.183 142.595 134.308L266.806 95.7391C276.308 92.7888 279.433 83.7566 273.786 75.5652L250.29 42.6033C244.643 34.4119 232.363 30.1632 222.861 33.1135Z" fill="#9A9A9A" fill-opacity="0.54"/>
<mask id="mask1" mask-type="alpha" maskUnits="userSpaceOnUse" x="74" y="32" width="203" height="124">
<path d="M222.861 33.1135L84.0586 76.213C74.557 79.1633 71.432 88.1955 77.0786 96.3869L100.575 129.349C103.551 133.665 108.368 136.887 113.65 138.537C113.805 144.145 115.483 150.02 118.81 155.802C121.913 146.138 130.115 138.183 142.595 134.308L266.806 95.7392C276.308 92.7888 279.433 83.7567 273.786 75.5653L250.29 42.6034C244.643 34.412 232.363 30.1632 222.861 33.1135Z" fill="#6A65D8"/>
</mask>
<g mask="url(#mask1)">
<g filter="url(#filter6_f)">
<path d="M81.4802 75.0824C87.3127 73.0885 209.754 36.0563 226.766 31.0716C233.084 29.2202 242.854 32.2284 246.266 36.0717C248.634 38.7394 263.265 57.0717 269.765 66.5717C276.265 76.0717 282.028 85.0381 273.765 88.0289C266.789 90.5541 171.585 120.221 136.265 131.195C129.754 133.218 124.315 135.731 121.195 141.804C118.074 147.878 114.612 143.754 115.713 135.009C116.175 131.335 117.03 127.697 119.196 125.555C121.362 123.413 120.716 121.592 118.225 123.574C115.735 125.555 114.249 127.507 113.556 129.304C112.335 132.47 108.218 130.253 106.787 128.198C104.357 124.709 88.285 103.202 81.4803 93.2328C74.6757 83.2635 75.6478 77.0762 81.4802 75.0824Z" fill="url(#paint2_linear)" fill-opacity="0.92"/>
</g>
<g filter="url(#filter7_f)">
<path d="M118.854 155.573C117.13 150.279 113.432 134.21 120.355 125.573C110.98 129.933 112.631 146.393 118.854 155.573Z" fill="white"/>
</g>
<g filter="url(#filter8_f)">
<path d="M89.2655 74.5717C78.5294 77.9157 73.8254 82.1319 83.2655 79.0717C144.144 59.3369 186.765 46.7438 222.765 35.0717C232.265 31.9915 242.263 35.6143 247.765 43.0717C254.774 52.5717 258.933 58.705 272.266 76.0717C274.569 79.0717 279.575 82.5909 272.766 74.0717C262.058 58.0185 258.721 53.3225 251.265 43.0717C243.265 32.0717 232.765 29.451 222.765 32.5717C174.484 47.6388 142.499 57.9908 89.2655 74.5717Z" fill="white"/>
</g>
<g filter="url(#filter9_f)">
<path d="M269.499 97.8801C274.092 96.3886 276.999 90.1219 271.499 91.8801C213.999 110.261 191.499 117.38 136.499 134.38C130.832 136.547 119.499 142.28 121.499 157.88C122.452 149.528 133.999 141.128 140.999 138.88C195.499 121.38 218.69 114.38 269.499 97.8801Z" fill="white" fill-opacity="0.76"/>
</g>
<g filter="url(#filter10_f)">
<path d="M77.0001 96.5492C84.9325 108.294 97.4867 125.369 101.432 130.794C105.432 136.294 105.682 132.794 101.932 127.794C97.4324 121.794 84.8994 104.531 75.9324 91.7941C74.1983 89.331 72.8682 90.4315 77.0001 96.5492Z" fill="white"/>
</g>
</g>
<g filter="url(#filter11_f)">
<path d="M101.654 89.3344L102.957 88.9113L105.984 92.9363L108.092 92.2513L107.921 88.4329C107.91 88.0257 107.967 87.7157 108.089 87.5029C108.212 87.29 108.439 87.1299 108.77 87.0224L109.483 86.7908L110.208 87.7547L109.231 88.072L109.386 91.4581C109.396 91.779 109.372 92.0031 109.313 92.1302C109.265 92.254 109.167 92.3721 109.02 92.4847L109.069 92.5498C109.34 92.516 109.602 92.5227 109.856 92.5698C110.11 92.6169 110.455 92.7589 110.89 92.9956L114.992 95.1154L115.938 94.8081L116.663 95.7721L115.702 96.0843C115.454 96.1649 115.174 96.1857 114.861 96.1467C114.542 96.099 114.14 95.9488 113.654 95.696L108.798 93.1891L106.69 93.8742L109.796 98.0034L108.493 98.4265L101.654 89.3344ZM124.371 93.2676C123.906 93.4187 123.491 93.4236 123.128 93.2824C122.775 93.1378 122.455 92.9175 122.168 92.6217L122.091 92.6469C122.228 93.1208 122.174 93.5275 121.928 93.8668C121.682 94.2062 121.279 94.4665 120.721 94.6479C119.874 94.9232 119.075 94.9558 118.326 94.7455C117.586 94.5319 116.981 94.1124 116.511 93.4872C116.034 92.8533 115.942 92.278 116.235 91.7613C116.539 91.2413 117.274 90.7916 118.442 90.4122L120.023 89.8984L119.523 89.2341C119.164 88.7565 118.735 88.4421 118.235 88.291C117.736 88.1399 117.166 88.1685 116.525 88.3767C116.039 88.5345 115.7 88.7583 115.506 89.0481C115.323 89.3346 115.237 89.665 115.249 90.0395L114.064 89.6951C114.006 89.2598 114.121 88.8391 114.407 88.4328C114.686 88.0178 115.188 87.6928 115.911 87.4577C116.882 87.1421 117.787 87.0967 118.625 87.3215C119.463 87.5464 120.15 88.0149 120.685 88.7269L123.468 92.4263L124.382 92.1291L125.068 93.041L124.371 93.2676ZM120.257 93.6966C120.567 93.5959 120.828 93.4732 121.041 93.3284C121.253 93.1837 121.41 93.0247 121.511 92.8513C121.612 92.678 121.659 92.5007 121.651 92.3195C121.644 92.1383 121.575 91.9609 121.444 91.7872L120.611 90.68L118.968 91.2139C118.255 91.4456 117.798 91.702 117.598 91.9831C117.408 92.2609 117.438 92.5648 117.686 92.8948L117.892 93.1683C118.14 93.4983 118.472 93.7091 118.888 93.8008C119.315 93.8892 119.771 93.8545 120.257 93.6966ZM121.783 85.7445L123.023 85.3415L125.139 88.1551L126.736 87.6363L126.738 85.0745C126.734 84.8813 126.748 84.7201 126.779 84.591C126.804 84.4532 126.849 84.3415 126.913 84.2558C126.977 84.1701 127.059 84.1001 127.16 84.0458C127.254 83.9828 127.374 83.9278 127.518 83.8808L128.247 83.6441L128.933 84.5559L127.972 84.8682L127.97 86.9435C127.972 87.0833 127.969 87.1979 127.959 87.2876C127.949 87.3772 127.933 87.4581 127.91 87.5304C127.881 87.5939 127.843 87.6548 127.797 87.7131C127.744 87.7626 127.676 87.8172 127.592 87.8769L127.631 87.929C127.868 87.8845 128.099 87.8848 128.326 87.93C128.557 87.9631 128.858 88.0814 129.23 88.2848L131.826 89.7105L132.741 89.4134L133.427 90.3252L132.527 90.6173C132.259 90.7046 131.968 90.7288 131.656 90.6898C131.348 90.6387 130.972 90.4904 130.531 90.245L127.402 88.5221L125.805 89.0409L128.078 92.0629L126.838 92.4658L121.783 85.7445ZM142.165 87.6804C141.628 87.855 141.075 87.932 140.506 87.9114C139.938 87.8908 139.379 87.7805 138.83 87.5807C138.285 87.3688 137.765 87.0786 137.269 86.7102C136.766 86.3331 136.313 85.8753 135.908 85.3369C135.509 84.8072 135.235 84.2967 135.084 83.8054C134.933 83.3141 134.898 82.8662 134.98 82.4615C135.065 82.0448 135.268 81.6817 135.588 81.3723C135.908 81.0629 136.337 80.8209 136.874 80.6463C137.412 80.4717 137.959 80.3964 138.518 80.4204C139.086 80.441 139.648 80.5555 140.204 80.7641C140.753 80.9639 141.278 81.2524 141.781 81.6295C142.283 82.0066 142.733 82.46 143.132 82.9898C143.537 83.5282 143.815 84.043 143.966 84.5343C144.11 85.0169 144.139 85.4665 144.054 85.8833C143.963 86.2913 143.757 86.65 143.436 86.9594C143.126 87.2654 142.703 87.5057 142.165 87.6804ZM141.47 86.7555C142.141 86.5372 142.558 86.1856 142.721 85.7006C142.883 85.2155 142.697 84.617 142.161 83.9049L141.436 82.941C140.9 82.2289 140.29 81.768 139.605 81.5583C138.92 81.3486 138.242 81.3529 137.57 81.5712C136.898 81.7894 136.481 82.1411 136.319 82.6261C136.156 83.1112 136.343 83.7097 136.878 84.4218L137.604 85.3857C138.139 86.0978 138.749 86.5587 139.434 86.7684C140.119 86.9781 140.798 86.9738 141.47 86.7555ZM142.643 78.9664L143.884 78.5634L144.707 79.6576L144.769 79.6374C144.655 79.1448 144.72 78.7348 144.962 78.4074C145.209 78.0681 145.611 77.8077 146.169 77.6264C146.665 77.4652 147.176 77.4016 147.704 77.4357C148.231 77.4697 148.748 77.5934 149.256 77.8067C149.774 78.0166 150.268 78.3151 150.74 78.7023C151.221 79.0861 151.665 79.5473 152.07 80.0857C152.475 80.6241 152.763 81.1356 152.934 81.6201C153.116 82.1013 153.177 82.5409 153.116 82.9389C153.066 83.3335 152.901 83.6788 152.622 83.9747C152.343 84.2707 151.956 84.4992 151.46 84.6604C150.375 85.013 149.281 84.8497 148.178 84.1705L148.116 84.1906L150.899 87.89L149.659 88.2929L142.643 78.9664ZM150.413 83.8334C151.116 83.605 151.532 83.243 151.66 82.7473C151.782 82.243 151.618 81.6912 151.168 81.092L150.305 79.9457C149.855 79.3465 149.291 78.93 148.613 78.6962C147.929 78.4538 147.236 78.4467 146.533 78.6751C146.254 78.7657 146.012 78.8878 145.805 79.0412C145.603 79.1826 145.451 79.3399 145.35 79.5133C145.249 79.6866 145.204 79.8742 145.214 80.0762C145.229 80.2661 145.304 80.4522 145.441 80.6345L147.323 83.1355C147.486 83.3526 147.685 83.5312 147.919 83.6713C148.156 83.7994 148.414 83.894 148.691 83.9551C148.962 84.0076 149.245 84.0239 149.538 84.0041C149.843 83.9809 150.134 83.924 150.413 83.8334ZM151.636 76.0446L156.689 74.4026L157.375 75.3144L153.562 76.5535L157.932 82.363L156.691 82.766L151.636 76.0446ZM169.014 78.7621C168.549 78.9132 168.135 78.9181 167.771 78.7769C167.418 78.6323 167.098 78.412 166.811 78.1162L166.734 78.1414C166.872 78.6153 166.818 79.0219 166.571 79.3613C166.325 79.7007 165.923 79.961 165.365 80.1424C164.517 80.4177 163.719 80.4503 162.969 80.24C162.23 80.0264 161.625 79.6069 161.154 78.9817C160.678 78.3478 160.586 77.7725 160.879 77.2558C161.182 76.7358 161.918 76.2861 163.085 75.9067L164.667 75.3929L164.167 74.7286C163.808 74.251 163.378 73.9366 162.879 73.7855C162.379 73.6344 161.809 73.663 161.168 73.8711C160.683 74.029 160.343 74.2528 160.15 74.5426C159.966 74.8291 159.881 75.1595 159.892 75.534L158.707 75.1896C158.65 74.7543 158.764 74.3336 159.05 73.9273C159.33 73.5123 159.831 73.1873 160.554 72.9522C161.526 72.6366 162.431 72.5912 163.268 72.816C164.106 73.0409 164.793 73.5093 165.329 74.2214L168.111 77.9208L169.026 77.6236L169.712 78.5354L169.014 78.7621ZM164.9 79.1911C165.21 79.0904 165.471 78.9676 165.684 78.8229C165.897 78.6782 166.054 78.5191 166.155 78.3458C166.256 78.1725 166.302 77.9952 166.295 77.814C166.287 77.6328 166.218 77.4554 166.087 77.2817L165.254 76.1745L163.611 76.7084C162.898 76.9401 162.442 77.1965 162.242 77.4776C162.052 77.7554 162.081 78.0593 162.329 78.3893L162.535 78.6628C162.783 78.9928 163.115 79.2036 163.532 79.2953C163.958 79.3837 164.414 79.3489 164.9 79.1911ZM166.426 71.2389L167.666 70.836L169.773 73.6366L173.772 72.3371L171.666 69.5365L172.906 69.1335L177.961 75.8549L176.721 76.2579L174.458 73.2489L170.458 74.5484L172.722 77.5574L171.482 77.9603L166.426 71.2389ZM175.539 68.2778L176.748 67.885L179.551 71.6104L180.642 73.2659L180.704 73.2458L180.618 71.4905L180.872 66.5452L182.019 66.1724L187.075 72.8938L185.866 73.2867L183.063 69.5613L181.973 67.9058L181.91 67.9259L181.996 69.6811L181.742 74.6265L180.595 74.9992L175.539 68.2778ZM192.089 71.4591C191.273 71.7243 190.534 71.8186 189.871 71.742C189.209 71.6653 188.56 71.4603 187.923 71.1268L188.383 70.1994C188.838 70.4622 189.318 70.6304 189.824 70.7039C190.333 70.7654 190.856 70.7088 191.394 70.5342C192.045 70.3227 192.45 70.0667 192.61 69.7662C192.78 69.4624 192.748 69.1541 192.512 68.8415L192.395 68.6852C192.14 68.3465 191.808 68.1357 191.398 68.0527C190.992 67.9576 190.541 67.9907 190.045 68.1518L188.34 68.7059L187.684 67.8332L189.234 67.3295C189.73 67.1683 190.05 66.9616 190.195 66.7093C190.339 66.457 190.297 66.1788 190.069 65.8749L189.951 65.7186C189.736 65.432 189.426 65.2516 189.023 65.1772C188.624 65.0909 188.104 65.1518 187.463 65.3599C186.936 65.5312 186.57 65.7634 186.367 66.0566C186.156 66.3411 186.062 66.6689 186.084 67.04L184.821 66.7208C184.775 66.2494 184.899 65.8149 185.191 65.4173C185.488 65.0076 186.034 64.6735 186.829 64.415C187.873 64.0758 188.764 63.9863 189.502 64.1464C190.239 64.3066 190.821 64.6689 191.245 65.2333C191.559 65.6501 191.673 66.0238 191.587 66.3542C191.511 66.6813 191.261 66.9732 190.837 67.2299L190.876 67.282C191.497 67.1668 192.051 67.2028 192.539 67.3901C193.031 67.5652 193.437 67.8656 193.757 68.2911C194.247 68.9424 194.341 69.5548 194.04 70.1283C193.742 70.6898 193.092 71.1333 192.089 71.4591ZM200.615 68.6889C200.077 68.8635 199.525 68.9405 198.956 68.9199C198.388 68.8993 197.829 68.7891 197.28 68.5892C196.735 68.3774 196.214 68.0872 195.718 67.7188C195.216 67.3416 194.762 66.8839 194.358 66.3455C193.959 65.8158 193.684 65.3053 193.533 64.814C193.383 64.3227 193.348 63.8747 193.429 63.47C193.514 63.0533 193.717 62.6903 194.037 62.3809C194.358 62.0715 194.787 61.8295 195.324 61.6549C195.861 61.4803 196.409 61.405 196.967 61.4289C197.536 61.4495 198.098 61.5641 198.653 61.7726C199.202 61.9725 199.728 62.2609 200.23 62.6381C200.733 63.0152 201.183 63.4686 201.581 63.9983C201.986 64.5367 202.264 65.0516 202.415 65.5428C202.56 66.0254 202.589 66.4751 202.504 66.8918C202.412 67.2999 202.206 67.6586 201.886 67.968C201.576 68.274 201.152 68.5143 200.615 68.6889ZM199.919 67.7641C200.591 67.5458 201.008 67.1942 201.17 66.7091C201.333 66.2241 201.146 65.6255 200.611 64.9134L199.886 63.9495C199.35 63.2374 198.74 62.7766 198.055 62.5669C197.37 62.3572 196.691 62.3615 196.02 62.5797C195.348 62.798 194.931 63.1496 194.768 63.6347C194.606 64.1197 194.793 64.7183 195.328 65.4304L196.053 66.3943C196.589 67.1064 197.199 67.5672 197.884 67.7769C198.569 67.9866 199.247 67.9823 199.919 67.7641ZM201.093 59.9749L205.124 58.6653C205.775 58.4538 206.404 58.4439 207.011 58.6356C207.612 58.8187 208.108 59.1707 208.5 59.6918C209.133 60.5341 208.967 61.177 208.002 61.6203L208.041 61.6724C208.694 61.5144 209.278 61.5299 209.793 61.7191C210.312 61.8963 210.729 62.1933 211.042 62.6101C211.245 62.8793 211.386 63.1523 211.465 63.429C211.555 63.7024 211.576 63.9605 211.527 64.2033C211.478 64.4461 211.362 64.6676 211.178 64.8678C210.988 65.0593 210.722 65.2104 210.381 65.3213L206.149 66.6963L201.093 59.9749ZM209.362 64.5824C209.734 64.4615 209.967 64.2833 210.06 64.0478C210.152 63.8123 210.085 63.5426 209.856 63.2387L209.631 62.9391C209.402 62.6351 209.117 62.4359 208.776 62.3414C208.435 62.247 208.078 62.2602 207.706 62.381L205.086 63.2323L206.742 65.4337L209.362 64.5824ZM206.914 61.5847C207.255 61.4739 207.467 61.3188 207.548 61.1194C207.633 60.908 207.575 60.6677 207.372 60.3985L207.157 60.1119C206.954 59.8427 206.703 59.6705 206.402 59.5954C206.105 59.5082 205.786 59.52 205.445 59.6308L202.98 60.4317L204.45 62.3856L206.914 61.5847ZM220.53 62.0235C220.065 62.1746 219.651 62.1795 219.288 62.0382C218.934 61.8936 218.614 61.6734 218.328 61.3776L218.25 61.4027C218.388 61.8767 218.334 62.2833 218.088 62.6227C217.841 62.9621 217.439 63.2224 216.881 63.4037C216.034 63.6791 215.235 63.7116 214.485 63.5014C213.746 63.2877 213.141 62.8683 212.671 62.243C212.194 61.6091 212.102 61.0338 212.395 60.5172C212.698 59.9972 213.434 59.5475 214.602 59.168L216.183 58.6543L215.683 57.9899C215.324 57.5123 214.894 57.198 214.395 57.0469C213.896 56.8958 213.325 56.9243 212.685 57.1325C212.199 57.2903 211.859 57.5141 211.666 57.804C211.483 58.0904 211.397 58.4209 211.408 58.7953L210.223 58.4509C210.166 58.0157 210.28 57.5949 210.566 57.1886C210.846 56.7736 211.347 56.4486 212.071 56.2136C213.042 55.8979 213.947 55.8525 214.785 56.0774C215.622 56.3022 216.309 56.7707 216.845 57.4828L219.627 61.1822L220.542 60.885L221.228 61.7968L220.53 62.0235ZM216.416 62.4525C216.726 62.3517 216.988 62.229 217.2 62.0843C217.413 61.9395 217.57 61.7805 217.671 61.6072C217.772 61.4338 217.819 61.2566 217.811 61.0754C217.803 60.8942 217.734 60.7167 217.603 60.543L216.771 59.4358L215.127 59.9697C214.414 60.2014 213.958 60.4578 213.758 60.739C213.568 61.0167 213.597 61.3206 213.845 61.6506L214.051 61.9242C214.299 62.2542 214.632 62.465 215.048 62.5567C215.474 62.645 215.931 62.6103 216.416 62.4525ZM220.061 54.9465L217.333 55.833L216.647 54.9212L223.344 52.7452L224.03 53.6571L221.301 54.5435L225.671 60.3531L224.431 60.7561L220.061 54.9465ZM224.966 52.218L226.207 51.815L228.039 54.2509L230.318 53.5105C231.124 53.2486 231.908 53.2314 232.671 53.4591C233.434 53.6867 234.067 54.1348 234.57 54.8035C235.079 55.4809 235.242 56.0818 235.057 56.6063C234.873 57.1308 234.373 57.5257 233.557 57.791L230.022 58.9394L224.966 52.218ZM232.685 56.9396C233.15 56.7885 233.456 56.5972 233.603 56.3656C233.751 56.134 233.694 55.8445 233.432 55.4972L233.021 54.9501C232.76 54.6027 232.447 54.4016 232.085 54.3466C231.715 54.2829 231.298 54.3266 230.833 54.4777L228.725 55.1627L230.576 57.6246L232.685 56.9396ZM118.512 113.926L119.566 113.583C119.583 113.384 119.562 113.158 119.502 112.908C119.442 112.657 119.334 112.368 119.177 112.04C119.021 111.713 118.807 111.334 118.535 110.904C118.262 110.474 117.914 109.976 117.489 109.412L116.049 107.497L121.459 105.739L126.515 112.46L125.275 112.863L120.905 107.054L117.913 108.026L118.687 109.055C119.177 109.706 119.574 110.285 119.878 110.792C120.192 111.295 120.428 111.737 120.586 112.118C120.754 112.495 120.856 112.819 120.891 113.088C120.92 113.349 120.906 113.57 120.849 113.75C120.777 113.979 120.648 114.167 120.463 114.313C120.271 114.451 120.009 114.574 119.679 114.682L119.198 114.838L118.512 113.926ZM132.282 110.781C131.734 110.959 131.176 111.038 130.608 111.017C130.049 110.993 129.496 110.881 128.947 110.681C128.402 110.47 127.881 110.179 127.385 109.811C126.893 109.431 126.445 108.971 126.04 108.433C125.642 107.903 125.362 107.394 125.2 106.906C125.05 106.415 125.015 105.967 125.096 105.562C125.181 105.146 125.379 104.784 125.689 104.478C126.009 104.169 126.443 103.925 126.991 103.747C127.528 103.573 128.071 103.499 128.619 103.526C129.167 103.554 129.701 103.666 130.223 103.864C130.738 104.053 131.224 104.322 131.679 104.671C132.145 105.017 132.558 105.429 132.917 105.906L133.289 106.401L127.538 108.27L127.773 108.583C127.989 108.869 128.243 109.122 128.536 109.34C128.832 109.546 129.147 109.709 129.481 109.827C129.825 109.942 130.181 110.005 130.548 110.015C130.926 110.022 131.301 109.965 131.673 109.844C132.18 109.68 132.544 109.437 132.766 109.116C132.998 108.792 133.077 108.41 133.003 107.97L134.288 108.217C134.376 108.761 134.254 109.265 133.922 109.73C133.583 110.186 133.036 110.536 132.282 110.781ZM127.647 104.62C127.306 104.731 127.036 104.884 126.835 105.078C126.628 105.265 126.489 105.482 126.42 105.732C126.361 105.978 126.369 106.246 126.445 106.534C126.514 106.814 126.66 107.102 126.882 107.397L126.95 107.489L131.368 106.053L131.26 105.91C130.81 105.311 130.254 104.897 129.594 104.668C128.937 104.428 128.288 104.412 127.647 104.62ZM139.807 104.3L139.73 104.325C139.658 104.64 139.5 104.935 139.256 105.208C139.005 105.474 138.585 105.702 137.996 105.893C137.18 106.159 136.417 106.196 135.707 106.005C134.991 105.805 134.372 105.358 133.85 104.663L132.066 102.293L133.307 101.89L135.021 104.169C135.635 104.985 136.516 105.207 137.663 104.834C138.252 104.643 138.689 104.42 138.973 104.166C139.261 103.899 139.301 103.627 139.092 103.349L137.074 100.666L138.314 100.263L143.369 106.984L142.129 107.387L139.807 104.3ZM149.131 105.307C148.583 105.485 148.025 105.563 147.457 105.543C146.898 105.519 146.345 105.407 145.796 105.207C145.251 104.995 144.73 104.705 144.234 104.336C143.743 103.956 143.294 103.496 142.889 102.958C142.491 102.428 142.211 101.92 142.05 101.432C141.899 100.94 141.864 100.492 141.945 100.088C142.031 99.671 142.228 99.3096 142.538 99.0036C142.858 98.6942 143.292 98.4505 143.84 98.2725C144.377 98.0979 144.92 98.0243 145.468 98.0516C146.016 98.0789 146.551 98.1915 147.072 98.3894C147.588 98.5786 148.073 98.8477 148.528 99.1968C148.994 99.5426 149.407 99.9542 149.766 100.432L150.138 100.927L144.387 102.796L144.622 103.108C144.838 103.395 145.092 103.647 145.385 103.865C145.681 104.072 145.996 104.234 146.33 104.353C146.674 104.468 147.03 104.53 147.397 104.541C147.776 104.547 148.151 104.49 148.523 104.37C149.029 104.205 149.393 103.962 149.615 103.642C149.847 103.318 149.926 102.936 149.852 102.495L151.137 102.742C151.225 103.286 151.103 103.791 150.771 104.255C150.432 104.711 149.885 105.061 149.131 105.307ZM144.497 99.1453C144.155 99.2561 143.885 99.4089 143.684 99.6038C143.477 99.79 143.338 100.008 143.269 100.257C143.21 100.504 143.218 100.771 143.294 101.06C143.363 101.34 143.509 101.628 143.731 101.923L143.799 102.014L148.217 100.578L148.11 100.435C147.659 99.836 147.103 99.4222 146.443 99.1937C145.786 98.9532 145.137 98.9371 144.497 99.1453ZM149.458 96.6416L150.698 96.2387L152.805 99.0393L156.804 97.7398L154.698 94.9392L155.938 94.5362L160.994 101.258L159.753 101.661L157.49 98.6516L153.491 99.9511L155.754 102.96L154.514 103.363L149.458 96.6416ZM158.571 93.6805L159.781 93.2876L162.583 97.0131L163.674 98.6686L163.736 98.6484L163.65 96.8932L163.904 91.9478L165.051 91.5751L170.107 98.2965L168.898 98.6894L166.096 94.964L165.005 93.3085L164.943 93.3286L165.028 95.0838L164.774 100.029L163.627 100.402L158.571 93.6805ZM175.866 96.62C175.318 96.7979 174.76 96.8766 174.191 96.856C173.633 96.8321 173.079 96.7201 172.53 96.5203C171.985 96.3084 171.465 96.0183 170.969 95.6498C170.477 95.2694 170.029 94.8099 169.624 94.2715C169.225 93.7418 168.945 93.233 168.784 92.745C168.633 92.2538 168.598 91.8058 168.68 91.4011C168.765 90.9844 168.963 90.623 169.273 90.317C169.593 90.0076 170.027 89.7639 170.575 89.586C171.112 89.4113 171.655 89.3377 172.202 89.365C172.75 89.3923 173.285 89.5049 173.807 89.7028C174.322 89.892 174.807 90.1612 175.263 90.5102C175.729 90.856 176.141 91.2677 176.501 91.7453L176.873 92.2403L171.122 94.1089L171.357 94.4216C171.572 94.7081 171.827 94.9605 172.119 95.1788C172.416 95.385 172.731 95.5474 173.065 95.666C173.408 95.7812 173.764 95.8439 174.132 95.8541C174.51 95.8609 174.885 95.8039 175.257 95.683C175.764 95.5184 176.128 95.2759 176.349 94.9552C176.582 94.6313 176.661 94.249 176.586 93.8084L177.872 94.0554C177.96 94.5996 177.837 95.104 177.505 95.5685C177.166 96.0244 176.62 96.3748 175.866 96.62ZM171.231 90.4587C170.89 90.5695 170.619 90.7223 170.419 90.9172C170.211 91.1034 170.073 91.3213 170.003 91.5708C169.944 91.8169 169.953 92.0844 170.028 92.3732C170.098 92.6533 170.243 92.9409 170.465 93.2362L170.534 93.3274L174.952 91.8919L174.844 91.7486C174.393 91.1494 173.838 90.7356 173.177 90.5071C172.521 90.2667 171.872 90.2505 171.231 90.4587ZM180.668 91.4936L179.061 89.3573C179.882 89.0472 180.413 88.6587 180.653 88.1916C180.904 87.7211 180.823 87.2124 180.412 86.6653L180.274 86.4829C179.941 86.04 179.511 85.7421 178.985 85.589C178.452 85.4272 177.906 85.437 177.348 85.6183C176.748 85.8131 176.376 86.1125 176.23 86.5166C176.094 86.9174 176.13 87.3593 176.339 87.8425L174.918 87.8505C174.802 87.5424 174.737 87.2339 174.723 86.925C174.713 86.604 174.771 86.3043 174.896 86.026C175.025 85.7356 175.233 85.4735 175.52 85.2397C175.807 85.006 176.193 84.8102 176.679 84.6523C177.64 84.3401 178.566 84.3147 179.458 84.5763C180.349 84.8378 181.079 85.3463 181.647 86.1018C181.96 86.5187 182.147 86.9119 182.206 87.2817C182.27 87.6393 182.249 87.9704 182.143 88.2748C182.038 88.5792 181.863 88.8519 181.62 89.093C181.377 89.334 181.105 89.536 180.803 89.6989L181.861 91.1057L180.668 91.4936ZM183.428 94.1629C183.097 94.2703 182.802 94.2797 182.542 94.1912C182.293 94.0992 182.084 93.9404 181.914 93.7146L181.786 93.5453C181.617 93.3195 181.552 93.1136 181.592 92.9277C181.642 92.7383 181.833 92.59 182.164 92.4825C182.494 92.3751 182.784 92.3673 183.034 92.4592C183.293 92.5478 183.508 92.705 183.678 92.9308L183.805 93.1001C183.975 93.3259 184.035 93.5334 183.984 93.7227C183.944 93.9087 183.758 94.0554 183.428 94.1629Z" fill="#D2D2D2"/>
</g>
<path d="M101.654 85.3344L102.957 84.9113L105.984 88.9363L108.092 88.2513L107.921 84.4329C107.91 84.0257 107.967 83.7157 108.089 83.5029C108.212 83.29 108.439 83.1299 108.77 83.0224L109.483 82.7908L110.208 83.7547L109.231 84.072L109.386 87.4581C109.396 87.779 109.372 88.0031 109.313 88.1302C109.265 88.254 109.167 88.3721 109.02 88.4847L109.069 88.5498C109.34 88.516 109.602 88.5227 109.856 88.5698C110.11 88.6169 110.455 88.7589 110.89 88.9956L114.992 91.1154L115.938 90.8081L116.663 91.7721L115.702 92.0843C115.454 92.1649 115.174 92.1857 114.861 92.1467C114.542 92.099 114.14 91.9488 113.654 91.696L108.798 89.1891L106.69 89.8742L109.796 94.0034L108.493 94.4265L101.654 85.3344ZM124.371 89.2676C123.906 89.4187 123.491 89.4236 123.128 89.2824C122.775 89.1378 122.455 88.9175 122.168 88.6217L122.091 88.6469C122.228 89.1208 122.174 89.5275 121.928 89.8668C121.682 90.2062 121.279 90.4665 120.721 90.6479C119.874 90.9232 119.075 90.9558 118.326 90.7455C117.586 90.5319 116.981 90.1124 116.511 89.4872C116.034 88.8533 115.942 88.278 116.235 87.7613C116.539 87.2413 117.274 86.7916 118.442 86.4122L120.023 85.8984L119.523 85.2341C119.164 84.7565 118.735 84.4421 118.235 84.291C117.736 84.1399 117.166 84.1685 116.525 84.3767C116.039 84.5345 115.7 84.7583 115.506 85.0481C115.323 85.3346 115.237 85.665 115.249 86.0395L114.064 85.6951C114.006 85.2598 114.121 84.8391 114.407 84.4328C114.686 84.0178 115.188 83.6928 115.911 83.4577C116.882 83.1421 117.787 83.0967 118.625 83.3215C119.463 83.5464 120.15 84.0149 120.685 84.7269L123.468 88.4263L124.382 88.1291L125.068 89.041L124.371 89.2676ZM120.257 89.6966C120.567 89.5959 120.828 89.4732 121.041 89.3284C121.253 89.1837 121.41 89.0247 121.511 88.8513C121.612 88.678 121.659 88.5007 121.651 88.3195C121.644 88.1383 121.575 87.9609 121.444 87.7872L120.611 86.68L118.968 87.2139C118.255 87.4456 117.798 87.702 117.598 87.9831C117.408 88.2609 117.438 88.5648 117.686 88.8948L117.892 89.1683C118.14 89.4983 118.472 89.7091 118.888 89.8008C119.315 89.8892 119.771 89.8545 120.257 89.6966ZM121.783 81.7445L123.023 81.3415L125.139 84.1551L126.736 83.6363L126.738 81.0745C126.734 80.8813 126.748 80.7201 126.779 80.591C126.804 80.4532 126.849 80.3415 126.913 80.2558C126.977 80.1701 127.059 80.1001 127.16 80.0458C127.254 79.9828 127.374 79.9278 127.518 79.8808L128.247 79.6441L128.933 80.5559L127.972 80.8682L127.97 82.9435C127.972 83.0833 127.969 83.1979 127.959 83.2876C127.949 83.3772 127.933 83.4581 127.91 83.5304C127.881 83.5939 127.843 83.6548 127.797 83.7131C127.744 83.7626 127.676 83.8172 127.592 83.8769L127.631 83.929C127.868 83.8845 128.099 83.8848 128.326 83.93C128.557 83.9631 128.858 84.0814 129.23 84.2848L131.826 85.7105L132.741 85.4134L133.427 86.3252L132.527 86.6173C132.259 86.7046 131.968 86.7288 131.656 86.6898C131.348 86.6387 130.972 86.4904 130.531 86.245L127.402 84.5221L125.805 85.0409L128.078 88.0629L126.838 88.4658L121.783 81.7445ZM142.165 83.6804C141.628 83.855 141.075 83.932 140.506 83.9114C139.938 83.8908 139.379 83.7805 138.83 83.5807C138.285 83.3688 137.765 83.0786 137.269 82.7102C136.766 82.3331 136.313 81.8753 135.908 81.3369C135.509 80.8072 135.235 80.2967 135.084 79.8054C134.933 79.3141 134.898 78.8662 134.98 78.4615C135.065 78.0448 135.268 77.6817 135.588 77.3723C135.908 77.0629 136.337 76.8209 136.874 76.6463C137.412 76.4717 137.959 76.3964 138.518 76.4204C139.086 76.441 139.648 76.5555 140.204 76.7641C140.753 76.9639 141.278 77.2524 141.781 77.6295C142.283 78.0066 142.733 78.46 143.132 78.9898C143.537 79.5282 143.815 80.043 143.966 80.5343C144.11 81.0169 144.139 81.4665 144.054 81.8833C143.963 82.2913 143.757 82.65 143.436 82.9594C143.126 83.2654 142.703 83.5057 142.165 83.6804ZM141.47 82.7555C142.141 82.5372 142.558 82.1856 142.721 81.7006C142.883 81.2155 142.697 80.617 142.161 79.9049L141.436 78.941C140.9 78.2289 140.29 77.768 139.605 77.5583C138.92 77.3486 138.242 77.3529 137.57 77.5712C136.898 77.7894 136.481 78.1411 136.319 78.6261C136.156 79.1112 136.343 79.7097 136.878 80.4218L137.604 81.3857C138.139 82.0978 138.749 82.5587 139.434 82.7684C140.119 82.9781 140.798 82.9738 141.47 82.7555ZM142.643 74.9664L143.884 74.5634L144.707 75.6576L144.769 75.6374C144.655 75.1448 144.72 74.7348 144.962 74.4074C145.209 74.0681 145.611 73.8077 146.169 73.6264C146.665 73.4652 147.176 73.4016 147.704 73.4357C148.231 73.4697 148.748 73.5934 149.256 73.8067C149.774 74.0166 150.268 74.3151 150.74 74.7023C151.221 75.0861 151.665 75.5473 152.07 76.0857C152.475 76.6241 152.763 77.1356 152.934 77.6201C153.116 78.1013 153.177 78.5409 153.116 78.9389C153.066 79.3335 152.901 79.6788 152.622 79.9747C152.343 80.2707 151.956 80.4992 151.46 80.6604C150.375 81.013 149.281 80.8497 148.178 80.1705L148.116 80.1906L150.899 83.89L149.659 84.2929L142.643 74.9664ZM150.413 79.8334C151.116 79.605 151.532 79.243 151.66 78.7473C151.782 78.243 151.618 77.6912 151.168 77.092L150.305 75.9457C149.855 75.3465 149.291 74.93 148.613 74.6962C147.929 74.4538 147.236 74.4467 146.533 74.6751C146.254 74.7657 146.012 74.8878 145.805 75.0412C145.603 75.1826 145.451 75.3399 145.35 75.5133C145.249 75.6866 145.204 75.8742 145.214 76.0762C145.229 76.2661 145.304 76.4522 145.441 76.6345L147.323 79.1355C147.486 79.3526 147.685 79.5312 147.919 79.6713C148.156 79.7994 148.414 79.894 148.691 79.9551C148.962 80.0076 149.245 80.0239 149.538 80.0041C149.843 79.9809 150.134 79.924 150.413 79.8334ZM151.636 72.0446L156.689 70.4026L157.375 71.3144L153.562 72.5535L157.932 78.363L156.691 78.766L151.636 72.0446ZM169.014 74.7621C168.549 74.9132 168.135 74.9181 167.771 74.7769C167.418 74.6323 167.098 74.412 166.811 74.1162L166.734 74.1414C166.872 74.6153 166.818 75.0219 166.571 75.3613C166.325 75.7007 165.923 75.961 165.365 76.1424C164.517 76.4177 163.719 76.4503 162.969 76.24C162.23 76.0264 161.625 75.6069 161.154 74.9817C160.678 74.3478 160.586 73.7725 160.879 73.2558C161.182 72.7358 161.918 72.2861 163.085 71.9067L164.667 71.3929L164.167 70.7286C163.808 70.251 163.378 69.9366 162.879 69.7855C162.379 69.6344 161.809 69.663 161.168 69.8711C160.683 70.029 160.343 70.2528 160.15 70.5426C159.966 70.8291 159.881 71.1595 159.892 71.534L158.707 71.1896C158.65 70.7543 158.764 70.3336 159.05 69.9273C159.33 69.5123 159.831 69.1873 160.554 68.9522C161.526 68.6366 162.431 68.5912 163.268 68.816C164.106 69.0409 164.793 69.5093 165.329 70.2214L168.111 73.9208L169.026 73.6236L169.712 74.5354L169.014 74.7621ZM164.9 75.1911C165.21 75.0904 165.471 74.9676 165.684 74.8229C165.897 74.6782 166.054 74.5191 166.155 74.3458C166.256 74.1725 166.302 73.9952 166.295 73.814C166.287 73.6328 166.218 73.4554 166.087 73.2817L165.254 72.1745L163.611 72.7084C162.898 72.9401 162.442 73.1965 162.242 73.4776C162.052 73.7554 162.081 74.0593 162.329 74.3893L162.535 74.6628C162.783 74.9928 163.115 75.2036 163.532 75.2953C163.958 75.3837 164.414 75.3489 164.9 75.1911ZM166.426 67.2389L167.666 66.836L169.773 69.6366L173.772 68.3371L171.666 65.5365L172.906 65.1335L177.961 71.8549L176.721 72.2579L174.458 69.2489L170.458 70.5484L172.722 73.5574L171.482 73.9603L166.426 67.2389ZM175.539 64.2778L176.748 63.885L179.551 67.6104L180.642 69.2659L180.704 69.2458L180.618 67.4905L180.872 62.5452L182.019 62.1724L187.075 68.8938L185.866 69.2867L183.063 65.5613L181.973 63.9058L181.91 63.9259L181.996 65.6811L181.742 70.6265L180.595 70.9992L175.539 64.2778ZM192.089 67.4591C191.273 67.7243 190.534 67.8186 189.871 67.742C189.209 67.6653 188.56 67.4603 187.923 67.1268L188.383 66.1994C188.838 66.4622 189.318 66.6304 189.824 66.7039C190.333 66.7654 190.856 66.7088 191.394 66.5342C192.045 66.3227 192.45 66.0667 192.61 65.7662C192.78 65.4624 192.748 65.1541 192.512 64.8415L192.395 64.6852C192.14 64.3465 191.808 64.1357 191.398 64.0527C190.992 63.9576 190.541 63.9907 190.045 64.1518L188.34 64.7059L187.684 63.8332L189.234 63.3295C189.73 63.1683 190.05 62.9616 190.195 62.7093C190.339 62.457 190.297 62.1788 190.069 61.8749L189.951 61.7186C189.736 61.432 189.426 61.2516 189.023 61.1772C188.624 61.0909 188.104 61.1518 187.463 61.3599C186.936 61.5312 186.57 61.7634 186.367 62.0566C186.156 62.3411 186.062 62.6689 186.084 63.04L184.821 62.7208C184.775 62.2494 184.899 61.8149 185.191 61.4173C185.488 61.0076 186.034 60.6735 186.829 60.415C187.873 60.0758 188.764 59.9863 189.502 60.1464C190.239 60.3066 190.821 60.6689 191.245 61.2333C191.559 61.6501 191.673 62.0238 191.587 62.3542C191.511 62.6813 191.261 62.9732 190.837 63.2299L190.876 63.282C191.497 63.1668 192.051 63.2028 192.539 63.3901C193.031 63.5652 193.437 63.8656 193.757 64.2911C194.247 64.9424 194.341 65.5548 194.04 66.1283C193.742 66.6898 193.092 67.1333 192.089 67.4591ZM200.615 64.6889C200.077 64.8635 199.525 64.9405 198.956 64.9199C198.388 64.8993 197.829 64.7891 197.28 64.5892C196.735 64.3774 196.214 64.0872 195.718 63.7188C195.216 63.3416 194.762 62.8839 194.358 62.3455C193.959 61.8158 193.684 61.3053 193.533 60.814C193.383 60.3227 193.348 59.8747 193.429 59.47C193.514 59.0533 193.717 58.6903 194.037 58.3809C194.358 58.0715 194.787 57.8295 195.324 57.6549C195.861 57.4803 196.409 57.405 196.967 57.4289C197.536 57.4495 198.098 57.5641 198.653 57.7726C199.202 57.9725 199.728 58.2609 200.23 58.6381C200.733 59.0152 201.183 59.4686 201.581 59.9983C201.986 60.5367 202.264 61.0516 202.415 61.5428C202.56 62.0254 202.589 62.4751 202.504 62.8918C202.412 63.2999 202.206 63.6586 201.886 63.968C201.576 64.274 201.152 64.5143 200.615 64.6889ZM199.919 63.7641C200.591 63.5458 201.008 63.1942 201.17 62.7091C201.333 62.2241 201.146 61.6255 200.611 60.9134L199.886 59.9495C199.35 59.2374 198.74 58.7766 198.055 58.5669C197.37 58.3572 196.691 58.3615 196.02 58.5797C195.348 58.798 194.931 59.1496 194.768 59.6347C194.606 60.1197 194.793 60.7183 195.328 61.4304L196.053 62.3943C196.589 63.1064 197.199 63.5672 197.884 63.7769C198.569 63.9866 199.247 63.9823 199.919 63.7641ZM201.093 55.9749L205.124 54.6653C205.775 54.4538 206.404 54.4439 207.011 54.6356C207.612 54.8187 208.108 55.1707 208.5 55.6918C209.133 56.5341 208.967 57.177 208.002 57.6203L208.041 57.6724C208.694 57.5144 209.278 57.5299 209.793 57.7191C210.312 57.8963 210.729 58.1933 211.042 58.6101C211.245 58.8793 211.386 59.1523 211.465 59.429C211.555 59.7024 211.576 59.9605 211.527 60.2033C211.478 60.4461 211.362 60.6676 211.178 60.8678C210.988 61.0593 210.722 61.2104 210.381 61.3213L206.149 62.6963L201.093 55.9749ZM209.362 60.5824C209.734 60.4615 209.967 60.2833 210.06 60.0478C210.152 59.8123 210.085 59.5426 209.856 59.2387L209.631 58.9391C209.402 58.6351 209.117 58.4359 208.776 58.3414C208.435 58.247 208.078 58.2602 207.706 58.381L205.086 59.2323L206.742 61.4337L209.362 60.5824ZM206.914 57.5847C207.255 57.4739 207.467 57.3188 207.548 57.1194C207.633 56.908 207.575 56.6677 207.372 56.3985L207.157 56.1119C206.954 55.8427 206.703 55.6705 206.402 55.5954C206.105 55.5082 205.786 55.52 205.445 55.6308L202.98 56.4317L204.45 58.3856L206.914 57.5847ZM220.53 58.0235C220.065 58.1746 219.651 58.1795 219.288 58.0382C218.934 57.8936 218.614 57.6734 218.328 57.3776L218.25 57.4027C218.388 57.8767 218.334 58.2833 218.088 58.6227C217.841 58.9621 217.439 59.2224 216.881 59.4037C216.034 59.6791 215.235 59.7116 214.485 59.5014C213.746 59.2877 213.141 58.8683 212.671 58.243C212.194 57.6091 212.102 57.0338 212.395 56.5172C212.698 55.9972 213.434 55.5475 214.602 55.168L216.183 54.6543L215.683 53.9899C215.324 53.5123 214.894 53.198 214.395 53.0469C213.896 52.8958 213.325 52.9243 212.685 53.1325C212.199 53.2903 211.859 53.5141 211.666 53.804C211.483 54.0904 211.397 54.4209 211.408 54.7953L210.223 54.4509C210.166 54.0157 210.28 53.5949 210.566 53.1886C210.846 52.7736 211.347 52.4486 212.071 52.2136C213.042 51.8979 213.947 51.8525 214.785 52.0774C215.622 52.3022 216.309 52.7707 216.845 53.4828L219.627 57.1822L220.542 56.885L221.228 57.7968L220.53 58.0235ZM216.416 58.4525C216.726 58.3517 216.988 58.229 217.2 58.0843C217.413 57.9395 217.57 57.7805 217.671 57.6072C217.772 57.4338 217.819 57.2566 217.811 57.0754C217.803 56.8942 217.734 56.7167 217.603 56.543L216.771 55.4358L215.127 55.9697C214.414 56.2014 213.958 56.4578 213.758 56.739C213.568 57.0167 213.597 57.3206 213.845 57.6506L214.051 57.9242C214.299 58.2542 214.632 58.465 215.048 58.5567C215.474 58.645 215.931 58.6103 216.416 58.4525ZM220.061 50.9465L217.333 51.833L216.647 50.9212L223.344 48.7452L224.03 49.6571L221.301 50.5435L225.671 56.3531L224.431 56.7561L220.061 50.9465ZM224.966 48.218L226.207 47.815L228.039 50.2509L230.318 49.5105C231.124 49.2486 231.908 49.2314 232.671 49.4591C233.434 49.6867 234.067 50.1348 234.57 50.8035C235.079 51.4809 235.242 52.0818 235.057 52.6063C234.873 53.1308 234.373 53.5257 233.557 53.791L230.022 54.9394L224.966 48.218ZM232.685 52.9396C233.15 52.7885 233.456 52.5972 233.603 52.3656C233.751 52.134 233.694 51.8445 233.432 51.4972L233.021 50.9501C232.76 50.6027 232.447 50.4016 232.085 50.3466C231.715 50.2829 231.298 50.3266 230.833 50.4777L228.725 51.1627L230.576 53.6246L232.685 52.9396ZM118.512 109.926L119.566 109.583C119.583 109.384 119.562 109.158 119.502 108.908C119.442 108.657 119.334 108.368 119.177 108.04C119.021 107.713 118.807 107.334 118.535 106.904C118.262 106.474 117.914 105.976 117.489 105.412L116.049 103.497L121.459 101.739L126.515 108.46L125.275 108.863L120.905 103.054L117.913 104.026L118.687 105.055C119.177 105.706 119.574 106.285 119.878 106.792C120.192 107.295 120.428 107.737 120.586 108.118C120.754 108.495 120.856 108.819 120.891 109.088C120.92 109.349 120.906 109.57 120.849 109.75C120.777 109.979 120.648 110.167 120.463 110.313C120.271 110.451 120.009 110.574 119.679 110.682L119.198 110.838L118.512 109.926ZM132.282 106.781C131.734 106.959 131.176 107.038 130.608 107.017C130.049 106.993 129.496 106.881 128.947 106.681C128.402 106.47 127.881 106.179 127.385 105.811C126.893 105.431 126.445 104.971 126.04 104.433C125.642 103.903 125.362 103.394 125.2 102.906C125.05 102.415 125.015 101.967 125.096 101.562C125.181 101.146 125.379 100.784 125.689 100.478C126.009 100.169 126.443 99.9251 126.991 99.7471C127.528 99.5725 128.071 99.4989 128.619 99.5262C129.167 99.5535 129.701 99.6661 130.223 99.864C130.738 100.053 131.224 100.322 131.679 100.671C132.145 101.017 132.558 101.429 132.917 101.906L133.289 102.401L127.538 104.27L127.773 104.583C127.989 104.869 128.243 105.122 128.536 105.34C128.832 105.546 129.147 105.709 129.481 105.827C129.825 105.942 130.181 106.005 130.548 106.015C130.926 106.022 131.301 105.965 131.673 105.844C132.18 105.68 132.544 105.437 132.766 105.116C132.998 104.792 133.077 104.41 133.003 103.97L134.288 104.217C134.376 104.761 134.254 105.265 133.922 105.73C133.583 106.186 133.036 106.536 132.282 106.781ZM127.647 100.62C127.306 100.731 127.036 100.884 126.835 101.078C126.628 101.265 126.489 101.482 126.42 101.732C126.361 101.978 126.369 102.246 126.445 102.534C126.514 102.814 126.66 103.102 126.882 103.397L126.95 103.489L131.368 102.053L131.26 101.91C130.81 101.311 130.254 100.897 129.594 100.668C128.937 100.428 128.288 100.412 127.647 100.62ZM139.807 100.3L139.73 100.325C139.658 100.64 139.5 100.935 139.256 101.208C139.005 101.474 138.585 101.702 137.996 101.893C137.18 102.159 136.417 102.196 135.707 102.005C134.991 101.805 134.372 101.358 133.85 100.663L132.066 98.2925L133.307 97.8896L135.021 100.169C135.635 100.985 136.516 101.207 137.663 100.834C138.252 100.643 138.689 100.42 138.973 100.166C139.261 99.8991 139.301 99.6269 139.092 99.349L137.074 96.6656L138.314 96.2627L143.369 102.984L142.129 103.387L139.807 100.3ZM149.131 101.307C148.583 101.485 148.025 101.563 147.457 101.543C146.898 101.519 146.345 101.407 145.796 101.207C145.251 100.995 144.73 100.705 144.234 100.336C143.743 99.9559 143.294 99.4965 142.889 98.9581C142.491 98.4284 142.211 97.9195 142.05 97.4316C141.899 96.9403 141.864 96.4924 141.945 96.0877C142.031 95.671 142.228 95.3096 142.538 95.0036C142.858 94.6942 143.292 94.4505 143.84 94.2725C144.377 94.0979 144.92 94.0243 145.468 94.0516C146.016 94.0789 146.551 94.1915 147.072 94.3894C147.588 94.5786 148.073 94.8477 148.528 95.1968C148.994 95.5426 149.407 95.9542 149.766 96.4319L150.138 96.9268L144.387 98.7955L144.622 99.1081C144.838 99.3947 145.092 99.6471 145.385 99.8654C145.681 100.072 145.996 100.234 146.33 100.353C146.674 100.468 147.03 100.53 147.397 100.541C147.776 100.547 148.151 100.49 148.523 100.37C149.029 100.205 149.393 99.9624 149.615 99.6418C149.847 99.3178 149.926 98.9356 149.852 98.495L151.137 98.742C151.225 99.2862 151.103 99.7905 150.771 100.255C150.432 100.711 149.885 101.061 149.131 101.307ZM144.497 95.1453C144.155 95.2561 143.885 95.4089 143.684 95.6038C143.477 95.79 143.338 96.0078 143.269 96.2574C143.21 96.5035 143.218 96.771 143.294 97.0598C143.363 97.3398 143.509 97.6275 143.731 97.9228L143.799 98.014L148.217 96.5785L148.11 96.4352C147.659 95.836 147.103 95.4222 146.443 95.1937C145.786 94.9532 145.137 94.9371 144.497 95.1453ZM149.458 92.6416L150.698 92.2387L152.805 95.0393L156.804 93.7398L154.698 90.9392L155.938 90.5362L160.994 97.2576L159.753 97.6606L157.49 94.6516L153.491 95.9511L155.754 98.9601L154.514 99.363L149.458 92.6416ZM158.571 89.6805L159.781 89.2876L162.583 93.0131L163.674 94.6686L163.736 94.6484L163.65 92.8932L163.904 87.9478L165.051 87.5751L170.107 94.2965L168.898 94.6894L166.096 90.964L165.005 89.3085L164.943 89.3286L165.028 91.0838L164.774 96.0292L163.627 96.4019L158.571 89.6805ZM175.866 92.62C175.318 92.7979 174.76 92.8766 174.191 92.856C173.633 92.8321 173.079 92.7201 172.53 92.5203C171.985 92.3084 171.465 92.0183 170.969 91.6498C170.477 91.2694 170.029 90.8099 169.624 90.2715C169.225 89.7418 168.945 89.233 168.784 88.745C168.633 88.2538 168.598 87.8058 168.68 87.4011C168.765 86.9844 168.963 86.623 169.273 86.317C169.593 86.0076 170.027 85.7639 170.575 85.586C171.112 85.4113 171.655 85.3377 172.202 85.365C172.75 85.3923 173.285 85.5049 173.807 85.7028C174.322 85.892 174.807 86.1612 175.263 86.5102C175.729 86.856 176.141 87.2677 176.501 87.7453L176.873 88.2403L171.122 90.1089L171.357 90.4216C171.572 90.7081 171.827 90.9605 172.119 91.1788C172.416 91.385 172.731 91.5474 173.065 91.666C173.408 91.7812 173.764 91.8439 174.132 91.8541C174.51 91.8609 174.885 91.8039 175.257 91.683C175.764 91.5184 176.128 91.2759 176.349 90.9552C176.582 90.6313 176.661 90.249 176.586 89.8084L177.872 90.0554C177.96 90.5996 177.837 91.104 177.505 91.5685C177.166 92.0244 176.62 92.3748 175.866 92.62ZM171.231 86.4587C170.89 86.5695 170.619 86.7223 170.419 86.9172C170.211 87.1034 170.073 87.3213 170.003 87.5708C169.944 87.8169 169.953 88.0844 170.028 88.3732C170.098 88.6533 170.243 88.9409 170.465 89.2362L170.534 89.3274L174.952 87.8919L174.844 87.7486C174.393 87.1494 173.838 86.7356 173.177 86.5071C172.521 86.2667 171.872 86.2505 171.231 86.4587ZM180.668 87.4936L179.061 85.3573C179.882 85.0472 180.413 84.6587 180.653 84.1916C180.904 83.7211 180.823 83.2124 180.412 82.6653L180.274 82.4829C179.941 82.04 179.511 81.7421 178.985 81.589C178.452 81.4272 177.906 81.437 177.348 81.6183C176.748 81.8131 176.376 82.1125 176.23 82.5166C176.094 82.9174 176.13 83.3593 176.339 83.8425L174.918 83.8505C174.802 83.5424 174.737 83.2339 174.723 82.925C174.713 82.604 174.771 82.3043 174.896 82.026C175.025 81.7356 175.233 81.4735 175.52 81.2397C175.807 81.006 176.193 80.8102 176.679 80.6523C177.64 80.3401 178.566 80.3147 179.458 80.5763C180.349 80.8378 181.079 81.3463 181.647 82.1018C181.96 82.5187 182.147 82.9119 182.206 83.2817C182.27 83.6393 182.249 83.9704 182.143 84.2748C182.038 84.5792 181.863 84.8519 181.62 85.093C181.377 85.334 181.105 85.536 180.803 85.6989L181.861 87.1057L180.668 87.4936ZM183.428 90.1629C183.097 90.2703 182.802 90.2797 182.542 90.1912C182.293 90.0992 182.084 89.9404 181.914 89.7146L181.786 89.5453C181.617 89.3195 181.552 89.1136 181.592 88.9277C181.642 88.7383 181.833 88.59 182.164 88.4825C182.494 88.3751 182.784 88.3673 183.034 88.4592C183.293 88.5478 183.508 88.705 183.678 88.9308L183.805 89.1001C183.975 89.3259 184.035 89.5334 183.984 89.7227C183.944 89.9087 183.758 90.0554 183.428 90.1629Z" fill="#828282"/>
<defs>
<filter id="filter0_f" x="2.33008" y="-5.69641" width="243.239" height="134.923" filterUnits="userSpaceOnUse" color-interpolation-filters="sRGB">
<feFlood flood-opacity="0" result="BackgroundImageFix"/>
<feBlend mode="normal" in="SourceGraphic" in2="BackgroundImageFix" result="shape"/>
<feGaussianBlur stdDeviation="4" result="effect1_foregroundBlur"/>
</filter>
<filter id="filter1_f" x="43.4522" y="101.259" width="10.0249" height="32.1567" filterUnits="userSpaceOnUse" color-interpolation-filters="sRGB">
<feFlood flood-opacity="0" result="BackgroundImageFix"/>
<feBlend mode="normal" in="SourceGraphic" in2="BackgroundImageFix" result="shape"/>
<feGaussianBlur stdDeviation="0.945785" result="effect1_foregroundBlur"/>
</filter>
<filter id="filter2_f" x="7.91852" y="1.12286" width="228.106" height="62.831" filterUnits="userSpaceOnUse" color-interpolation-filters="sRGB">
<feFlood flood-opacity="0" result="BackgroundImageFix"/>
<feBlend mode="normal" in="SourceGraphic" in2="BackgroundImageFix" result="shape"/>
<feGaussianBlur stdDeviation="1.89157" result="effect1_foregroundBlur"/>
</filter>
<filter id="filter3_f" x="47.7179" y="55.3248" width="191.205" height="83.1094" filterUnits="userSpaceOnUse" color-interpolation-filters="sRGB">
<feFlood flood-opacity="0" result="BackgroundImageFix"/>
<feBlend mode="normal" in="SourceGraphic" in2="BackgroundImageFix" result="shape"/>
<feGaussianBlur stdDeviation="2.36446" result="effect1_foregroundBlur"/>
</filter>
<filter id="filter4_f" x="4.21173" y="66.2628" width="36.2519" height="48.2474" filterUnits="userSpaceOnUse" color-interpolation-filters="sRGB">
<feFlood flood-opacity="0" result="BackgroundImageFix"/>
<feBlend mode="normal" in="SourceGraphic" in2="BackgroundImageFix" result="shape"/>
<feGaussianBlur stdDeviation="1.89157" result="effect1_foregroundBlur"/>
</filter>
<filter id="filter5_f" x="26.6235" y="21.8931" width="145.08" height="66.7271" filterUnits="userSpaceOnUse" color-interpolation-filters="sRGB">
<feFlood flood-opacity="0" result="BackgroundImageFix"/>
<feBlend mode="normal" in="SourceGraphic" in2="BackgroundImageFix" result="shape"/>
<feGaussianBlur stdDeviation="1" result="effect1_foregroundBlur"/>
</filter>
<filter id="filter6_f" x="66.7344" y="20.5109" width="221.123" height="134.176" filterUnits="userSpaceOnUse" color-interpolation-filters="sRGB">
<feFlood flood-opacity="0" result="BackgroundImageFix"/>
<feBlend mode="normal" in="SourceGraphic" in2="BackgroundImageFix" result="shape"/>
<feGaussianBlur stdDeviation="5" result="effect1_foregroundBlur"/>
</filter>
<filter id="filter7_f" x="111.755" y="123.573" width="10.5995" height="34" filterUnits="userSpaceOnUse" color-interpolation-filters="sRGB">
<feFlood flood-opacity="0" result="BackgroundImageFix"/>
<feBlend mode="normal" in="SourceGraphic" in2="BackgroundImageFix" result="shape"/>
<feGaussianBlur stdDeviation="1" result="effect1_foregroundBlur"/>
</filter>
<filter id="filter8_f" x="74.1846" y="27.348" width="206.023" height="56.7825" filterUnits="userSpaceOnUse" color-interpolation-filters="sRGB">
<feFlood flood-opacity="0" result="BackgroundImageFix"/>
<feBlend mode="normal" in="SourceGraphic" in2="BackgroundImageFix" result="shape"/>
<feGaussianBlur stdDeviation="2" result="effect1_foregroundBlur"/>
</filter>
<filter id="filter9_f" x="116.265" y="86.5717" width="163.231" height="76.3084" filterUnits="userSpaceOnUse" color-interpolation-filters="sRGB">
<feFlood flood-opacity="0" result="BackgroundImageFix"/>
<feBlend mode="normal" in="SourceGraphic" in2="BackgroundImageFix" result="shape"/>
<feGaussianBlur stdDeviation="2.5" result="effect1_foregroundBlur"/>
</filter>
<filter id="filter10_f" x="70.2654" y="86.5717" width="38.33" height="51.0131" filterUnits="userSpaceOnUse" color-interpolation-filters="sRGB">
<feFlood flood-opacity="0" result="BackgroundImageFix"/>
<feBlend mode="normal" in="SourceGraphic" in2="BackgroundImageFix" result="shape"/>
<feGaussianBlur stdDeviation="2" result="effect1_foregroundBlur"/>
</filter>
<filter id="filter11_f" x="98.6545" y="48.8151" width="139.476" height="69.0228" filterUnits="userSpaceOnUse" color-interpolation-filters="sRGB">
<feFlood flood-opacity="0" result="BackgroundImageFix"/>
<feBlend mode="normal" in="SourceGraphic" in2="BackgroundImageFix" result="shape"/>
<feGaussianBlur stdDeviation="1.5" result="effect1_foregroundBlur"/>
</filter>
<linearGradient id="paint0_linear" x1="112.114" y1="27.4874" x2="124.882" y2="74.7766" gradientUnits="userSpaceOnUse">
<stop stop-color="white" stop-opacity="0.5"/>
<stop offset="1" stop-color="#FFCEB3" stop-opacity="0.4"/>
</linearGradient>
<linearGradient id="paint1_linear" x1="112.114" y1="27.4874" x2="124.882" y2="74.7766" gradientUnits="userSpaceOnUse">
<stop stop-color="#FDC0C0" stop-opacity="0.5"/>
<stop offset="1" stop-color="#F59863" stop-opacity="0.4"/>
</linearGradient>
<linearGradient id="paint2_linear" x1="184.352" y1="45.5736" x2="197.852" y2="95.5735" gradientUnits="userSpaceOnUse">
<stop offset="0.135625" stop-color="white"/>
<stop offset="1" stop-color="#EBEBEB"/>
</linearGradient>
</defs>
</svg>
