<svg width="292" height="156" viewBox="0 0 292 156" fill="none" xmlns="http://www.w3.org/2000/svg">
<path d="M182.249 6.34006L16.516 56.4657C7.52958 59.2561 4.57398 67.7986 9.91451 75.5459L32.1371 106.721C34.9512 110.803 39.5075 113.85 44.5033 115.411C44.6495 120.715 46.2371 126.271 49.3837 131.74C52.3184 122.6 60.0757 115.076 71.8791 111.411L223.811 65.5705C232.798 62.7801 235.754 54.2376 230.413 46.4903L208.19 15.3154C202.85 7.5681 191.236 3.54969 182.249 6.34006Z" fill="#FF5E03"/>
<mask id="mask0" mask-type="alpha" maskUnits="userSpaceOnUse" x="7" y="5" width="227" height="127">
<path d="M182.249 6.34006L16.516 56.4657C7.52958 59.2561 4.57398 67.7986 9.91451 75.5459L32.1371 106.721C34.9512 110.803 39.5075 113.85 44.5033 115.411C44.6495 120.715 46.2371 126.271 49.3837 131.74C52.3184 122.6 60.0757 115.076 71.8791 111.411L223.811 65.5705C232.798 62.7801 235.754 54.2376 230.413 46.4903L208.19 15.3154C202.85 7.5681 191.236 3.54969 182.249 6.34006Z" fill="#3A33D9"/>
</mask>
<g mask="url(#mask0)">
<g filter="url(#filter0_f)">
<path d="M14.0779 55.3964C19.5942 53.5106 172.417 7.54841 188.506 2.83397C194.482 1.08289 203.723 3.92799 206.949 7.5629C209.189 10.086 223.027 27.4244 229.175 36.4094C235.323 45.3943 240.773 53.8746 232.958 56.7033C226.36 59.0916 99.2977 98.0876 65.8929 108.467C59.7349 110.38 54.5906 112.757 51.6393 118.501C48.6881 124.246 45.4138 120.345 46.4544 112.075C46.8916 108.599 47.7002 105.159 49.7487 103.133C51.7972 101.107 51.1864 99.3843 48.8308 101.259C46.4753 103.133 45.0703 104.979 44.4147 106.679C43.2596 109.673 39.3664 107.576 38.0128 105.632C35.7143 102.332 20.5138 81.9917 14.078 72.5628C7.64228 63.134 8.56164 57.2821 14.0779 55.3964Z" fill="url(#paint0_linear)" fill-opacity="0.92"/>
</g>
<g filter="url(#filter1_f)">
<path d="M49.4259 131.524C47.7947 126.516 44.2972 111.318 50.8447 103.15C41.9779 107.273 43.5402 122.841 49.4259 131.524Z" fill="white" fill-opacity="0.67"/>
</g>
<g filter="url(#filter2_f)">
<path d="M21.4411 54.9133C11.2871 58.0761 6.83805 62.0636 15.7664 59.1694C73.3442 40.5045 147.922 19.4671 181.97 8.42776C190.955 5.51461 200.411 8.94095 205.614 15.9941C212.244 24.979 215.769 29.3289 227.054 45.6783C229.086 48.6222 235.024 52.3364 228.584 44.279C218.486 29.1413 215.991 25.7095 208.988 16.0805L208.925 15.9941C201.358 5.59044 191.428 3.11179 181.97 6.06331C136.306 20.3136 71.7883 39.2314 21.4411 54.9133Z" fill="white" fill-opacity="0.82"/>
</g>
<g filter="url(#filter3_f)">
<path d="M228.726 66.0202C233.07 64.6096 235.819 58.6826 230.618 60.3455C176.235 77.7295 118.132 95.401 66.1138 111.479C60.7544 113.529 50.0355 118.951 51.9271 133.705C52.8284 125.806 63.7494 117.861 70.3699 115.735C121.915 99.1841 180.671 81.6257 228.726 66.0202Z" fill="white" fill-opacity="0.45"/>
</g>
<g filter="url(#filter4_f)">
<path d="M9.84035 75.6994C17.3427 86.8074 29.2163 102.957 32.948 108.088C36.7311 113.289 36.9676 109.979 33.4209 105.25C29.1649 99.5756 17.3114 83.2484 8.83052 71.202C7.19051 68.8725 5.93246 69.9133 9.84035 75.6994Z" fill="white"/>
</g>
</g>
<g filter="url(#filter5_d)">
<path d="M36.2874 65.8769L36.2248 65.8972C36.0562 66.0485 35.8205 66.1997 35.5176 66.3507C35.2148 66.5017 34.8673 66.641 34.4751 66.7684C33.3902 67.1209 32.4386 67.1669 31.6201 66.9064C30.8048 66.636 30.0697 66.0501 29.4147 65.1486L27.883 63.0404L28.9344 62.6987L30.4662 64.807C30.9406 65.46 31.4588 65.8752 32.0208 66.0523C32.591 66.2268 33.2308 66.1988 33.9401 65.9683C34.3574 65.8327 34.7174 65.6894 35.0203 65.5384C35.3231 65.3873 35.5547 65.2375 35.7149 65.0889L33.015 61.3729L34.0665 61.0312L39.4662 68.4634L38.4148 68.805L36.2874 65.8769ZM44.2096 67.0801C43.7673 67.2238 43.3178 67.2865 42.8609 67.2682C42.4125 67.2472 41.9686 67.1545 41.5294 66.9901C41.0934 66.8159 40.6781 66.578 40.2836 66.2762C39.8922 65.9647 39.5366 65.5889 39.2169 65.1488C38.9023 64.7157 38.6828 64.3001 38.5584 63.9018C38.4424 63.5008 38.4193 63.1354 38.4892 62.8056C38.5622 62.466 38.725 62.1718 38.9774 61.923C39.2383 61.6716 39.5898 61.474 40.0321 61.3303C40.466 61.1893 40.9031 61.1307 41.3432 61.1544C41.7833 61.1781 42.2121 61.2713 42.6294 61.434C43.0416 61.5896 43.4289 61.8104 43.7913 62.0962C44.1621 62.3794 44.4893 62.7162 44.7729 63.1066L45.0669 63.5112L40.423 65.0201L40.6087 65.2756C40.7789 65.5099 40.9805 65.7164 41.2135 65.8951C41.4497 66.064 41.7012 66.1973 41.9681 66.2948C42.2433 66.3897 42.5286 66.4417 42.8242 66.451C43.1281 66.4575 43.4302 66.412 43.7306 66.3144C44.1395 66.1815 44.4349 65.9847 44.6167 65.7238C44.8068 65.4602 44.8744 65.1487 44.8196 64.7892L45.8502 64.994C45.9149 65.438 45.8113 65.849 45.5392 66.2269C45.2619 66.5978 44.8187 66.8822 44.2096 67.0801ZM40.5504 62.0437C40.275 62.1332 40.0556 62.2571 39.8922 62.4155C39.7236 62.5668 39.6101 62.7441 39.5515 62.9474C39.5012 63.148 39.505 63.3661 39.5628 63.6018C39.6154 63.8304 39.7294 64.0653 39.9047 64.3067L39.9589 64.3812L43.5263 63.2221L43.4412 63.105C43.0853 62.6152 42.6431 62.2763 42.1145 62.0883C41.5892 61.8905 41.0678 61.8756 40.5504 62.0437ZM44.5664 60.015L45.8807 59.5879L49.9191 61.803L49.9692 61.7867L49.8486 58.2987L51.1504 57.8757L55.1422 63.3699L54.1659 63.6871L50.9167 59.2151L50.8542 59.2354L50.9244 59.9496L51.0147 63.2896L47.1442 61.1779L46.348 60.6996L46.2854 60.7199L49.5345 65.192L48.5582 65.5092L44.5664 60.015ZM62.1523 61.2502C61.493 61.4644 60.8977 61.5393 60.3662 61.4751C59.8348 61.4109 59.3149 61.242 58.8067 60.9684L59.1864 60.2133C59.5493 60.4288 59.9335 60.5672 60.339 60.6285C60.7477 60.6799 61.1691 60.6352 61.603 60.4942C62.1287 60.3233 62.4574 60.1156 62.5892 59.871C62.7292 59.6237 62.7064 59.3723 62.5208 59.1167L62.4279 58.989C62.2268 58.7121 61.962 58.5393 61.6335 58.4706C61.3083 58.392 60.9454 58.4178 60.5448 58.5479L59.1679 58.9953L58.6496 58.2819L59.9013 57.8752C60.3019 57.745 60.5616 57.5773 60.6806 57.3719C60.7996 57.1665 60.7688 56.9396 60.5883 56.6912L60.4955 56.5634C60.3253 56.3292 60.0785 56.1812 59.7552 56.1195C59.4351 56.0481 59.0164 56.0964 58.499 56.2645C58.0734 56.4028 57.7771 56.5912 57.61 56.8297C57.4378 57.0612 57.3585 57.3282 57.3721 57.6309L56.3606 57.3673C56.3288 56.9828 56.4326 56.6288 56.672 56.3053C56.9147 55.972 57.3573 55.701 57.9998 55.4922C58.8427 55.2184 59.5597 55.1477 60.1511 55.2802C60.7425 55.4127 61.2058 55.7097 61.541 56.1711C61.7886 56.5118 61.8761 56.8168 61.8035 57.086C61.7393 57.3526 61.5353 57.59 61.1915 57.7982L61.2224 57.8408C61.7226 57.7484 62.1679 57.7792 62.5583 57.9332C62.9518 58.0773 63.2749 58.3233 63.5276 58.6711C63.9144 59.2035 63.9835 59.7032 63.7347 60.17C63.4892 60.6271 62.9617 60.9871 62.1523 61.2502ZM71.1355 58.1734C70.76 58.2954 70.4269 58.2983 70.1363 58.1822C69.8539 58.0633 69.5991 57.8829 69.3717 57.6409L69.3091 57.6613C69.4148 58.0481 69.3668 58.3795 69.1651 58.6557C68.9635 58.9318 68.6373 59.143 68.1867 59.2894C67.5024 59.5118 66.8601 59.5362 66.2596 59.3628C65.6675 59.1867 65.1857 58.8431 64.8144 58.332C64.4379 57.8138 64.3702 57.3444 64.6114 56.9239C64.8609 56.5006 65.4571 56.1358 66.4 55.8294L67.6768 55.4146L67.2823 54.8716C66.9986 54.4811 66.6568 54.2237 66.2569 54.0992C65.857 53.9746 65.3984 53.9964 64.881 54.1645C64.4888 54.292 64.2133 54.4736 64.0546 54.7094C63.9042 54.9426 63.8317 55.2118 63.8369 55.5172L62.888 55.2333C62.8466 54.8782 62.9431 54.5354 63.1774 54.2048C63.4065 53.8671 63.8131 53.6034 64.3973 53.4136C65.1817 53.1587 65.9095 53.124 66.5806 53.3096C67.2518 53.4951 67.7988 53.8789 68.2217 54.461L70.4188 57.485L71.1573 57.245L71.6988 57.9903L71.1355 58.1734ZM67.8234 58.5125C68.0737 58.4312 68.2852 58.3318 68.4577 58.2143C68.6302 58.0968 68.758 57.9675 68.8412 57.8265C68.9243 57.6854 68.9638 57.5409 68.9596 57.3931C68.9554 57.2454 68.9017 57.1005 68.7985 56.9585L68.141 56.0535L66.8141 56.4846C66.2384 56.6716 65.8685 56.8796 65.7046 57.1083C65.5491 57.3343 65.5693 57.5822 65.7653 57.8519L65.9277 58.0755C66.1237 58.3453 66.3885 58.5181 66.7221 58.5939C67.0641 58.6671 67.4312 58.64 67.8234 58.5125ZM69.1362 52.0317L70.1376 51.7064L70.7874 52.6008L70.8375 52.5845C70.7517 52.1825 70.808 51.8483 71.0065 51.582C71.2082 51.3059 71.5343 51.0946 71.9849 50.9482C72.3855 50.8181 72.7975 50.7675 73.2209 50.7967C73.6443 50.8258 74.059 50.928 74.4648 51.1032C74.879 51.2758 75.2734 51.5205 75.6481 51.8375C76.0311 52.1517 76.3825 52.5289 76.7023 52.969C77.022 53.4091 77.2482 53.827 77.3809 54.2226C77.522 54.6154 77.5659 54.9741 77.5128 55.2984C77.468 55.6201 77.3319 55.9012 77.1044 56.1418C76.8769 56.3825 76.5629 56.5678 76.1624 56.698C75.2862 56.9827 74.4086 56.8467 73.5296 56.2899L73.4796 56.3062L75.6766 59.3302L74.6752 59.6555L69.1362 52.0317ZM75.33 56.0208C75.8975 55.8364 76.2356 55.5423 76.3444 55.1384C76.4481 54.7275 76.322 54.2771 75.9662 53.7873L75.2854 52.8503C74.9295 52.3605 74.4806 52.0194 73.9385 51.827C73.3913 51.6275 72.834 51.6199 72.2665 51.8043C72.0412 51.8775 71.8449 51.9764 71.6775 52.101C71.5134 52.2157 71.3897 52.3437 71.3065 52.4848C71.2234 52.6258 71.1849 52.7787 71.1911 52.9434C71.2005 53.0983 71.2593 53.2503 71.3676 53.3994L72.853 55.4437C72.9819 55.6212 73.1396 55.7674 73.3262 55.8822C73.516 55.9873 73.7221 56.0651 73.9445 56.1156C74.1618 56.1591 74.3886 56.1732 74.625 56.1578C74.8697 56.1397 75.1047 56.094 75.33 56.0208ZM80.3165 48.399L81.3054 48.0777L83.334 55.7892C83.3775 55.9769 83.4004 56.1361 83.4027 56.267C83.4101 56.405 83.3828 56.5236 83.3207 56.6227C83.2586 56.7218 83.1545 56.8127 83.0082 56.8953C82.8703 56.9752 82.6845 57.0532 82.4508 57.1291L81.9376 57.2958L81.3961 56.5505L82.41 56.221L82.0472 54.8912L75.4849 49.9689L76.4863 49.6436L80.7537 52.8766L81.704 53.6734L81.7666 53.6531L81.4672 52.6448L80.3165 48.399ZM89.158 52.4755C88.7073 52.6219 88.2562 52.6895 87.8045 52.6783C87.3529 52.6671 86.9039 52.5673 86.4576 52.3789C86.0112 52.1905 85.5624 51.9064 85.1111 51.5266C84.663 51.137 84.2172 50.6369 83.7737 50.0265C83.2012 49.2385 82.7697 48.5452 82.4791 47.9465C82.1968 47.345 82.0577 46.8199 82.0617 46.3711C82.0657 45.9223 82.2077 45.5428 82.4876 45.2324C82.7708 44.9123 83.1931 44.6347 83.7547 44.3996L85.6819 43.6023L86.3085 44.4648L84.2638 45.3134C83.9173 45.4611 83.6524 45.6217 83.4691 45.7954C83.2858 45.969 83.1829 46.1823 83.1604 46.4353C83.1411 46.6784 83.2016 46.9747 83.3419 47.3239C83.4905 47.6705 83.7167 48.0883 84.0206 48.5775L84.0706 48.5612C83.9892 48.1226 84.0317 47.7622 84.198 47.4801C84.3727 47.1952 84.7103 46.9714 85.211 46.8087C85.6199 46.6759 86.0418 46.6177 86.4768 46.6343C86.9118 46.6509 87.3379 46.7406 87.7553 46.9033C88.1675 47.059 88.5693 47.2925 88.9607 47.6041C89.3552 47.9058 89.715 48.2803 90.0399 48.7275C90.3442 49.1463 90.5492 49.5491 90.6548 49.9359C90.7605 50.3228 90.7743 50.6824 90.6961 51.0149C90.6179 51.3474 90.4484 51.6394 90.1876 51.8909C89.9351 52.1396 89.5919 52.3345 89.158 52.4755ZM88.6588 51.7032C88.9175 51.6192 89.1295 51.5064 89.2949 51.3649C89.4603 51.2234 89.5707 51.0559 89.6261 50.8625C89.6815 50.669 89.6803 50.4544 89.6225 50.2187C89.5648 49.983 89.4353 49.7268 89.2342 49.4499L88.7468 48.7791C88.3136 48.1828 87.8202 47.7948 87.2666 47.6149C86.713 47.435 86.1483 47.4386 85.5725 47.6257C84.9717 47.8209 84.6139 48.0951 84.4992 48.4483C84.3876 48.7916 84.4788 49.1656 84.7728 49.5702L85.4845 50.5498C85.9177 51.1461 86.4111 51.5342 86.9647 51.714C87.5183 51.8939 88.083 51.8903 88.6588 51.7032ZM96.1607 50.2001C95.7185 50.3438 95.2689 50.4065 94.8121 50.3883C94.3636 50.3673 93.9198 50.2746 93.4806 50.1102C93.0446 49.936 92.6293 49.698 92.2347 49.3963C91.8433 49.0847 91.4878 48.7089 91.168 48.2688C90.8534 47.8358 90.6339 47.4201 90.5096 47.0218C90.3936 46.6208 90.3705 46.2554 90.4403 45.9256C90.5134 45.586 90.6761 45.2918 90.9286 45.0431C91.1894 44.7916 91.541 44.5941 91.9833 44.4503C92.4172 44.3094 92.8542 44.2507 93.2943 44.2744C93.7345 44.2981 94.1632 44.3913 94.5806 44.5541C94.9928 44.7097 95.3801 44.9304 95.7425 45.2163C96.1132 45.4994 96.4404 45.8362 96.7241 46.2266L97.018 46.6312L92.3742 48.1401L92.5598 48.3957C92.73 48.6299 92.9316 48.8364 93.1646 49.0152C93.4008 49.1841 93.6524 49.3173 93.9192 49.4149C94.1944 49.5097 94.4798 49.5618 94.7753 49.571C95.0792 49.5776 95.3814 49.5321 95.6818 49.4345C96.0907 49.3016 96.386 49.1047 96.5678 48.8439C96.758 48.5803 96.8256 48.2687 96.7707 47.9093L97.8014 48.114C97.8661 48.558 97.7624 48.969 97.4903 49.3469C97.2131 49.7178 96.7699 50.0022 96.1607 50.2001ZM92.5016 45.1637C92.2262 45.2532 92.0068 45.3772 91.8434 45.5355C91.6748 45.6868 91.5612 45.8641 91.5026 46.0674C91.4524 46.268 91.4561 46.4861 91.5139 46.7218C91.5665 46.9504 91.6805 47.1854 91.8559 47.4267L91.91 47.5013L95.4774 46.3421L95.3923 46.225C95.0365 45.7352 94.5942 45.3963 94.0657 45.2083C93.5403 45.0105 93.019 44.9956 92.5016 45.1637ZM99.2212 48.1265L99.9722 47.8825L99.6229 46.1665C99.5806 45.9522 99.5927 45.7771 99.6592 45.6415C99.7256 45.5058 99.8346 45.4002 99.986 45.3247L99.9551 45.2821C99.7572 45.2937 99.5596 45.2702 99.3622 45.2115C99.1649 45.1528 98.9558 45.0496 98.7351 44.902L97.1511 43.8504L96.4001 44.0945L95.8585 43.3491L96.4468 43.158C96.6972 43.0766 96.9528 43.0594 97.2138 43.1062C97.4831 43.1503 97.7654 43.2692 98.0608 43.4628L100.108 44.8112L101.26 44.4371L99.5887 42.1371L100.59 41.8118L102.261 44.1117L103.413 43.7375L103.093 41.8278C103.048 41.5529 103.078 41.3323 103.184 41.1662C103.299 40.9974 103.481 40.8723 103.732 40.7909L104.32 40.5998L104.862 41.3451L104.111 41.5892L104.368 43.0718C104.405 43.2791 104.397 43.4527 104.344 43.5928C104.291 43.7328 104.197 43.8513 104.061 43.9481L104.092 43.9907C104.274 43.9578 104.465 43.9657 104.666 44.0146C104.867 44.0635 105.08 44.1654 105.306 44.3201L107.107 45.5642L107.858 45.3202L108.4 46.0656L107.686 46.2974C107.461 46.3706 107.22 46.3873 106.964 46.3476C106.703 46.3008 106.396 46.1549 106.043 45.9099L103.939 44.4616L102.787 44.8357L104.582 47.306L103.58 47.6314L101.786 45.1611L100.634 45.5353L101.036 47.5368C101.106 47.8739 101.087 48.1255 100.981 48.2917C100.87 48.4507 100.701 48.5668 100.476 48.64L99.7627 48.8718L99.2212 48.1265ZM105.967 40.0648L106.968 39.7395L108.631 42.0287L111.861 40.9794L110.197 38.6902L111.199 38.3648L115.191 43.859L114.189 44.1844L112.402 41.7248L109.173 42.7741L110.96 45.2337L109.958 45.5591L105.967 40.0648ZM113.325 37.6738L114.327 37.3485L115.773 39.3396L117.488 38.7824C118.139 38.5709 118.77 38.559 119.381 38.7466C119.991 38.9342 120.495 39.3013 120.893 39.8479C121.295 40.4016 121.419 40.892 121.265 41.3193C121.112 41.7465 120.705 42.0673 120.046 42.2815L117.317 43.1681L113.325 37.6738ZM119.354 41.5849C119.73 41.4629 119.978 41.3077 120.099 41.1192C120.22 40.9308 120.177 40.6946 119.971 40.4106L119.646 39.9634C119.44 39.6795 119.191 39.5146 118.9 39.4688C118.603 39.4159 118.267 39.4505 117.892 39.5725L116.315 40.0849L117.777 42.0974L119.354 41.5849ZM119.258 35.746L120.26 35.4207L124.252 40.9149L123.25 41.2403L119.258 35.746ZM128.896 39.5638C128.454 39.7075 128.004 39.7702 127.547 39.7519C127.099 39.7309 126.655 39.6382 126.216 39.4738C125.78 39.2996 125.365 39.0616 124.97 38.7599C124.579 38.4484 124.223 38.0725 123.903 37.6324C123.589 37.1994 123.369 36.7838 123.245 36.3855C123.129 35.9844 123.106 35.619 123.176 35.2893C123.249 34.9497 123.411 34.6555 123.664 34.4067C123.925 34.1553 124.276 33.9577 124.719 33.814C125.153 33.673 125.59 33.6144 126.03 33.6381C126.47 33.6618 126.899 33.755 127.316 33.9177C127.728 34.0733 128.115 34.2941 128.478 34.5799C128.849 34.8631 129.176 35.1998 129.459 35.5903L129.753 35.9949L125.11 37.5038L125.295 37.7593C125.465 37.9936 125.667 38.2001 125.9 38.3788C126.136 38.5477 126.388 38.681 126.655 38.7785C126.93 38.8734 127.215 38.9254 127.511 38.9347C127.815 38.9412 128.117 38.8957 128.417 38.7981C128.826 38.6652 129.121 38.4684 129.303 38.2075C129.493 37.9439 129.561 37.6324 129.506 37.2729L130.537 37.4777C130.601 37.9217 130.498 38.3326 130.226 38.7106C129.948 39.0814 129.505 39.3658 128.896 39.5638ZM125.237 34.5274C124.962 34.6169 124.742 34.7408 124.579 34.8992C124.41 35.0505 124.297 35.2278 124.238 35.4311C124.188 35.6316 124.191 35.8498 124.249 36.0855C124.302 36.314 124.416 36.549 124.591 36.7904L124.645 36.8649L128.213 35.7058L128.128 35.5887C127.772 35.0989 127.33 34.76 126.801 34.572C126.276 34.3741 125.754 34.3593 125.237 34.5274ZM132.211 31.5375L135.466 30.48C135.991 30.3092 136.497 30.3028 136.983 30.4607C137.464 30.6116 137.859 30.8999 138.169 31.3258C138.669 32.0144 138.529 32.5382 137.748 32.8972L137.779 32.9398C138.305 32.8126 138.774 32.8268 139.187 32.9825C139.602 33.1283 139.934 33.3715 140.181 33.7123C140.341 33.9323 140.451 34.1553 140.512 34.3812C140.582 34.6043 140.595 34.8148 140.553 35.0127C140.512 35.2106 140.416 35.3909 140.266 35.5537C140.111 35.7094 139.895 35.8319 139.62 35.9214L136.203 37.0317L132.211 31.5375ZM138.809 35.3163C139.109 35.2187 139.298 35.0739 139.376 34.8821C139.453 34.6903 139.401 34.4702 139.221 34.2217L139.043 33.9769C138.862 33.7284 138.635 33.5652 138.362 33.4873C138.089 33.4093 137.802 33.4192 137.502 33.5168L135.386 34.2041L136.694 36.0036L138.809 35.3163ZM136.874 32.8654C137.149 32.7759 137.321 32.65 137.388 32.4876C137.459 32.3154 137.415 32.1193 137.255 31.8992L137.085 31.665C136.925 31.4449 136.724 31.3039 136.483 31.2418C136.245 31.1699 135.989 31.1787 135.713 31.2682L133.723 31.9149L134.883 33.512L136.874 32.8654ZM139.191 29.2696L140.192 28.9442L140.842 29.8387L140.892 29.8224C140.806 29.4203 140.863 29.0862 141.061 28.8199C141.263 28.5438 141.589 28.3325 142.04 28.1861C142.44 28.0559 142.852 28.0054 143.276 28.0345C143.699 28.0637 144.114 28.1659 144.519 28.3411C144.934 28.5136 145.328 28.7584 145.703 29.0753C146.086 29.3896 146.437 29.7668 146.757 30.2069C147.077 30.647 147.303 31.0648 147.436 31.4604C147.577 31.8533 147.621 32.2119 147.567 32.5363C147.523 32.858 147.386 33.1391 147.159 33.3797C146.932 33.6203 146.618 33.8057 146.217 33.9359C145.341 34.2206 144.463 34.0845 143.584 33.5278L143.534 33.5441L145.731 36.568L144.73 36.8934L139.191 29.2696ZM145.385 33.2587C145.952 33.0743 146.29 32.7802 146.399 32.3763C146.503 31.9653 146.377 31.5149 146.021 31.0251L145.34 30.0881C144.984 29.5984 144.535 29.2573 143.993 29.0649C143.446 28.8654 142.889 28.8578 142.321 29.0422C142.096 29.1154 141.9 29.2143 141.732 29.3389C141.568 29.4536 141.444 29.5815 141.361 29.7226C141.278 29.8637 141.24 30.0166 141.246 30.1813C141.255 30.3362 141.314 30.4882 141.422 30.6372L142.908 32.6816C143.036 32.8591 143.194 33.0052 143.381 33.1201C143.571 33.2251 143.777 33.3029 143.999 33.3535C144.216 33.397 144.443 33.411 144.68 33.3956C144.924 33.3776 145.159 33.3319 145.385 33.2587ZM155.138 30.8795C154.762 31.0015 154.429 31.0044 154.138 30.8883C153.856 30.7694 153.601 30.589 153.374 30.347L153.311 30.3674C153.417 30.7542 153.369 31.0857 153.167 31.3618C152.965 31.6379 152.639 31.8491 152.189 31.9955C151.504 32.2179 150.862 32.2423 150.262 32.0689C149.669 31.8928 149.188 31.5492 148.816 31.0381C148.44 30.5199 148.372 30.0505 148.613 29.63C148.863 29.2067 149.459 28.8419 150.402 28.5355L151.679 28.1207L151.284 27.5777C151.001 27.1872 150.659 26.9298 150.259 26.8053C149.859 26.6807 149.4 26.7025 148.883 26.8706C148.491 26.9981 148.215 27.1797 148.057 27.4155C147.906 27.6487 147.834 27.9179 147.839 28.2233L146.89 27.9394C146.849 27.5843 146.945 27.2415 147.179 26.9109C147.408 26.5732 147.815 26.3095 148.399 26.1197C149.184 25.8648 149.911 25.8301 150.583 26.0157C151.254 26.2012 151.801 26.585 152.224 27.1671L154.421 30.1911L155.159 29.9511L155.701 30.6965L155.138 30.8795ZM151.825 31.2186C152.076 31.1373 152.287 31.0379 152.46 30.9204C152.632 30.8029 152.76 30.6736 152.843 30.5326C152.926 30.3915 152.966 30.247 152.962 30.0993C152.957 29.9515 152.904 29.8066 152.8 29.6646L152.143 28.7596L150.816 29.1907C150.24 29.3778 149.87 29.5857 149.707 29.8144C149.551 30.0404 149.571 30.2883 149.767 30.558L149.93 30.7816C150.126 31.0514 150.39 31.2242 150.724 31.3001C151.066 31.3732 151.433 31.3461 151.825 31.2186ZM158.767 26.5809L158.704 26.6013C158.643 26.858 158.513 27.0977 158.314 27.3204C158.11 27.5359 157.77 27.721 157.294 27.8756C156.635 28.0898 156.021 28.1181 155.453 27.9605C154.879 27.7959 154.386 27.4296 153.974 26.8618L152.566 24.9239L153.567 24.5985L154.921 26.4619C155.406 27.1291 156.111 27.3123 157.037 27.0113C157.513 26.8568 157.867 26.6761 158.098 26.4693C158.333 26.2527 158.367 26.0308 158.202 25.8036L156.609 23.6102L157.61 23.2848L161.602 28.7791L160.6 29.1044L158.767 26.5809ZM159.739 22.5931L160.715 22.2759L162.928 25.3211L163.787 26.674L163.837 26.6577L163.787 25.2262L164.045 21.194L164.971 20.8931L168.963 26.3873L167.987 26.7045L165.774 23.6593L164.915 22.3064L164.865 22.3227L164.915 23.7542L164.657 27.7864L163.731 28.0873L159.739 22.5931ZM41.5199 82.8748L42.3711 82.5982C42.3867 82.4352 42.3718 82.2514 42.3263 82.0468C42.2808 81.8422 42.1971 81.6062 42.075 81.3388C41.9529 81.0714 41.7847 80.7619 41.5706 80.4103C41.3564 80.0587 41.0817 79.6523 40.7465 79.1909L39.6093 77.6256L43.9777 76.2062L47.9695 81.7005L46.9682 82.0258L43.5179 77.2769L41.1021 78.0619L41.7132 78.903C42.1 79.4354 42.4128 79.9085 42.6515 80.3223C42.8986 80.7334 43.0836 81.0944 43.2064 81.4055C43.3376 81.7138 43.416 81.9779 43.4416 82.1977C43.4621 82.4104 43.4484 82.5904 43.4006 82.7375C43.34 82.9239 43.2344 83.0767 43.0838 83.1958C42.9279 83.3079 42.7165 83.4073 42.4495 83.494L42.0614 83.6201L41.5199 82.8748ZM50.0915 74.2197L51.0804 73.8984L53.109 81.6099C53.1525 81.7976 53.1754 81.9568 53.1777 82.0877C53.1851 82.2257 53.1578 82.3443 53.0957 82.4434C53.0336 82.5425 52.9295 82.6334 52.7832 82.716C52.6453 82.7959 52.4595 82.8739 52.2258 82.9498L51.7126 83.1165L51.1711 82.3712L52.185 82.0417L51.8222 80.7119L45.2599 75.7896L46.2613 75.4643L50.5287 78.6973L51.479 79.4941L51.5416 79.4738L51.2422 78.4655L50.0915 74.2197ZM58.1207 75.2829L58.0581 75.3032C57.9971 75.56 57.867 75.7997 57.6677 76.0223C57.4633 76.2379 57.1233 76.423 56.6477 76.5775C55.9884 76.7917 55.3747 76.8201 54.8063 76.6625C54.2329 76.4979 53.7399 76.1316 53.3273 75.5637L51.9193 73.6259L52.9207 73.3005L54.2745 75.1638C54.7593 75.8311 55.4648 76.0142 56.3911 75.7133C56.8667 75.5587 57.2203 75.3781 57.4517 75.1713C57.6862 74.9547 57.721 74.7328 57.556 74.5056L55.9624 72.3122L56.9637 71.9868L60.9555 77.4811L59.9542 77.8064L58.1207 75.2829ZM59.0927 71.2951L60.0941 70.9697L63.5444 75.7186L65.9727 74.9296L62.5224 70.1807L63.5238 69.8553L66.9741 74.6042L69.4024 73.8152L65.9521 69.0663L66.9535 68.7409L70.9453 74.2352L63.0845 76.7893L59.0927 71.2951ZM75.5925 72.8831C75.1503 73.0268 74.7007 73.0896 74.2439 73.0713C73.7954 73.0503 73.3516 72.9576 72.9124 72.7932C72.4764 72.619 72.0611 72.381 71.6665 72.0793C71.2751 71.7677 70.9196 71.3919 70.5998 70.9518C70.2852 70.5188 70.0657 70.1031 69.9414 69.7048C69.8254 69.3038 69.8023 68.9384 69.8721 68.6086C69.9452 68.269 70.1079 67.9749 70.3604 67.7261C70.6212 67.4746 70.9728 67.2771 71.4151 67.1334C71.849 66.9924 72.286 66.9337 72.7262 66.9574C73.1663 66.9811 73.595 67.0743 74.0124 67.2371C74.4246 67.3927 74.8119 67.6134 75.1743 67.8993C75.545 68.1824 75.8722 68.5192 76.1559 68.9096L76.4498 69.3142L71.806 70.8231L71.9916 71.0787C72.1618 71.3129 72.3634 71.5194 72.5964 71.6982C72.8326 71.8671 73.0842 72.0003 73.351 72.0979C73.6262 72.1927 73.9116 72.2448 74.2071 72.2541C74.511 72.2606 74.8132 72.2151 75.1136 72.1175C75.5225 71.9846 75.8178 71.7877 75.9996 71.5269C76.1898 71.2633 76.2574 70.9518 76.2025 70.5923L77.2332 70.797C77.2979 71.241 77.1942 71.652 76.9221 72.03C76.6449 72.4008 76.2017 72.6852 75.5925 72.8831ZM71.9334 67.8468C71.658 67.9362 71.4386 68.0602 71.2752 68.2186C71.1066 68.3698 70.993 68.5471 70.9344 68.7504C70.8842 68.951 70.8879 69.1692 70.9457 69.4048C70.9983 69.6334 71.1123 69.8684 71.2877 70.1097L71.3418 70.1843L74.9092 69.0252L74.8241 68.908C74.4683 68.4182 74.0261 68.0793 73.4975 67.8913C72.9721 67.6935 72.4508 67.6787 71.9334 67.8468ZM78.9075 64.8569L79.9089 64.5315L81.5721 66.8208L84.8016 65.7714L83.1383 63.4822L84.1397 63.1568L88.1315 68.6511L87.1301 68.9764L85.3431 66.5168L82.1137 67.5661L83.9007 70.0257L82.8993 70.3511L78.9075 64.8569ZM94.952 66.4349C94.5765 66.557 94.2434 66.5599 93.9527 66.4438C93.6704 66.3249 93.4155 66.1445 93.1881 65.9025L93.1255 65.9228C93.2312 66.3097 93.1832 66.6411 92.9816 66.9172C92.7799 67.1933 92.4537 67.4046 92.0031 67.551C91.3189 67.7733 90.6765 67.7978 90.076 67.6244C89.4839 67.4483 89.0022 67.1047 88.6308 66.5936C88.2544 66.0754 88.1867 65.606 88.4278 65.1855C88.6773 64.7622 89.2735 64.3974 90.2165 64.091L91.4932 63.6762L91.0987 63.1331C90.815 62.7427 90.4733 62.4852 90.0733 62.3607C89.6734 62.2362 89.2148 62.258 88.6974 62.4261C88.3052 62.5536 88.0297 62.7352 87.871 62.971C87.7206 63.2041 87.6481 63.4734 87.6533 63.7788L86.7044 63.4949C86.663 63.1398 86.7595 62.7969 86.9938 62.4664C87.2229 62.1287 87.6296 61.865 88.2137 61.6752C88.9981 61.4203 89.7259 61.3856 90.3971 61.5712C91.0682 61.7567 91.6153 62.1405 92.0382 62.7226L94.2352 65.7465L94.9737 65.5066L95.5152 66.2519L94.952 66.4349ZM91.6398 66.7741C91.8901 66.6928 92.1016 66.5933 92.2741 66.4759C92.4466 66.3584 92.5745 66.2291 92.6576 66.088C92.7408 65.9469 92.7802 65.8025 92.776 65.6547C92.7718 65.5069 92.7181 65.3621 92.615 65.2201L91.9574 64.315L90.6306 64.7461C90.0548 64.9332 89.6849 65.1411 89.5211 65.3699C89.3655 65.5959 89.3857 65.8438 89.5817 66.1135L89.7442 66.3371C89.9401 66.6069 90.2049 66.7797 90.5386 66.8555C90.8805 66.9287 91.2476 66.9015 91.6398 66.7741ZM92.9527 60.2933L93.954 59.9679L97.4043 64.7168L99.8326 63.9278L96.3824 59.1789L97.3837 58.8536L100.834 63.6025L103.262 62.8134L99.8121 58.0646L100.813 57.7392L104.805 63.2334L96.9445 65.7875L92.9527 60.2933ZM102.94 57.0484L103.916 56.7312L106.128 59.7764L106.987 61.1293L107.038 61.113L106.988 59.6815L107.245 55.6493L108.172 55.3483L112.163 60.8426L111.187 61.1598L108.975 58.1146L108.115 56.7617L108.065 56.778L108.115 58.2095L107.858 62.2417L106.931 62.5426L102.94 57.0484ZM113.489 60.4119L113.868 56.8667L109.597 54.8851L110.774 54.5028L113.899 56.0144L113.937 56.0022L114.154 53.4047L115.268 53.0428L114.923 56.4449L119.309 58.5207L118.133 58.903L114.893 57.2972L114.855 57.3094L114.603 60.0499L113.489 60.4119ZM120.202 55.4932L118.933 53.747C119.597 53.4963 120.028 53.1808 120.226 52.8005C120.432 52.4175 120.373 52.0024 120.048 51.5552L119.94 51.4062C119.677 51.0442 119.334 50.8 118.913 50.6739C118.486 50.5406 118.047 50.5471 117.596 50.6935C117.112 50.8508 116.809 51.094 116.688 51.4232C116.574 51.7496 116.599 52.1101 116.762 52.5047L115.619 52.5075C115.529 52.2559 115.48 52.0042 115.472 51.7522C115.468 51.4905 115.517 51.2463 115.621 51.0196C115.727 50.7831 115.898 50.5699 116.131 50.38C116.364 50.1902 116.677 50.0315 117.069 49.9041C117.845 49.6519 118.59 49.6336 119.304 49.8492C120.017 50.0648 120.599 50.4814 121.047 51.099C121.295 51.4397 121.441 51.7609 121.484 52.0625C121.531 52.3544 121.511 52.6243 121.423 52.8722C121.335 53.1202 121.192 53.3421 120.994 53.5381C120.796 53.7341 120.574 53.8981 120.33 54.0301L121.166 55.1801L120.202 55.4932ZM122.392 57.6771C122.125 57.7639 121.887 57.7708 121.68 57.6979C121.48 57.6223 121.314 57.4922 121.18 57.3077L121.079 57.1692C120.945 56.9847 120.895 56.8166 120.929 56.6651C120.972 56.5108 121.127 56.3903 121.394 56.3036C121.661 56.2168 121.894 56.2112 122.093 56.2869C122.301 56.3598 122.472 56.4885 122.606 56.6731L122.707 56.8115C122.841 56.996 122.886 57.1654 122.844 57.3197C122.81 57.4712 122.659 57.5904 122.392 57.6771Z" fill="white"/>
</g>
<path d="M222.252 32.5401L83.4487 75.6396C73.9471 78.5899 70.8221 87.622 76.4688 95.8134L99.9652 128.775C102.941 133.092 107.758 136.313 113.04 137.964C113.195 143.572 114.873 149.446 118.2 155.229C121.303 145.565 129.505 137.609 141.985 133.734L266.196 95.1657C275.698 92.2154 278.823 83.1833 273.176 74.9919L249.68 42.03C244.033 33.8385 231.753 29.5898 222.252 32.5401Z" fill="#3A33D9"/>
<mask id="mask1" mask-type="alpha" maskUnits="userSpaceOnUse" x="73" y="31" width="203" height="125">
<path d="M222.252 32.5401L83.4487 75.6396C73.9471 78.5899 70.8221 87.622 76.4688 95.8134L99.9652 128.775C102.941 133.092 107.758 136.313 113.04 137.964C113.195 143.572 114.873 149.446 118.2 155.229C121.303 145.565 129.505 137.609 141.985 133.734L266.196 95.1657C275.698 92.2154 278.823 83.1833 273.176 74.9919L249.68 42.03C244.033 33.8385 231.753 29.5898 222.252 32.5401Z" fill="#6A65D8"/>
</mask>
<g mask="url(#mask1)">
<g filter="url(#filter6_f)">
<path d="M80.8704 74.5089C86.7028 72.5151 209.144 35.4829 226.156 30.4982C232.474 28.6468 242.244 31.655 245.656 35.4982C248.024 38.166 262.656 56.4982 269.156 65.9982C275.656 75.4982 281.418 84.4646 273.156 87.4554C266.179 89.9807 170.975 119.647 135.656 130.622C129.145 132.645 123.705 135.157 120.585 141.231C117.464 147.305 114.003 143.181 115.103 134.436C115.565 130.761 116.42 127.124 118.586 124.982C120.752 122.84 120.106 121.018 117.615 123C115.125 124.982 113.639 126.934 112.946 128.731C111.725 131.897 107.608 129.679 106.177 127.624C103.747 124.135 87.6751 102.629 80.8705 92.6594C74.0658 82.69 75.0379 76.5028 80.8704 74.5089Z" fill="url(#paint1_linear)" fill-opacity="0.92"/>
</g>
<g filter="url(#filter7_f)">
<path d="M118.244 155C116.52 149.705 112.822 133.636 119.744 125C110.369 129.36 112.021 145.82 118.244 155Z" fill="#B2B0F1"/>
</g>
<g filter="url(#filter8_f)">
<path d="M88.6557 73.9983C77.9195 77.3423 73.2155 81.5584 82.6556 78.4983C143.534 58.7635 186.156 46.1703 222.156 34.4982C231.656 31.4181 241.653 35.0408 247.156 42.4983C254.165 51.9983 258.323 58.1316 271.656 75.4983C273.959 78.4983 278.966 82.0175 272.156 73.4983C261.448 57.445 258.111 52.7491 250.656 42.4983C242.656 31.4983 232.156 28.8775 222.156 31.9982C173.875 47.0654 141.889 57.4174 88.6557 73.9983Z" fill="white"/>
</g>
<g filter="url(#filter9_f)">
<path d="M268.889 97.3067C273.482 95.8152 276.389 89.5485 270.889 91.3066C213.389 109.687 190.889 116.807 135.889 133.807C130.222 135.973 118.889 141.707 120.889 157.307C121.842 148.955 133.389 140.554 140.389 138.307C194.889 120.807 218.08 113.807 268.889 97.3067Z" fill="white" fill-opacity="0.76"/>
</g>
<g filter="url(#filter10_f)">
<path d="M76.3905 95.9758C84.3229 107.721 96.8771 124.795 100.823 130.221C104.823 135.721 105.073 132.221 101.323 127.221C96.8228 121.221 84.2898 103.957 75.3228 91.2206C73.5887 88.7576 72.2586 89.8581 76.3905 95.9758Z" fill="white"/>
</g>
</g>
<g filter="url(#filter11_d)">
<path d="M102.313 85.2423L103.615 84.8192L106.643 88.8442L108.751 88.1592L108.579 84.3408C108.569 83.9336 108.625 83.6236 108.748 83.4108C108.871 83.1979 109.097 83.0378 109.428 82.9303L110.141 82.6987L110.866 83.6626L109.89 83.9799L110.045 87.366C110.055 87.6869 110.03 87.911 109.972 88.0381C109.923 88.1619 109.826 88.28 109.679 88.3926L109.728 88.4577C109.998 88.4239 110.26 88.4306 110.514 88.4777C110.768 88.5248 111.113 88.6668 111.548 88.9035L115.651 91.0233L116.596 90.716L117.321 91.68L116.36 91.9922C116.112 92.0728 115.832 92.0936 115.52 92.0546C115.201 92.0069 114.799 91.8567 114.313 91.6039L109.456 89.097L107.348 89.7821L110.454 93.9113L109.152 94.3344L102.313 85.2423ZM125.029 89.1755C124.564 89.3266 124.15 89.3315 123.786 89.1903C123.433 89.0457 123.113 88.8254 122.827 88.5296L122.749 88.5548C122.887 89.0287 122.833 89.4354 122.586 89.7747C122.34 90.1141 121.938 90.3744 121.38 90.5558C120.532 90.8311 119.734 90.8637 118.984 90.6534C118.245 90.4398 117.64 90.0203 117.17 89.3951C116.693 88.7612 116.601 88.1859 116.894 87.6692C117.197 87.1492 117.933 86.6995 119.1 86.3201L120.682 85.8063L120.182 85.142C119.823 84.6644 119.393 84.35 118.894 84.1989C118.394 84.0478 117.824 84.0764 117.184 84.2846C116.698 84.4424 116.358 84.6662 116.165 84.956C115.981 85.2425 115.896 85.5729 115.907 85.9474L114.722 85.603C114.665 85.1677 114.779 84.747 115.065 84.3407C115.345 83.9257 115.846 83.6007 116.569 83.3656C117.541 83.05 118.446 83.0046 119.283 83.2294C120.121 83.4543 120.808 83.9228 121.344 84.6348L124.126 88.3342L125.041 88.037L125.727 88.9489L125.029 89.1755ZM120.915 89.6045C121.225 89.5038 121.486 89.3811 121.699 89.2363C121.912 89.0916 122.069 88.9326 122.17 88.7592C122.271 88.5859 122.318 88.4086 122.31 88.2274C122.302 88.0462 122.233 87.8688 122.102 87.6951L121.27 86.5879L119.626 87.1218C118.913 87.3535 118.457 87.6099 118.257 87.891C118.067 88.1688 118.096 88.4727 118.344 88.8027L118.55 89.0762C118.798 89.4062 119.13 89.617 119.547 89.7087C119.973 89.7971 120.429 89.7624 120.915 89.6045ZM122.441 81.6524L123.681 81.2494L125.798 84.063L127.394 83.5442L127.396 80.9824C127.392 80.7892 127.406 80.628 127.438 80.4989C127.463 80.3611 127.507 80.2494 127.571 80.1637C127.636 80.078 127.718 80.008 127.819 79.9537C127.913 79.8907 128.032 79.8357 128.177 79.7887L128.905 79.552L129.591 80.4638L128.63 80.7761L128.629 82.8514C128.631 82.9912 128.627 83.1058 128.617 83.1955C128.607 83.2851 128.591 83.366 128.568 83.4383C128.539 83.5018 128.501 83.5627 128.455 83.621C128.402 83.6705 128.334 83.7251 128.25 83.7848L128.289 83.8369C128.526 83.7924 128.758 83.7927 128.985 83.8379C129.215 83.871 129.517 83.9893 129.888 84.1927L132.485 85.6184L133.399 85.3213L134.085 86.2331L133.186 86.5252C132.917 86.6125 132.627 86.6367 132.314 86.5977C132.006 86.5466 131.631 86.3983 131.189 86.1529L128.06 84.43L126.464 84.9488L128.737 87.9708L127.497 88.3737L122.441 81.6524ZM142.824 83.5882C142.286 83.7629 141.733 83.8399 141.165 83.8193C140.596 83.7987 140.038 83.6884 139.489 83.4886C138.943 83.2767 138.423 82.9865 137.927 82.6181C137.425 82.241 136.971 81.7832 136.566 81.2448C136.168 80.7151 135.893 80.2046 135.742 79.7133C135.591 79.222 135.557 78.7741 135.638 78.3694C135.723 77.9527 135.926 77.5896 136.246 77.2802C136.567 76.9708 136.995 76.7288 137.533 76.5542C138.07 76.3796 138.618 76.3043 139.176 76.3283C139.745 76.3489 140.307 76.4634 140.862 76.672C141.411 76.8718 141.937 77.1603 142.439 77.5374C142.941 77.9145 143.392 78.3679 143.79 78.8977C144.195 79.4361 144.473 79.9509 144.624 80.4422C144.768 80.9248 144.798 81.3744 144.713 81.7912C144.621 82.1992 144.415 82.5579 144.095 82.8673C143.785 83.1733 143.361 83.4136 142.824 83.5882ZM142.128 82.6634C142.8 82.4451 143.217 82.0935 143.379 81.6085C143.542 81.1234 143.355 80.5249 142.82 79.8128L142.094 78.8489C141.559 78.1368 140.949 77.6759 140.264 77.4662C139.579 77.2565 138.9 77.2608 138.228 77.4791C137.557 77.6973 137.14 78.049 136.977 78.534C136.815 79.0191 137.001 79.6176 137.537 80.3297L138.262 81.2936C138.798 82.0057 139.408 82.4666 140.093 82.6763C140.778 82.886 141.456 82.8817 142.128 82.6634ZM143.302 74.8743L144.542 74.4713L145.365 75.5655L145.427 75.5453C145.314 75.0527 145.378 74.6427 145.621 74.3153C145.867 73.976 146.269 73.7156 146.827 73.5343C147.323 73.3731 147.835 73.3095 148.362 73.3436C148.889 73.3776 149.407 73.5013 149.914 73.7146C150.432 73.9245 150.927 74.223 151.398 74.6102C151.88 74.994 152.323 75.4552 152.728 75.9936C153.133 76.532 153.421 77.0435 153.593 77.528C153.775 78.0092 153.835 78.4488 153.775 78.8468C153.724 79.2414 153.56 79.5867 153.281 79.8826C153.002 80.1786 152.614 80.4071 152.118 80.5683C151.033 80.9209 149.939 80.7576 148.837 80.0784L148.775 80.0985L151.557 83.7979L150.317 84.2008L143.302 74.8743ZM151.072 79.7413C151.774 79.5129 152.19 79.1509 152.319 78.6552C152.441 78.1509 152.277 77.5991 151.826 76.9999L150.964 75.8536C150.513 75.2544 149.949 74.8379 149.272 74.6041C148.588 74.3617 147.894 74.3546 147.192 74.583C146.913 74.6736 146.67 74.7957 146.464 74.9491C146.262 75.0905 146.11 75.2478 146.009 75.4212C145.908 75.5945 145.862 75.7821 145.873 75.9841C145.887 76.174 145.963 76.3601 146.1 76.5424L147.981 79.0434C148.144 79.2605 148.343 79.4391 148.577 79.5792C148.815 79.7073 149.072 79.8019 149.35 79.863C149.621 79.9155 149.903 79.9318 150.197 79.912C150.501 79.8888 150.793 79.8319 151.072 79.7413ZM152.294 71.9525L157.348 70.3105L158.034 71.2223L154.22 72.4614L158.59 78.2709L157.35 78.6739L152.294 71.9525ZM169.673 74.67C169.208 74.8211 168.793 74.826 168.43 74.6848C168.077 74.5402 167.757 74.3199 167.47 74.0241L167.392 74.0493C167.53 74.5232 167.476 74.9298 167.23 75.2692C166.983 75.6086 166.581 75.8689 166.023 76.0503C165.176 76.3256 164.377 76.3582 163.627 76.1479C162.888 75.9343 162.283 75.5148 161.813 74.8896C161.336 74.2557 161.244 73.6804 161.537 73.1637C161.84 72.6437 162.576 72.194 163.744 71.8146L165.325 71.3008L164.825 70.6365C164.466 70.1589 164.037 69.8445 163.537 69.6934C163.038 69.5423 162.468 69.5709 161.827 69.779C161.341 69.9369 161.002 70.1607 160.808 70.4505C160.625 70.737 160.539 71.0674 160.551 71.4419L159.366 71.0975C159.308 70.6622 159.423 70.2415 159.709 69.8352C159.988 69.4202 160.489 69.0952 161.213 68.8601C162.184 68.5445 163.089 68.4991 163.927 68.7239C164.765 68.9488 165.451 69.4172 165.987 70.1293L168.77 73.8287L169.684 73.5315L170.37 74.4433L169.673 74.67ZM165.558 75.099C165.868 74.9983 166.13 74.8755 166.342 74.7308C166.555 74.5861 166.712 74.427 166.813 74.2537C166.914 74.0804 166.961 73.9031 166.953 73.7219C166.946 73.5407 166.876 73.3632 166.746 73.1896L165.913 72.0824L164.27 72.6163C163.557 72.848 163.1 73.1044 162.9 73.3855C162.71 73.6633 162.739 73.9672 162.988 74.2972L163.193 74.5707C163.442 74.9007 163.774 75.1115 164.19 75.2032C164.617 75.2916 165.073 75.2568 165.558 75.099ZM167.084 67.1468L168.325 66.7439L170.431 69.5445L174.431 68.245L172.324 65.4444L173.564 65.0414L178.62 71.7628L177.38 72.1658L175.116 69.1568L171.117 70.4563L173.38 73.4653L172.14 73.8682L167.084 67.1468ZM176.198 64.1857L177.407 63.7929L180.209 67.5183L181.3 69.1738L181.362 69.1537L181.276 67.3984L181.53 62.4531L182.677 62.0803L187.733 68.8017L186.524 69.1946L183.722 65.4692L182.631 63.8137L182.569 63.8338L182.655 65.589L182.401 70.5344L181.253 70.9071L176.198 64.1857ZM192.748 67.3669C191.931 67.6322 191.192 67.7265 190.53 67.6499C189.868 67.5732 189.218 67.3682 188.582 67.0347L189.042 66.1073C189.497 66.3701 189.977 66.5383 190.482 66.6118C190.991 66.6733 191.515 66.6167 192.052 66.4421C192.703 66.2306 193.109 65.9746 193.268 65.6741C193.438 65.3703 193.406 65.062 193.171 64.7494L193.053 64.5931C192.799 64.2544 192.466 64.0436 192.057 63.9606C191.651 63.8655 191.2 63.8986 190.704 64.0597L188.999 64.6138L188.342 63.7411L189.892 63.2374C190.388 63.0762 190.709 62.8695 190.853 62.6172C190.998 62.3649 190.956 62.0867 190.727 61.7828L190.61 61.6265C190.394 61.3399 190.085 61.1595 189.682 61.0851C189.282 60.9988 188.762 61.0597 188.121 61.2678C187.594 61.4391 187.229 61.6713 187.025 61.9645C186.815 62.249 186.72 62.5768 186.742 62.9479L185.48 62.6287C185.434 62.1573 185.557 61.7228 185.85 61.3252C186.146 60.9155 186.692 60.5814 187.488 60.3229C188.532 59.9837 189.422 59.8942 190.16 60.0543C190.898 60.2145 191.479 60.5767 191.904 61.1412C192.217 61.558 192.331 61.9317 192.245 62.2621C192.17 62.5892 191.92 62.8811 191.496 63.1378L191.535 63.1899C192.156 63.0747 192.71 63.1107 193.198 63.298C193.69 63.4731 194.096 63.7735 194.416 64.199C194.906 64.8503 195 65.4627 194.698 66.0362C194.4 66.5976 193.75 67.0412 192.748 67.3669ZM201.273 64.5968C200.736 64.7714 200.183 64.8484 199.614 64.8278C199.046 64.8072 198.487 64.697 197.938 64.4971C197.393 64.2852 196.873 63.9951 196.377 63.6267C195.875 63.2495 195.421 62.7918 195.016 62.2534C194.618 61.7237 194.343 61.2132 194.192 60.7219C194.041 60.2306 194.006 59.7826 194.088 59.3779C194.173 58.9612 194.376 58.5982 194.696 58.2888C195.016 57.9794 195.445 57.7374 195.982 57.5628C196.52 57.3882 197.068 57.3129 197.626 57.3368C198.194 57.3574 198.756 57.472 199.312 57.6805C199.861 57.8804 200.386 58.1688 200.889 58.546C201.391 58.9231 201.841 59.3765 202.24 59.9062C202.645 60.4446 202.923 60.9595 203.074 61.4507C203.218 61.9333 203.248 62.383 203.162 62.7997C203.071 63.2078 202.865 63.5665 202.544 63.8758C202.234 64.1819 201.811 64.4222 201.273 64.5968ZM200.578 63.672C201.249 63.4537 201.666 63.1021 201.829 62.617C201.991 62.132 201.805 61.5334 201.269 60.8213L200.544 59.8574C200.008 59.1453 199.398 58.6844 198.713 58.4748C198.028 58.2651 197.35 58.2694 196.678 58.4876C196.006 58.7059 195.589 59.0575 195.427 59.5426C195.264 60.0276 195.451 60.6262 195.987 61.3383L196.712 62.3022C197.247 63.0143 197.858 63.4751 198.543 63.6848C199.228 63.8945 199.906 63.8902 200.578 63.672ZM201.751 55.8828L205.782 54.5732C206.433 54.3617 207.062 54.3518 207.669 54.5435C208.27 54.7266 208.766 55.0786 209.158 55.5997C209.792 56.442 209.626 57.0849 208.661 57.5282L208.7 57.5803C209.352 57.4223 209.936 57.4378 210.452 57.627C210.971 57.8042 211.387 58.1012 211.701 58.518C211.903 58.7872 212.044 59.0602 212.124 59.3369C212.214 59.6103 212.234 59.8684 212.185 60.1112C212.136 60.354 212.02 60.5755 211.836 60.7757C211.646 60.9672 211.38 61.1183 211.039 61.2292L206.807 62.6042L201.751 55.8828ZM210.021 60.4903C210.393 60.3694 210.625 60.1912 210.718 59.9557C210.811 59.7202 210.743 59.4505 210.514 59.1466L210.289 58.847C210.06 58.543 209.776 58.3438 209.434 58.2493C209.093 58.1548 208.737 58.1681 208.365 58.2889L205.745 59.1402L207.401 61.3415L210.021 60.4903ZM207.573 57.4926C207.914 57.3818 208.125 57.2267 208.207 57.0273C208.292 56.8159 208.233 56.5756 208.031 56.3064L207.815 56.0198C207.613 55.7506 207.361 55.5784 207.06 55.5033C206.763 55.4161 206.444 55.4279 206.103 55.5387L203.638 56.3396L205.108 58.2935L207.573 57.4926ZM221.189 57.9314C220.724 58.0825 220.309 58.0874 219.946 57.9461C219.593 57.8015 219.273 57.5813 218.986 57.2855L218.909 57.3106C219.046 57.7846 218.992 58.1912 218.746 58.5306C218.5 58.8699 218.097 59.1303 217.539 59.3116C216.692 59.587 215.893 59.6195 215.144 59.4092C214.404 59.1956 213.799 58.7762 213.329 58.1509C212.852 57.517 212.76 56.9417 213.053 56.4251C213.357 55.9051 214.092 55.4554 215.26 55.0759L216.841 54.5622L216.342 53.8978C215.982 53.4202 215.553 53.1059 215.053 52.9548C214.554 52.8037 213.984 52.8322 213.343 53.0404C212.857 53.1982 212.518 53.422 212.324 53.7119C212.141 53.9983 212.055 54.3288 212.067 54.7032L210.882 54.3588C210.825 53.9236 210.939 53.5028 211.225 53.0965C211.504 52.6815 212.006 52.3565 212.729 52.1215C213.701 51.8058 214.605 51.7604 215.443 51.9853C216.281 52.2101 216.968 52.6786 217.503 53.3907L220.286 57.0901L221.201 56.7929L221.886 57.7047L221.189 57.9314ZM217.075 58.3604C217.385 58.2596 217.646 58.1369 217.859 57.9922C218.071 57.8474 218.228 57.6884 218.329 57.5151C218.43 57.3417 218.477 57.1645 218.469 56.9833C218.462 56.8021 218.393 56.6246 218.262 56.4509L217.429 55.3437L215.786 55.8776C215.073 56.1093 214.616 56.3657 214.416 56.6469C214.226 56.9246 214.256 57.2285 214.504 57.5585L214.71 57.8321C214.958 58.1621 215.29 58.3729 215.706 58.4646C216.133 58.5529 216.589 58.5182 217.075 58.3604ZM220.72 50.8544L217.991 51.7409L217.305 50.8291L224.002 48.6531L224.688 49.565L221.96 50.4514L226.33 56.261L225.089 56.664L220.72 50.8544ZM225.625 48.1259L226.865 47.7229L228.697 50.1588L230.976 49.4184C231.782 49.1565 232.567 49.1393 233.329 49.367C234.092 49.5946 234.725 50.0427 235.228 50.7114C235.737 51.3887 235.9 51.9897 235.716 52.5142C235.532 53.0387 235.031 53.4336 234.215 53.6989L230.681 54.8473L225.625 48.1259ZM233.343 52.8475C233.808 52.6964 234.114 52.5051 234.262 52.2735C234.409 52.0419 234.352 51.7524 234.091 51.4051L233.679 50.858C233.418 50.5106 233.106 50.3095 232.743 50.2545C232.374 50.1908 231.956 50.2345 231.491 50.3856L229.383 51.0706L231.235 53.5325L233.343 52.8475ZM119.171 109.834L120.225 109.491C120.242 109.291 120.22 109.066 120.16 108.815C120.1 108.565 119.992 108.276 119.836 107.948C119.679 107.621 119.465 107.242 119.193 106.812C118.921 106.381 118.572 105.884 118.148 105.32L116.708 103.405L122.118 101.647L127.173 108.368L125.933 108.771L121.563 102.962L118.572 103.934L119.346 104.963C119.835 105.614 120.232 106.193 120.536 106.699C120.85 107.203 121.086 107.645 121.244 108.026C121.412 108.403 121.514 108.727 121.55 108.996C121.579 109.257 121.565 109.477 121.508 109.658C121.435 109.887 121.307 110.075 121.121 110.221C120.929 110.359 120.668 110.482 120.337 110.59L119.857 110.746L119.171 109.834ZM132.94 106.689C132.393 106.867 131.834 106.946 131.266 106.925C130.708 106.901 130.154 106.789 129.605 106.589C129.06 106.378 128.54 106.087 128.044 105.719C127.552 105.338 127.103 104.879 126.698 104.341C126.3 103.811 126.02 103.302 125.859 102.814C125.708 102.323 125.673 101.875 125.755 101.47C125.84 101.053 126.037 100.692 126.347 100.386C126.668 100.077 127.102 99.833 127.649 99.655C128.187 99.4804 128.729 99.4068 129.277 99.4341C129.825 99.4614 130.36 99.574 130.882 99.7719C131.397 99.9611 131.882 100.23 132.338 100.579C132.804 100.925 133.216 101.337 133.575 101.814L133.948 102.309L128.197 104.178L128.432 104.491C128.647 104.777 128.901 105.03 129.194 105.248C129.491 105.454 129.806 105.616 130.139 105.735C130.483 105.85 130.839 105.913 131.207 105.923C131.585 105.93 131.96 105.873 132.332 105.752C132.838 105.588 133.202 105.345 133.424 105.024C133.656 104.7 133.735 104.318 133.661 103.878L134.946 104.124C135.034 104.669 134.912 105.173 134.58 105.638C134.241 106.093 133.695 106.444 132.94 106.689ZM128.306 100.528C127.965 100.639 127.694 100.791 127.493 100.986C127.286 101.172 127.148 101.39 127.078 101.64C127.019 101.886 127.027 102.153 127.103 102.442C127.172 102.722 127.318 103.01 127.54 103.305L127.609 103.396L132.027 101.961L131.919 101.818C131.468 101.218 130.913 100.805 130.252 100.576C129.595 100.336 128.947 100.32 128.306 100.528ZM140.466 100.208L140.388 100.233C140.316 100.548 140.159 100.842 139.914 101.116C139.664 101.381 139.244 101.61 138.655 101.801C137.838 102.066 137.075 102.104 136.366 101.913C135.65 101.713 135.031 101.266 134.508 100.571L132.725 98.2004L133.965 97.7975L135.68 100.077C136.294 100.893 137.174 101.115 138.321 100.742C138.91 100.551 139.347 100.328 139.632 100.074C139.92 99.807 139.959 99.5348 139.75 99.2569L137.732 96.5735L138.972 96.1706L144.028 102.892L142.788 103.295L140.466 100.208ZM149.789 101.214C149.242 101.392 148.684 101.471 148.115 101.45C147.557 101.427 147.003 101.315 146.454 101.115C145.909 100.903 145.389 100.613 144.893 100.244C144.401 99.8638 143.953 99.4044 143.548 98.866C143.149 98.3363 142.869 97.8274 142.708 97.3395C142.557 96.8482 142.522 96.4003 142.604 95.9956C142.689 95.5789 142.887 95.2175 143.197 94.9115C143.517 94.6021 143.951 94.3584 144.499 94.1804C145.036 94.0058 145.579 93.9322 146.126 93.9595C146.674 93.9868 147.209 94.0994 147.731 94.2973C148.246 94.4865 148.731 94.7556 149.187 95.1047C149.653 95.4505 150.065 95.8621 150.424 96.3398L150.797 96.8347L145.046 98.7034L145.281 99.016C145.496 99.3026 145.751 99.555 146.043 99.7733C146.34 99.9795 146.655 100.142 146.988 100.26C147.332 100.376 147.688 100.438 148.056 100.449C148.434 100.455 148.809 100.398 149.181 100.277C149.687 100.113 150.052 99.8703 150.273 99.5497C150.506 99.2257 150.584 98.8435 150.51 98.4029L151.796 98.6499C151.883 99.1941 151.761 99.6984 151.429 100.163C151.09 100.619 150.544 100.969 149.789 101.214ZM145.155 95.0532C144.814 95.164 144.543 95.3168 144.342 95.5117C144.135 95.6979 143.997 95.9157 143.927 96.1653C143.868 96.4114 143.876 96.6789 143.952 96.9677C144.021 97.2477 144.167 97.5354 144.389 97.8307L144.458 97.9219L148.876 96.4864L148.768 96.3431C148.317 95.7439 147.762 95.3301 147.101 95.1016C146.444 94.8611 145.796 94.845 145.155 95.0532ZM150.117 92.5495L151.357 92.1466L153.463 94.9472L157.463 93.6477L155.356 90.8471L156.596 90.4441L161.652 97.1655L160.412 97.5685L158.149 94.5595L154.149 95.859L156.412 98.868L155.172 99.2709L150.117 92.5495ZM159.23 89.5884L160.439 89.1955L163.241 92.921L164.332 94.5765L164.394 94.5563L164.309 92.8011L164.563 87.8557L165.71 87.483L170.765 94.2044L169.556 94.5973L166.754 90.8719L165.663 89.2164L165.601 89.2365L165.687 90.9917L165.433 95.9371L164.286 96.3098L159.23 89.5884ZM176.524 92.5279C175.976 92.7058 175.418 92.7845 174.85 92.7639C174.291 92.7399 173.738 92.628 173.189 92.4282C172.644 92.2163 172.123 91.9262 171.627 91.5577C171.136 91.1773 170.687 90.7178 170.282 90.1794C169.884 89.6497 169.604 89.1409 169.443 88.6529C169.292 88.1617 169.257 87.7137 169.338 87.309C169.424 86.8923 169.621 86.5309 169.931 86.2249C170.251 85.9155 170.685 85.6718 171.233 85.4939C171.77 85.3192 172.313 85.2456 172.861 85.2729C173.409 85.3002 173.944 85.4128 174.465 85.6107C174.981 85.7999 175.466 86.0691 175.921 86.4181C176.387 86.7639 176.8 87.1756 177.159 87.6532L177.531 88.1482L171.78 90.0168L172.015 90.3295C172.231 90.616 172.485 90.8684 172.778 91.0867C173.074 91.2929 173.389 91.4553 173.723 91.5739C174.067 91.6891 174.423 91.7518 174.79 91.762C175.168 91.7688 175.544 91.7118 175.916 91.5909C176.422 91.4263 176.786 91.1838 177.008 90.8631C177.24 90.5392 177.319 90.1569 177.245 89.7163L178.53 89.9633C178.618 90.5075 178.496 91.0119 178.164 91.4764C177.825 91.9323 177.278 92.2827 176.524 92.5279ZM171.89 86.3666C171.548 86.4774 171.278 86.6302 171.077 86.8251C170.87 87.0113 170.731 87.2292 170.662 87.4787C170.603 87.7248 170.611 87.9923 170.687 88.2811C170.756 88.5612 170.902 88.8488 171.124 89.1441L171.192 89.2353L175.61 87.7998L175.503 87.6565C175.052 87.0573 174.496 86.6435 173.836 86.415C173.179 86.1745 172.53 86.1584 171.89 86.3666ZM181.326 87.4015L179.719 85.2652C180.54 84.9551 181.071 84.5666 181.311 84.0995C181.562 83.629 181.482 83.1203 181.07 82.5732L180.933 82.3908C180.6 81.9479 180.17 81.6499 179.643 81.4969C179.11 81.3351 178.564 81.3449 178.006 81.5262C177.407 81.721 177.034 82.0204 176.888 82.4245C176.752 82.8253 176.789 83.2672 176.998 83.7504L175.576 83.7584C175.46 83.4503 175.396 83.1418 175.382 82.8329C175.372 82.5119 175.429 82.2122 175.554 81.9339C175.683 81.6435 175.891 81.3814 176.178 81.1476C176.465 80.9139 176.852 80.7181 177.338 80.5602C178.299 80.248 179.225 80.2226 180.116 80.4841C181.007 80.7457 181.737 81.2542 182.305 82.0097C182.619 82.4266 182.805 82.8198 182.865 83.1895C182.928 83.5472 182.907 83.8782 182.802 84.1827C182.696 84.4871 182.522 84.7598 182.279 85.0009C182.036 85.2419 181.763 85.4439 181.462 85.6068L182.52 87.0136L181.326 87.4015ZM184.086 90.0708C183.755 90.1782 183.46 90.1876 183.201 90.0991C182.952 90.0071 182.742 89.8483 182.572 89.6225L182.445 89.4532C182.275 89.2274 182.21 89.0215 182.25 88.8356C182.301 88.6462 182.492 88.4979 182.822 88.3904C183.153 88.283 183.443 88.2752 183.692 88.3671C183.952 88.4557 184.166 88.6129 184.336 88.8387L184.463 89.008C184.633 89.2338 184.693 89.4413 184.642 89.6306C184.602 89.8166 184.417 89.9633 184.086 90.0708Z" fill="white"/>
</g>
<defs>
<filter id="filter0_f" x="1.58936" y="-5.69641" width="243.239" height="134.923" filterUnits="userSpaceOnUse" color-interpolation-filters="sRGB">
<feFlood flood-opacity="0" result="BackgroundImageFix"/>
<feBlend mode="normal" in="SourceGraphic" in2="BackgroundImageFix" result="shape"/>
<feGaussianBlur stdDeviation="4" result="effect1_foregroundBlur"/>
</filter>
<filter id="filter1_f" x="42.7115" y="101.259" width="10.0249" height="32.1567" filterUnits="userSpaceOnUse" color-interpolation-filters="sRGB">
<feFlood flood-opacity="0" result="BackgroundImageFix"/>
<feBlend mode="normal" in="SourceGraphic" in2="BackgroundImageFix" result="shape"/>
<feGaussianBlur stdDeviation="0.945785" result="effect1_foregroundBlur"/>
</filter>
<filter id="filter2_f" x="7.1778" y="1.12286" width="228.106" height="62.831" filterUnits="userSpaceOnUse" color-interpolation-filters="sRGB">
<feFlood flood-opacity="0" result="BackgroundImageFix"/>
<feBlend mode="normal" in="SourceGraphic" in2="BackgroundImageFix" result="shape"/>
<feGaussianBlur stdDeviation="1.89157" result="effect1_foregroundBlur"/>
</filter>
<filter id="filter3_f" x="46.9771" y="55.3248" width="191.205" height="83.1094" filterUnits="userSpaceOnUse" color-interpolation-filters="sRGB">
<feFlood flood-opacity="0" result="BackgroundImageFix"/>
<feBlend mode="normal" in="SourceGraphic" in2="BackgroundImageFix" result="shape"/>
<feGaussianBlur stdDeviation="2.36446" result="effect1_foregroundBlur"/>
</filter>
<filter id="filter4_f" x="3.47076" y="66.2628" width="36.2519" height="48.2474" filterUnits="userSpaceOnUse" color-interpolation-filters="sRGB">
<feFlood flood-opacity="0" result="BackgroundImageFix"/>
<feBlend mode="normal" in="SourceGraphic" in2="BackgroundImageFix" result="shape"/>
<feGaussianBlur stdDeviation="1.89157" result="effect1_foregroundBlur"/>
</filter>
<filter id="filter5_d" x="24.3143" y="20.8931" width="148.217" height="69.8641" filterUnits="userSpaceOnUse" color-interpolation-filters="sRGB">
<feFlood flood-opacity="0" result="BackgroundImageFix"/>
<feColorMatrix in="SourceAlpha" type="matrix" values="0 0 0 0 0 0 0 0 0 0 0 0 0 0 0 0 0 0 127 0"/>
<feOffset dy="3.56851"/>
<feGaussianBlur stdDeviation="1.78425"/>
<feColorMatrix type="matrix" values="0 0 0 0 1 0 0 0 0 0.290666 0 0 0 0 0.0666667 0 0 0 0.92 0"/>
<feBlend mode="normal" in2="BackgroundImageFix" result="effect1_dropShadow"/>
<feBlend mode="normal" in="SourceGraphic" in2="effect1_dropShadow" result="shape"/>
</filter>
<filter id="filter6_f" x="66.1245" y="19.9374" width="221.123" height="134.176" filterUnits="userSpaceOnUse" color-interpolation-filters="sRGB">
<feFlood flood-opacity="0" result="BackgroundImageFix"/>
<feBlend mode="normal" in="SourceGraphic" in2="BackgroundImageFix" result="shape"/>
<feGaussianBlur stdDeviation="5" result="effect1_foregroundBlur"/>
</filter>
<filter id="filter7_f" x="111.145" y="123" width="10.5995" height="34" filterUnits="userSpaceOnUse" color-interpolation-filters="sRGB">
<feFlood flood-opacity="0" result="BackgroundImageFix"/>
<feBlend mode="normal" in="SourceGraphic" in2="BackgroundImageFix" result="shape"/>
<feGaussianBlur stdDeviation="1" result="effect1_foregroundBlur"/>
</filter>
<filter id="filter8_f" x="73.5747" y="26.7746" width="206.023" height="56.7825" filterUnits="userSpaceOnUse" color-interpolation-filters="sRGB">
<feFlood flood-opacity="0" result="BackgroundImageFix"/>
<feBlend mode="normal" in="SourceGraphic" in2="BackgroundImageFix" result="shape"/>
<feGaussianBlur stdDeviation="2" result="effect1_foregroundBlur"/>
</filter>
<filter id="filter9_f" x="115.655" y="85.9982" width="163.231" height="76.3084" filterUnits="userSpaceOnUse" color-interpolation-filters="sRGB">
<feFlood flood-opacity="0" result="BackgroundImageFix"/>
<feBlend mode="normal" in="SourceGraphic" in2="BackgroundImageFix" result="shape"/>
<feGaussianBlur stdDeviation="2.5" result="effect1_foregroundBlur"/>
</filter>
<filter id="filter10_f" x="69.6558" y="85.9983" width="38.33" height="51.0131" filterUnits="userSpaceOnUse" color-interpolation-filters="sRGB">
<feFlood flood-opacity="0" result="BackgroundImageFix"/>
<feBlend mode="normal" in="SourceGraphic" in2="BackgroundImageFix" result="shape"/>
<feGaussianBlur stdDeviation="2" result="effect1_foregroundBlur"/>
</filter>
<filter id="filter11_d" x="98.3494" y="47.723" width="141.404" height="70.95" filterUnits="userSpaceOnUse" color-interpolation-filters="sRGB">
<feFlood flood-opacity="0" result="BackgroundImageFix"/>
<feColorMatrix in="SourceAlpha" type="matrix" values="0 0 0 0 0 0 0 0 0 0 0 0 0 0 0 0 0 0 127 0"/>
<feOffset dy="3.96364"/>
<feGaussianBlur stdDeviation="1.98182"/>
<feColorMatrix type="matrix" values="0 0 0 0 0.115694 0 0 0 0 0.160792 0 0 0 0 0.566667 0 0 0 0.42 0"/>
<feBlend mode="normal" in2="BackgroundImageFix" result="effect1_dropShadow"/>
<feBlend mode="normal" in="SourceGraphic" in2="effect1_dropShadow" result="shape"/>
</filter>
<linearGradient id="paint0_linear" x1="111.373" y1="27.4874" x2="124.141" y2="74.7766" gradientUnits="userSpaceOnUse">
<stop stop-color="white" stop-opacity="0.5"/>
<stop offset="1" stop-color="#FFCEB3" stop-opacity="0.4"/>
</linearGradient>
<linearGradient id="paint1_linear" x1="183.742" y1="45.0001" x2="197.242" y2="95.0001" gradientUnits="userSpaceOnUse">
<stop offset="0.135625" stop-color="#DCDBFF"/>
<stop offset="1" stop-color="#7A74FF"/>
</linearGradient>
</defs>
</svg>
