<svg width="33" height="17" viewBox="0 0 33 17" fill="none" xmlns="http://www.w3.org/2000/svg">
<path d="M10.4013 11.1545C9.99065 11.1545 9.62398 11.0848 9.30132 10.9455C8.97865 10.8061 8.70365 10.6081 8.47632 10.3515C8.24898 10.0875 8.07298 9.77213 7.94832 9.40546C7.83098 9.03146 7.77232 8.61713 7.77232 8.16246C7.77232 7.70779 7.83098 7.29713 7.94832 6.93046C8.07298 6.55646 8.24898 6.24113 8.47632 5.98446C8.70365 5.72046 8.97865 5.51879 9.30132 5.37946C9.62398 5.24013 9.99065 5.17046 10.4013 5.17046C10.8193 5.17046 11.186 5.24379 11.5013 5.39046C11.824 5.53713 12.0916 5.74246 12.3043 6.00646C12.517 6.26313 12.6747 6.56379 12.7773 6.90846C12.8873 7.25313 12.9423 7.62346 12.9423 8.01946V8.47046H9.01532V8.65746C9.01532 9.09746 9.14365 9.46046 9.40032 9.74646C9.66432 10.0251 10.0383 10.1645 10.5223 10.1645C10.8743 10.1645 11.1713 10.0875 11.4133 9.93346C11.6553 9.77946 11.8606 9.57046 12.0293 9.30646L12.7333 9.99946C12.5207 10.3515 12.2127 10.6338 11.8093 10.8465C11.406 11.0518 10.9366 11.1545 10.4013 11.1545ZM10.4013 6.10546C10.196 6.10546 10.0053 6.14213 9.82932 6.21546C9.66065 6.28879 9.51398 6.39146 9.38932 6.52346C9.27198 6.65546 9.18032 6.81313 9.11432 6.99646C9.04832 7.17979 9.01532 7.38146 9.01532 7.60146V7.67846H11.6773V7.56846C11.6773 7.12846 11.5637 6.77646 11.3363 6.51246C11.109 6.24113 10.7973 6.10546 10.4013 6.10546ZM14.2696 11.0225V5.30246H15.4686V6.24846H15.5236C15.6483 5.94046 15.8353 5.68379 16.0846 5.47846C16.3413 5.27313 16.6896 5.17046 17.1296 5.17046C17.7163 5.17046 18.171 5.36479 18.4936 5.75346C18.8236 6.13479 18.9886 6.68113 18.9886 7.39246V11.0225H17.7896V7.54646C17.7896 6.65179 17.4303 6.20446 16.7116 6.20446C16.5576 6.20446 16.4036 6.22646 16.2496 6.27046C16.103 6.30713 15.971 6.36579 15.8536 6.44646C15.7363 6.52713 15.641 6.62979 15.5676 6.75446C15.5016 6.87913 15.4686 7.02579 15.4686 7.19446V11.0225H14.2696ZM25.6665 11.5615C25.6665 12.1555 25.4391 12.6028 24.9845 12.9035C24.5298 13.2041 23.7891 13.3545 22.7625 13.3545C22.2931 13.3545 21.8935 13.3215 21.5635 13.2555C21.2408 13.1968 20.9731 13.1088 20.7605 12.9915C20.5551 12.8741 20.4048 12.7311 20.3095 12.5625C20.2141 12.3938 20.1665 12.1995 20.1665 11.9795C20.1665 11.6641 20.2508 11.4185 20.4195 11.2425C20.5955 11.0665 20.8375 10.9455 21.1455 10.8795V10.7585C20.7128 10.6191 20.4965 10.3258 20.4965 9.87846C20.4965 9.58513 20.5955 9.36146 20.7935 9.20746C20.9915 9.04613 21.2298 8.93246 21.5085 8.86646V8.82246C21.1711 8.66113 20.9108 8.43746 20.7275 8.15146C20.5515 7.85813 20.4635 7.51713 20.4635 7.12846C20.4635 6.54179 20.6578 6.06879 21.0465 5.70946C21.4425 5.35013 22.0071 5.17046 22.7405 5.17046C23.1438 5.17046 23.4885 5.22913 23.7745 5.34646V5.19246C23.7745 4.93579 23.8331 4.73779 23.9505 4.59846C24.0751 4.45179 24.2658 4.37846 24.5225 4.37846H25.4025V5.34646H24.2365V5.57746C24.4931 5.74613 24.6911 5.96613 24.8305 6.23746C24.9698 6.50146 25.0395 6.79846 25.0395 7.12846C25.0395 7.70779 24.8415 8.17713 24.4455 8.53646C24.0495 8.88846 23.4848 9.06446 22.7515 9.06446C22.4728 9.06446 22.2235 9.03513 22.0035 8.97646C21.8568 9.02779 21.7285 9.10113 21.6185 9.19646C21.5085 9.28446 21.4535 9.40179 21.4535 9.54846C21.4535 9.70246 21.5231 9.81246 21.6625 9.87846C21.8018 9.94446 21.9998 9.97746 22.2565 9.97746H23.6645C24.3685 9.97746 24.8781 10.1205 25.1935 10.4065C25.5088 10.6851 25.6665 11.0701 25.6665 11.5615ZM24.5445 11.6935C24.5445 11.4955 24.4675 11.3378 24.3135 11.2205C24.1668 11.1031 23.8955 11.0445 23.4995 11.0445H21.5635C21.2995 11.1985 21.1675 11.4185 21.1675 11.7045C21.1675 11.9391 21.2591 12.1261 21.4425 12.2655C21.6331 12.4121 21.9521 12.4855 22.3995 12.4855H23.1475C24.0788 12.4855 24.5445 12.2215 24.5445 11.6935ZM22.7515 8.19546C23.1035 8.19546 23.3748 8.11846 23.5655 7.96446C23.7635 7.80313 23.8625 7.55746 23.8625 7.22746V7.00746C23.8625 6.67746 23.7635 6.43546 23.5655 6.28146C23.3748 6.12013 23.1035 6.03946 22.7515 6.03946C22.3995 6.03946 22.1245 6.12013 21.9265 6.28146C21.7358 6.43546 21.6405 6.67746 21.6405 7.00746V7.22746C21.6405 7.55746 21.7358 7.80313 21.9265 7.96446C22.1245 8.11846 22.3995 8.19546 22.7515 8.19546Z" fill="#25A75C"/>
<path d="M8 1.02246H25V-0.977539H8V1.02246ZM25 15.0225H8V17.0225H25V15.0225ZM8 15.0225C4.13401 15.0225 1 11.8885 1 8.02246H-1C-1 12.993 3.02944 17.0225 8 17.0225V15.0225ZM32 8.02246C32 11.8885 28.866 15.0225 25 15.0225V17.0225C29.9706 17.0225 34 12.993 34 8.02246H32ZM25 1.02246C28.866 1.02246 32 4.15647 32 8.02246H34C34 3.0519 29.9706 -0.977539 25 -0.977539V1.02246ZM8 -0.977539C3.02944 -0.977539 -1 3.0519 -1 8.02246H1C1 4.15647 4.13401 1.02246 8 1.02246V-0.977539Z" fill="#25A75C"/>
</svg>
