<svg width="25" height="25" viewBox="0 0 25 25" fill="none" xmlns="http://www.w3.org/2000/svg">
<rect width="25" height="25" fill="white" fill-opacity="0.01"/>
<path d="M9.33704 14.9465C8.6196 14.5323 7.70222 14.7781 7.288 15.4956L5.67529 18.2889C5.26108 19.0063 5.50689 19.9237 6.22433 20.3379L6.54599 20.5236C8.8136 21.8328 11.7092 21.5573 13.4972 19.6444C16.4565 16.4782 18.1735 13.5977 19.362 9.57244C20.0847 7.12487 18.8615 4.57086 16.6513 3.29484L16.2109 3.04058C15.4935 2.62637 14.5761 2.87218 14.1619 3.58962L12.5492 6.38291C12.135 7.10035 12.3808 8.01774 13.0982 8.43195L14.9899 9.52411C14.5418 12.5908 13.7219 14.019 11.2287 16.0387L9.33704 14.9465Z" stroke="#25A75C"/>
</svg>
