<svg width="25" height="25" viewBox="0 0 25 25" fill="none" xmlns="http://www.w3.org/2000/svg">
<rect width="25" height="25" fill="white" fill-opacity="0.01"/>
<mask id="path-1-inside-1" fill="white">
<path fill-rule="evenodd" clip-rule="evenodd" d="M5 11C3.89543 11 3 11.8954 3 13V18C3 19.1046 3.89543 20 5 20H13C14.1046 20 15 19.1046 15 18V17H14V18C14 18.5523 13.5523 19 13 19H5C4.44772 19 4 18.5523 4 18V13C4 12.4477 4.44772 12 5 12V11Z"/>
</mask>
<path d="M5 11H6V10H5V11ZM15 17H16V16H15V17ZM14 17V16H13V17H14ZM5 12V13H6V12H5ZM5 10C3.34315 10 2 11.3431 2 13H4C4 12.4477 4.44772 12 5 12V10ZM2 13V18H4V13H2ZM2 18C2 19.6569 3.34315 21 5 21V19C4.44772 19 4 18.5523 4 18H2ZM5 21H13V19H5V21ZM13 21C14.6569 21 16 19.6569 16 18H14C14 18.5523 13.5523 19 13 19V21ZM16 18V17H14V18H16ZM15 16H14V18H15V16ZM15 18V17H13V18H15ZM13 20C14.1046 20 15 19.1046 15 18H13V20ZM5 20H13V18H5V20ZM3 18C3 19.1046 3.89543 20 5 20V18H5H3ZM3 13V18H5V13H3ZM5 11C3.89543 11 3 11.8954 3 13H5V13V11ZM6 12V11H4V12H6Z" fill="#3A33D9" mask="url(#path-1-inside-1)"/>
<rect x="6.5" y="5.5" width="14" height="10" rx="1.5" stroke="#3A33D9"/>
</svg>
