<svg width="25" height="25" viewBox="0 0 25 25" fill="none" xmlns="http://www.w3.org/2000/svg">
<rect width="25" height="25" fill="white" fill-opacity="0.01"/>
<path fill-rule="evenodd" clip-rule="evenodd" d="M11.7745 12.6793V17.2521H12.8805V13.6795C14.2868 13.5069 15.4103 13.0286 16.2196 12.2192C17.084 11.3548 17.5035 10.1993 17.5035 8.78712C17.5035 7.48005 17.1057 6.40206 16.2886 5.58499C15.4675 4.76386 14.3406 4.37012 12.9485 4.37012C11.6578 4.37012 10.5884 4.68925 9.77019 5.35654C8.96114 6.00104 8.40246 6.91063 8.08241 8.06283L8 8.35949L9.03964 8.6194L9.11975 8.34111C9.39874 7.37198 9.83972 6.65458 10.427 6.16514C11.0165 5.67162 11.845 5.40712 12.9485 5.40712C14.0742 5.40712 14.9008 5.71286 15.4733 6.28531L15.4784 6.29024C16.0715 6.85572 16.3745 7.59412 16.3745 8.53412V9.13212C16.3745 10.1705 16.009 10.9993 15.2797 11.6444C14.5529 12.2874 13.4963 12.6434 12.0682 12.6732L11.7745 12.6793ZM12.0746 16.9519V12.9731C12.0746 12.9731 12.0745 12.9731 12.0746 12.9731V16.9519ZM8.45823 7.85558C8.59622 7.43326 8.76955 7.05116 8.97824 6.70929C8.72323 7.1271 8.52101 7.60497 8.37158 8.14292L8.83152 8.25791C8.8315 8.25798 8.83154 8.25784 8.83152 8.25791L8.37158 8.14292C8.39876 8.04509 8.42756 7.94944 8.45823 7.85558Z" fill="#3A33D9"/>
<path fill-rule="evenodd" clip-rule="evenodd" d="M11.4065 20.5401C11.4065 20.7842 11.4734 21.0207 11.6579 21.1915C11.838 21.3582 12.0797 21.4151 12.3275 21.4151C12.5752 21.4151 12.8169 21.3582 12.997 21.1915C13.1815 21.0207 13.2485 20.7842 13.2485 20.5401V20.3561C13.2485 20.112 13.1815 19.8755 12.997 19.7047C12.8169 19.538 12.5752 19.4811 12.3275 19.4811C12.0797 19.4811 11.838 19.538 11.6579 19.7047C11.4734 19.8755 11.4065 20.112 11.4065 20.3561V20.5401Z" fill="#3A33D9"/>
</svg>
