<svg width="25" height="25" viewBox="0 0 25 25" fill="none" xmlns="http://www.w3.org/2000/svg">
<rect width="25" height="25" fill="white" fill-opacity="0.01"/>
<path d="M11.7745 12.6793V17.2522H12.8805V13.6796C14.2868 13.5069 15.4103 13.0286 16.2196 12.2193C17.9081 10.5308 17.9956 7.29199 16.2886 5.58503C14.6792 3.97562 11.5138 3.9346 9.77019 5.35658C8.80994 6.12152 8.32052 7.20567 8 8.35953L9.03964 8.61944C9.30515 7.69716 9.66933 6.79661 10.427 6.16519C11.7201 5.08265 14.2609 5.07301 15.4733 6.28535L15.4784 6.29028C16.8563 7.60408 16.6699 10.4146 15.2797 11.6445C14.3153 12.4976 13.0107 12.6536 11.7745 12.6793Z" fill="#25A75C"/>
<path d="M11.6579 21.1915C11.9932 21.502 12.6617 21.502 12.997 21.1915C13.3568 20.8585 13.3594 20.0403 12.997 19.7048C12.6617 19.3943 11.9932 19.3943 11.6579 19.7048C11.2955 20.0403 11.2982 20.8585 11.6579 21.1915Z" fill="#25A75C"/>
</svg>
