<svg width="49" height="49" viewBox="0 0 49 49" fill="none" xmlns="http://www.w3.org/2000/svg">
<path fill-rule="evenodd" clip-rule="evenodd" d="M24.5 0C10.969 0 0 10.969 0 24.5C0 38.031 10.969 49 24.5 49C38.031 49 49 38.031 49 24.5C49 10.969 38.031 0 24.5 0ZM15.7913 32.6973L14.3605 31.3917C12.219 29.4377 11 26.9322 11 24.2623C11 18.6253 16.672 13.4426 24.4999 13.4426C32.3278 13.4426 37.9998 18.6253 37.9998 24.2623C37.9998 29.8993 32.3278 35.082 24.4999 35.082C23.4055 35.082 22.3439 34.9773 21.329 34.7805L20.6515 34.6491L20.0371 34.9635C17.9766 36.018 15.4985 36.3016 12.8075 35.9861C13.441 35.3749 14.0071 34.783 14.5322 34.1692L15.7913 32.6973ZM13.0124 32.8691C12.7304 33.1988 12.4325 33.5248 12.1121 33.8558C11.9612 34.0117 11.8053 34.1687 11.6437 34.3277C11.5298 34.4398 11.4129 34.553 11.2931 34.6675C10.1418 35.7669 10.5691 37.7011 12.1462 37.9179C15.2479 38.3442 18.3125 38.0928 20.9483 36.7439C22.0888 36.9651 23.2778 37.082 24.4999 37.082C33.0603 37.082 39.9998 31.3425 39.9998 24.2623C39.9998 17.1822 33.0603 11.4426 24.4999 11.4426C15.9396 11.4426 9 17.1822 9 24.2623C9 27.5749 10.519 30.594 13.0124 32.8691ZM19.6093 24.2092C19.6093 25.284 18.738 26.1554 17.6631 26.1554C16.5883 26.1554 15.7169 25.284 15.7169 24.2092C15.7169 23.1343 16.5883 22.263 17.6631 22.263C18.738 22.263 19.6093 23.1343 19.6093 24.2092ZM24.1295 26.1554C25.2043 26.1554 26.0757 25.284 26.0757 24.2092C26.0757 23.1343 25.2043 22.263 24.1295 22.263C23.0547 22.263 22.1833 23.1343 22.1833 24.2092C22.1833 25.284 23.0547 26.1554 24.1295 26.1554ZM32.5425 24.2092C32.5425 25.284 31.6712 26.1554 30.5964 26.1554C29.5215 26.1554 28.6502 25.284 28.6502 24.2092C28.6502 23.1343 29.5215 22.263 30.5964 22.263C31.6712 22.263 32.5425 23.1343 32.5425 24.2092Z" fill="#2ABB67"/>
</svg>
