<svg width="49" height="49" viewBox="0 0 49 49" fill="none" xmlns="http://www.w3.org/2000/svg">
<path fill-rule="evenodd" clip-rule="evenodd" d="M24.5 0C10.969 0 0 10.969 0 24.5C0 38.031 10.969 49 24.5 49C38.031 49 49 38.031 49 24.5C49 10.969 38.031 0 24.5 0ZM10.0207 30.2443C8.45856 31.8064 8.45856 34.3391 10.0207 35.9012L12.2305 38.111C14.3834 40.264 17.726 40.8143 20.4125 39.2815C29.1139 34.3166 34.0193 29.6073 38.6843 21.086C40.138 18.4304 39.5419 15.1854 37.4459 13.0894L35.1392 10.7827C33.5771 9.22058 31.0444 9.22058 29.4823 10.7827L26.3366 13.9284C24.7745 15.4905 24.7745 18.0231 26.3366 19.5852L28.1033 21.3519C27.1977 23.3464 26.3178 24.7337 25.1965 25.8561C24.0705 26.983 22.6493 27.8947 20.5839 28.8593L18.8232 27.0986C17.2611 25.5365 14.7285 25.5365 13.1664 27.0986L10.0207 30.2443ZM11.4349 34.487C10.6538 33.7059 10.6538 32.4396 11.4349 31.6585L14.5806 28.5128C15.3616 27.7318 16.628 27.7318 17.409 28.5128L19.6602 30.7641L20.1463 31.2501L20.7742 30.9704C23.2849 29.8521 25.1278 28.7545 26.6113 27.2697C28.0969 25.7828 29.1596 23.9702 30.2133 21.5251L30.4818 20.902L30.0021 20.4223L27.7508 18.171C26.9698 17.39 26.9698 16.1236 27.7508 15.3426L30.8965 12.1969C31.6776 11.4158 32.9439 11.4158 33.7249 12.1969L36.0317 14.5036C37.5448 16.0168 37.9271 18.3041 36.9299 20.1256C32.4617 28.2875 27.8378 32.7421 19.4213 37.5444C17.5593 38.6068 15.1947 38.2468 13.6447 36.6968L11.4349 34.487Z" fill="#2ABB67"/>
</svg>
