<svg width="77" height="36" viewBox="0 0 77 36" fill="none" xmlns="http://www.w3.org/2000/svg">
<mask id="mask0" mask-type="alpha" maskUnits="userSpaceOnUse" x="0" y="0" width="59" height="36">
<rect width="59" height="36" fill="#C4C4C4"/>
</mask>
<g mask="url(#mask0)">
<g filter="url(#filter0_f)">
<path d="M15.0889 28L15.0889 29.5H15.0889L15.0889 28ZM27.3556 20C26.5271 20 25.8556 20.6716 25.8556 21.5C25.8556 22.3284 26.5271 23 27.3556 23L27.3556 20ZM60.5 26.5L15.0889 26.5L15.0889 29.5L60.5 29.5L60.5 26.5ZM4.50002 17.5C4.50002 14.6345 5.65259 12.4351 7.49275 10.9239C9.36236 9.38853 12.0276 8.5 15.0889 8.5L15.0889 5.5C11.4738 5.5 8.0945 6.54776 5.5888 8.60551C3.05365 10.6875 1.50002 13.7381 1.50002 17.5L4.50002 17.5ZM15.0889 26.5C12.0276 26.5 9.36236 25.6115 7.49275 24.0761C5.65259 22.5649 4.50002 20.3655 4.50002 17.5L1.50002 17.5C1.50002 21.2619 3.05365 24.3125 5.5888 26.3945C8.0945 28.4522 11.4738 29.5 15.0889 29.5L15.0889 26.5ZM15.0889 8.5L48 8.5L48 5.5L15.0889 5.5L15.0889 8.5ZM48 20L27.3556 20L27.3556 23L48 23L48 20ZM48 8.5C49.2234 8.5 51.1474 8.78473 52.7083 9.67718C54.1824 10.52 55.3222 11.8773 55.3222 14.25L58.3222 14.25C58.3222 10.6227 56.4399 8.355 54.1973 7.07282C52.0416 5.84027 49.5544 5.5 48 5.5L48 8.5ZM55.3222 14.25C55.3222 16.7095 54.288 18.0414 52.9622 18.8401C51.5294 19.7032 49.6362 20 48 20L48 23C49.8972 23 52.4151 22.6718 54.5101 21.4099C56.712 20.0836 58.3222 17.7905 58.3222 14.25L55.3222 14.25Z" fill="#762C02" fill-opacity="0.37"/>
</g>
</g>
<path d="M15.0889 26L15.0889 24.5L15.0889 24.5L15.0889 26ZM27.3556 18C26.5271 18 25.8556 18.6716 25.8556 19.5C25.8556 20.3284 26.5271 21 27.3556 21L27.3556 18ZM58.9111 24.5L15.0889 24.5L15.0889 27.5L58.9111 27.5L58.9111 24.5ZM4.50002 15.5C4.50002 12.6345 5.65259 10.4351 7.49275 8.92392C9.36236 7.38853 12.0276 6.5 15.0889 6.5L15.0889 3.5C11.4738 3.5 8.0945 4.54776 5.5888 6.60551C3.05365 8.68746 1.50002 11.7381 1.50002 15.5L4.50002 15.5ZM15.0889 24.5C12.0276 24.5 9.36236 23.6115 7.49275 22.0761C5.65259 20.5649 4.50002 18.3655 4.50002 15.5L1.50002 15.5C1.50002 19.2619 3.05365 22.3125 5.5888 24.3945C8.0945 26.4522 11.4738 27.5 15.0889 27.5L15.0889 24.5ZM15.0889 6.5L48 6.5L48 3.5L15.0889 3.5L15.0889 6.5ZM48 18L27.3556 18L27.3556 21L48 21L48 18ZM48 6.5C49.2235 6.5 51.1474 6.78473 52.7083 7.67719C54.1824 8.52 55.3222 9.87735 55.3222 12.25L58.3222 12.25C58.3222 8.62265 56.4399 6.355 54.1973 5.07282C52.0416 3.84027 49.5544 3.5 48 3.5L48 6.5ZM55.3222 12.25C55.3222 14.7095 54.2881 16.0414 52.9622 16.8401C51.5294 17.7032 49.6362 18 48 18L48 21C49.8972 21 52.4151 20.6718 54.5101 19.4099C56.712 18.0836 58.3222 15.7905 58.3222 12.25L55.3222 12.25Z" fill="#FF5E03"/>
<mask id="mask1" mask-type="alpha" maskUnits="userSpaceOnUse" x="59" y="0" width="18" height="36">
<rect width="18" height="36" transform="matrix(-1 0 0 1 77 0)" fill="#C4C4C4"/>
</mask>
<g mask="url(#mask1)">
<g filter="url(#filter1_f)">
<path d="M58.9111 7.5C64.7697 7.5 69.5 12.2114 69.5 18L72.5 18C72.5 10.5337 66.4056 4.5 58.9111 4.5L58.9111 7.5ZM58.9111 31.5C66.4056 31.5 72.5 25.4663 72.5 18L69.5 18C69.5 23.7886 64.7696 28.5 58.9111 28.5L58.9111 31.5ZM58.9111 28.5L53 28.5L53 31.5L58.9111 31.5L58.9111 28.5ZM58.9111 4.5L53 4.5L53 7.5L58.9111 7.5L58.9111 4.5Z" fill="#762C02" fill-opacity="0.37"/>
</g>
</g>
<path d="M58.9111 3.5C64.7697 3.5 69.5 8.21143 69.5 14L72.5 14C72.5 6.53374 66.4056 0.5 58.9111 0.499999L58.9111 3.5ZM58.9111 27.5C66.4056 27.5 72.5 21.4663 72.5 14L69.5 14C69.5 19.7886 64.7696 24.5 58.9111 24.5L58.9111 27.5Z" fill="#FF5E03"/>
<defs>
<filter id="filter0_f" x="0.5" y="4.5" width="61" height="26" filterUnits="userSpaceOnUse" color-interpolation-filters="sRGB">
<feFlood flood-opacity="0" result="BackgroundImageFix"/>
<feBlend mode="normal" in="SourceGraphic" in2="BackgroundImageFix" result="shape"/>
<feGaussianBlur stdDeviation="0.5" result="effect1_foregroundBlur"/>
</filter>
<filter id="filter1_f" x="49" y="0.5" width="27.5" height="35" filterUnits="userSpaceOnUse" color-interpolation-filters="sRGB">
<feFlood flood-opacity="0" result="BackgroundImageFix"/>
<feBlend mode="normal" in="SourceGraphic" in2="BackgroundImageFix" result="shape"/>
<feGaussianBlur stdDeviation="2" result="effect1_foregroundBlur"/>
</filter>
</defs>
</svg>
