<svg viewBox="0 0 163 45" fill="none" xmlns="http://www.w3.org/2000/svg">
<path d="M41.71 3.00034V44.0003H33.4641V9.16024C31.4666 8.06732 29.7233 5.27799 29.5464 3.00024L41.6999 3.00034H41.71Z" fill="#FF5E03"/>
<path d="M55.71 3.00034V44.0003H47.4641V9.16024C45.4666 8.06732 43.7233 5.27799 43.5464 3.00024L55.6999 3.00034H55.71Z" fill="#FF5E03"/>
<path d="M117.126 16.0224V43.9998H125.356L125.356 10.6748C124.881 10.9968 124.328 11.2447 123.694 11.3988L119.331 12.4534C118.51 12.653 117.995 13.0926 117.66 13.671C117.308 14.2788 117.128 15.0926 117.126 16.0224Z" fill="#FF5E03"/>
<path d="M125.356 5.57865C125.356 6.51513 125.176 7.33496 124.822 7.9463C124.487 8.52476 123.972 8.96439 123.151 9.16394L118.788 10.2184C118.154 10.3725 117.601 10.6204 117.126 10.9424L117.126 5.36376C117.126 4.42727 117.306 3.60744 117.66 2.9961C117.995 2.41764 118.51 1.97802 119.331 1.77846L123.694 0.723957C124.328 0.569869 124.881 0.322009 125.356 0L125.356 5.57865Z" fill="#27AE60"/>
<path d="M110.545 21.1231H97.5504C97.1022 21.1231 96.6382 21.514 96.6382 22.0135L96.6381 24.6274C96.6381 25.0795 96.9433 25.5065 97.4135 25.5785C100.738 26.0871 107.991 27.3619 110.859 27.8543C113.296 28.2726 114.599 30.3836 114.599 32.5694V39.7706C114.599 41.8706 113.055 43.9999 110.82 44.0118L90.9285 43.9999L89.3139 37.4148L106.031 37.4147C106.629 37.4147 107.046 36.9232 107.046 36.3187V33.9822C107.046 33.518 106.694 33.0355 106.031 32.9458C101.686 32.3578 98.2314 31.8681 93.0823 31.1098C90.6024 30.7447 89.1402 28.463 89.1401 26.7328C89.1399 24.1509 89.1399 21.0867 89.1397 18.0863C89.1396 15.9626 90.682 14.3968 92.9256 14.3497L114.462 14.3699C114.285 16.6477 112.471 19.8968 110.545 21.1231Z" fill="#FF5E03"/>
<path fill-rule="evenodd" clip-rule="evenodd" d="M23.1 44.0116H31.57L24.3 14.3916H1.84035C2.01728 16.6694 3.76061 19.4587 5.75809 20.5516L6.22272e-05 44.0116H8.09006L9.49788 38.4232H21.6684L23.1 44.0116ZM17.09 20.5516H14.0001L10.8272 33.1465H20.3166L17.09 20.5516Z" fill="#FF5E03"/>
<path fill-rule="evenodd" clip-rule="evenodd" d="M80.6459 44.0116H89.1159L81.8459 14.3916H59.3863C59.5632 16.6694 61.3065 19.4587 63.304 20.5516L57.546 44.0116H65.636L67.0438 38.4232H79.2143L80.6459 44.0116ZM74.6359 20.5516H71.546L68.3731 33.1465H77.8625L74.6359 20.5516Z" fill="#FF5E03"/>
<path fill-rule="evenodd" clip-rule="evenodd" d="M150.292 44.0116H158.762L151.492 14.3916H129.032C129.209 16.6694 130.953 19.4587 132.95 20.5516L127.192 44.0116H135.282L136.69 38.4232H148.86L150.292 44.0116ZM144.282 20.5516H141.192L138.019 33.1465H147.509L144.282 20.5516Z" fill="#FF5E03"/>
</svg>
