<svg width="27" height="27" viewBox="0 0 27 27" fill="none" xmlns="http://www.w3.org/2000/svg">
<g clip-path="url(#clip0)">
<path fill-rule="evenodd" clip-rule="evenodd" d="M0.125977 21.9695C6.67098 15.2053 15.8445 11 26.0002 11H47.0002V-11H36.0002C17.1386 -11 1.66493 3.50544 0.125977 21.9695Z" fill="#FFFFFF"/>
<path fill-rule="evenodd" clip-rule="evenodd" d="M8.4786 1.79188C4.12312 6.95161 1.19227 13.353 0.292721 20.3894C0.225823 20.9126 0.170157 21.4394 0.125977 21.9695C0.489889 21.5934 0.861925 21.2252 1.24181 20.8652C7.69414 14.7506 16.4092 11 26.0002 11H47.0002V-11H36.0002C33.2506 -11 30.573 -10.6917 28 -10.1079V-9.08144C30.5694 -9.68225 33.2477 -10 36.0002 -10H46.0002V10H28H27H26.0002C16.5853 10 7.99047 13.5176 1.46057 19.3082C2.49496 12.9826 5.2254 7.22699 9.16968 2.5237C8.93449 2.28442 8.70408 2.04043 8.4786 1.79188Z" fill="#D3DAF5"/>
</g>
<defs>
<clipPath id="clip0">
<rect width="27" height="27" fill="white"/>
</clipPath>
</defs>
</svg>
