<svg width="17" height="17" viewBox="0 0 17 17" fill="none" xmlns="http://www.w3.org/2000/svg">
<rect width="17" height="17" fill="white" fill-opacity="0.01"/>
<path fill-rule="evenodd" clip-rule="evenodd" d="M2.91694 12.3453L3.69551 13.0558L3.01037 13.8567C2.72459 14.1908 2.41646 14.5129 2.07169 14.8456C3.53607 15.0173 4.88461 14.863 6.00594 14.2891L6.34027 14.118L6.70898 14.1895C7.26136 14.2966 7.83911 14.3536 8.43477 14.3536C12.6946 14.3536 15.7812 11.5333 15.7812 8.46575C15.7812 5.39819 12.6946 2.57787 8.43477 2.57787C4.17497 2.57787 1.08836 5.39819 1.08836 8.46575C1.08836 9.91859 1.75168 11.282 2.91694 12.3453ZM1.6926 13.687C1.86722 13.5066 2.02958 13.3289 2.18331 13.1492C0.826567 11.9112 0 10.2683 0 8.46575C0 4.61287 3.77637 1.4895 8.43477 1.4895C13.0932 1.4895 16.8695 4.61287 16.8695 8.46575C16.8695 12.3186 13.0932 15.442 8.43477 15.442C7.76965 15.442 7.12251 15.3783 6.50177 15.2579C5.06743 15.992 3.3997 16.1288 1.71182 15.8968C0.85359 15.7789 0.621065 14.7263 1.24756 14.128C1.31284 14.0657 1.37645 14.004 1.43852 13.943C1.52616 13.8567 1.61073 13.7716 1.6926 13.687ZM4.71488 9.4956C5.29979 9.4956 5.77396 9.02144 5.77396 8.43652C5.77396 7.85161 5.29979 7.37745 4.71488 7.37745C4.12997 7.37745 3.6558 7.85161 3.6558 8.43652C3.6558 9.02144 4.12997 9.4956 4.71488 9.4956ZM9.29251 8.43652C9.29251 9.02144 8.81835 9.4956 8.23344 9.4956C7.64852 9.4956 7.17436 9.02144 7.17436 8.43652C7.17436 7.85161 7.64852 7.37745 8.23344 7.37745C8.81835 7.37745 9.29251 7.85161 9.29251 8.43652ZM11.752 9.4956C12.3369 9.4956 12.8111 9.02144 12.8111 8.43652C12.8111 7.85161 12.3369 7.37745 11.752 7.37745C11.1671 7.37745 10.6929 7.85161 10.6929 8.43652C10.6929 9.02144 11.1671 9.4956 11.752 9.4956Z" fill="#3A33D9"/>
</svg>
