<svg width="21" height="17" viewBox="0 0 21 17" fill="none" xmlns="http://www.w3.org/2000/svg">
<rect width="21" height="17" fill="white" fill-opacity="0.01"/>
<path fill-rule="evenodd" clip-rule="evenodd" d="M7.04731 12.1004L7.82589 12.8109L7.14074 13.6118C6.85497 13.9459 6.54683 14.2681 6.20206 14.6007C7.66644 14.7724 9.01499 14.6181 10.1363 14.0442L10.4706 13.8731L10.8393 13.9446C11.3917 14.0517 11.9695 14.1088 12.5651 14.1088C16.8249 14.1088 19.9115 11.2884 19.9115 8.22088C19.9115 5.15332 16.8249 2.33299 12.5651 2.33299C8.30534 2.33299 5.21873 5.15332 5.21873 8.22088C5.21873 9.67372 5.88205 11.0371 7.04731 12.1004ZM5.82299 13.4421C5.9976 13.2617 6.15996 13.0841 6.31369 12.9044C4.95694 11.6663 4.13037 10.0234 4.13037 8.22088C4.13037 4.368 7.90675 1.24463 12.5651 1.24463C17.2235 1.24463 20.9999 4.368 20.9999 8.22088C20.9999 12.0737 17.2235 15.1971 12.5651 15.1971C11.9 15.1971 11.2529 15.1334 10.6321 15.0131C9.1978 15.7471 7.53008 15.884 5.84219 15.652C4.98396 15.534 4.75144 14.4814 5.37794 13.8831C5.44322 13.8208 5.50682 13.7592 5.56889 13.6981C5.65653 13.6118 5.74111 13.5267 5.82299 13.4421ZM8.84525 9.25073C9.43016 9.25073 9.90433 8.77656 9.90433 8.19165C9.90433 7.60674 9.43016 7.13257 8.84525 7.13257C8.26034 7.13257 7.78617 7.60674 7.78617 8.19165C7.78617 8.77656 8.26034 9.25073 8.84525 9.25073ZM13.4229 8.19165C13.4229 8.77656 12.9487 9.25073 12.3638 9.25073C11.7789 9.25073 11.3047 8.77656 11.3047 8.19165C11.3047 7.60674 11.7789 7.13257 12.3638 7.13257C12.9487 7.13257 13.4229 7.60674 13.4229 8.19165ZM15.8824 9.25073C16.4673 9.25073 16.9414 8.77656 16.9414 8.19165C16.9414 7.60674 16.4673 7.13257 15.8824 7.13257C15.2975 7.13257 14.8233 7.60674 14.8233 8.19165C14.8233 8.77656 15.2975 9.25073 15.8824 9.25073Z" fill="#3A33D9"/>
</svg>
