<svg width="21" height="17" viewBox="0 0 21 17" fill="none" xmlns="http://www.w3.org/2000/svg">
<rect width="21" height="17" fill="white" fill-opacity="0.01"/>
<path fill-rule="evenodd" clip-rule="evenodd" d="M2.91694 12.1004L3.69551 12.8109L3.01037 13.6118C2.7246 13.9459 2.41646 14.2681 2.07169 14.6007C3.53607 14.7724 4.88461 14.6181 6.00594 14.0442L6.34027 13.8731L6.70898 13.9446C7.26136 14.0517 7.83911 14.1088 8.43477 14.1088C12.6946 14.1088 15.7812 11.2884 15.7812 8.22088C15.7812 5.15332 12.6946 2.33299 8.43477 2.33299C4.17497 2.33299 1.08836 5.15332 1.08836 8.22088C1.08836 9.67372 1.75168 11.0371 2.91694 12.1004ZM1.69262 13.4421C1.86723 13.2617 2.02959 13.0841 2.18332 12.9044C0.826567 11.6663 0 10.0234 0 8.22088C0 4.368 3.77637 1.24463 8.43477 1.24463C13.0932 1.24463 16.8695 4.368 16.8695 8.22088C16.8695 12.0737 13.0932 15.1971 8.43477 15.1971C7.76965 15.1971 7.12251 15.1334 6.50177 15.0131C5.06743 15.7471 3.39971 15.884 1.71182 15.652C0.85359 15.534 0.621067 14.4814 1.24756 13.8831C1.31284 13.8208 1.37645 13.7592 1.43852 13.6981C1.52616 13.6118 1.61074 13.5267 1.69262 13.4421ZM4.71488 9.25073C5.29979 9.25073 5.77396 8.77656 5.77396 8.19165C5.77396 7.60674 5.29979 7.13257 4.71488 7.13257C4.12997 7.13257 3.6558 7.60674 3.6558 8.19165C3.6558 8.77656 4.12997 9.25073 4.71488 9.25073ZM9.29251 8.19165C9.29251 8.77656 8.81835 9.25073 8.23344 9.25073C7.64852 9.25073 7.17436 8.77656 7.17436 8.19165C7.17436 7.60674 7.64852 7.13257 8.23344 7.13257C8.81835 7.13257 9.29251 7.60674 9.29251 8.19165ZM11.752 9.25073C12.3369 9.25073 12.8111 8.77656 12.8111 8.19165C12.8111 7.60674 12.3369 7.13257 11.752 7.13257C11.1671 7.13257 10.6929 7.60674 10.6929 8.19165C10.6929 8.77656 11.1671 9.25073 11.752 9.25073Z" fill="#25A75C"/>
</svg>
