<svg width="17" height="17" viewBox="0 0 17 17" fill="none" xmlns="http://www.w3.org/2000/svg">
<rect width="17" height="17" fill="white" fill-opacity="0.01"/>
<path fill-rule="evenodd" clip-rule="evenodd" d="M8.5 0C3.80558 0 0 3.80558 0 8.5C0 13.1944 3.80558 17 8.5 17C13.1944 17 17 13.1944 17 8.5C17 3.80558 13.1944 0 8.5 0ZM3.96944 12.1033C3.63281 12.6863 3.83258 13.4319 4.41564 13.7685L4.95415 14.0794C6.36885 14.8962 8.19181 14.7296 9.34324 13.5249C11.4363 11.335 12.6102 9.37443 13.4056 6.54013C13.8464 4.96911 13.0666 3.36313 11.6896 2.56813L11.084 2.21851C10.501 1.88188 9.75543 2.08165 9.41879 2.66472L8.30341 4.59661C7.96678 5.17967 8.16656 5.92523 8.74962 6.26186L9.807 6.87235C9.67225 7.68568 9.48769 8.27582 9.1893 8.79318C8.88971 9.31262 8.46173 9.78237 7.80473 10.3341L6.75007 9.72518C6.16701 9.38855 5.42145 9.58832 5.08482 10.1714L3.96944 12.1033ZM4.78752 13.1244C4.56018 12.9932 4.4823 12.7025 4.61355 12.4752L5.72892 10.5433C5.86018 10.3159 6.15087 10.238 6.3782 10.3693L7.65626 11.1072L7.87764 11.235L8.07627 11.0741C8.87838 10.4243 9.43997 9.8472 9.83357 9.16477C10.2277 8.4814 10.437 7.72091 10.5816 6.73147L10.6181 6.4818L10.3996 6.35565L9.12149 5.61776C8.89416 5.48651 8.81627 5.19582 8.94752 4.96848L10.0629 3.03659C10.1942 2.80926 10.4848 2.73137 10.7122 2.86262L11.3177 3.21224C12.4373 3.8586 13.0275 5.13472 12.6895 6.33918C11.9301 9.04517 10.8227 10.9007 8.80558 13.011C7.91342 13.9445 6.47275 14.0974 5.32603 13.4353L4.78752 13.1244Z" fill="#27AE60"/>
</svg>
