<svg width="17" height="17" viewBox="0 0 17 17" fill="none" xmlns="http://www.w3.org/2000/svg">
<rect width="17" height="17" fill="white" fill-opacity="0.01"/>
<path fill-rule="evenodd" clip-rule="evenodd" d="M8.5 0C3.80558 0 0 3.80558 0 8.5C0 13.1944 3.80558 17 8.5 17C13.1944 17 17 13.1944 17 8.5C17 3.80558 13.1944 0 8.5 0ZM7.64263 12.5172V9.02959C8.60507 9.01003 9.62433 8.89475 10.3826 8.2403C11.1161 7.6072 11.2383 6.77626 11.2383 5.86811C11.2383 4.34696 9.99352 3.48319 8.56031 3.48319C6.96339 3.48319 5.93868 4.46294 5.5049 5.93315L4.69225 5.73492C5.21305 3.90554 6.60523 2.69228 8.56031 2.69228C10.5655 2.69228 12.1208 3.99479 12.1208 6.06107C12.1208 7.13809 11.793 8.01942 11.1173 8.67871C10.4846 9.29599 9.60648 9.66077 8.50716 9.79246V12.5172H7.64263ZM7.35497 14.1923C7.35497 13.769 7.66863 13.5249 8.07489 13.5249C8.48116 13.5249 8.79481 13.769 8.79481 14.1923C8.79481 14.644 8.57685 15 8.07489 15C7.57293 15 7.35497 14.644 7.35497 14.1923Z" fill="#27AE60"/>
</svg>
