<svg width="17" height="17" viewBox="0 0 17 17" fill="none" xmlns="http://www.w3.org/2000/svg">
<rect width="17" height="17" fill="white" fill-opacity="0.01"/>
<path fill-rule="evenodd" clip-rule="evenodd" d="M8.5 0C3.80558 0 0 3.80558 0 8.5C0 13.1944 3.80558 17 8.5 17C10.6673 17 12.6451 16.1889 14.1465 14.8536L11.2095 11.9166C9.11927 13.6504 6.01364 13.538 4.05507 11.5795C1.97728 9.50165 1.97728 6.13287 4.05508 4.05508C6.13288 1.97728 9.50165 1.97728 11.5794 4.05509C13.538 6.01366 13.6504 9.11931 11.9166 11.2095L14.8536 14.1465C16.1889 12.6451 17 10.6673 17 8.5C17 3.80558 13.1944 0 8.5 0ZM10.8723 4.76219C9.18506 3.07492 6.44946 3.07491 4.76218 4.76219C3.07491 6.44946 3.07491 9.18507 4.76218 10.8724C6.44945 12.5596 9.18505 12.5596 10.8723 10.8724C12.5596 9.18509 12.5596 6.44947 10.8723 4.76219Z" fill="#27AE60"/>
</svg>
