<svg width="17" height="17" viewBox="0 0 17 17" fill="none" xmlns="http://www.w3.org/2000/svg">
<rect width="17" height="17" fill="white" fill-opacity="0.01"/>
<path fill-rule="evenodd" clip-rule="evenodd" d="M8.5 0C3.80558 0 0 3.80558 0 8.5C0 13.1944 3.80558 17 8.5 17C13.1944 17 17 13.1944 17 8.5C17 3.80558 13.1944 0 8.5 0ZM6.20261 6.88485L7.08262 3.16968L3.36745 4.04969L4.32069 5.00292C3.57063 5.90179 3.12574 7.02192 3.06019 8.19947C2.98475 9.55497 3.4174 10.8892 4.27387 11.9412C5.13034 12.9933 6.34888 13.6874 7.69121 13.8879C9.03352 14.0885 10.403 13.7811 11.5323 13.0263C12.6615 12.2714 13.4695 11.1231 13.7984 9.80563C13.931 9.27409 13.9819 8.73038 13.9531 8.1924L12.9545 8.24585C12.978 8.68517 12.9365 9.12921 12.8281 9.56345C12.5595 10.6397 11.8993 11.578 10.9765 12.1949C10.0538 12.8118 8.93501 13.0627 7.83898 12.8989C6.74298 12.7352 5.74838 12.1686 5.04938 11.3099C4.35038 10.4513 3.99703 9.36208 4.05865 8.25505C4.1105 7.32358 4.453 6.43582 5.03132 5.71356L6.20261 6.88485Z" fill="#27AE60"/>
</svg>
