<?xml version="1.0" standalone="no"?>
<!DOCTYPE svg PUBLIC "-//W3C//DTD SVG 20010904//EN"
 "http://www.w3.org/TR/2001/REC-SVG-20010904/DTD/svg10.dtd">
<svg version="1.0" xmlns="http://www.w3.org/2000/svg"
 width="1024.000000pt" height="1024.000000pt" viewBox="0 0 1024.000000 1024.000000"
 preserveAspectRatio="xMidYMid meet">
<metadata>
Created by potrace 1.14, written by Peter Selinger 2001-2017
</metadata>
<g transform="translate(0.000000,1024.000000) scale(0.100000,-0.100000)"
fill="#000000" stroke="none">
<path d="M594 9868 c12 -98 30 -195 58 -298 11 -41 20 -79 22 -85 1 -5 4 -14
8 -20 3 -5 12 -30 19 -55 16 -55 14 -51 23 -75 12 -31 30 -72 70 -161 20 -45
36 -87 36 -93 0 -6 3 -11 8 -11 4 0 18 -23 31 -52 42 -93 214 -365 263 -418
10 -11 16 -20 13 -20 -4 0 0 -6 7 -14 7 -7 31 -35 53 -62 149 -181 271 -299
434 -422 46 -35 108 -77 137 -94 30 -16 56 -34 59 -38 3 -5 1 -28 -5 -52 -6
-24 -13 -54 -16 -68 -2 -14 -7 -32 -10 -40 -3 -8 -8 -26 -10 -40 -3 -14 -10
-43 -16 -65 -5 -22 -12 -47 -14 -55 -1 -8 -15 -62 -29 -120 -34 -137 -39 -156
-49 -208 -3 -12 -7 -25 -9 -30 -3 -4 -8 -25 -12 -47 -9 -57 -10 -59 -16 -70
-5 -8 -16 -52 -25 -100 -1 -5 -3 -12 -4 -15 -1 -3 -3 -12 -5 -20 -2 -8 -6 -25
-9 -37 -3 -13 -8 -31 -10 -40 -3 -10 -12 -47 -21 -83 -9 -36 -18 -76 -21 -90
-2 -14 -7 -32 -11 -40 -3 -8 -7 -24 -8 -36 -2 -11 -9 -40 -15 -65 -7 -24 -14
-52 -16 -61 -6 -26 -10 -42 -39 -158 -14 -58 -28 -112 -29 -120 -2 -8 -9 -33
-14 -55 -6 -22 -13 -51 -16 -65 -2 -14 -7 -32 -10 -40 -3 -8 -8 -26 -10 -40
-3 -14 -21 -90 -41 -170 -35 -144 -44 -183 -46 -197 -1 -5 -5 -18 -10 -31 -5
-13 -11 -37 -14 -55 -3 -18 -8 -40 -11 -49 -3 -9 -7 -25 -9 -35 -3 -10 -9 -38
-16 -63 -13 -56 -18 -74 -24 -101 -2 -11 -7 -29 -10 -39 -3 -10 -7 -27 -9 -37
-2 -10 -9 -38 -16 -63 -7 -25 -13 -52 -15 -61 -2 -8 -10 -44 -19 -80 -9 -35
-18 -73 -20 -84 -2 -11 -10 -40 -17 -65 -7 -25 -13 -49 -14 -55 -1 -5 -3 -12
-4 -15 -3 -5 -6 -19 -14 -65 -4 -16 -20 -82 -37 -145 -17 -63 -33 -126 -35
-140 -5 -33 -74 -311 -82 -330 -3 -8 -6 -18 -5 -22 1 -4 -12 -60 -29 -125 -34
-133 -41 -163 -42 -180 0 -7 -4 -13 -8 -13 -4 0 -6 -6 -6 -13 2 -16 -22 -125
-33 -157 -5 -14 -11 -36 -14 -50 -2 -14 -21 -92 -41 -175 -20 -82 -39 -157
-40 -165 -2 -8 -4 -15 -6 -15 -1 0 -3 -9 -5 -20 -1 -11 -5 -29 -8 -40 -14 -55
-58 -232 -61 -249 -3 -10 -15 -62 -29 -115 -14 -53 -28 -111 -31 -130 -3 -19
-9 -39 -12 -44 -3 -6 -7 -22 -9 -36 -1 -14 -3 -27 -4 -28 -1 -2 -4 -7 -5 -13
-1 -5 -4 -12 -5 -15 -1 -3 -4 -14 -5 -25 -1 -11 -4 -23 -5 -27 -2 -5 -4 -12
-5 -18 -1 -5 -7 -28 -13 -50 -6 -22 -13 -51 -16 -65 -2 -14 -5 -25 -6 -25 -1
0 -3 -7 -5 -15 -1 -8 -17 -73 -35 -145 -17 -71 -33 -137 -35 -145 -2 -8 -9
-35 -16 -60 -7 -25 -14 -49 -14 -55 -4 -30 -18 -91 -23 -100 -3 -5 -7 -16 -8
-25 -3 -19 -9 -44 -35 -150 -12 -47 -22 -89 -23 -95 -2 -5 -8 -29 -14 -51 -11
-37 -23 -89 -37 -159 -2 -11 -29 -119 -59 -239 -30 -120 -55 -222 -54 -225 1
-3 -2 -13 -5 -21 -14 -34 -46 -174 -41 -182 3 -4 1 -8 -4 -8 -5 0 -9 -6 -10
-12 -3 -41 -13 -82 -22 -92 -5 -7 -8 -15 -5 -18 3 -2 -1 -27 -9 -54 -8 -27
-17 -61 -20 -75 l-6 -27 1294 0 1294 0 16 62 c15 55 21 79 31 126 2 8 4 15 5
15 1 0 3 7 5 15 2 8 6 26 9 40 3 14 33 133 66 265 34 132 63 247 65 255 2 8 4
15 5 15 1 0 3 9 5 20 11 54 17 81 55 225 22 85 42 164 44 175 2 11 7 27 10 35
3 8 8 26 10 40 3 14 10 43 16 65 6 22 13 51 16 65 3 14 10 43 16 65 6 22 11
45 12 50 1 6 5 19 9 30 3 11 8 33 11 48 3 16 9 43 15 60 5 18 15 51 21 75 l11
42 1947 -2 1947 -3 13 -50 c8 -27 18 -66 23 -85 12 -44 18 -68 24 -100 3 -14
14 -59 25 -100 12 -41 23 -86 26 -98 2 -13 12 -49 20 -80 9 -32 20 -73 24 -92
4 -19 13 -50 18 -68 6 -18 11 -35 11 -37 0 -3 3 -15 6 -28 4 -13 8 -30 9 -38
2 -8 6 -21 9 -29 3 -8 8 -26 10 -40 3 -14 8 -34 10 -45 3 -11 12 -47 20 -80 9
-33 22 -85 31 -117 8 -31 17 -67 20 -80 2 -12 9 -35 15 -50 6 -16 9 -28 7 -28
-2 0 2 -24 10 -52 26 -91 56 -209 68 -263 3 -11 16 -63 30 -115 14 -52 26 -98
26 -101 0 -9 2710 -9 2710 0 0 4 -12 52 -26 106 -14 55 -28 108 -30 118 -2 10
-5 26 -8 35 -3 9 -8 31 -11 49 -3 18 -10 45 -16 60 -6 15 -10 29 -10 31 1 1 1
3 0 5 0 1 -2 11 -4 22 -2 11 -6 31 -10 45 -4 14 -8 34 -10 45 -2 11 -22 92
-44 179 -23 87 -43 168 -46 180 -3 12 -9 39 -14 61 -5 22 -15 66 -22 98 -7 31
-17 57 -22 57 -4 0 -6 4 -3 9 3 5 -5 51 -18 103 -14 52 -27 106 -30 121 -2 15
-7 30 -10 35 -3 5 -8 24 -11 43 -3 19 -15 70 -27 114 -11 44 -22 87 -23 95 -1
8 -4 24 -8 35 -3 11 -8 31 -11 45 -3 14 -10 43 -16 65 -6 22 -13 51 -16 65 -2
14 -9 39 -14 55 -5 17 -11 41 -14 55 -6 30 -7 35 -40 165 -14 55 -27 111 -30
125 -2 14 -9 37 -15 53 -6 15 -8 27 -6 27 2 0 0 12 -6 26 -5 15 -12 43 -15 63
-3 20 -9 47 -14 61 -5 14 -12 36 -15 50 -19 93 -25 118 -35 145 -6 17 -11 31
-11 33 1 1 1 3 0 5 0 1 -3 16 -5 32 -3 17 -7 37 -11 45 -3 8 -6 18 -5 21 1 4
-3 22 -9 40 -6 19 -12 45 -15 59 -3 14 -7 33 -10 42 -3 9 -7 25 -9 35 -2 10
-11 46 -20 80 -9 35 -18 71 -20 80 -8 39 -66 270 -76 308 -6 22 -13 49 -14 60
-6 37 -16 79 -21 86 -2 4 -8 27 -13 51 -5 24 -20 88 -34 143 -35 138 -40 157
-44 180 -9 39 -11 50 -14 50 -1 0 -3 9 -5 20 -4 26 -9 45 -17 70 -3 11 -8 31
-11 45 -3 14 -12 54 -21 90 -18 72 -23 92 -29 117 -2 10 -13 54 -25 98 -11 44
-22 91 -25 105 -2 14 -9 37 -14 51 -6 15 -9 29 -6 31 2 3 -2 21 -10 40 -9 20
-13 38 -10 41 3 3 1 14 -4 24 -6 10 -13 34 -16 53 -3 19 -11 53 -17 75 -6 22
-14 58 -19 80 -6 22 -14 58 -20 80 -6 22 -17 69 -25 105 -8 36 -18 72 -21 80
-3 8 -8 26 -10 40 -3 14 -18 77 -34 140 -16 63 -31 126 -34 140 -3 14 -12 50
-20 82 -8 31 -17 67 -20 80 -2 12 -7 30 -10 38 -3 8 -8 26 -10 40 -3 14 -8 36
-11 50 -4 14 -8 32 -9 40 -1 8 -6 25 -10 37 -4 12 -9 31 -11 42 -10 42 -14 60
-75 306 -34 138 -63 257 -65 265 -2 8 -17 70 -34 138 -17 68 -33 137 -36 154
-3 17 -8 35 -11 40 -3 4 -7 16 -9 25 -2 10 -13 59 -25 108 -12 50 -24 99 -25
110 -2 11 -4 20 -5 20 -1 0 -3 9 -5 19 -2 11 -7 31 -10 45 -4 14 -7 27 -6 28
0 2 -5 17 -10 35 -6 18 -12 44 -15 58 -3 14 -10 43 -16 65 -5 22 -12 47 -14
55 -5 22 -35 143 -39 160 -3 8 -9 33 -15 55 -6 22 -13 54 -15 70 -2 17 -8 42
-14 58 -6 15 -8 27 -5 27 4 0 1 6 -5 13 -6 8 -8 17 -4 20 3 4 1 7 -6 7 -7 0
-10 4 -6 9 3 5 -6 53 -20 106 -14 54 -27 107 -29 119 -5 22 -15 65 -20 81 -2
6 -6 28 -11 50 -4 22 -11 47 -15 55 -5 8 -11 31 -14 50 -3 19 -10 50 -15 68
-5 17 -8 32 -5 32 3 0 0 8 -5 19 -6 10 -13 32 -16 49 -3 17 -19 86 -36 154
-17 68 -32 130 -34 138 -2 8 -11 44 -20 80 -14 58 -19 79 -30 130 -2 8 -4 15
-5 15 -1 0 -4 14 -6 30 -3 17 -7 37 -11 45 -7 16 -8 22 -17 60 -6 28 -40 166
-54 220 -5 19 -9 38 -10 43 -1 4 -2 8 -3 10 0 1 -2 10 -5 20 -2 9 -6 25 -8 35
-3 9 -5 23 -5 30 -1 9 -727 12 -3597 12 l-3596 0 6 -52z m4882 -1938 c3 -14
10 -49 19 -90 2 -8 4 -15 5 -15 1 0 3 -7 5 -15 1 -8 10 -42 19 -75 9 -33 19
-71 22 -85 3 -14 7 -33 10 -42 3 -9 7 -27 10 -40 6 -26 6 -27 23 -88 7 -25 15
-55 17 -67 2 -12 9 -34 14 -48 5 -14 7 -25 5 -25 -2 0 0 -12 6 -27 6 -16 13
-41 15 -58 3 -16 9 -41 14 -55 7 -22 19 -71 21 -85 0 -2 5 -19 10 -37 10 -33
16 -54 23 -85 2 -10 19 -74 36 -143 18 -69 34 -136 36 -149 3 -14 7 -28 10
-33 3 -4 7 -16 9 -25 3 -18 13 -54 55 -223 29 -112 27 -106 46 -175 8 -33 17
-67 18 -75 2 -8 9 -35 16 -60 7 -25 15 -54 16 -65 2 -11 12 -54 24 -95 24 -86
129 -495 135 -525 2 -11 4 -21 4 -22 1 -2 2 -6 2 -10 1 -5 8 -30 16 -57 8 -27
17 -58 19 -68 9 -39 14 -58 49 -193 21 -77 40 -155 42 -172 3 -18 9 -33 15
-33 5 0 7 -4 4 -9 -3 -4 -1 -23 5 -42 5 -19 12 -50 15 -69 3 -19 9 -37 13 -40
3 -3 6 -9 6 -15 1 -13 37 -161 71 -285 14 -52 28 -106 30 -120 3 -14 14 -59
26 -100 19 -73 56 -217 63 -252 3 -13 -3 -18 -18 -19 -12 0 -692 -1 -1512 -1
-1024 -1 -1490 2 -1492 9 -2 6 6 48 18 94 11 46 23 91 24 99 2 8 4 15 5 15 1
0 3 11 6 25 2 14 7 32 11 40 3 8 7 22 8 30 5 30 14 67 35 145 12 44 23 91 26
105 3 14 7 33 10 42 3 9 7 25 9 35 2 10 15 60 29 112 14 52 23 98 20 102 -2 4
0 10 5 13 5 3 12 23 16 43 16 75 45 193 52 213 3 8 8 24 10 34 2 10 13 55 24
100 12 45 23 89 25 99 2 9 7 27 10 40 3 12 7 30 7 40 1 9 6 17 11 17 5 0 7 3
4 6 -3 3 -2 21 4 41 5 19 11 43 13 53 2 10 22 88 44 173 22 86 42 166 45 179
3 13 12 50 21 82 8 33 17 69 20 80 2 12 4 21 5 21 2 0 6 16 14 55 3 14 8 37
12 52 3 15 6 31 6 35 0 5 5 17 11 28 6 11 10 23 9 27 -1 3 19 87 44 185 44
169 49 189 58 231 2 9 9 37 16 62 7 25 13 52 15 60 2 8 8 35 15 60 7 25 14 54
16 65 2 11 12 47 22 80 11 33 18 68 16 78 -1 9 3 17 9 17 5 0 8 3 5 6 -4 3 -2
20 3 37 6 18 13 43 16 57 8 39 11 55 12 58 1 1 1 3 1 5 0 1 7 25 15 52 9 28
18 61 20 75 2 14 19 86 39 160 19 74 37 146 40 160 2 14 11 47 20 74 8 27 14
52 14 55 -1 3 4 26 11 51 7 25 14 52 16 60 8 37 11 45 20 52 5 4 230 6 499 5
426 -2 489 -4 492 -17z"/>
</g>
</svg>
