<svg width="23" height="23" viewBox="0 0 23 23" fill="none" xmlns="http://www.w3.org/2000/svg">
<path fill-rule="evenodd" clip-rule="evenodd" d="M0.213336 7.05204C0 8.01434 0 9.17623 0 11.5C0 13.8238 0 14.9857 0.213336 15.948C0.970373 19.3627 3.63727 22.0296 7.05204 22.7867C8.01434 23 9.17623 23 11.5 23C13.8238 23 14.9857 23 15.948 22.7867C19.3627 22.0296 22.0296 19.3627 22.7867 15.948C23 14.9857 23 13.8238 23 11.5C23 9.17623 23 8.01434 22.7867 7.05204C22.0296 3.63727 19.3627 0.970373 15.948 0.213336C14.9857 0 13.8238 0 11.5 0C9.17623 0 8.01434 0 7.05204 0.213336C3.63727 0.970373 0.970373 3.63727 0.213336 7.05204ZM11.9544 7.80186L16.6925 7.18236L14.0135 3.22559L13.1667 5.10765C12.5465 4.94757 11.9013 4.8775 11.2506 4.90409C9.61103 4.9711 8.05442 5.647 6.88481 6.7995C5.71521 7.95201 5.01643 9.49851 4.92524 11.1369C4.83404 12.7754 5.35701 14.3881 6.39222 15.6597C7.42744 16.9314 8.9003 17.7703 10.5228 18.0127C12.1453 18.2551 13.8008 17.8836 15.1658 16.9711C16.5308 16.0586 17.5076 14.6706 17.9051 13.078C18.0655 12.4355 18.1269 11.7783 18.0921 11.128L17.0936 11.1815C17.1231 11.7331 17.071 12.2906 16.9349 12.8358C16.5975 14.1872 15.7686 15.3653 14.6101 16.1398C13.4515 16.9143 12.0468 17.2293 10.6706 17.0237C9.2944 16.8181 8.04548 16.1066 7.16774 15.0284C6.28999 13.9502 5.84632 12.5825 5.92369 11.1925C6.00106 9.80247 6.59396 8.49002 7.58669 7.5118C8.57943 6.53358 9.90045 5.96011 11.2914 5.90326C11.7851 5.88308 12.275 5.92849 12.7492 6.03542L11.9544 7.80186Z" fill="#3A33D9"/>
</svg>
