<svg width="27" height="27" viewBox="0 0 27 27" fill="none" xmlns="http://www.w3.org/2000/svg">
<path fill-rule="evenodd" clip-rule="evenodd" d="M0.375448 7.2856C0 8.61683 0 10.2446 0 13.5C0 16.7554 0 18.3832 0.375448 19.7144C1.31987 23.0631 3.93694 25.6801 7.2856 26.6246C8.61683 27 10.2446 27 13.5 27C16.7554 27 18.3832 27 19.7144 26.6246C23.0631 25.6801 25.6801 23.0631 26.6246 19.7144C27 18.3832 27 16.7554 27 13.5C27 10.2446 27 8.61683 26.6246 7.2856C25.6801 3.93694 23.0631 1.31987 19.7144 0.375448C18.3832 0 16.7554 0 13.5 0C10.2446 0 8.61683 0 7.2856 0.375448C3.93694 1.31987 1.31987 3.93694 0.375448 7.2856ZM6.32905 19.0888C5.80438 19.9975 6.11574 21.1596 7.02449 21.6842L7.34616 21.8699C9.75625 23.2614 12.8604 22.9814 14.7896 20.9174C17.7875 17.71 19.5381 14.7759 20.7458 10.6856C21.5281 8.03606 20.1982 5.30322 17.8515 3.94836L17.4111 3.6941C16.5023 3.16943 15.3403 3.4808 14.8157 4.38955L13.2029 7.18285C12.6783 8.0916 12.9896 9.25362 13.8984 9.7783L15.5535 10.7339C15.336 12.1032 15.0346 13.099 14.5299 13.9741C14.0239 14.8515 13.2979 15.6346 12.1893 16.5539L10.5372 15.6C9.62845 15.0754 8.46643 15.3867 7.94176 16.2955L6.32905 19.0888ZM7.42449 20.9914C6.89837 20.6877 6.71811 20.0149 7.02187 19.4888L8.63458 16.6955C8.93833 16.1694 9.61108 15.9891 10.1372 16.2929L12.0289 17.385L12.267 17.5225L12.4807 17.3494C13.7446 16.3256 14.6152 15.4274 15.2229 14.3738C15.8311 13.3193 16.1582 12.1396 16.3859 10.5819L16.4251 10.3133L16.1901 10.1776L14.2984 9.08547C13.7723 8.78172 13.592 8.10897 13.8958 7.58285L15.5085 4.78955C15.8122 4.26343 16.485 4.08317 17.0111 4.38693L17.4515 4.64119C19.5251 5.83836 20.6416 8.21355 19.9786 10.4591C18.8092 14.4195 17.1259 17.2463 14.2051 20.3712C12.5584 22.133 9.87128 22.4041 7.74616 21.1771L7.42449 20.9914Z" fill="#3A33D9"/>
</svg>
