<svg width="27" height="27" viewBox="0 0 27 27" fill="none" xmlns="http://www.w3.org/2000/svg">
<path fill-rule="evenodd" clip-rule="evenodd" d="M0 13.5C0 10.2446 0 8.61683 0.375448 7.2856C1.31987 3.93694 3.93694 1.31987 7.2856 0.375448C8.61683 0 10.2446 0 13.5 0C16.7554 0 18.3832 0 19.7144 0.375448C23.0631 1.31987 25.6801 3.93694 26.6246 7.2856C27 8.61683 27 10.2446 27 13.5C27 16.7554 27 18.3832 26.6246 19.7144C25.6801 23.0631 23.0631 25.6801 19.7144 26.6246C18.3832 27 16.7554 27 13.5 27C10.2446 27 8.61683 27 7.2856 26.6246C3.93694 25.6801 1.31987 23.0631 0.375448 19.7144C0 18.3832 0 16.7554 0 13.5ZM6 12.9999C5.44772 12.9999 5 13.4477 5 13.9999V18.9999C5 19.5522 5.44772 19.9999 6 19.9999H14C14.5523 19.9999 15 19.5522 15 18.9999V17.9999H16V18.9999C16 20.1045 15.1046 20.9999 14 20.9999H6C4.89543 20.9999 4 20.1045 4 18.9999V13.9999C4 13.2597 4.4022 12.6133 5 12.2675C5.29417 12.0973 5.63571 11.9999 6 11.9999V12.9999ZM9 7H20C20.5523 7 21 7.44772 21 8V15C21 15.5523 20.5523 16 20 16H9C8.44772 16 8 15.5523 8 15V8C8 7.44772 8.44772 7 9 7ZM7 8C7 6.89543 7.89543 6 9 6H20C21.1046 6 22 6.89543 22 8V15C22 16.1046 21.1046 17 20 17H9C7.89543 17 7 16.1046 7 15V8Z" fill="#3A33D9"/>
</svg>
