<svg width="27" height="27" viewBox="0 0 27 27" fill="none" xmlns="http://www.w3.org/2000/svg">
<path fill-rule="evenodd" clip-rule="evenodd" d="M0.375448 7.2856C0 8.61683 0 10.2446 0 13.5C0 16.7554 0 18.3832 0.375448 19.7144C1.31987 23.0631 3.93694 25.6801 7.2856 26.6246C8.61683 27 10.2446 27 13.5 27C16.7554 27 18.3832 27 19.7144 26.6246C23.0631 25.6801 25.6801 23.0631 26.6246 19.7144C27 18.3832 27 16.7554 27 13.5C27 10.2446 27 8.61683 26.6246 7.2856C25.6801 3.93694 23.0631 1.31987 19.7144 0.375448C18.3832 0 16.7554 0 13.5 0C10.2446 0 8.61683 0 7.2856 0.375448C3.93694 1.31987 1.31987 3.93694 0.375448 7.2856ZM12.7745 18.2521V13.6793C14.0107 13.6535 15.3153 13.4975 16.2797 12.6444C17.6699 11.4146 17.8563 8.60404 16.4784 7.29024L16.4733 7.28531C15.2609 6.07297 12.7201 6.08261 11.427 7.16514C10.6693 7.79657 10.3051 8.69712 10.0396 9.6194L9 9.35949C9.32052 8.20563 9.80994 7.12148 10.7702 6.35654C12.5138 4.93456 15.6792 4.97558 17.2886 6.58499C18.9956 8.29195 18.9081 11.5308 17.2196 13.2192C16.4103 14.0286 15.2868 14.5069 13.8805 14.6795V18.2521H12.7745ZM13.997 22.1915C13.6617 22.502 12.9932 22.502 12.6579 22.1915C12.2982 21.8584 12.2955 21.0403 12.6579 20.7047C12.9932 20.3943 13.6617 20.3943 13.997 20.7047C14.3594 21.0403 14.3568 21.8584 13.997 22.1915Z" fill="#27AE60"/>
</svg>
