<svg width="27" height="27" viewBox="0 0 27 27" fill="none" xmlns="http://www.w3.org/2000/svg">
<path fill-rule="evenodd" clip-rule="evenodd" d="M0.375448 7.2856C0 8.61683 0 10.2446 0 13.5C0 16.7554 0 18.3832 0.375448 19.7144C1.31987 23.0631 3.93694 25.6801 7.2856 26.6246C8.61683 27 10.2446 27 13.5 27C16.7554 27 18.3832 27 19.7144 26.6246C23.0631 25.6801 25.6801 23.0631 26.6246 19.7144C27 18.3832 27 16.7554 27 13.5C27 10.2446 27 8.61683 26.6246 7.2856C25.6801 3.93694 23.0631 1.31987 19.7144 0.375448C18.3832 0 16.7554 0 13.5 0C10.2446 0 8.61683 0 7.2856 0.375448C3.93694 1.31987 1.31987 3.93694 0.375448 7.2856ZM12.7745 18.2521V13.6793L13.0682 13.6732C14.4963 13.6434 15.5529 13.2874 16.2797 12.6444C17.009 11.9993 17.3745 11.1705 17.3745 10.1321V9.53412C17.3745 8.59412 17.0715 7.85572 16.4784 7.29024L16.4733 7.28531C15.9008 6.71286 15.0742 6.40712 13.9485 6.40712C12.845 6.40712 12.0165 6.67162 11.427 7.16514C10.8397 7.65458 10.3987 8.37198 10.1198 9.34111L10.0396 9.6194L9 9.35949L9.08241 9.06283C9.40246 7.91063 9.96114 7.00104 10.7702 6.35654C11.5884 5.68925 12.6578 5.37012 13.9485 5.37012C15.3406 5.37012 16.4675 5.76386 17.2886 6.58499C18.1057 7.40206 18.5035 8.48005 18.5035 9.78712C18.5035 11.1993 18.084 12.3548 17.2196 13.2192C16.4103 14.0286 15.2868 14.5069 13.8805 14.6795V18.2521H12.7745ZM9.97824 7.70929C9.76955 8.05116 9.59622 8.43326 9.45823 8.85558C9.42756 8.94944 9.39876 9.04509 9.37158 9.14292C9.52101 8.60497 9.72323 8.1271 9.97824 7.70929ZM12.6579 22.1915C12.4734 22.0207 12.4065 21.7842 12.4065 21.5401V21.3561C12.4065 21.112 12.4734 20.8755 12.6579 20.7047C12.838 20.538 13.0797 20.4811 13.3275 20.4811C13.5752 20.4811 13.8169 20.538 13.997 20.7047C14.1815 20.8755 14.2485 21.112 14.2485 21.3561V21.5401C14.2485 21.7842 14.1815 22.0207 13.997 22.1915C13.8169 22.3582 13.5752 22.4151 13.3275 22.4151C13.0797 22.4151 12.838 22.3582 12.6579 22.1915Z" fill="#3A33D9"/>
</svg>
