<svg width="27" height="27" viewBox="0 0 27 27" fill="none" xmlns="http://www.w3.org/2000/svg">
<path fill-rule="evenodd" clip-rule="evenodd" d="M0.375448 7.2856C0 8.61683 0 10.2446 0 13.5C0 16.7554 0 18.3832 0.375448 19.7144C1.31987 23.0631 3.93694 25.6801 7.2856 26.6246C8.61683 27 10.2446 27 13.5 27C16.7554 27 18.3832 27 19.7144 26.6246C23.0631 25.6801 25.6801 23.0631 26.6246 19.7144C27 18.3832 27 16.7554 27 13.5C27 10.2446 27 8.61683 26.6246 7.2856C25.6801 3.93694 23.0631 1.31987 19.7144 0.375448C18.3832 0 16.7554 0 13.5 0C10.2446 0 8.61683 0 7.2856 0.375448C3.93694 1.31987 1.31987 3.93694 0.375448 7.2856ZM17.5736 17.428C19.8234 15.1782 19.8234 11.5305 17.5736 9.28073C15.3238 7.03093 11.6762 7.03093 9.42639 9.28073C7.17659 11.5305 7.17659 15.1782 9.42639 17.428C11.6762 19.6778 15.3238 19.6778 17.5736 17.428ZM8.71928 8.57363C11.3596 5.9333 15.6404 5.9333 18.2807 8.57363C20.8021 11.095 20.9157 15.1125 18.6214 17.7687L22.5226 21.6698L21.8155 22.377L17.9143 18.4758C15.2581 20.7701 11.2407 20.6565 8.71928 18.1351C6.07896 15.4948 6.07896 11.214 8.71928 8.57363Z" fill="#27AE60"/>
</svg>
