<svg width="27" height="27" viewBox="0 0 27 27" fill="none" xmlns="http://www.w3.org/2000/svg">
<path fill-rule="evenodd" clip-rule="evenodd" d="M0.375448 7.2856C0 8.61683 0 10.2446 0 13.5C0 16.7554 0 18.3832 0.375448 19.7144C1.31987 23.0631 3.93694 25.6801 7.2856 26.6246C8.61683 27 10.2446 27 13.5 27C16.7554 27 18.3832 27 19.7144 26.6246C23.0631 25.6801 25.6801 23.0631 26.6246 19.7144C27 18.3832 27 16.7554 27 13.5C27 10.2446 27 8.61683 26.6246 7.2856C25.6801 3.93694 23.0631 1.31987 19.7144 0.375448C18.3832 0 16.7554 0 13.5 0C10.2446 0 8.61683 0 7.2856 0.375448C3.93694 1.31987 1.31987 3.93694 0.375448 7.2856ZM13.1382 17.1566L6.63818 10.3453L7.36162 9.65491L13.4999 16.0872L19.6382 9.65491L20.3616 10.3453L13.8616 17.1566L13.4999 17.5357L13.1382 17.1566Z" fill="#3A33D9"/>
</svg>
